<svg xmlns="http://www.w3.org/2000/svg" xmlns:xlink="http://www.w3.org/1999/xlink" width="190" height="134" viewBox="0 0 190 134">
  <defs>
    <clipPath id="clip-path">
      <rect id="Rect치ngulo_402355" data-name="Rect치ngulo 402355" width="87" height="87" transform="translate(342 951)" fill="#fff" stroke="#707070" stroke-width="1"/>
    </clipPath>
  </defs>
  <g id="Grupo_1102652" data-name="Grupo 1102652" transform="translate(-330 -7019)">
    <rect id="Rect치ngulo_402215" data-name="Rect치ngulo 402215" width="190" height="134" transform="translate(330 7019)" fill="none"/>
    <g id="Grupo_1100287" data-name="Grupo 1100287" transform="translate(16 -507)">
      <g id="Grupo_156312" data-name="Grupo 156312" transform="translate(344 7528)">
        <path id="Elipse_5845" data-name="Elipse 5845" d="M65.5,0A65.5,65.5,0,1,1,0,65.5,65.5,65.5,0,0,1,65.5,0Z" transform="translate(0 0)" fill="#ffce73"/>
      </g>
      <g id="Enmascarar_grupo_1098715" data-name="Enmascarar grupo 1098715" transform="translate(24 6599)" clip-path="url(#clip-path)">
        <path id="Trazado_894984" data-name="Trazado 894984" d="M41,16.858a1.31,1.31,0,0,0,2.235-.927V12.448A29.534,29.534,0,0,1,69.2,30.669a1.307,1.307,0,0,0,.953.784,1.366,1.366,0,0,0,.257.025,1.309,1.309,0,0,0,.925-.383l3.531-3.531a1.308,1.308,0,0,0,.255-1.488A36.8,36.8,0,0,0,43.231,5.161V1.311A1.309,1.309,0,0,0,41,.386L33.688,7.7a1.308,1.308,0,0,0,0,1.85ZM40.615,4.47V6.446a1.309,1.309,0,0,0,1.308,1.308A34.193,34.193,0,0,1,72.351,26.375L70.825,27.9a32.16,32.16,0,0,0-28.9-18.1,1.308,1.308,0,0,0-1.308,1.308v1.662l-4.15-4.15ZM83.449,40.986l-7.313-7.31a1.308,1.308,0,0,0-1.85,0l-7.31,7.31a1.308,1.308,0,0,0,.925,2.233h3.485A29.534,29.534,0,0,1,53.165,69.184a1.308,1.308,0,0,0-.426,2.135l3.531,3.531a1.309,1.309,0,0,0,.925.383,1.292,1.292,0,0,0,.563-.128A36.8,36.8,0,0,0,78.674,43.218h3.851a1.307,1.307,0,0,0,.925-2.231ZM77.387,40.6a1.308,1.308,0,0,0-1.308,1.308A34.193,34.193,0,0,1,57.458,72.339l-1.526-1.526a32.164,32.164,0,0,0,18.1-28.9A1.308,1.308,0,0,0,72.724,40.6H71.062l4.15-4.15,4.153,4.15ZM42.848,66.964a1.308,1.308,0,0,0-2.233.927v3.485A29.534,29.534,0,0,1,14.65,53.155a1.31,1.31,0,0,0-2.136-.426L8.983,56.261a1.308,1.308,0,0,0-.255,1.49A36.818,36.818,0,0,0,40.615,78.668v3.844a1.308,1.308,0,0,0,2.233.925l7.313-7.31a1.308,1.308,0,0,0,0-1.85Zm.383,12.39V77.38a1.309,1.309,0,0,0-1.308-1.308A34.193,34.193,0,0,1,11.5,57.445l1.526-1.526a32.156,32.156,0,0,0,28.9,18.1,1.308,1.308,0,0,0,1.308-1.308V71.049L47.385,75.2ZM9.56,50.149l7.31-7.313a1.308,1.308,0,0,0-.925-2.233H12.46A29.54,29.54,0,0,1,30.681,14.637a1.308,1.308,0,0,0,.426-2.135L27.575,8.971a1.309,1.309,0,0,0-1.49-.255,36.9,36.9,0,0,0-10.167,7.194A36.508,36.508,0,0,0,5.173,40.6H1.322A1.308,1.308,0,0,0,.4,42.836L7.71,50.149a1.308,1.308,0,0,0,1.85,0Zm-5.08-6.93H6.458a1.308,1.308,0,0,0,1.308-1.308,33.937,33.937,0,0,1,10-24.153,34.311,34.311,0,0,1,8.619-6.275l1.526,1.526a32.144,32.144,0,0,0-18.1,28.9,1.308,1.308,0,0,0,1.308,1.308h1.663L8.634,47.373Zm31.2,8.089H56.769A1.31,1.31,0,0,0,58.044,50.3l3.4-14.6a1.307,1.307,0,0,0-1.274-1.6h-5.89a9.971,9.971,0,1,0-17.165,0H32.263l-1.177-5.041a1.308,1.308,0,0,0-1.274-1.012H23.677a1.308,1.308,0,1,0,0,2.616h5.1L31.3,41.484l1.881,8.078a4.014,4.014,0,0,0,2.493,7.159H56.769a1.308,1.308,0,1,0,0-2.616H35.678a1.4,1.4,0,0,1,0-2.8ZM45.7,21.668a7.353,7.353,0,1,1-7.351,7.351A7.362,7.362,0,0,1,45.7,21.668ZM32.875,36.7H39.35a9.951,9.951,0,0,0,12.694,0H58.52L55.729,48.691H35.671L33.86,40.936ZM35.435,61.3a3.478,3.478,0,1,0,3.481-3.481A3.485,3.485,0,0,0,35.435,61.3Zm4.338,0a.86.86,0,1,1-.858-.863A.861.861,0,0,1,39.774,61.3Zm14.531,0a3.481,3.481,0,1,0-3.481,3.481A3.485,3.485,0,0,0,54.3,61.3Zm-3.481.864a.863.863,0,1,1,.863-.863A.864.864,0,0,1,50.824,62.159Zm-8.233-34.9a3.074,3.074,0,0,1,1.8-2.79v-.552a1.308,1.308,0,1,1,2.616,0v.416a3.079,3.079,0,0,1,1.542,1.107,1.308,1.308,0,1,1-2.109,1.549.446.446,0,0,0-.36-.185h-.408a.455.455,0,1,0,0,.91h.2a1.294,1.294,0,0,1,.3.036,3.07,3.07,0,0,1,.833,5.831v.55a1.308,1.308,0,1,1-2.616,0v-.417a3.109,3.109,0,0,1-1.537-1.1,1.309,1.309,0,1,1,2.1-1.563.466.466,0,0,0,.37.192h.408a.458.458,0,0,0,0-.915h-.206a1.269,1.269,0,0,1-.3-.036,3.07,3.07,0,0,1-2.636-3.034Z" transform="translate(343.164 953.18)" fill="#7d3a1b"/>
      </g>
    </g>
  </g>
</svg>
