<svg xmlns="http://www.w3.org/2000/svg" xmlns:xlink="http://www.w3.org/1999/xlink" width="190" height="134" viewBox="0 0 190 134">
  <defs>
    <clipPath id="clip-path">
      <rect id="Rect치ngulo_402355" data-name="Rect치ngulo 402355" width="87" height="87" transform="translate(342 951)" fill="#fff" stroke="#707070" stroke-width="1"/>
    </clipPath>
  </defs>
  <g id="Grupo_1102652" data-name="Grupo 1102652" transform="translate(-330 -7019)">
    <rect id="Rect치ngulo_402215" data-name="Rect치ngulo 402215" width="190" height="134" transform="translate(330 7019)" fill="none"/>
    <g id="Grupo_1100287" data-name="Grupo 1100287" transform="translate(16 -507)">
      <g id="Grupo_156312" data-name="Grupo 156312" transform="translate(344 7528)">
        <path id="Elipse_5845" data-name="Elipse 5845" d="M65.5,0A65.5,65.5,0,1,1,0,65.5,65.5,65.5,0,0,1,65.5,0Z" transform="translate(0 0)" fill="#ffce73"/>
      </g>
      <g id="Enmascarar_grupo_1098715" data-name="Enmascarar grupo 1098715" transform="translate(24 6599)" clip-path="url(#clip-path)">
        <g id="Grupo_1103967" data-name="Grupo 1103967" transform="translate(342.786 953.189)">
          <path id="Trazado_894985" data-name="Trazado 894985" d="M55.647,21.111A3.609,3.609,0,0,0,57.493,18.7l.009-.025a6.958,6.958,0,0,1,13.1.5,3.187,3.187,0,0,0,1.68,1.935,6.129,6.129,0,0,1,3.088,3.314,1.228,1.228,0,0,0,2.291-.883,8.492,8.492,0,0,0-4.336-4.653.726.726,0,0,1-.379-.444,9.429,9.429,0,0,0-13.82-5.277L55.373,8.161a7.507,7.507,0,0,0-6-3,5.122,5.122,0,0,1-4.19-2.216A7.55,7.55,0,0,0,39.218,0H37.547a7.53,7.53,0,0,0-6.061,3.079L13.148,28.19A12.611,12.611,0,0,0,10,32.974a1.126,1.126,0,0,1-.88.716,7.646,7.646,0,0,0-6.28,6.987H2.584A2.467,2.467,0,0,0,.117,43.215c0,.005,0,.01,0,.015h0a41.906,41.906,0,0,0,83.77-.017,2.467,2.467,0,0,0-2.468-2.537H79.783L74.5,33.645a8.588,8.588,0,0,0,2.909-3.4A1.228,1.228,0,0,0,75.2,29.184a6.1,6.1,0,0,1-4.049,3.31,6.342,6.342,0,0,1-4.416-.583,7.286,7.286,0,0,0-6.088.249,6.061,6.061,0,0,1-8.487-5.468,6.08,6.08,0,0,1,3.492-5.581ZM33.468,4.527a5.066,5.066,0,0,1,4.078-2.072h1.671A5.08,5.08,0,0,1,43.23,4.438a7.558,7.558,0,0,0,6.141,3.18,5.059,5.059,0,0,1,2.542.69l-2.2,2.491a2.169,2.169,0,0,1-1.625.733A4.639,4.639,0,0,0,44.7,13l-.768.825a2.175,2.175,0,0,1-1.587.69h-2.32a2.16,2.16,0,0,1-1.675-.791l-2.873-3.5a4.609,4.609,0,0,0-3.572-1.688H30.535ZM9.546,36.109a3.6,3.6,0,0,0,2.76-2.288,10.21,10.21,0,0,1,19.409.75,3.6,3.6,0,0,0,3.61,2.628,5.232,5.232,0,0,1,5.065,3.478H5.3a5.185,5.185,0,0,1,4.242-4.569Zm-5.562,16.4a11.92,11.92,0,0,0,2.081.312c1.246.1,1.581.13,2.13,1.267,2.351,4.865,5.117,6.864,10.06,9.264,2.445,1.187,2.754,3.867,3.112,6.969.255,2.2.517,4.484,1.695,6.233l.025.036A39.149,39.149,0,0,1,3.984,52.512Zm24.046,26.3A28.5,28.5,0,0,1,25.1,75.186c-.844-1.253-1.062-3.143-1.293-5.144-.385-3.337-.822-7.12-4.479-8.9-5.125-2.489-7.042-4.236-8.922-8.124a4.224,4.224,0,0,0-4.14-2.645,7.379,7.379,0,0,1-2.949-.716q-.076-.38-.144-.762a40.343,40.343,0,0,1-.589-5.766h8.349c-.063.6-.156,1.17-.243,1.7-.268,1.634-.522,3.178.451,4.347.753.905,2.022,1.327,4.112,1.368.921.018,1.963-.01,3.067-.04,5.552-.15,12.465-.336,13.929,4.6,1.021,3.439-.067,5.173-1.445,7.367a13.274,13.274,0,0,0-2.517,6.783c-.191,3.687,1.644,6.513,3.119,8.784a18.423,18.423,0,0,1,1.31,2.219,39.27,39.27,0,0,1-4.687-1.446ZM68.02,34.951a8.53,8.53,0,0,0,4.232-.215l4.461,5.942H68.02Zm-5.65-.857a4.836,4.836,0,0,1,3.195,0v6.583H62.369Zm13.32,9.039a4.667,4.667,0,0,1-2.4,3.616c-3.384,1.74-3.984,6.054-4.467,9.52a15.572,15.572,0,0,1-.751,3.615c-2.779,6.064-5.9,9.085-9.031,8.737-2.623-.291-2.815-4.282-2.793-9.469a32.665,32.665,0,0,0-.195-4.806c-.683-4.322-4.063-4.716-7.467-4.749h-.012a1.228,1.228,0,0,0-.011,2.455c3.694.036,4.735.586,5.066,2.677a31.311,31.311,0,0,1,.165,4.413,32.68,32.68,0,0,0,.5,7.244c.684,2.874,2.266,4.717,5.233,4.717,2.949,0,6.994-1.929,10.783-10.2a16.413,16.413,0,0,0,.95-4.3c.426-3.055.908-6.517,3.158-7.675a7.168,7.168,0,0,0,3.751-5.8H81.42a.017.017,0,0,1,.014.007A39.256,39.256,0,0,1,42,81.356a40.351,40.351,0,0,1-6.594-.542A10.4,10.4,0,0,0,33.467,76.7c-1.348-2.076-2.875-4.429-2.726-7.32a10.938,10.938,0,0,1,2.144-5.6c1.432-2.282,3.056-4.868,1.719-9.371-.892-3.006-3.241-4.968-6.98-5.83a38.2,38.2,0,0,0-9.369-.522c-1.074.029-2.089.056-2.953.039-1.764-.035-2.186-.379-2.273-.484-.256-.307-.083-1.36.085-2.378.105-.64.218-1.337.286-2.1H35.189c.389,5.21,1.956,8.483,7.572,8.882a1.228,1.228,0,1,0,.174-2.449c-3.242-.23-4.856-1.257-5.283-6.433H75.69ZM49.7,26.727a8.52,8.52,0,0,0,10.214,8.224v5.727H42.947a7.647,7.647,0,0,0-7.711-5.932,1.145,1.145,0,0,1-1.157-.839,12.705,12.705,0,0,0-12.19-9.229,12.854,12.854,0,0,0-3.493.489L28.742,11h3.166a2.161,2.161,0,0,1,1.675.791l2.873,3.5a4.608,4.608,0,0,0,3.572,1.688h2.32A4.639,4.639,0,0,0,45.731,15.5l.768-.825a2.175,2.175,0,0,1,1.587-.69,4.626,4.626,0,0,0,3.465-1.562l2.137-2.418,3.518,4.686a9.4,9.4,0,0,0-2.06,3.28c-.175.474-.2.755-.542.915a8.541,8.541,0,0,0-4.9,7.839Z" transform="translate(0)" fill="#7d3a1b"/>
        </g>
      </g>
    </g>
  </g>
</svg>
