<svg xmlns="http://www.w3.org/2000/svg" xmlns:xlink="http://www.w3.org/1999/xlink" width="129" height="128" viewBox="0 0 129 128">
  <defs>
    <clipPath id="clip-path">
      <rect id="Rectángulo_400938" data-name="Rectángulo 400938" width="120" height="120" fill="none"/>
    </clipPath>
    <clipPath id="clip-path-2">
      <rect id="Rectángulo_400938-2" data-name="Rectángulo 400938" width="113" height="113" transform="translate(0.211 0.211)" fill="none"/>
    </clipPath>
    <clipPath id="clip-path-3">
      <rect id="Rectángulo_401073" data-name="Rectángulo 401073" width="86.443" height="38.93" fill="#7d3a1b"/>
    </clipPath>
  </defs>
  <g id="Grupo_1104662" data-name="Grupo 1104662" transform="translate(-376 -8811.824)">
    <g id="Grupo_108927" data-name="Grupo 108927" transform="translate(-14 4344.824)">
      <path id="Rectángulo_36179" data-name="Rectángulo 36179" d="M0,0H129V128H0Z" transform="translate(390 4467)" fill="#feebcf"/>
    </g>
    <g id="Grupo_1104504" data-name="Grupo 1104504" transform="translate(118.789 3535.613)">
      <g id="Grupo_1099379" data-name="Grupo 1099379" transform="translate(265 5284)">
        <rect id="Rectángulo_401103" data-name="Rectángulo 401103" width="113" height="113" transform="translate(0.211 0.211)" fill="none"/>
        <g id="Grupo_1099348" data-name="Grupo 1099348">
          <g id="Grupo_1099282" data-name="Grupo 1099282">
            <g id="Grupo_1099281" data-name="Grupo 1099281" clip-path="url(#clip-path-3)">
              <path id="Trazado_873375" data-name="Trazado 873375" d="M70.12,8.532c-3.88,0-5.887-1.9-7.658-3.581C60.723,3.3,59.226,1.882,56.1,1.882S51.467,3.3,49.728,4.95c-1.771,1.679-3.775,3.581-7.658,3.581s-5.886-1.9-7.658-3.581C32.674,3.3,31.177,1.882,28.046,1.882S23.418,3.3,21.682,4.95C19.911,6.629,17.9,8.532,14.024,8.532S8.135,6.629,6.364,4.95C4.628,3.3,3.131,1.882,0,1.882V0C3.88,0,5.887,1.906,7.658,3.581,9.4,5.23,10.893,6.65,14.024,6.65s4.628-1.419,6.364-3.066C22.157,1.906,24.166,0,28.046,0s5.89,1.906,7.658,3.581C37.442,5.23,38.939,6.65,42.07,6.65S46.7,5.23,48.437,3.581C50.205,1.906,52.215,0,56.1,0s5.89,1.906,7.658,3.581C65.491,5.23,66.988,6.65,70.12,6.65s4.628-1.419,6.367-3.069C78.255,1.906,80.261,0,84.144,0V1.882c-3.131,0-4.628,1.422-6.367,3.069C76.006,6.629,74,8.532,70.12,8.532" transform="translate(2.299 30.399)" fill="#7d3a1b"/>
              <path id="Trazado_873376" data-name="Trazado 873376" d="M70.12,8.532c-3.88,0-5.889-1.9-7.658-3.584C60.723,3.3,59.226,1.882,56.1,1.882S51.467,3.3,49.728,4.947c-1.768,1.682-3.775,3.584-7.658,3.584s-5.889-1.9-7.658-3.584C32.674,3.3,31.177,1.882,28.046,1.882S23.418,3.3,21.682,4.947C19.911,6.629,17.9,8.532,14.025,8.532s-5.889-1.9-7.661-3.584C4.628,3.3,3.131,1.882,0,1.882V0C3.88,0,5.889,1.9,7.658,3.581,9.4,5.23,10.893,6.65,14.025,6.65s4.628-1.419,6.364-3.069C22.157,1.9,24.166,0,28.046,0s5.889,1.9,7.661,3.581C37.442,5.23,38.939,6.65,42.071,6.65S46.7,5.23,48.437,3.581C50.206,1.9,52.215,0,56.1,0s5.89,1.9,7.658,3.581C65.491,5.23,66.988,6.65,70.12,6.65s4.628-1.419,6.367-3.069C78.257,1.9,80.264,0,84.147,0V1.882c-3.131,0-4.631,1.422-6.37,3.066C76.006,6.629,74,8.532,70.12,8.532" transform="translate(1.533 20.266)" fill="#7d3a1b"/>
              <path id="Trazado_873377" data-name="Trazado 873377" d="M70.119,8.532c-3.88,0-5.889-1.9-7.658-3.584C60.723,3.3,59.226,1.882,56.1,1.882S51.467,3.3,49.728,4.947C47.96,6.629,45.95,8.532,42.071,8.532s-5.89-1.9-7.658-3.584C32.674,3.3,31.177,1.882,28.046,1.882S23.418,3.3,21.682,4.947C19.911,6.629,17.9,8.532,14.025,8.532s-5.89-1.9-7.661-3.584C4.628,3.3,3.131,1.882,0,1.882V0C3.88,0,5.889,1.9,7.658,3.581,9.393,5.23,10.893,6.65,14.025,6.65s4.628-1.419,6.364-3.069C22.156,1.9,24.166,0,28.046,0s5.89,1.9,7.661,3.581C37.442,5.23,38.939,6.65,42.071,6.65S46.7,5.23,48.437,3.581C50.205,1.9,52.215,0,56.1,0s5.889,1.9,7.658,3.581C65.491,5.23,66.988,6.65,70.119,6.65s4.628-1.419,6.367-3.069C78.257,1.9,80.261,0,84.147,0V1.882c-3.131,0-4.631,1.422-6.37,3.066C76.006,6.629,74,8.532,70.119,8.532" transform="translate(0.766 10.133)" fill="#7d3a1b"/>
              <path id="Trazado_873378" data-name="Trazado 873378" d="M70.12,8.529c-3.88,0-5.887-1.9-7.658-3.581C60.723,3.3,59.226,1.882,56.095,1.882S51.467,3.3,49.731,4.947C47.96,6.626,45.953,8.529,42.07,8.529s-5.887-1.9-7.658-3.581C32.674,3.3,31.177,1.882,28.046,1.882S23.418,3.3,21.682,4.944C19.914,6.626,17.9,8.529,14.024,8.529s-5.89-1.9-7.661-3.581C4.628,3.3,3.131,1.882,0,1.882V0C3.88,0,5.89,1.9,7.658,3.581,9.4,5.228,10.893,6.647,14.024,6.647s4.628-1.419,6.364-3.066C22.159,1.9,24.166,0,28.046,0s5.887,1.9,7.661,3.581c1.736,1.646,3.233,3.066,6.364,3.066S46.7,5.228,48.437,3.581C50.208,1.9,52.215,0,56.095,0s5.887,1.9,7.658,3.581c1.739,1.646,3.236,3.066,6.367,3.066s4.628-1.419,6.367-3.066C78.257,1.9,80.264,0,84.147,0V1.882c-3.134,0-4.631,1.419-6.37,3.066C76.006,6.626,74,8.529,70.12,8.529" transform="translate(0 0.003)" fill="#7d3a1b"/>
            </g>
          </g>
        </g>
        <path id="Trazado_873425" data-name="Trazado 873425" d="M47.337,0A47.337,47.337,0,1,1,0,47.337,47.337,47.337,0,0,1,47.337,0Z" transform="translate(14.061 16.873)" fill="#7d3a1b"/>
        <circle id="Elipse_11503" data-name="Elipse 11503" cx="49.5" cy="49.5" r="49.5" transform="translate(7.211 7.211)" fill="#fff"/>
      </g>
      <g id="Grupo_1099977" data-name="Grupo 1099977" transform="translate(291.307 5307.524)">
        <path id="Trazado_873216" data-name="Trazado 873216" d="M0,0H62.506V62.507H0Z" transform="translate(0 0)" fill="none"/>
        <g id="Grupo_1099977-2" data-name="Grupo 1099977" transform="translate(0.394 3.61)">
          <path id="Trazado_873216-2" data-name="Trazado 873216" d="M62.506,0H0V62.507H62.506Z" transform="translate(0 0)" fill="none"/>
          <path id="Trazado_895121" data-name="Trazado 895121" d="M30.348,55.834a1.1,1.1,0,0,1,1.1-1.1h23.2a1.1,1.1,0,0,1,0,2.2h-23.2A1.1,1.1,0,0,1,30.348,55.834ZM79.4,60.89a4.278,4.278,0,0,1-6.036,0l-1.149-1.149V63.25a3.8,3.8,0,0,1-3.795,3.795H23.149a3.8,3.8,0,0,1-3.795-3.795V9.163a3.8,3.8,0,0,1,3.795-3.795H40.425a5.469,5.469,0,0,1,10.715,0H68.417a3.8,3.8,0,0,1,3.795,3.795V47.669L79.4,54.854a4.273,4.273,0,0,1,0,6.036ZM52.726,49.177A14.959,14.959,0,1,0,37.767,34.219,14.976,14.976,0,0,0,52.726,49.177Zm11.63-2.353,1,1,.976-.976-1-1Q64.863,46.356,64.356,46.824Zm2.135,4.082,2.923-2.923-.555-.555-2.923,2.923ZM68.417,7.569H57.794V9.758h8.928a1.1,1.1,0,0,1,1.1,1.1V26.065a17.136,17.136,0,0,1,0,16.307v2.854l.063.063.2-.2a1.1,1.1,0,0,1,1.557,0l.374.374V9.163a1.6,1.6,0,0,0-1.593-1.593Zm-32.443,4.29H55.592V7.569H50.151a1.1,1.1,0,0,1-1.1-1.1,3.267,3.267,0,0,0-6.534,0,1.1,1.1,0,0,1-1.1,1.1H35.974Zm-1.1,2.2a1.1,1.1,0,0,1-1.1-1.1v-1H25.945V60.453H59.173V55.106a1.1,1.1,0,0,1,1.1-1.1H65.62V53.15l-2.02-2.02a1.1,1.1,0,0,1,0-1.557l.2-.2-1.158-1.158a17.147,17.147,0,0,1-14.973,2.4H31.448a1.1,1.1,0,1,1,0-2.2H43.1A17.3,17.3,0,0,1,38.847,44.3h-7.4a1.1,1.1,0,0,1,0-2.2h6.036a17.038,17.038,0,0,1-1.5-4.116H31.448a1.1,1.1,0,1,1,0-2.2h4.189c-.046-.514-.072-1.035-.072-1.561a17.215,17.215,0,0,1,.19-2.555H31.448a1.1,1.1,0,0,1,0-2.2h4.788a17.075,17.075,0,0,1,1.806-4.116H31.448a1.1,1.1,0,1,1,0-2.2h8.18a17.27,17.27,0,0,1,5.123-4.116h-13.3a1.1,1.1,0,1,1,0-2.2H60.117a1.1,1.1,0,0,1,.423,2.117,17.267,17.267,0,0,1,5.08,3.966V11.959H57.794v1a1.1,1.1,0,0,1-1.1,1.1H34.873Zm26.5,42.147V58.9l2.69-2.69Zm8.636,1.332L67.8,55.328a1.1,1.1,0,0,1-.3.557l-6.448,6.448a1.1,1.1,0,0,1-.778.322H24.845a1.1,1.1,0,0,1-1.1-1.1v-50.7a1.1,1.1,0,0,1,1.1-1.1h8.928V7.569H23.149a1.6,1.6,0,0,0-1.593,1.593V63.25a1.6,1.6,0,0,0,1.593,1.593H68.417A1.6,1.6,0,0,0,70.01,63.25v-5.71Zm7.83-1.129-6.87-6.87-2.923,2.923,6.87,6.87a2.067,2.067,0,0,0,2.923-2.923ZM60.263,32,52.187,40.08a2.579,2.579,0,0,1-3.647,0,2.605,2.605,0,0,1-.27-.317l-3.278-4.125a2.576,2.576,0,1,1,4.033-3.206l1.557,1.959,6.034-6.034A2.579,2.579,0,1,1,60.263,32Zm-1.557-2.091a.378.378,0,0,0-.534,0L51.266,36.82a1.1,1.1,0,0,1-1.64-.093L47.3,33.8a.376.376,0,0,0-.294-.141.37.37,0,0,0-.232.081.375.375,0,0,0-.06.527l3.3,4.148q.021.027.041.055a.381.381,0,0,0,.044.052.378.378,0,0,0,.534,0l8.076-8.076a.378.378,0,0,0,0-.534ZM52.726,47.362A13.143,13.143,0,1,1,65.869,34.219,13.158,13.158,0,0,1,52.726,47.362Zm0-2.2A10.941,10.941,0,1,0,41.784,34.219,10.954,10.954,0,0,0,52.726,45.16Z" transform="translate(-15.844 -3.768)" fill="#7d3a1b"/>
        </g>
      </g>
    </g>
  </g>
</svg>
