<svg xmlns="http://www.w3.org/2000/svg" xmlns:xlink="http://www.w3.org/1999/xlink" width="129" height="128" viewBox="0 0 129 128">
  <defs>
    <clipPath id="clip-path">
      <rect id="Rectángulo_400938" data-name="Rectángulo 400938" width="120" height="120" fill="none"/>
    </clipPath>
    <clipPath id="clip-path-2">
      <rect id="Rectángulo_400938-2" data-name="Rectángulo 400938" width="113" height="113" transform="translate(0.211 0.211)" fill="none"/>
    </clipPath>
    <clipPath id="clip-path-3">
      <rect id="Rectángulo_401073" data-name="Rectángulo 401073" width="86.443" height="38.93" fill="#7d3a1b"/>
    </clipPath>
  </defs>
  <g id="Grupo_1104659" data-name="Grupo 1104659" transform="translate(-376 -8057)">
    <g id="Grupo_108927" data-name="Grupo 108927" transform="translate(-14 3590)">
      <path id="Rectángulo_36179" data-name="Rectángulo 36179" d="M0,0H129V128H0Z" transform="translate(390 4467)" fill="#feebcf"/>
    </g>
    <g id="Grupo_1104484" data-name="Grupo 1104484" transform="translate(118.789 2780.789)">
      <g id="Grupo_1099379" data-name="Grupo 1099379" transform="translate(265 5284)">
        <rect id="Rectángulo_401103" data-name="Rectángulo 401103" width="113" height="113" transform="translate(0.211 0.211)" fill="none"/>
        <g id="Grupo_1099348" data-name="Grupo 1099348">
          <g id="Grupo_1099282" data-name="Grupo 1099282">
            <g id="Grupo_1099281" data-name="Grupo 1099281" clip-path="url(#clip-path-3)">
              <path id="Trazado_873375" data-name="Trazado 873375" d="M70.12,8.532c-3.88,0-5.887-1.9-7.658-3.581C60.723,3.3,59.226,1.882,56.1,1.882S51.467,3.3,49.728,4.95c-1.771,1.679-3.775,3.581-7.658,3.581s-5.886-1.9-7.658-3.581C32.674,3.3,31.177,1.882,28.046,1.882S23.418,3.3,21.682,4.95C19.911,6.629,17.9,8.532,14.024,8.532S8.135,6.629,6.364,4.95C4.628,3.3,3.131,1.882,0,1.882V0C3.88,0,5.887,1.906,7.658,3.581,9.4,5.23,10.893,6.65,14.024,6.65s4.628-1.419,6.364-3.066C22.157,1.906,24.166,0,28.046,0s5.89,1.906,7.658,3.581C37.442,5.23,38.939,6.65,42.07,6.65S46.7,5.23,48.437,3.581C50.205,1.906,52.215,0,56.1,0s5.89,1.906,7.658,3.581C65.491,5.23,66.988,6.65,70.12,6.65s4.628-1.419,6.367-3.069C78.255,1.906,80.261,0,84.144,0V1.882c-3.131,0-4.628,1.422-6.367,3.069C76.006,6.629,74,8.532,70.12,8.532" transform="translate(2.299 30.399)" fill="#7d3a1b"/>
              <path id="Trazado_873376" data-name="Trazado 873376" d="M70.12,8.532c-3.88,0-5.889-1.9-7.658-3.584C60.723,3.3,59.226,1.882,56.1,1.882S51.467,3.3,49.728,4.947c-1.768,1.682-3.775,3.584-7.658,3.584s-5.889-1.9-7.658-3.584C32.674,3.3,31.177,1.882,28.046,1.882S23.418,3.3,21.682,4.947C19.911,6.629,17.9,8.532,14.025,8.532s-5.889-1.9-7.661-3.584C4.628,3.3,3.131,1.882,0,1.882V0C3.88,0,5.889,1.9,7.658,3.581,9.4,5.23,10.893,6.65,14.025,6.65s4.628-1.419,6.364-3.069C22.157,1.9,24.166,0,28.046,0s5.889,1.9,7.661,3.581C37.442,5.23,38.939,6.65,42.071,6.65S46.7,5.23,48.437,3.581C50.206,1.9,52.215,0,56.1,0s5.89,1.9,7.658,3.581C65.491,5.23,66.988,6.65,70.12,6.65s4.628-1.419,6.367-3.069C78.257,1.9,80.264,0,84.147,0V1.882c-3.131,0-4.631,1.422-6.37,3.066C76.006,6.629,74,8.532,70.12,8.532" transform="translate(1.533 20.266)" fill="#7d3a1b"/>
              <path id="Trazado_873377" data-name="Trazado 873377" d="M70.119,8.532c-3.88,0-5.889-1.9-7.658-3.584C60.723,3.3,59.226,1.882,56.1,1.882S51.467,3.3,49.728,4.947C47.96,6.629,45.95,8.532,42.071,8.532s-5.89-1.9-7.658-3.584C32.674,3.3,31.177,1.882,28.046,1.882S23.418,3.3,21.682,4.947C19.911,6.629,17.9,8.532,14.025,8.532s-5.89-1.9-7.661-3.584C4.628,3.3,3.131,1.882,0,1.882V0C3.88,0,5.889,1.9,7.658,3.581,9.393,5.23,10.893,6.65,14.025,6.65s4.628-1.419,6.364-3.069C22.156,1.9,24.166,0,28.046,0s5.89,1.9,7.661,3.581C37.442,5.23,38.939,6.65,42.071,6.65S46.7,5.23,48.437,3.581C50.205,1.9,52.215,0,56.1,0s5.889,1.9,7.658,3.581C65.491,5.23,66.988,6.65,70.119,6.65s4.628-1.419,6.367-3.069C78.257,1.9,80.261,0,84.147,0V1.882c-3.131,0-4.631,1.422-6.37,3.066C76.006,6.629,74,8.532,70.119,8.532" transform="translate(0.766 10.133)" fill="#7d3a1b"/>
              <path id="Trazado_873378" data-name="Trazado 873378" d="M70.12,8.529c-3.88,0-5.887-1.9-7.658-3.581C60.723,3.3,59.226,1.882,56.095,1.882S51.467,3.3,49.731,4.947C47.96,6.626,45.953,8.529,42.07,8.529s-5.887-1.9-7.658-3.581C32.674,3.3,31.177,1.882,28.046,1.882S23.418,3.3,21.682,4.944C19.914,6.626,17.9,8.529,14.024,8.529s-5.89-1.9-7.661-3.581C4.628,3.3,3.131,1.882,0,1.882V0C3.88,0,5.89,1.9,7.658,3.581,9.4,5.228,10.893,6.647,14.024,6.647s4.628-1.419,6.364-3.066C22.159,1.9,24.166,0,28.046,0s5.887,1.9,7.661,3.581c1.736,1.646,3.233,3.066,6.364,3.066S46.7,5.228,48.437,3.581C50.208,1.9,52.215,0,56.095,0s5.887,1.9,7.658,3.581c1.739,1.646,3.236,3.066,6.367,3.066s4.628-1.419,6.367-3.066C78.257,1.9,80.264,0,84.147,0V1.882c-3.134,0-4.631,1.419-6.37,3.066C76.006,6.626,74,8.529,70.12,8.529" transform="translate(0 0.003)" fill="#7d3a1b"/>
            </g>
          </g>
        </g>
        <path id="Trazado_873425" data-name="Trazado 873425" d="M47.337,0A47.337,47.337,0,1,1,0,47.337,47.337,47.337,0,0,1,47.337,0Z" transform="translate(14.061 16.873)" fill="#7d3a1b"/>
        <circle id="Elipse_11503" data-name="Elipse 11503" cx="49.5" cy="49.5" r="49.5" transform="translate(7.211 7.211)" fill="#fff"/>
      </g>
      <g id="Grupo_1099977" data-name="Grupo 1099977" transform="translate(291.693 5310.413)">
        <path id="Trazado_873216" data-name="Trazado 873216" d="M0,0H62.506V62.507H0Z" transform="translate(0 0)" fill="none"/>
        <g id="Grupo_1099977-2" data-name="Grupo 1099977" transform="translate(-2.002 -4.055)">
          <path id="Trazado_873216-2" data-name="Trazado 873216" d="M0,0H62.506V62.507H0Z" transform="translate(0 0)" fill="none"/>
          <g id="Grupo_1104055" data-name="Grupo 1104055" transform="translate(1.52 0.863)">
            <path id="Trazado_895112" data-name="Trazado 895112" d="M52.22,48.14,40.45,52.06H35.57l-1.92-.64,4.24-1.16a3.355,3.355,0,0,0-1.35-6.56l-9.95,1.42a.794.794,0,0,0-.22.06l-4.16,1.64a11.219,11.219,0,0,1-4.13.78H17.01v-.61a2.006,2.006,0,0,0-2-2H6a1,1,0,0,0-1,1v15a1,1,0,0,0,1,1h9a2.006,2.006,0,0,0,2-2v-.57h4.36a11.13,11.13,0,0,1,2.69.33l8.5,2.09a.986.986,0,0,0,.24.03.68.68,0,0,0,.2-.02l8.68-1.74a.88.88,0,0,0,.27-.1l12.52-6.63a2.828,2.828,0,0,0,1.49-2.11,2.883,2.883,0,0,0-.81-2.46,2.842,2.842,0,0,0-2.93-.69ZM15,60H7V47h8Zm38.54-8.37L41.15,58.19l-8.32,1.66-8.29-2.04a13.605,13.605,0,0,0-3.17-.38H17.01V49.61h1.07a13.274,13.274,0,0,0,4.86-.92l4.05-1.59,9.83-1.4a1.356,1.356,0,0,1,.55,2.65l-7.43,2.03a1,1,0,0,0-.06,1.92l5.21,1.74a1.127,1.127,0,0,0,.32.05h5.21a1.185,1.185,0,0,0,.32-.05l11.93-3.97a.864.864,0,0,1,.89.21.826.826,0,0,1,.24.74.863.863,0,0,1-.45.64Z" fill="#7d3a1b"/>
            <path id="Trazado_895113" data-name="Trazado 895113" d="M10,56h2v2H10Z" fill="#7d3a1b"/>
            <path id="Trazado_895114" data-name="Trazado 895114" d="M36,37V27.81h.05c2.05,0,5.32-.38,7.45-2.52,3.25-3.25,2.44-9.09,2.4-9.34a1.008,1.008,0,0,0-.85-.85c-.25-.04-6.09-.84-9.34,2.4a7.108,7.108,0,0,0-.71.85c-2.91-2.6-7.85-1.87-8.06-1.83a1,1,0,0,0-.83.83c-.03.22-.82,5.42,2.05,8.28a8.809,8.809,0,0,0,5.83,2.16v9.2h2Zm1.13-18.07c1.93-1.93,5.33-1.99,6.86-1.91.08,1.53.03,4.92-1.91,6.86a8.074,8.074,0,0,1-5.25,1.9,20.782,20.782,0,0,0,3.83-5.44,20.883,20.883,0,0,0-5.44,3.86,8.11,8.11,0,0,1,1.9-5.27Zm-3.71,3.42a7.583,7.583,0,0,0-2.78-1.3,6.888,6.888,0,0,0,2.56,4.03c0,.24,0,.46.02.66a6.145,6.145,0,0,1-3.63-1.5c-1.6-1.6-1.65-4.45-1.56-5.8,1.56-.09,4.31.07,5.81,1.56a2.028,2.028,0,0,1,.18.23,11.384,11.384,0,0,0-.59,2.14Z" fill="#7d3a1b"/>
            <path id="Trazado_895115" data-name="Trazado 895115" d="M35,2A24,24,0,0,0,19.35,44.19l1.3-1.52a22,22,0,1,1,25.83,2.09l1.04,1.71A24,24,0,0,0,35,1.99Z" fill="#7d3a1b"/>
          </g>
        </g>
      </g>
    </g>
  </g>
</svg>
