<svg xmlns="http://www.w3.org/2000/svg" xmlns:xlink="http://www.w3.org/1999/xlink" width="129" height="128" viewBox="0 0 129 128">
  <defs>
    <clipPath id="clip-path">
      <rect id="Rectángulo_400938" data-name="Rectángulo 400938" width="120" height="120" fill="none"/>
    </clipPath>
    <clipPath id="clip-path-2">
      <rect id="Rectángulo_400938-2" data-name="Rectángulo 400938" width="113" height="113" transform="translate(0.211 0.211)" fill="none"/>
    </clipPath>
    <clipPath id="clip-path-3">
      <rect id="Rectángulo_401073" data-name="Rectángulo 401073" width="86.443" height="38.93" fill="#7d3a1b"/>
    </clipPath>
  </defs>
  <g id="Grupo_1104661" data-name="Grupo 1104661" transform="translate(-376 -8445.824)">
    <g id="Grupo_108927" data-name="Grupo 108927" transform="translate(-14 3978.824)">
      <path id="Rectángulo_36179" data-name="Rectángulo 36179" d="M0,0H129V128H0Z" transform="translate(390 4467)" fill="#feebcf"/>
    </g>
    <g id="Grupo_1104500" data-name="Grupo 1104500" transform="translate(118.789 3169.613)">
      <g id="Grupo_1099379" data-name="Grupo 1099379" transform="translate(265 5284)">
        <rect id="Rectángulo_401103" data-name="Rectángulo 401103" width="113" height="113" transform="translate(0.211 0.211)" fill="none"/>
        <g id="Grupo_1099348" data-name="Grupo 1099348">
          <g id="Grupo_1099282" data-name="Grupo 1099282">
            <g id="Grupo_1099281" data-name="Grupo 1099281" clip-path="url(#clip-path-3)">
              <path id="Trazado_873375" data-name="Trazado 873375" d="M70.12,8.532c-3.88,0-5.887-1.9-7.658-3.581C60.723,3.3,59.226,1.882,56.1,1.882S51.467,3.3,49.728,4.95c-1.771,1.679-3.775,3.581-7.658,3.581s-5.886-1.9-7.658-3.581C32.674,3.3,31.177,1.882,28.046,1.882S23.418,3.3,21.682,4.95C19.911,6.629,17.9,8.532,14.024,8.532S8.135,6.629,6.364,4.95C4.628,3.3,3.131,1.882,0,1.882V0C3.88,0,5.887,1.906,7.658,3.581,9.4,5.23,10.893,6.65,14.024,6.65s4.628-1.419,6.364-3.066C22.157,1.906,24.166,0,28.046,0s5.89,1.906,7.658,3.581C37.442,5.23,38.939,6.65,42.07,6.65S46.7,5.23,48.437,3.581C50.205,1.906,52.215,0,56.1,0s5.89,1.906,7.658,3.581C65.491,5.23,66.988,6.65,70.12,6.65s4.628-1.419,6.367-3.069C78.255,1.906,80.261,0,84.144,0V1.882c-3.131,0-4.628,1.422-6.367,3.069C76.006,6.629,74,8.532,70.12,8.532" transform="translate(2.299 30.399)" fill="#7d3a1b"/>
              <path id="Trazado_873376" data-name="Trazado 873376" d="M70.12,8.532c-3.88,0-5.889-1.9-7.658-3.584C60.723,3.3,59.226,1.882,56.1,1.882S51.467,3.3,49.728,4.947c-1.768,1.682-3.775,3.584-7.658,3.584s-5.889-1.9-7.658-3.584C32.674,3.3,31.177,1.882,28.046,1.882S23.418,3.3,21.682,4.947C19.911,6.629,17.9,8.532,14.025,8.532s-5.889-1.9-7.661-3.584C4.628,3.3,3.131,1.882,0,1.882V0C3.88,0,5.889,1.9,7.658,3.581,9.4,5.23,10.893,6.65,14.025,6.65s4.628-1.419,6.364-3.069C22.157,1.9,24.166,0,28.046,0s5.889,1.9,7.661,3.581C37.442,5.23,38.939,6.65,42.071,6.65S46.7,5.23,48.437,3.581C50.206,1.9,52.215,0,56.1,0s5.89,1.9,7.658,3.581C65.491,5.23,66.988,6.65,70.12,6.65s4.628-1.419,6.367-3.069C78.257,1.9,80.264,0,84.147,0V1.882c-3.131,0-4.631,1.422-6.37,3.066C76.006,6.629,74,8.532,70.12,8.532" transform="translate(1.533 20.266)" fill="#7d3a1b"/>
              <path id="Trazado_873377" data-name="Trazado 873377" d="M70.119,8.532c-3.88,0-5.889-1.9-7.658-3.584C60.723,3.3,59.226,1.882,56.1,1.882S51.467,3.3,49.728,4.947C47.96,6.629,45.95,8.532,42.071,8.532s-5.89-1.9-7.658-3.584C32.674,3.3,31.177,1.882,28.046,1.882S23.418,3.3,21.682,4.947C19.911,6.629,17.9,8.532,14.025,8.532s-5.89-1.9-7.661-3.584C4.628,3.3,3.131,1.882,0,1.882V0C3.88,0,5.889,1.9,7.658,3.581,9.393,5.23,10.893,6.65,14.025,6.65s4.628-1.419,6.364-3.069C22.156,1.9,24.166,0,28.046,0s5.89,1.9,7.661,3.581C37.442,5.23,38.939,6.65,42.071,6.65S46.7,5.23,48.437,3.581C50.205,1.9,52.215,0,56.1,0s5.889,1.9,7.658,3.581C65.491,5.23,66.988,6.65,70.119,6.65s4.628-1.419,6.367-3.069C78.257,1.9,80.261,0,84.147,0V1.882c-3.131,0-4.631,1.422-6.37,3.066C76.006,6.629,74,8.532,70.119,8.532" transform="translate(0.766 10.133)" fill="#7d3a1b"/>
              <path id="Trazado_873378" data-name="Trazado 873378" d="M70.12,8.529c-3.88,0-5.887-1.9-7.658-3.581C60.723,3.3,59.226,1.882,56.095,1.882S51.467,3.3,49.731,4.947C47.96,6.626,45.953,8.529,42.07,8.529s-5.887-1.9-7.658-3.581C32.674,3.3,31.177,1.882,28.046,1.882S23.418,3.3,21.682,4.944C19.914,6.626,17.9,8.529,14.024,8.529s-5.89-1.9-7.661-3.581C4.628,3.3,3.131,1.882,0,1.882V0C3.88,0,5.89,1.9,7.658,3.581,9.4,5.228,10.893,6.647,14.024,6.647s4.628-1.419,6.364-3.066C22.159,1.9,24.166,0,28.046,0s5.887,1.9,7.661,3.581c1.736,1.646,3.233,3.066,6.364,3.066S46.7,5.228,48.437,3.581C50.208,1.9,52.215,0,56.095,0s5.887,1.9,7.658,3.581c1.739,1.646,3.236,3.066,6.367,3.066s4.628-1.419,6.367-3.066C78.257,1.9,80.264,0,84.147,0V1.882c-3.134,0-4.631,1.419-6.37,3.066C76.006,6.626,74,8.529,70.12,8.529" transform="translate(0 0.003)" fill="#7d3a1b"/>
            </g>
          </g>
        </g>
        <path id="Trazado_873425" data-name="Trazado 873425" d="M47.337,0A47.337,47.337,0,1,1,0,47.337,47.337,47.337,0,0,1,47.337,0Z" transform="translate(14.061 16.873)" fill="#7d3a1b"/>
        <circle id="Elipse_11503" data-name="Elipse 11503" cx="49.5" cy="49.5" r="49.5" transform="translate(7.211 7.211)" fill="#fff"/>
      </g>
      <g id="Grupo_1099977" data-name="Grupo 1099977" transform="translate(291.307 5307.524)">
        <path id="Trazado_873216" data-name="Trazado 873216" d="M0,0H62.506V62.507H0Z" transform="translate(0 0)" fill="none"/>
        <g id="Grupo_1099977-2" data-name="Grupo 1099977" transform="translate(1.384 0.039)">
          <path id="Trazado_873216-2" data-name="Trazado 873216" d="M0,0H62.506V62.507H0Z" transform="translate(0 0)" fill="none"/>
          <g id="Grupo_1104056" data-name="Grupo 1104056" transform="translate(-2.654 -1.379)">
            <path id="Trazado_895117" data-name="Trazado 895117" d="M238.58,19.326a.08.08,0,0,1,.026.1,4.646,4.646,0,0,0,3.662,6.343.08.08,0,0,1,.071.071,4.615,4.615,0,0,0,1.72,3l-1.868,6.442A2.359,2.359,0,0,0,243.8,38.2l4.866,1.411A2.364,2.364,0,0,0,251.592,38l.85-2.93.85,2.93a2.363,2.363,0,0,0,2.925,1.61l4.866-1.411a2.359,2.359,0,0,0,1.61-2.925l-1.868-6.442a4.616,4.616,0,0,0,1.72-3,.08.08,0,0,1,.071-.071,4.646,4.646,0,0,0,3.662-6.343.08.08,0,0,1,.026-.1,4.645,4.645,0,0,0,0-7.324.08.08,0,0,1-.026-.1,4.645,4.645,0,0,0-3.662-6.343.08.08,0,0,1-.071-.071A4.646,4.646,0,0,0,256.2,1.829a.08.08,0,0,1-.1-.026,4.645,4.645,0,0,0-7.324,0,.08.08,0,0,1-.1.026,4.645,4.645,0,0,0-6.343,3.662.08.08,0,0,1-.071.071,4.646,4.646,0,0,0-3.662,6.343.08.08,0,0,1-.026.1,4.645,4.645,0,0,0,0,7.324Zm11.257,18.169a.535.535,0,0,1-.661.364l-4.866-1.411a.534.534,0,0,1-.364-.661l1.772-6.111a4.634,4.634,0,0,0,2.964-.176.081.081,0,0,1,.1.026,4.636,4.636,0,0,0,2.531,1.648l.18.619Zm11.1-1.708a.534.534,0,0,1-.364.661l-4.866,1.411a.533.533,0,0,1-.661-.364l-1.812-6.249a4.669,4.669,0,0,0,2.87-1.72.08.08,0,0,1,.1-.026,4.641,4.641,0,0,0,2.964.176ZM239.7,13.442a1.9,1.9,0,0,0,.6-2.221,2.819,2.819,0,0,1,2.222-3.85,1.9,1.9,0,0,0,1.626-1.626A2.819,2.819,0,0,1,248,3.523a1.9,1.9,0,0,0,2.221-.6,2.819,2.819,0,0,1,4.445,0,1.9,1.9,0,0,0,2.221.6,2.819,2.819,0,0,1,3.85,2.222,1.9,1.9,0,0,0,1.626,1.626,2.819,2.819,0,0,1,2.223,3.85,1.9,1.9,0,0,0,.6,2.221,2.819,2.819,0,0,1,0,4.445,1.9,1.9,0,0,0-.595,2.221,2.818,2.818,0,0,1-2.223,3.849,1.9,1.9,0,0,0-1.626,1.626,2.819,2.819,0,0,1-3.85,2.222,1.9,1.9,0,0,0-2.221.6,2.8,2.8,0,0,1-2.533,1.067h0a2.832,2.832,0,0,1-1.911-1.067h0a2.033,2.033,0,0,0-2.524-.492,2.8,2.8,0,0,1-2.127-.255l-.006,0-.03-.016a2.8,2.8,0,0,1-1.382-2.051,1.9,1.9,0,0,0-1.626-1.626,2.818,2.818,0,0,1-2.223-3.849,1.9,1.9,0,0,0-.6-2.221,2.818,2.818,0,0,1,0-4.445Z" transform="translate(-207.952 0)" fill="#7d3a1b"/>
            <path id="Trazado_895118" data-name="Trazado 895118" d="M337.741,108.6l-3.236,3.236-2.009-2.009a.913.913,0,0,0-1.292,1.292l2.655,2.655a.914.914,0,0,0,1.292,0l3.882-3.882a.913.913,0,1,0-1.292-1.292Z" transform="translate(-290.629 -95.123)" fill="#7d3a1b"/>
            <path id="Trazado_895119" data-name="Trazado 895119" d="M61.924,310.92c-1.269-2.649-3.92-3.137-6.6-2.089l-13.972,4.134a4.2,4.2,0,0,0-2.882-3.931c-8.833-3.526-10-4.174-12.406-4.216h-.039c-6.923.023-8.34.079-11.949,1.694-4.878,2.183-5.34,3.639-8.4,4.479l-4.189,1.152A2.029,2.029,0,0,0,0,314.093v13.934a2.024,2.024,0,0,0,2.743,1.892l6-2.276a.914.914,0,0,0-.648-1.708l-6,2.276a.2.2,0,0,1-.267-.184V314.093a.2.2,0,0,1,.145-.19l4.188-1.152c3.408-.937,3.936-2.46,8.659-4.573,3.273-1.465,4.483-1.512,11.188-1.534h0c2.038.032,3.024.591,11.779,4.087a2.529,2.529,0,0,1,1.605,3.215l0,.008c0,.007-.005.013-.007.02a1.867,1.867,0,0,1-2.325,1.34c-2.616-.641-8.85-2.142-8.913-2.157a.913.913,0,1,0-.428,1.776c.063.015,6.293,1.515,8.906,2.156a3.585,3.585,0,0,0,4.323-2.1l14.92-4.414c.416-.123,3.187-1.388,4.4,1.122,1.021,2.346-1.3,3.719-1.836,4L38.59,324.473l-.024.011-.026.013a8.246,8.246,0,0,1-6.333.38l-5.671-2.264a14.607,14.607,0,0,0-9.84.056l-.041.014-4.58,1.739a.914.914,0,1,0,.648,1.708l4.559-1.731a12.968,12.968,0,0,1,8.576-.09l5.691,2.272.041.015a10.1,10.1,0,0,0,7.759-.463L59.2,317.355l.048-.023c1.667-.855,4.109-3.161,2.691-6.386l-.012-.027Z" transform="translate(0 -267.677)" fill="#7d3a1b"/>
            <path id="Trazado_895120" data-name="Trazado 895120" d="M296.5,69.261a9.527,9.527,0,0,0,9.243-7.181.913.913,0,0,0-1.771-.45,7.711,7.711,0,1,1,0-3.813.913.913,0,0,0,1.771-.45A9.538,9.538,0,1,0,296.5,69.261Z" transform="translate(-252.012 -44.059)" fill="#7d3a1b"/>
          </g>
        </g>
      </g>
    </g>
  </g>
</svg>
