<svg xmlns="http://www.w3.org/2000/svg" xmlns:xlink="http://www.w3.org/1999/xlink" width="190" height="134" viewBox="0 0 190 134">
  <defs>
    <clipPath id="clip-path">
      <rect id="Rect치ngulo_402355" data-name="Rect치ngulo 402355" width="87" height="87" transform="translate(342 951)" fill="#fff" stroke="#707070" stroke-width="1"/>
    </clipPath>
  </defs>
  <g id="Grupo_1102652" data-name="Grupo 1102652" transform="translate(-330 -7019)">
    <rect id="Rect치ngulo_402215" data-name="Rect치ngulo 402215" width="190" height="134" transform="translate(330 7019)" fill="none"/>
    <g id="Grupo_1100287" data-name="Grupo 1100287" transform="translate(16 -507)">
      <g id="Grupo_156312" data-name="Grupo 156312" transform="translate(344 7528)">
        <path id="Elipse_5845" data-name="Elipse 5845" d="M65.5,0A65.5,65.5,0,1,1,0,65.5,65.5,65.5,0,0,1,65.5,0Z" transform="translate(0 0)" fill="#ffce73"/>
      </g>
      <g id="Enmascarar_grupo_1098715" data-name="Enmascarar grupo 1098715" transform="translate(24 6599)" clip-path="url(#clip-path)">
        <path id="Trazado_895072" data-name="Trazado 895072" d="M127.812,16.6l-3.494-4.893a2.354,2.354,0,0,0-1.912-.984H104.031v-.35a5.811,5.811,0,1,0-7.183,0V21.582H74.3a2.036,2.036,0,0,0-1.753,3.072l2.465,4.17-2.465,4.17A2.036,2.036,0,0,0,74.3,36.066H85.7a1.143,1.143,0,1,0,0-2.286H74.742l2.317-3.92a2.035,2.035,0,0,0,0-2.072l-2.318-3.92H96.849v3.813H82.9a1.143,1.143,0,0,0,0,2.286H96.849v3.813H90.572a1.143,1.143,0,0,0,0,2.286h6.277V55.046a1.143,1.143,0,0,0,2.286,0V28.827s0,0,0,0V11.472a5.767,5.767,0,0,0,2.611,0V69.525H99.134V59.917a1.143,1.143,0,0,0-2.286,0v9.608H86.421a3.155,3.155,0,0,0-3,2.158l-1.35,4.039H80.035a1.143,1.143,0,1,0,0,2.286h40.978a1.143,1.143,0,0,0,0-2.286H118.8l-1.35-4.039a3.156,3.156,0,0,0-3-2.158H104.031V47.739h13.194a2.354,2.354,0,0,0,1.912-.984l3.494-4.893a2.349,2.349,0,0,0,0-2.73l-3.494-4.893a2.354,2.354,0,0,0-1.912-.984H104.031V25.208h8.05a1.143,1.143,0,1,0,0-2.286h-8.05V13.01h18.375a.063.063,0,0,1,.052.027l3.494,4.893a.063.063,0,0,1,0,.074L122.457,22.9a.063.063,0,0,1-.051.026h-5.454a1.143,1.143,0,1,0,0,2.286h5.454a2.353,2.353,0,0,0,1.912-.984l3.494-4.893a2.349,2.349,0,0,0,0-2.73ZM115.287,72.407l1.108,3.314H84.485l1.108-3.314a.872.872,0,0,1,.828-.6h28.037a.873.873,0,0,1,.828.6ZM100.44,2.286a3.525,3.525,0,0,1,1.025,6.9H99.415a3.525,3.525,0,0,1,1.025-6.9Zm16.785,33.255a.064.064,0,0,1,.052.026l3.494,4.893a.063.063,0,0,1,0,.073l-3.494,4.893a.064.064,0,0,1-.052.027H104.031V35.54h13.194Z" transform="translate(284.41 954.933)" fill="#7d3a1b"/>
      </g>
    </g>
  </g>
</svg>
