<svg xmlns="http://www.w3.org/2000/svg" xmlns:xlink="http://www.w3.org/1999/xlink" width="122" height="121" viewBox="0 0 122 121">
  <defs>
    <clipPath id="clip-path">
      <rect id="Rectángulo_400938" data-name="Rectángulo 400938" width="121" height="121" transform="translate(0 0)" fill="none"/>
    </clipPath>
    <clipPath id="clip-path-2">
      <rect id="Rectángulo_401073" data-name="Rectángulo 401073" width="92.219" height="41.532" fill="#7d3a1b"/>
    </clipPath>
  </defs>
  <g id="Grupo_1103952" data-name="Grupo 1103952" transform="translate(-1477 10429.465)">
    <g id="Grupo_1099865" data-name="Grupo 1099865" transform="translate(1212 -15713.465)">
      <g id="Grupo_1099379" data-name="Grupo 1099379" transform="translate(-122.668 -729)">
        <rect id="Rectángulo_401103" data-name="Rectángulo 401103" width="121" height="121" transform="translate(387.668 6013)" fill="none"/>
        <g id="Grupo_1099348" data-name="Grupo 1099348" transform="translate(387.668 6013)">
          <g id="Grupo_1099282" data-name="Grupo 1099282">
            <g id="Grupo_1099281" data-name="Grupo 1099281" clip-path="url(#clip-path-2)">
              <path id="Trazado_873375" data-name="Trazado 873375" d="M74.8,9.1c-4.139,0-6.28-2.03-8.17-3.821-1.855-1.756-3.452-3.274-6.792-3.274s-4.937,1.517-6.792,3.274C51.161,7.072,49.023,9.1,44.881,9.1s-6.28-2.03-8.169-3.821C34.857,3.525,33.26,2.007,29.92,2.007s-4.937,1.517-6.789,3.274C21.241,7.072,19.1,9.1,14.962,9.1S8.679,7.072,6.789,5.281C4.937,3.525,3.34,2.007,0,2.007V0C4.139,0,6.28,2.033,8.17,3.821c1.855,1.759,3.452,3.274,6.792,3.274S19.9,5.58,21.75,3.824C23.637,2.033,25.781,0,29.92,0s6.283,2.033,8.17,3.821c1.855,1.759,3.452,3.274,6.792,3.274s4.937-1.514,6.792-3.274C53.56,2.033,55.7,0,59.843,0s6.283,2.033,8.17,3.821C69.867,5.58,71.464,7.094,74.8,7.094S79.742,5.58,81.6,3.821C83.483,2.033,85.624,0,89.766,0V2.007c-3.34,0-4.937,1.517-6.792,3.274C81.084,7.072,78.943,9.1,74.8,9.1" transform="translate(2.453 32.43)" fill="#7d3a1b"/>
              <path id="Trazado_873376" data-name="Trazado 873376" d="M74.8,9.1c-4.139,0-6.283-2.03-8.17-3.824-1.855-1.756-3.452-3.27-6.792-3.27s-4.937,1.514-6.792,3.27C51.164,7.072,49.023,9.1,44.881,9.1s-6.283-2.03-8.17-3.824c-1.855-1.756-3.452-3.27-6.792-3.27s-4.937,1.517-6.789,3.27C21.241,7.072,19.1,9.1,14.962,9.1S8.679,7.072,6.789,5.278C4.937,3.522,3.34,2.007,0,2.007V0C4.139,0,6.283,2.03,8.17,3.821c1.855,1.759,3.452,3.274,6.792,3.274S19.9,5.58,21.75,3.821C23.637,2.03,25.781,0,29.92,0S36.2,2.03,38.093,3.821c1.852,1.759,3.449,3.274,6.789,3.274s4.937-1.514,6.792-3.274C53.56,2.03,55.7,0,59.843,0s6.283,2.03,8.17,3.821C69.867,5.58,71.464,7.094,74.8,7.094S79.742,5.58,81.6,3.821C83.486,2.03,85.627,0,89.769,0V2.007c-3.34,0-4.94,1.517-6.8,3.27C81.084,7.072,78.943,9.1,74.8,9.1" transform="translate(1.635 21.62)" fill="#7d3a1b"/>
              <path id="Trazado_873377" data-name="Trazado 873377" d="M74.8,9.1c-4.139,0-6.283-2.03-8.169-3.824-1.855-1.756-3.452-3.27-6.792-3.27s-4.937,1.514-6.792,3.27C51.164,7.072,49.02,9.1,44.881,9.1s-6.283-2.03-8.17-3.824c-1.855-1.756-3.452-3.27-6.792-3.27s-4.937,1.517-6.789,3.27C21.241,7.072,19.1,9.1,14.962,9.1S8.678,7.072,6.789,5.278C4.937,3.522,3.34,2.007,0,2.007V0C4.139,0,6.283,2.03,8.169,3.821c1.851,1.759,3.452,3.274,6.792,3.274S19.9,5.58,21.75,3.821C23.637,2.03,25.781,0,29.92,0S36.2,2.03,38.093,3.821c1.852,1.759,3.449,3.274,6.789,3.274s4.937-1.514,6.792-3.274C53.56,2.03,55.7,0,59.843,0s6.283,2.03,8.17,3.821C69.867,5.58,71.464,7.094,74.8,7.094S79.742,5.58,81.6,3.821C83.486,2.03,85.624,0,89.769,0V2.007c-3.34,0-4.941,1.517-6.8,3.27C81.084,7.072,78.943,9.1,74.8,9.1" transform="translate(0.818 10.81)" fill="#7d3a1b"/>
              <path id="Trazado_873378" data-name="Trazado 873378" d="M74.8,9.1c-4.139,0-6.28-2.03-8.17-3.821-1.855-1.756-3.452-3.27-6.792-3.27s-4.937,1.514-6.789,3.27C51.164,7.069,49.023,9.1,44.881,9.1s-6.28-2.03-8.169-3.821c-1.855-1.756-3.452-3.27-6.792-3.27s-4.937,1.514-6.789,3.267C21.245,7.069,19.1,9.1,14.962,9.1S8.678,7.069,6.789,5.278C4.937,3.522,3.34,2.007,0,2.007V0C4.139,0,6.283,2.03,8.17,3.821c1.855,1.756,3.452,3.27,6.792,3.27S19.9,5.577,21.75,3.821C23.64,2.03,25.781,0,29.92,0s6.28,2.03,8.173,3.821c1.852,1.756,3.449,3.27,6.789,3.27s4.937-1.514,6.792-3.27C53.563,2.03,55.7,0,59.843,0s6.28,2.03,8.17,3.821c1.855,1.756,3.452,3.27,6.792,3.27s4.937-1.514,6.792-3.27C83.486,2.03,85.627,0,89.769,0V2.007c-3.344,0-4.941,1.514-6.8,3.27C81.084,7.069,78.943,9.1,74.8,9.1" transform="translate(0 0.003)" fill="#7d3a1b"/>
            </g>
          </g>
        </g>
        <path id="Trazado_873425" data-name="Trazado 873425" d="M50.5,0A50.5,50.5,0,1,1,0,50.5,50.5,50.5,0,0,1,50.5,0Z" transform="translate(402.668 6031)" fill="#7d3a1b"/>
        <circle id="Elipse_11503" data-name="Elipse 11503" cx="52.5" cy="52.5" r="52.5" transform="translate(395.668 6021)" fill="#fff"/>
      </g>
    </g>
    <g id="Grupo_1099866" data-name="Grupo 1099866" transform="translate(1213 -15713.465)">
      <g id="Grupo_1099379-2" data-name="Grupo 1099379" transform="translate(-122.668 -729)">
        <rect id="Rectángulo_401103-2" data-name="Rectángulo 401103" width="121" height="121" transform="translate(387.668 6013)" fill="none"/>
      </g>
    </g>
    <g id="Grupo_1099868" data-name="Grupo 1099868" transform="translate(1503.941 -10403.661)">
      <rect id="Rectángulo_401104" data-name="Rectángulo 401104" width="68" height="69" transform="translate(0.059 -0.339)" fill="none"/>
    </g>
    <g id="_x34_7_Online_Booking" transform="translate(1491.5 -10415.5)">
      <g id="Online_Booking-Flat" transform="translate(13.5 13.5)">
        <path id="Trazado_895245" data-name="Trazado 895245" d="M188.763,414.526l6.907-2.24,6.907,2.24,2.763,4.835-9.67,2.418L186,419.361Z" transform="translate(-162.17 -357.196)" fill="#b5c3ce"/>
        <path id="Trazado_895246" data-name="Trazado 895246" d="M13.5,123.562h67V88.335A4.835,4.835,0,0,0,75.665,83.5H18.335A4.835,4.835,0,0,0,13.5,88.335Z" transform="translate(-13.5 -73.83)" fill="#00d7df"/>
        <path id="Trazado_895247" data-name="Trazado 895247" d="M13.5,118.036h9.67V83.5H18.335A4.835,4.835,0,0,0,13.5,88.335Z" transform="translate(-13.5 -73.83)" fill="#e2f5f1"/>
        <path id="Trazado_895248" data-name="Trazado 895248" d="M105.83,25.242H48.5V15.918A2.418,2.418,0,0,1,50.918,13.5h52.495a2.418,2.418,0,0,1,2.418,2.418Z" transform="translate(-43.665 -13.5)" fill="#e06999"/>
        <path id="Trazado_895249" data-name="Trazado 895249" d="M102.376,25.242H48.5V15.918A2.418,2.418,0,0,1,50.918,13.5H99.959a2.418,2.418,0,0,1,2.418,2.418Z" transform="translate(-43.665 -13.5)" fill="#fecab2"/>
        <path id="Trazado_895250" data-name="Trazado 895250" d="M48.5,83.5h57.33v40.062H48.5Z" transform="translate(-43.665 -73.83)" fill="#ffb937"/>
        <path id="Trazado_895251" data-name="Trazado 895251" d="M102.376,83.5H48.5v34.536H96.16a6.216,6.216,0,0,0,6.216-6.216Z" transform="translate(-43.665 -73.83)" fill="#ffe7ba"/>
        <path id="Trazado_895252" data-name="Trazado 895252" d="M135.918,468.335h29.01a2.418,2.418,0,0,0,0-4.835h-29.01a2.418,2.418,0,0,0,0,4.835Z" transform="translate(-116.923 -401.335)" fill="#c4d2dc"/>
        <path id="Trazado_895253" data-name="Trazado 895253" d="M133.5,465.918h26.593a2.418,2.418,0,0,0,2.418-2.418H135.918A2.418,2.418,0,0,0,133.5,465.918Z" transform="translate(-116.923 -401.335)" fill="#d8e6eb"/>
        <circle id="Elipse_11553" data-name="Elipse 11553" cx="1.036" cy="1.036" r="1.036" transform="translate(8.634 3.799)" fill="#ff5e95"/>
        <circle id="Elipse_11554" data-name="Elipse 11554" cx="1.036" cy="1.036" r="1.036" transform="translate(13.469 3.799)" fill="#ffe898"/>
        <circle id="Elipse_11555" data-name="Elipse 11555" cx="1.036" cy="1.036" r="1.036" transform="translate(18.304 3.799)" fill="#09614d"/>
        <g id="Grupo_1104138" data-name="Grupo 1104138" transform="translate(11.742 32.119)">
          <path id="Trazado_895254" data-name="Trazado 895254" d="M104.371,246a1.036,1.036,0,0,0-1.036,1.036v3.8h-2.763v-3.8a1.036,1.036,0,1,0-2.072,0v9.67a1.036,1.036,0,1,0,2.072,0v-3.8h2.763v3.8a1.036,1.036,0,1,0,2.072,0v-9.67A1.036,1.036,0,0,0,104.371,246Z" transform="translate(-98.5 -246)" fill="#798b97"/>
          <path id="Trazado_895255" data-name="Trazado 895255" d="M171.954,246a3.458,3.458,0,0,0-3.454,3.454v4.835a3.454,3.454,0,1,0,6.907,0v-4.835A3.458,3.458,0,0,0,171.954,246Zm1.381,8.289a1.381,1.381,0,1,1-2.763,0v-4.835a1.381,1.381,0,1,1,2.763,0Z" transform="translate(-158.83 -246)" fill="#798b97"/>
          <path id="Trazado_895256" data-name="Trazado 895256" d="M244.371,246h-4.835a1.036,1.036,0,1,0,0,2.072h1.381v8.634a1.036,1.036,0,1,0,2.072,0v-8.634h1.381a1.036,1.036,0,1,0,0-2.072Z" transform="translate(-219.16 -246)" fill="#798b97"/>
          <path id="Trazado_895257" data-name="Trazado 895257" d="M313.4,248.072a1.036,1.036,0,0,0,0-2.072h-3.868a1.036,1.036,0,0,0-1.036,1.036v9.67a1.036,1.036,0,0,0,1.036,1.036H313.4a1.036,1.036,0,0,0,0-2.072h-2.832v-2.763h2.487a1.036,1.036,0,1,0,0-2.072h-2.487v-2.763Z" transform="translate(-279.49 -246)" fill="#798b97"/>
          <path id="Trazado_895258" data-name="Trazado 895258" d="M376.266,255.67h-2.694v-8.634a1.036,1.036,0,1,0-2.072,0v9.67a1.036,1.036,0,0,0,1.036,1.036h3.73a1.036,1.036,0,1,0,0-2.072Z" transform="translate(-333.787 -246)" fill="#798b97"/>
        </g>
        <path id="Trazado_895259" data-name="Trazado 895259" d="M202.085,122.626a2.418,2.418,0,0,1,3.419,0l.977.977a1.036,1.036,0,0,0,1.465,0l4.4-4.4a2.418,2.418,0,1,1,3.419,3.419l-5.128,5.128a4.835,4.835,0,0,1-6.838,0l-1.709-1.709A2.417,2.417,0,0,1,202.085,122.626Z" transform="translate(-175.423 -103.994)" fill="#09614d"/>
        <path id="Trazado_895260" data-name="Trazado 895260" d="M13.5,358.5h67v4.835a4.835,4.835,0,0,1-4.835,4.835H18.335a4.835,4.835,0,0,1-4.835-4.835Z" transform="translate(-13.5 -310.84)" fill="#c4d2dc"/>
        <path id="Trazado_895261" data-name="Trazado 895261" d="M13.5,358.5H72.211v1.036a4.835,4.835,0,0,1-4.835,4.835H15.918a2.418,2.418,0,0,1-2.418-2.418Z" transform="translate(-13.5 -310.84)" fill="#d8e6eb"/>
        <path id="Trazado_895262" data-name="Trazado 895262" d="M224.206,388.072h-9.67a1.036,1.036,0,1,1,0-2.072h9.67a1.036,1.036,0,0,1,0,2.072Z" transform="translate(-185.871 -334.541)" fill="#ffb937"/>
      </g>
    </g>
  </g>
</svg>
