<svg xmlns="http://www.w3.org/2000/svg" width="54.193" height="56.306" viewBox="0 0 54.193 56.306">
  <g id="Grupo_1104528" data-name="Grupo 1104528" transform="translate(-4.903 -3.848)">
    <path id="Trazado_895651" data-name="Trazado 895651" d="M19.578,18.5c.623-1.745,2.335-.883,3.483-.014l-.018,5.463a9.1,9.1,0,0,0,.055,1,9.876,9.876,0,0,1-1.013-.3C19.978,23.93,18.692,20.984,19.578,18.5Z" fill="#fecab2"/>
    <path id="Trazado_895652" data-name="Trazado 895652" d="M44.472,18.5c-.623-1.745-2.318-.885-3.466-.017l-.053,5.407a9.848,9.848,0,0,1-.059,1.045,9.715,9.715,0,0,0,1.07-.281C44.072,23.93,45.358,20.984,44.472,18.5Z" fill="#fecab2"/>
    <rect id="Rectángulo_405594" data-name="Rectángulo 405594" width="47.638" height="12.583" rx="2" transform="translate(8.181 26.599)" fill="#7d3a1b"/>
    <path id="Trazado_895653" data-name="Trazado 895653" d="M53.819,26.6h-.284a1.994,1.994,0,0,1,.034.34v8.583a2,2,0,0,1-2,2H8.215a2,2,0,0,0,1.966,1.66H53.819a2,2,0,0,0,2-2V28.6a2,2,0,0,0-2-2Z" fill="#bb765c"/>
    <path id="Trazado_895654" data-name="Trazado 895654" d="M53.819,26.6h-.284a1.994,1.994,0,0,1,.034.34v8.583a2,2,0,0,1-2,2H8.215a2,2,0,0,0,1.966,1.66H53.819a2,2,0,0,0,2-2V28.6a2,2,0,0,0-2-2Z" fill="#bb765c"/>
    <ellipse id="Elipse_11563" data-name="Elipse 11563" cx="2.507" cy="1.662" rx="2.507" ry="1.662" transform="translate(38.551 22.842) rotate(-62.692)" fill="#ffb2ad"/>
    <ellipse id="Elipse_11564" data-name="Elipse 11564" cx="1.662" cy="2.507" rx="1.662" ry="2.507" transform="translate(20.274 19.934) rotate(-27.308)" fill="#ffb2ad"/>
    <path id="Trazado_895655" data-name="Trazado 895655" d="M46.613,39.44,40.033,37.1a10.612,10.612,0,0,1-16.1-.1l-6.568,2.4a8.6,8.6,0,0,0-5.65,8.08V60.151H52.338v-12.6a8.6,8.6,0,0,0-5.725-8.111Z" fill="#ffb937"/>
    <path id="Trazado_895656" data-name="Trazado 895656" d="M21.46,60.151,22.071,37a.484.484,0,0,0-.587-.486l-2.6.564a1.648,1.648,0,0,0-1.3,1.656l.584,21.42Z" fill="#b0c0d2"/>
    <path id="Trazado_895657" data-name="Trazado 895657" d="M45.862,60.151l.584-21.42a1.648,1.648,0,0,0-1.3-1.656l-2.6-.564a.484.484,0,0,0-.587.486l.611,23.154Z" fill="#b0c0d2"/>
    <path id="Trazado_895658" data-name="Trazado 895658" d="M32.025,40.755a10.6,10.6,0,0,0,8.007-3.65A3.2,3.2,0,0,1,37.9,34.086V29.819A12.24,12.24,0,0,1,33.624,32.7a4.4,4.4,0,0,1-1.193.22,5.5,5.5,0,0,1-2-.219,12.236,12.236,0,0,1-4.278-2.887v4.016a3.379,3.379,0,0,1-2.218,3.173,10.606,10.606,0,0,0,8.09,3.747Z" fill="#fecab2"/>
    <path id="Trazado_895659" data-name="Trazado 895659" d="M32.431,32.925a5.5,5.5,0,0,1-2-.219,12.236,12.236,0,0,1-4.278-2.887v2a13.763,13.763,0,0,0,5.079,3.459,7.126,7.126,0,0,0,4.141,0A10.337,10.337,0,0,0,37.9,33.965V29.819A12.24,12.24,0,0,1,33.624,32.7a4.4,4.4,0,0,1-1.193.22Z" fill="#ffa691"/>
    <path id="Trazado_895660" data-name="Trazado 895660" d="M40.99,24.94a8.94,8.94,0,0,1-2.41,5.2,13.5,13.5,0,0,1-4.96,3.57,5.646,5.646,0,0,1-3.19,0,13.5,13.5,0,0,1-4.96-3.57,8.941,8.941,0,0,1-2.41-5.2c-.207-1.04-.083-6.49-.093-6.49-1.33-3.29-2.317-7.27-.187-8.72,0,0-.26-6.19,9.43-5.87,4.26.14,6.4,1.17,8.13,3.63a9.679,9.679,0,0,1,1.5,4.14,14.857,14.857,0,0,1-.8,6.8l.01.03a41.45,41.45,0,0,1-.06,6.48Z" fill="#fecab2"/>
    <path id="Trazado_895661" data-name="Trazado 895661" d="M41.04,18.43a14.857,14.857,0,0,0,.8-6.8,9.679,9.679,0,0,0-1.5-4.14,8.374,8.374,0,0,0-1.686-1.8c.1.133.211.255.311.4a9.679,9.679,0,0,1,1.5,4.14,26.177,26.177,0,0,1-.79,6.83,41.45,41.45,0,0,1-.06,6.48,8.94,8.94,0,0,1-2.41,5.2,13.5,13.5,0,0,1-4.96,3.57,5.646,5.646,0,0,1-3.19,0,11.55,11.55,0,0,1-3.893-2.519c.1.118.2.238.308.351a13.5,13.5,0,0,0,4.96,3.57,5.646,5.646,0,0,0,3.19,0,13.5,13.5,0,0,0,4.96-3.57,8.94,8.94,0,0,0,2.41-5.2,41.45,41.45,0,0,0,.06-6.48Z" fill="#ffb8a6"/>
    <path id="Trazado_895662" data-name="Trazado 895662" d="M52.188,21.428c-1.47-1.5-3.976-4.515-4.089-7.726a5.228,5.228,0,0,1,4.992-5.365,5.144,5.144,0,0,1,5.291,5.141c0,3.3-2.6,6.43-4.1,7.961a1.463,1.463,0,0,1-2.094-.011Z" fill="#ffce73"/>
    <path id="Trazado_895663" data-name="Trazado 895663" d="M55.174,8.715a5.121,5.121,0,0,1,1.614,3.732c0,3.3-2.6,6.43-4.1,7.961a1.441,1.441,0,0,1-1.047.433c.194.213.381.413.552.587a1.463,1.463,0,0,0,2.089.011c1.5-1.531,4.1-4.659,4.1-7.961a5.143,5.143,0,0,0-3.208-4.763Z" fill="#ffb937"/>
    <circle id="Elipse_11565" data-name="Elipse 11565" cx="2.285" cy="2.285" r="2.285" transform="translate(50.954 11.225)" fill="#fff"/>
    <path id="Trazado_895664" data-name="Trazado 895664" d="M23,18.459l1.156-2.275c-.359-4.624,1.268-5.445,2.983-6.228s4.885.709,4.885.709,3.17-1.492,4.885-.709,3.343,1.6,2.983,6.228l1.143,2.249a14.857,14.857,0,0,0,.8-6.8,9.662,9.662,0,0,0-1.5-4.14C38.613,5.026,36.47,4,32.212,3.861c-9.7-.32-9.435,5.868-9.435,5.868-2.137,1.457-1.12,5.458.224,8.759Z" fill="#636363"/>
    <path id="Trazado_895665" data-name="Trazado 895665" d="M8.232,58.151V43.682l10.77,4,13.024-4,13.024,4,10.77-4V58.151a2,2,0,0,1-2,2H10.232a2,2,0,0,1-2-2Z" fill="#727997"/>
    <path id="Trazado_895666" data-name="Trazado 895666" d="M52.169,60.151h1.65a2,2,0,0,0,2-2V43.682l-3.65,1.356Z" fill="#12263f"/>
    <path id="Trazado_895667" data-name="Trazado 895667" d="M31.982,60.151H45.054V47.68l-.005,0-13.023-4-.044.014Z" fill="#12263f"/>
    <path id="Trazado_895668" data-name="Trazado 895668" d="M18.946,47.662,8.232,43.682V58.151a2,2,0,0,0,2,2h8.714Z" fill="#12263f"/>
    <path id="Trazado_895669" data-name="Trazado 895669" d="M49.1,26.6h3.279V39.182H49.1Z" fill="#ffe2b7"/>
    <path id="Trazado_895670" data-name="Trazado 895670" d="M11.654,26.6h3.279V39.182H11.654Z" fill="#ffe2b7"/>
    <path id="Trazado_895671" data-name="Trazado 895671" d="M58.606,56.724H55.731a3.562,3.562,0,0,1,0-7.124h2.875a13.182,13.182,0,0,1,0,7.125Z" fill="#fecab2"/>
    <path id="Trazado_895672" data-name="Trazado 895672" d="M5.394,56.724H8.269a3.562,3.562,0,1,0,0-7.124H5.394a13.182,13.182,0,0,0,0,7.125Z" fill="#fecab2"/>
    <path id="Trazado_895673" data-name="Trazado 895673" d="M58.606,49.6H57.359a13.317,13.317,0,0,1,.085,2.08,3.181,3.181,0,0,1-3.185,3.045h-.167a3.524,3.524,0,0,1-1.735-.469,3.551,3.551,0,0,0,3.373,2.469H58.6a13.181,13.181,0,0,0,0-7.125Z" fill="#ffb8a6"/>
    <path id="Trazado_895674" data-name="Trazado 895674" d="M5.394,49.6H6.641a13.317,13.317,0,0,0-.085,2.08,3.181,3.181,0,0,0,3.185,3.045h.167a3.524,3.524,0,0,0,1.735-.469A3.551,3.551,0,0,1,8.27,56.725H5.394a13.181,13.181,0,0,1,0-7.125Z" fill="#ffb8a6"/>
    <path id="Trazado_895675" data-name="Trazado 895675" d="M23,18.46v.03c-.01-.01-.01-.03-.02-.04C22.99,18.45,22.99,18.46,23,18.46Z" fill="#ffbaa8"/>
    <path id="Trazado_895676" data-name="Trazado 895676" d="M23,18.46v.03c-.01-.01-.01-.03-.02-.04C22.99,18.45,22.99,18.46,23,18.46Z" fill="#ffbaa8"/>
    <path id="Trazado_895677" data-name="Trazado 895677" d="M51.569,37.522H49.1v1.66h3.279V37.35a1.988,1.988,0,0,1-.81.172Z" fill="#ffd9ad"/>
    <path id="Trazado_895678" data-name="Trazado 895678" d="M11.654,37.522h3.279v1.66H11.654Z" fill="#ffd9ad"/>
    <g id="Grupo_1104527" data-name="Grupo 1104527">
      <path id="Trazado_895679" data-name="Trazado 895679" d="M12.251,29.572V33.2a1,1,0,0,0,2,0V29.572a1,1,0,0,0-2,0Z" fill="#fffdfa"/>
      <circle id="Elipse_11566" data-name="Elipse 11566" cx="1.043" cy="1.043" r="1.043" transform="translate(12.251 35.123)" fill="#fffdfa"/>
    </g>
  </g>
</svg>
