<svg xmlns="http://www.w3.org/2000/svg" xmlns:xlink="http://www.w3.org/1999/xlink" width="121" height="121" viewBox="0 0 121 121">
  <defs>
    <clipPath id="clip-path">
      <rect id="Rectángulo_400938" data-name="Rectángulo 400938" width="121" height="121" transform="translate(0 0)" fill="none"/>
    </clipPath>
    <clipPath id="clip-path-2">
      <rect id="Rectángulo_401073" data-name="Rectángulo 401073" width="92.219" height="41.532" fill="#fff"/>
    </clipPath>
  </defs>
  <g id="Grupo_1103944" data-name="Grupo 1103944" transform="translate(-265 -5284)">
    <g id="Grupo_1099379" data-name="Grupo 1099379" transform="translate(-122.668 -729)">
      <rect id="Rectángulo_401103" data-name="Rectángulo 401103" width="121" height="121" transform="translate(387.668 6013)" fill="none"/>
      <g id="Grupo_1099348" data-name="Grupo 1099348" transform="translate(387.668 6013)">
        <g id="Grupo_1099282" data-name="Grupo 1099282">
          <g id="Grupo_1099281" data-name="Grupo 1099281" clip-path="url(#clip-path-2)">
            <path id="Trazado_873375" data-name="Trazado 873375" d="M74.8,9.1c-4.139,0-6.28-2.03-8.17-3.821-1.855-1.756-3.452-3.274-6.792-3.274s-4.937,1.517-6.792,3.274C51.161,7.072,49.023,9.1,44.881,9.1s-6.28-2.03-8.169-3.821C34.857,3.525,33.26,2.007,29.92,2.007s-4.937,1.517-6.789,3.274C21.241,7.072,19.1,9.1,14.962,9.1S8.679,7.072,6.789,5.281C4.937,3.525,3.34,2.007,0,2.007V0C4.139,0,6.28,2.033,8.17,3.821c1.855,1.759,3.452,3.274,6.792,3.274S19.9,5.58,21.75,3.824C23.637,2.033,25.781,0,29.92,0s6.283,2.033,8.17,3.821c1.855,1.759,3.452,3.274,6.792,3.274s4.937-1.514,6.792-3.274C53.56,2.033,55.7,0,59.843,0s6.283,2.033,8.17,3.821C69.867,5.58,71.464,7.094,74.8,7.094S79.742,5.58,81.6,3.821C83.483,2.033,85.624,0,89.766,0V2.007c-3.34,0-4.937,1.517-6.792,3.274C81.084,7.072,78.943,9.1,74.8,9.1" transform="translate(2.453 32.43)" fill="#fff"/>
            <path id="Trazado_873376" data-name="Trazado 873376" d="M74.8,9.1c-4.139,0-6.283-2.03-8.17-3.824-1.855-1.756-3.452-3.27-6.792-3.27s-4.937,1.514-6.792,3.27C51.164,7.072,49.023,9.1,44.881,9.1s-6.283-2.03-8.17-3.824c-1.855-1.756-3.452-3.27-6.792-3.27s-4.937,1.517-6.789,3.27C21.241,7.072,19.1,9.1,14.962,9.1S8.679,7.072,6.789,5.278C4.937,3.522,3.34,2.007,0,2.007V0C4.139,0,6.283,2.03,8.17,3.821c1.855,1.759,3.452,3.274,6.792,3.274S19.9,5.58,21.75,3.821C23.637,2.03,25.781,0,29.92,0S36.2,2.03,38.093,3.821c1.852,1.759,3.449,3.274,6.789,3.274s4.937-1.514,6.792-3.274C53.56,2.03,55.7,0,59.843,0s6.283,2.03,8.17,3.821C69.867,5.58,71.464,7.094,74.8,7.094S79.742,5.58,81.6,3.821C83.486,2.03,85.627,0,89.769,0V2.007c-3.34,0-4.94,1.517-6.8,3.27C81.084,7.072,78.943,9.1,74.8,9.1" transform="translate(1.635 21.62)" fill="#fff"/>
            <path id="Trazado_873377" data-name="Trazado 873377" d="M74.8,9.1c-4.139,0-6.283-2.03-8.169-3.824-1.855-1.756-3.452-3.27-6.792-3.27s-4.937,1.514-6.792,3.27C51.164,7.072,49.02,9.1,44.881,9.1s-6.283-2.03-8.17-3.824c-1.855-1.756-3.452-3.27-6.792-3.27s-4.937,1.517-6.789,3.27C21.241,7.072,19.1,9.1,14.962,9.1S8.678,7.072,6.789,5.278C4.937,3.522,3.34,2.007,0,2.007V0C4.139,0,6.283,2.03,8.169,3.821c1.851,1.759,3.452,3.274,6.792,3.274S19.9,5.58,21.75,3.821C23.637,2.03,25.781,0,29.92,0S36.2,2.03,38.093,3.821c1.852,1.759,3.449,3.274,6.789,3.274s4.937-1.514,6.792-3.274C53.56,2.03,55.7,0,59.843,0s6.283,2.03,8.17,3.821C69.867,5.58,71.464,7.094,74.8,7.094S79.742,5.58,81.6,3.821C83.486,2.03,85.624,0,89.769,0V2.007c-3.34,0-4.941,1.517-6.8,3.27C81.084,7.072,78.943,9.1,74.8,9.1" transform="translate(0.818 10.81)" fill="#fff"/>
            <path id="Trazado_873378" data-name="Trazado 873378" d="M74.8,9.1c-4.139,0-6.28-2.03-8.17-3.821-1.855-1.756-3.452-3.27-6.792-3.27s-4.937,1.514-6.789,3.27C51.164,7.069,49.023,9.1,44.881,9.1s-6.28-2.03-8.169-3.821c-1.855-1.756-3.452-3.27-6.792-3.27s-4.937,1.514-6.789,3.267C21.245,7.069,19.1,9.1,14.962,9.1S8.678,7.069,6.789,5.278C4.937,3.522,3.34,2.007,0,2.007V0C4.139,0,6.283,2.03,8.17,3.821c1.855,1.756,3.452,3.27,6.792,3.27S19.9,5.577,21.75,3.821C23.64,2.03,25.781,0,29.92,0s6.28,2.03,8.173,3.821c1.852,1.756,3.449,3.27,6.789,3.27s4.937-1.514,6.792-3.27C53.563,2.03,55.7,0,59.843,0s6.28,2.03,8.17,3.821c1.855,1.756,3.452,3.27,6.792,3.27s4.937-1.514,6.792-3.27C83.486,2.03,85.627,0,89.769,0V2.007c-3.344,0-4.941,1.514-6.8,3.27C81.084,7.069,78.943,9.1,74.8,9.1" transform="translate(0 0.003)" fill="#fff"/>
          </g>
        </g>
      </g>
      <circle id="Elipse_11504" data-name="Elipse 11504" cx="50.5" cy="50.5" r="50.5" transform="translate(402.668 6031)" fill="#fff"/>
      <circle id="Elipse_11503" data-name="Elipse 11503" cx="52.5" cy="52.5" r="52.5" transform="translate(395.668 6021)" fill="#09614d"/>
    </g>
    <g id="Grupo_1099380" data-name="Grupo 1099380" transform="translate(290.941 5309.804)">
      <rect id="Rectángulo_401104" data-name="Rectángulo 401104" width="68" height="69" transform="translate(0.059 -0.339)" fill="none"/>
      <g id="_x34_7_Online_Booking" transform="translate(-8.336 -3.762)">
        <g id="Online_Booking-Flat" transform="translate(13.5 13.5)">
          <path id="Trazado_895245" data-name="Trazado 895245" d="M188.356,414.2l5.889-1.91,5.889,1.91,2.356,4.122-8.245,2.061L186,418.318Z" transform="translate(-165.683 -365.317)" fill="#b5c3ce"/>
          <path id="Trazado_895246" data-name="Trazado 895246" d="M13.5,117.656H70.623V87.622A4.122,4.122,0,0,0,66.5,83.5H17.622A4.122,4.122,0,0,0,13.5,87.622Z" transform="translate(-13.5 -75.255)" fill="#00d7df"/>
          <path id="Trazado_895247" data-name="Trazado 895247" d="M13.5,112.945h8.245V83.5H17.622A4.122,4.122,0,0,0,13.5,87.622Z" transform="translate(-13.5 -75.255)" fill="#e2f5f1"/>
          <path id="Trazado_895248" data-name="Trazado 895248" d="M97.378,23.511H48.5v-7.95A2.061,2.061,0,0,1,50.561,13.5H95.317a2.061,2.061,0,0,1,2.061,2.061Z" transform="translate(-44.378 -13.5)" fill="#e06999"/>
          <path id="Trazado_895249" data-name="Trazado 895249" d="M94.434,23.511H48.5v-7.95A2.061,2.061,0,0,1,50.561,13.5H92.373a2.061,2.061,0,0,1,2.061,2.061Z" transform="translate(-44.378 -13.5)" fill="#fecab2"/>
          <path id="Trazado_895250" data-name="Trazado 895250" d="M48.5,83.5H97.378v34.156H48.5Z" transform="translate(-44.378 -75.255)" fill="#ffb937"/>
          <path id="Trazado_895251" data-name="Trazado 895251" d="M94.434,83.5H48.5v29.445H89.134a5.3,5.3,0,0,0,5.3-5.3Z" transform="translate(-44.378 -75.255)" fill="#ffe7ba"/>
          <path id="Trazado_895252" data-name="Trazado 895252" d="M135.561,467.622h24.734a2.061,2.061,0,0,0,0-4.122H135.561a2.061,2.061,0,0,0,0,4.122Z" transform="translate(-119.366 -410.499)" fill="#c4d2dc"/>
          <path id="Trazado_895253" data-name="Trazado 895253" d="M133.5,465.561h22.673a2.061,2.061,0,0,0,2.061-2.061H135.561A2.061,2.061,0,0,0,133.5,465.561Z" transform="translate(-119.366 -410.499)" fill="#d8e6eb"/>
          <circle id="Elipse_11553" data-name="Elipse 11553" cx="0.883" cy="0.883" r="0.883" transform="translate(7.361 3.239)" fill="#ff5e95"/>
          <circle id="Elipse_11554" data-name="Elipse 11554" cx="0.883" cy="0.883" r="0.883" transform="translate(11.483 3.239)" fill="#ffe898"/>
          <circle id="Elipse_11555" data-name="Elipse 11555" cx="0.883" cy="0.883" r="0.883" transform="translate(15.606 3.239)" fill="#09614d"/>
          <g id="Grupo_1104138" data-name="Grupo 1104138" transform="translate(10.011 27.384)">
            <path id="Trazado_895254" data-name="Trazado 895254" d="M103.506,246a.883.883,0,0,0-.883.883v3.239h-2.356v-3.239a.883.883,0,1,0-1.767,0v8.245a.883.883,0,1,0,1.767,0v-3.239h2.356v3.239a.883.883,0,1,0,1.767,0v-8.245A.883.883,0,0,0,103.506,246Z" transform="translate(-98.5 -246)" fill="#798b97"/>
            <path id="Trazado_895255" data-name="Trazado 895255" d="M171.444,246a2.948,2.948,0,0,0-2.944,2.944v4.122a2.944,2.944,0,1,0,5.889,0v-4.122A2.948,2.948,0,0,0,171.444,246Zm1.178,7.067a1.178,1.178,0,1,1-2.356,0v-4.122a1.178,1.178,0,1,1,2.356,0Z" transform="translate(-160.255 -246)" fill="#798b97"/>
            <path id="Trazado_895256" data-name="Trazado 895256" d="M243.506,246h-4.122a.883.883,0,1,0,0,1.767h1.178v7.361a.883.883,0,1,0,1.767,0v-7.361h1.178a.883.883,0,1,0,0-1.767Z" transform="translate(-222.011 -246)" fill="#798b97"/>
            <path id="Trazado_895257" data-name="Trazado 895257" d="M312.681,247.767a.883.883,0,0,0,0-1.767h-3.3a.883.883,0,0,0-.883.883v8.245a.883.883,0,0,0,.883.883h3.3a.883.883,0,0,0,0-1.767h-2.414v-2.356h2.12a.883.883,0,1,0,0-1.767h-2.12v-2.356Z" transform="translate(-283.766 -246)" fill="#798b97"/>
            <path id="Trazado_895258" data-name="Trazado 895258" d="M375.563,254.245h-2.3v-7.361a.883.883,0,1,0-1.767,0v8.245a.883.883,0,0,0,.883.883h3.18a.883.883,0,1,0,0-1.767Z" transform="translate(-339.346 -246)" fill="#798b97"/>
          </g>
          <path id="Trazado_895259" data-name="Trazado 895259" d="M201.981,122.018a2.061,2.061,0,0,1,2.915,0l.833.833a.883.883,0,0,0,1.249,0l3.748-3.748a2.061,2.061,0,0,1,2.915,2.915l-4.372,4.372a4.122,4.122,0,0,1-5.83,0l-1.457-1.457A2.061,2.061,0,0,1,201.981,122.018Z" transform="translate(-179.249 -106.133)" fill="#09614d"/>
          <path id="Trazado_895260" data-name="Trazado 895260" d="M13.5,358.5H70.623v4.122a4.122,4.122,0,0,1-4.122,4.122H17.622a4.122,4.122,0,0,1-4.122-4.122Z" transform="translate(-13.5 -317.866)" fill="#c4d2dc"/>
          <path id="Trazado_895261" data-name="Trazado 895261" d="M13.5,358.5H63.556v.883a4.122,4.122,0,0,1-4.122,4.122H15.561a2.061,2.061,0,0,1-2.061-2.061Z" transform="translate(-13.5 -317.866)" fill="#d8e6eb"/>
          <path id="Trazado_895262" data-name="Trazado 895262" d="M222.628,387.767h-8.245a.883.883,0,1,1,0-1.767h8.245a.883.883,0,0,1,0,1.767Z" transform="translate(-189.944 -342.127)" fill="#ffb937"/>
        </g>
      </g>
    </g>
  </g>
</svg>
