<svg xmlns="http://www.w3.org/2000/svg" xmlns:xlink="http://www.w3.org/1999/xlink" width="122" height="121" viewBox="0 0 122 121">
  <defs>
    <clipPath id="clip-path">
      <rect id="Rectángulo_400938" data-name="Rectángulo 400938" width="121" height="121" transform="translate(0 0)" fill="none"/>
    </clipPath>
    <clipPath id="clip-path-2">
      <rect id="Rectángulo_401073" data-name="Rectángulo 401073" width="92.219" height="41.532" fill="#7d3a1b"/>
    </clipPath>
  </defs>
  <g id="Grupo_1103954" data-name="Grupo 1103954" transform="translate(-1803 10429.465)">
    <g id="Grupo_1099862" data-name="Grupo 1099862" transform="translate(1538 -15713.465)">
      <g id="Grupo_1099379" data-name="Grupo 1099379" transform="translate(-122.668 -729)">
        <rect id="Rectángulo_401103" data-name="Rectángulo 401103" width="121" height="121" transform="translate(387.668 6013)" fill="none"/>
        <g id="Grupo_1099348" data-name="Grupo 1099348" transform="translate(387.668 6013)">
          <g id="Grupo_1099282" data-name="Grupo 1099282">
            <g id="Grupo_1099281" data-name="Grupo 1099281" clip-path="url(#clip-path-2)">
              <path id="Trazado_873375" data-name="Trazado 873375" d="M74.8,9.1c-4.139,0-6.28-2.03-8.17-3.821-1.855-1.756-3.452-3.274-6.792-3.274s-4.937,1.517-6.792,3.274C51.161,7.072,49.023,9.1,44.881,9.1s-6.28-2.03-8.169-3.821C34.857,3.525,33.26,2.007,29.92,2.007s-4.937,1.517-6.789,3.274C21.241,7.072,19.1,9.1,14.962,9.1S8.679,7.072,6.789,5.281C4.937,3.525,3.34,2.007,0,2.007V0C4.139,0,6.28,2.033,8.17,3.821c1.855,1.759,3.452,3.274,6.792,3.274S19.9,5.58,21.75,3.824C23.637,2.033,25.781,0,29.92,0s6.283,2.033,8.17,3.821c1.855,1.759,3.452,3.274,6.792,3.274s4.937-1.514,6.792-3.274C53.56,2.033,55.7,0,59.843,0s6.283,2.033,8.17,3.821C69.867,5.58,71.464,7.094,74.8,7.094S79.742,5.58,81.6,3.821C83.483,2.033,85.624,0,89.766,0V2.007c-3.34,0-4.937,1.517-6.792,3.274C81.084,7.072,78.943,9.1,74.8,9.1" transform="translate(2.453 32.43)" fill="#7d3a1b"/>
              <path id="Trazado_873376" data-name="Trazado 873376" d="M74.8,9.1c-4.139,0-6.283-2.03-8.17-3.824-1.855-1.756-3.452-3.27-6.792-3.27s-4.937,1.514-6.792,3.27C51.164,7.072,49.023,9.1,44.881,9.1s-6.283-2.03-8.17-3.824c-1.855-1.756-3.452-3.27-6.792-3.27s-4.937,1.517-6.789,3.27C21.241,7.072,19.1,9.1,14.962,9.1S8.679,7.072,6.789,5.278C4.937,3.522,3.34,2.007,0,2.007V0C4.139,0,6.283,2.03,8.17,3.821c1.855,1.759,3.452,3.274,6.792,3.274S19.9,5.58,21.75,3.821C23.637,2.03,25.781,0,29.92,0S36.2,2.03,38.093,3.821c1.852,1.759,3.449,3.274,6.789,3.274s4.937-1.514,6.792-3.274C53.56,2.03,55.7,0,59.843,0s6.283,2.03,8.17,3.821C69.867,5.58,71.464,7.094,74.8,7.094S79.742,5.58,81.6,3.821C83.486,2.03,85.627,0,89.769,0V2.007c-3.34,0-4.94,1.517-6.8,3.27C81.084,7.072,78.943,9.1,74.8,9.1" transform="translate(1.635 21.62)" fill="#7d3a1b"/>
              <path id="Trazado_873377" data-name="Trazado 873377" d="M74.8,9.1c-4.139,0-6.283-2.03-8.169-3.824-1.855-1.756-3.452-3.27-6.792-3.27s-4.937,1.514-6.792,3.27C51.164,7.072,49.02,9.1,44.881,9.1s-6.283-2.03-8.17-3.824c-1.855-1.756-3.452-3.27-6.792-3.27s-4.937,1.517-6.789,3.27C21.241,7.072,19.1,9.1,14.962,9.1S8.678,7.072,6.789,5.278C4.937,3.522,3.34,2.007,0,2.007V0C4.139,0,6.283,2.03,8.169,3.821c1.851,1.759,3.452,3.274,6.792,3.274S19.9,5.58,21.75,3.821C23.637,2.03,25.781,0,29.92,0S36.2,2.03,38.093,3.821c1.852,1.759,3.449,3.274,6.789,3.274s4.937-1.514,6.792-3.274C53.56,2.03,55.7,0,59.843,0s6.283,2.03,8.17,3.821C69.867,5.58,71.464,7.094,74.8,7.094S79.742,5.58,81.6,3.821C83.486,2.03,85.624,0,89.769,0V2.007c-3.34,0-4.941,1.517-6.8,3.27C81.084,7.072,78.943,9.1,74.8,9.1" transform="translate(0.818 10.81)" fill="#7d3a1b"/>
              <path id="Trazado_873378" data-name="Trazado 873378" d="M74.8,9.1c-4.139,0-6.28-2.03-8.17-3.821-1.855-1.756-3.452-3.27-6.792-3.27s-4.937,1.514-6.789,3.27C51.164,7.069,49.023,9.1,44.881,9.1s-6.28-2.03-8.169-3.821c-1.855-1.756-3.452-3.27-6.792-3.27s-4.937,1.514-6.789,3.267C21.245,7.069,19.1,9.1,14.962,9.1S8.678,7.069,6.789,5.278C4.937,3.522,3.34,2.007,0,2.007V0C4.139,0,6.283,2.03,8.17,3.821c1.855,1.756,3.452,3.27,6.792,3.27S19.9,5.577,21.75,3.821C23.64,2.03,25.781,0,29.92,0s6.28,2.03,8.173,3.821c1.852,1.756,3.449,3.27,6.789,3.27s4.937-1.514,6.792-3.27C53.563,2.03,55.7,0,59.843,0s6.28,2.03,8.17,3.821c1.855,1.756,3.452,3.27,6.792,3.27s4.937-1.514,6.792-3.27C83.486,2.03,85.627,0,89.769,0V2.007c-3.344,0-4.941,1.514-6.8,3.27C81.084,7.069,78.943,9.1,74.8,9.1" transform="translate(0 0.003)" fill="#7d3a1b"/>
            </g>
          </g>
        </g>
        <path id="Trazado_873425" data-name="Trazado 873425" d="M50.5,0A50.5,50.5,0,1,1,0,50.5,50.5,50.5,0,0,1,50.5,0Z" transform="translate(402.668 6031)" fill="#7d3a1b"/>
        <circle id="Elipse_11503" data-name="Elipse 11503" cx="52.5" cy="52.5" r="52.5" transform="translate(395.668 6021)" fill="#fff"/>
      </g>
    </g>
    <g id="Grupo_1099863" data-name="Grupo 1099863" transform="translate(1539 -15713.465)">
      <g id="Grupo_1099379-2" data-name="Grupo 1099379" transform="translate(-122.668 -729)">
        <rect id="Rectángulo_401103-2" data-name="Rectángulo 401103" width="121" height="121" transform="translate(387.668 6013)" fill="none"/>
      </g>
    </g>
    <g id="Grupo_1099867" data-name="Grupo 1099867" transform="translate(1829.941 -10403.661)">
      <rect id="Rectángulo_401104" data-name="Rectángulo 401104" width="68" height="69" transform="translate(0.059 -0.339)" fill="none"/>
      <g id="Grupo_1104531" data-name="Grupo 1104531" transform="translate(-7.678 -5.22)">
        <path id="Trazado_895680" data-name="Trazado 895680" d="M16.8,192.052l.428-11.138c.1-2.48-3.763-2.829-4.155-.374l-2.027,12.731a7.46,7.46,0,0,0,2.074,6.681l9.724,9.724a3.986,3.986,0,0,1,1.19,3.178l-.121,1.735H37.7l-.1-7.91a7.015,7.015,0,0,0-2.1-5.067l-2.865-2.865a6.848,6.848,0,0,0-3.21-1.853l-1.386-.371L21.7,190.178a2.88,2.88,0,0,0-4.9,1.874Z" transform="translate(0 -147.646)" fill="#efb499" fill-rule="evenodd"/>
        <path id="Trazado_895681" data-name="Trazado 895681" d="M27.011,192.061l.428-11.138a1.989,1.989,0,0,0-2.181-2.045,1.945,1.945,0,0,0-.506,1.058l-2.027,12.731a7.467,7.467,0,0,0,2.07,6.681l9.724,9.724a4.2,4.2,0,0,1,1.19,3.178L35.68,214.6H47.911l-.1-7.91a7.015,7.015,0,0,0-2.1-5.067l-2.865-2.865a6.848,6.848,0,0,0-3.21-1.853l-1.386-.371-6.342-6.346a2.88,2.88,0,0,0-4.9,1.874Z" transform="translate(-10.211 -147.655)" fill="#fecab2" fill-rule="evenodd"/>
        <path id="Trazado_895682" data-name="Trazado 895682" d="M47.111,261.116l.125-3.257A4.4,4.4,0,0,0,46.8,264.3l6.018,6.022a.756.756,0,1,0,1.069-1.069l-5.947-5.947a2.852,2.852,0,0,1-.83-2.191l.021-.253c-.011.082-.021.167-.025.253Z" transform="translate(-30.311 -216.709)" fill="#efb499" fill-rule="evenodd"/>
        <path id="Trazado_895683" data-name="Trazado 895683" d="M103.167,463.815h13.971a1.486,1.486,0,0,0,1.482-1.482V459.8a1.485,1.485,0,0,0-1.482-1.479H103.167a1.484,1.484,0,0,0-1.479,1.479v2.53A1.485,1.485,0,0,0,103.167,463.815Z" transform="translate(-79.348 -391.976)" fill="#1b6fab" fill-rule="evenodd"/>
        <path id="Trazado_895684" data-name="Trazado 895684" d="M126.094,463.815h12.382a1.486,1.486,0,0,0,1.482-1.482V459.8a1.485,1.485,0,0,0-1.482-1.479H126.162l-.068,5.491Z" transform="translate(-100.686 -391.976)" fill="#3589c9" fill-rule="evenodd"/>
        <path id="Trazado_895685" data-name="Trazado 895685" d="M127.415,47.161a19.916,19.916,0,1,1,7.286-27.2,19.915,19.915,0,0,1-7.286,27.2Z" transform="translate(-75.718 0)" fill="#00ade6" fill-rule="evenodd"/>
        <path id="Trazado_895686" data-name="Trazado 895686" d="M148.927,47.585a19.827,19.827,0,0,1-8.391,2.612,19.92,19.92,0,0,1-.043-39.717,19.918,19.918,0,0,1,8.434,37.106Z" transform="translate(-97.231 -0.424)" fill="#11bef7" fill-rule="evenodd"/>
        <path id="Trazado_895687" data-name="Trazado 895687" d="M199.16,10.021a19.913,19.913,0,0,1,18.182,9.941,19.3,19.3,0,0,1,1.13,2.277c.5,2.747-1.286,5.1-4.147.143-1.222-2.12-2.466-3.228-3.827-.114-1.814,4.155-.955,4.386-6.752,5.826-1.821.453-2.145-.7-2.426-2.263-.926-5.181-1.276-5.223-4.839-4.383-4.682,1.1-5.747-4.732-2.708-5.448,9.784-2.295,3.314-2.826,5.387-5.979Z" transform="translate(-158.36 -0.005)" fill="#0f9347" fill-rule="evenodd"/>
        <path id="Trazado_895688" data-name="Trazado 895688" d="M201.623,10.479a19.888,19.888,0,0,1,15.72,9.9,19.3,19.3,0,0,1,1.13,2.277c.5,2.747-1.286,5.1-4.147.143-1.222-2.12-2.466-3.228-3.827-.114-1.814,4.155-.955,4.386-6.752,5.826-1.821.453-2.145-.7-2.426-2.263-.926-5.181-1.276-5.223-4.839-4.383-4.682,1.1-5.747-4.732-2.708-5.448,9.31-2.184,3.9-2.772,5.141-5.537a20.107,20.107,0,0,1,2.708-.4Z" transform="translate(-158.36 -0.424)" fill="#3cb54b" fill-rule="evenodd"/>
        <path id="Trazado_895689" data-name="Trazado 895689" d="M100.789,81.742c1.308,1.194,7.657,7.219,5.989,9.111l4.1,7.443a19.566,19.566,0,0,1,1.265,4.165c.62,2.241,1.208,4.3,2.088,5.252,1.247,1.354-1.308,1.988-2.2,4.09a19.918,19.918,0,0,1-11.241-30.061Z" transform="translate(-75.723 -62.729)" fill="#0f9347" fill-rule="evenodd"/>
        <path id="Trazado_895690" data-name="Trazado 895690" d="M124.283,97.077c2.238,2.3,5.209,5.818,4,7.183l4.1,7.443a19.566,19.566,0,0,1,1.265,4.165c.62,2.241,1.208,4.3,2.088,5.252,1.048,1.133-.581,1.764-1.66,3.178a19.917,19.917,0,0,1-9.8-27.222Z" transform="translate(-97.232 -76.137)" fill="#3cb54b" fill-rule="evenodd"/>
        <path id="Trazado_895691" data-name="Trazado 895691" d="M307.512,185.326c-4.443,2.565-4.586-4.254-3.239-7.732,1.151-2.972,4.162-2.665,5.5-2.409,3.228.62,3.6-4.244,4.4-5.9.734-1.514,1.935-1.646,3.274-.481a19.9,19.9,0,0,1-9.944,16.525Z" transform="translate(-255.816 -138.165)" fill="#3cb54b" fill-rule="evenodd"/>
        <path id="Trazado_895692" data-name="Trazado 895692" d="M309.022,192.052l-.431-11.138c-.1-2.48,3.766-2.829,4.158-.374l2.027,12.731a7.479,7.479,0,0,1-2.074,6.681l-9.724,9.724a3.962,3.962,0,0,0-1.19,3.178l.121,1.735H288.121l.1-7.91a7,7,0,0,1,2.1-5.067l2.861-2.865a6.842,6.842,0,0,1,3.214-1.853l1.386-.371,6.342-6.346a2.88,2.88,0,0,1,4.9,1.874Z" transform="translate(-242.347 -147.646)" fill="#efb499" fill-rule="evenodd"/>
        <path id="Trazado_895693" data-name="Trazado 895693" d="M309.024,192.061l-.431-11.138a1.989,1.989,0,0,1,2.181-2.045,1.947,1.947,0,0,1,.509,1.058l2.027,12.731a7.467,7.467,0,0,1-2.07,6.681l-9.727,9.724a4.2,4.2,0,0,0-1.186,3.178l.029,2.348H288.123l.1-7.91a7,7,0,0,1,2.1-5.067l2.861-2.865a6.842,6.842,0,0,1,3.214-1.853l1.386-.371,6.342-6.346a2.88,2.88,0,0,1,4.9,1.874Z" transform="translate(-242.349 -147.655)" fill="#fecab2" fill-rule="evenodd"/>
        <path id="Trazado_895694" data-name="Trazado 895694" d="M405.7,261.116l-.128-3.257A4.4,4.4,0,0,1,406,264.3h0l-6.022,6.022a.755.755,0,1,1-1.065-1.069l5.947-5.947a2.878,2.878,0,0,0,.83-2.191l-.021-.253c.011.082.018.167.025.253Z" transform="translate(-339.021 -216.709)" fill="#efb499" fill-rule="evenodd"/>
        <path id="Trazado_895695" data-name="Trazado 895695" d="M291.071,463.815H277.1a1.485,1.485,0,0,1-1.479-1.482V459.8a1.484,1.484,0,0,1,1.479-1.479h13.971a1.485,1.485,0,0,1,1.482,1.479v2.53A1.486,1.486,0,0,1,291.071,463.815Z" transform="translate(-231.419 -391.976)" fill="#1b6fab" fill-rule="evenodd"/>
        <path id="Trazado_895696" data-name="Trazado 895696" d="M289.486,463.815H277.1a1.485,1.485,0,0,1-1.479-1.482V459.8a1.484,1.484,0,0,1,1.479-1.479h12.318l.068,5.491Z" transform="translate(-231.419 -391.976)" fill="#3589c9" fill-rule="evenodd"/>
        <path id="Trazado_895697" data-name="Trazado 895697" d="M177.1,100.892a11.347,11.347,0,1,0-11.345-11.345A11.368,11.368,0,0,0,177.1,100.892Z" transform="translate(-135.358 -59.632)" fill="#cad1d8" fill-rule="evenodd"/>
        <path id="Trazado_895698" data-name="Trazado 895698" d="M196.754,78.822a11.345,11.345,0,0,1,0,22.536,11.345,11.345,0,0,1,0-22.536Z" transform="translate(-153.699 -60.176)" fill="#e2e5e7" fill-rule="evenodd"/>
        <path id="Trazado_895699" data-name="Trazado 895699" d="M200.853,188.1c-1.308-6.809-16.283-6.941-18.122-.4a11.344,11.344,0,0,0,18.122.4Z" transform="translate(-150.204 -151.167)" fill="#ffce73" fill-rule="evenodd"/>
        <path id="Trazado_895700" data-name="Trazado 895700" d="M219.118,188.611c-.588-3.061-3.941-4.771-7.618-5.134a9.988,9.988,0,0,0-6.41,2.744,7.17,7.17,0,0,0-1.468,4.611,11.344,11.344,0,0,0,15.5-2.22Z" transform="translate(-168.469 -151.677)" fill="#ffb937" fill-rule="evenodd"/>
        <path id="Trazado_895701" data-name="Trazado 895701" d="M220.618,110.825a4.864,4.864,0,1,0,4.86,4.864A4.863,4.863,0,0,0,220.618,110.825Z" transform="translate(-179.076 -88.157)" fill="#efb499" fill-rule="evenodd"/>
        <path id="Trazado_895702" data-name="Trazado 895702" d="M236.317,121.256a4.863,4.863,0,1,0-3.809-4.75A4.867,4.867,0,0,0,236.317,121.256Z" transform="translate(-193.724 -88.975)" fill="#fecab2" fill-rule="evenodd"/>
      </g>
    </g>
  </g>
</svg>
