<svg xmlns="http://www.w3.org/2000/svg" xmlns:xlink="http://www.w3.org/1999/xlink" width="295" height="314.596" viewBox="0 0 295 314.596">
  <defs>
    <clipPath id="clip-path">
      <rect id="Rectángulo_405462" data-name="Rectángulo 405462" width="219.76" height="48.66" fill="none"/>
    </clipPath>
    <clipPath id="clip-path-2">
      <rect id="Rectángulo_405459" data-name="Rectángulo 405459" width="195.23" height="298.749" fill="none"/>
    </clipPath>
    <clipPath id="clip-path-3">
      <path id="Trazado_895368" data-name="Trazado 895368" d="M48.982,40.076a15.789,15.789,0,0,0-15.867,15.6l-.94,78.775a19.859,19.859,0,0,0,21.11,20.056l81.416-5.149L133.024,41.448a23.509,23.509,0,0,0-23.26-23.143L72.7,17.92l-.249,0A23.508,23.508,0,0,0,48.982,40.076" transform="translate(-32.173 -17.918)" fill="none"/>
    </clipPath>
  </defs>
  <g id="Grupo_1104209" data-name="Grupo 1104209" transform="translate(-166.741 -972)">
    <g id="Grupo_1104181" data-name="Grupo 1104181" transform="translate(210.877 972)">
      <g id="Grupo_1104180" data-name="Grupo 1104180" transform="translate(0 0)" clip-path="url(#clip-path)">
        <path id="Trazado_895409" data-name="Trazado 895409" d="M0,8.851H56.877S52.786-1.6,43.924.21C36.62,1.7,32.474,11.453,21.589,4.782,7.933-3.588,0,8.851,0,8.851" transform="translate(0 0)" fill="#dcd9ff"/>
        <path id="Trazado_895410" data-name="Trazado 895410" d="M229.438,48.215c-4.847,1.072-5.556,5.458-11.943-.943-3.548-3.557-9.08-5.776-12.928-4.587-7.081,2.188-8.651,13.181-19.482,7.054s-14.675,3.011-14.675,3.011h65.8s-1.626-5.675-6.776-4.535" transform="translate(-16.454 -4.091)" fill="#dcd9ff"/>
      </g>
    </g>
    <circle id="Elipse_11558" data-name="Elipse 11558" cx="111.124" cy="111.124" r="111.124" transform="translate(179.777 985.552)" fill="#ffe7ba"/>
    <g id="Grupo_1104179" data-name="Grupo 1104179" transform="translate(223.143 983.824)">
      <g id="Grupo_1104174" data-name="Grupo 1104174">
        <g id="Grupo_1104173" data-name="Grupo 1104173" clip-path="url(#clip-path-2)">
          <path id="Trazado_895359" data-name="Trazado 895359" d="M109.786,18.313l-37.067-.387A23.508,23.508,0,0,0,49,40.083a15.786,15.786,0,0,0-15.867,15.6l-.94,78.776a19.859,19.859,0,0,0,21.11,20.056l81.416-5.149L133.046,41.454a23.508,23.508,0,0,0-23.26-23.142" transform="translate(-3.109 -1.731)" fill="#ffb937"/>
          <path id="Trazado_895360" data-name="Trazado 895360" d="M32.3,84.01h0a5.936,5.936,0,0,0-5.936,5.936v9.5H38.239v-9.5A5.936,5.936,0,0,0,32.3,84.01" transform="translate(-2.546 -8.112)" fill="#fff"/>
          <rect id="Rectángulo_405457" data-name="Rectángulo 405457" width="5.987" height="5.076" transform="translate(26.802 72.646)" fill="#fff"/>
          <rect id="Rectángulo_405458" data-name="Rectángulo 405458" width="9.161" height="4.599" transform="translate(25.256 69.08)" fill="#ef5b00"/>
          <path id="Trazado_895361" data-name="Trazado 895361" d="M24.25,95.413v27.021a8.11,8.11,0,1,0,16.22-.118l.106-23.064.018-3.839Z" transform="translate(-2.341 -9.213)" fill="#d1e1dd"/>
          <line id="Línea_3335" data-name="Línea 3335" x1="17.428" transform="translate(22.291 89.789)" fill="#f9cb00"/>
          <line id="Línea_3336" data-name="Línea 3336" x1="17.428" transform="translate(22.291 89.789)" fill="none" stroke="#2c2c2c" stroke-linecap="round" stroke-miterlimit="10" stroke-width="1"/>
          <path id="Trazado_895362" data-name="Trazado 895362" d="M50.8,42.451s8.694,9.309,27.793,7.161" transform="translate(-4.905 -4.099)" fill="#f9cb00"/>
          <path id="Trazado_895363" data-name="Trazado 895363" d="M50.8,42.451s8.694,9.309,27.793,7.161" transform="translate(-4.905 -4.099)" fill="none" stroke="#2c2c2c" stroke-linecap="round" stroke-miterlimit="10" stroke-width="1"/>
          <path id="Trazado_895364" data-name="Trazado 895364" d="M74.516,60.028l-15.4-.505A4.855,4.855,0,0,0,54.1,64.376l0,70.047a5.62,5.62,0,0,0,5.167,5.6l8.66.7" transform="translate(-5.223 -5.747)" fill="#f9cb00"/>
          <path id="Trazado_895365" data-name="Trazado 895365" d="M74.516,60.028l-15.4-.505A4.855,4.855,0,0,0,54.1,64.376l0,70.047a5.62,5.62,0,0,0,5.167,5.6l8.66.7" transform="translate(-5.223 -5.747)" fill="none" stroke="#2c2c2c" stroke-linecap="round" stroke-miterlimit="10" stroke-width="1"/>
          <path id="Trazado_895366" data-name="Trazado 895366" d="M53.513,46.33l-5.656,2.338a10.663,10.663,0,0,0-6.591,9.856v6.749" transform="translate(-3.984 -4.473)" fill="none" stroke="#fff" stroke-miterlimit="10" stroke-width="1"/>
        </g>
      </g>
      <g id="Grupo_1104176" data-name="Grupo 1104176" transform="translate(29.067 16.188)">
        <g id="Grupo_1104175" data-name="Grupo 1104175" clip-path="url(#clip-path-3)">
          <path id="Trazado_895367" data-name="Trazado 895367" d="M120.53,16.138c0,6.475-11.878,11.723-26.532,11.723S67.466,22.613,67.466,16.138,79.344,4.415,94,4.415,120.53,9.663,120.53,16.138Z" transform="translate(-35.581 -16.614)" fill="none" stroke="#fff" stroke-miterlimit="10" stroke-width="1"/>
        </g>
      </g>
      <g id="Grupo_1104178" data-name="Grupo 1104178">
        <g id="Grupo_1104177" data-name="Grupo 1104177" clip-path="url(#clip-path-2)">
          <path id="Trazado_895369" data-name="Trazado 895369" d="M153.741,325.59l-52.731-.182s.264-5.837.588-12.63c.445-9.271,1.009-20.326,1.175-20.783l25.621-6.489s-1.676,11.731-1.815,16.543a6.386,6.386,0,0,0,1.709,3.8c3.7,4.674,12.64,10.285,18.974,12.326,8.225,2.643,6.479,7.413,6.479,7.413" transform="translate(-9.753 -27.567)" fill="#f49377"/>
          <path id="Trazado_895370" data-name="Trazado 895370" d="M24.092,264.688c-.734.419-22.91,24.386-22.91,24.386l40.169,34.168s4.409-2.518-.165-9.846-8.61-22.077-5.4-25.665,12.064-11.469,12.064-11.469Z" transform="translate(-0.114 -25.557)" fill="#f49377"/>
          <path id="Trazado_895371" data-name="Trazado 895371" d="M103.531,145.648V210.13L48.5,277.39,16.258,254.6l43.359-55.032,3.335-74.487,73.932-3.335,2.535,87.22a57.84,57.84,0,0,1-1.905,16.5l-15.082,56.924L90.19,281.282,96.3,197.9Z" transform="translate(-1.57 -11.755)" fill="#d1e1dd"/>
          <path id="Trazado_895372" data-name="Trazado 895372" d="M120.169,141.766l-6.5,14.788.023,42.59a25,25,0,0,1-4.263,15.008l-6.573,9.728" transform="translate(-9.932 -13.688)" fill="none" stroke="#2c2c2c" stroke-linecap="round" stroke-miterlimit="10" stroke-width="1"/>
          <path id="Trazado_895373" data-name="Trazado 895373" d="M78.925,129.105l-3.982,71.236a6.356,6.356,0,0,1-1.349,3.573L27.979,261.928" transform="translate(-2.702 -12.466)" fill="none" stroke="#2c2c2c" stroke-linecap="round" stroke-miterlimit="10" stroke-width="1"/>
          <path id="Trazado_895374" data-name="Trazado 895374" d="M41.885,325.9,0,289.884s3.259-3.484,7.379-7.872a2.5,2.5,0,0,1,3.5-.145l14.556,13.175a12.091,12.091,0,0,1,7.359-2.416,2.327,2.327,0,0,1,2.273,2.194,52.433,52.433,0,0,0,6.7,20.768c4.755,7.7.118,10.313.118,10.313" transform="translate(0 -27.154)" fill="#7d3a1b"/>
          <line id="Línea_3337" data-name="Línea 3337" x2="40.861" y2="36.123" transform="translate(2.886 259.976)" fill="none" stroke="#fff" stroke-linecap="round" stroke-miterlimit="10" stroke-width="1"/>
          <path id="Trazado_895375" data-name="Trazado 895375" d="M156.1,327.842l-56.785-.228s.225-4.9.519-11.079a2.573,2.573,0,0,1,2.643-2.448l20.172.593a12.433,12.433,0,0,1,4.144-6.8,2.391,2.391,0,0,1,3.242.2c4.519,4.677,12.945,9.79,19.093,11.775,8.856,2.851,6.972,7.986,6.972,7.986" transform="translate(-9.59 -29.676)" fill="#7d3a1b"/>
          <line id="Línea_3338" data-name="Línea 3338" x2="55.886" y2="1.265" transform="translate(90.146 293.859)" fill="none" stroke="#fff" stroke-linecap="round" stroke-miterlimit="10" stroke-width="1"/>
          <path id="Trazado_895376" data-name="Trazado 895376" d="M130.957,314.821s1.739-3.4,3.958-4.52" transform="translate(-12.645 -29.961)" fill="none" stroke="#fff" stroke-linecap="round" stroke-miterlimit="10" stroke-width="1"/>
          <path id="Trazado_895377" data-name="Trazado 895377" d="M136.087,318.076s1.739-3.4,3.958-4.52" transform="translate(-13.14 -30.276)" fill="none" stroke="#fff" stroke-linecap="round" stroke-miterlimit="10" stroke-width="1"/>
          <path id="Trazado_895378" data-name="Trazado 895378" d="M206.058,104.2l-9.937,18.011a13.294,13.294,0,0,1-16.434,5.977l-7.39-2.858,24.288-21.617Z" transform="translate(-16.636 -10.014)" fill="#f49377"/>
          <path id="Trazado_895379" data-name="Trazado 895379" d="M132.352,84.152l33.523-16.871-6.244-16.1a17.749,17.749,0,0,0-33.308,12.047Z" transform="translate(-12.13 -3.916)" fill="#53230d"/>
          <path id="Trazado_895380" data-name="Trazado 895380" d="M142.7,125.954l-75.221.953-.239-44.175,1.9-18.152A27.484,27.484,0,0,1,96.7,39.959l6.8.057,20.257.264,14.158.185Z" transform="translate(-6.492 -3.858)" fill="#53230d"/>
          <path id="Trazado_895381" data-name="Trazado 895381" d="M131.209,40.285a10.153,10.153,0,0,1-20.257-.264Z" transform="translate(-10.713 -3.864)" fill="#f49377"/>
          <path id="Trazado_895382" data-name="Trazado 895382" d="M111.9,18.414l-2.081-6.169A9.046,9.046,0,0,1,118.224.31L134.806,0a5.029,5.029,0,1,1,.093,10.058H116.132v7.932s-4.125.423-4.231.423" transform="translate(-10.557 0)" fill="#2c2c2c"/>
          <rect id="Rectángulo_405460" data-name="Rectángulo 405460" width="12.873" height="17.025" transform="translate(103.946 24.545)" fill="#f49377"/>
          <path id="Trazado_895383" data-name="Trazado 895383" d="M124.6,33.039h0a9.859,9.859,0,0,1-9.859-9.858V11.132h19.717V23.18a9.858,9.858,0,0,1-9.857,9.858" transform="translate(-11.079 -1.075)" fill="#f49377"/>
          <path id="Trazado_895384" data-name="Trazado 895384" d="M108.2,22.711a4.145,4.145,0,1,0,4.145-4.145,4.145,4.145,0,0,0-4.145,4.145" transform="translate(-10.448 -1.793)" fill="#f49377"/>
          <path id="Trazado_895385" data-name="Trazado 895385" d="M123.524,33.764s1.538,1.383,5.074.922" transform="translate(-11.927 -3.26)" fill="none" stroke="#2c2c2c" stroke-linecap="round" stroke-miterlimit="10" stroke-width="1"/>
          <path id="Trazado_895386" data-name="Trazado 895386" d="M121.237,11.319a4.175,4.175,0,1,1-4.176-4.176,4.176,4.176,0,0,1,4.176,4.176" transform="translate(-10.9 -0.69)" fill="#2c2c2c"/>
          <path id="Trazado_895387" data-name="Trazado 895387" d="M116.667,20.487h-1.982v-8.07H117.6Z" transform="translate(-11.074 -1.199)" fill="#2c2c2c"/>
          <path id="Trazado_895388" data-name="Trazado 895388" d="M110.927,24.265a2,2,0,0,1,1.774-2.919,2.019,2.019,0,0,1,.3.023" transform="translate(-10.689 -2.061)" fill="none" stroke="#2c2c2c" stroke-linecap="round" stroke-miterlimit="10" stroke-width="1"/>
          <path id="Trazado_895389" data-name="Trazado 895389" d="M125.746,19.8c0,.706-.353,1.28-.79,1.28s-.789-.574-.789-1.28.353-1.28.789-1.28.79.574.79,1.28" transform="translate(-11.989 -1.788)" fill="#2c2c2c"/>
          <path id="Trazado_895390" data-name="Trazado 895390" d="M134.24,19.8c0,.706-.353,1.28-.79,1.28s-.789-.574-.789-1.28.353-1.28.789-1.28.79.574.79,1.28" transform="translate(-12.809 -1.788)" fill="#2c2c2c"/>
          <path id="Trazado_895391" data-name="Trazado 895391" d="M126.143,15.842c.077.505-.57.468-1.543.616s-1.905.426-1.982-.08.65-1.035,1.623-1.184,1.825.142,1.9.647" transform="translate(-11.839 -1.463)" fill="#2c2c2c"/>
          <path id="Trazado_895392" data-name="Trazado 895392" d="M135.414,16.2c-.049.509-.667.315-1.647.222s-1.951-.051-1.9-.56.882-.846,1.862-.753,1.736.582,1.688,1.09" transform="translate(-12.732 -1.458)" fill="#2c2c2c"/>
          <path id="Trazado_895393" data-name="Trazado 895393" d="M130.263,18.831l.609,4.833a.974.974,0,0,1-.943,1.095c-.555.013-1.1.025-1.055.025" transform="translate(-12.443 -1.818)" fill="none" stroke="#2c2c2c" stroke-linecap="round" stroke-miterlimit="10" stroke-width="1"/>
          <path id="Trazado_895394" data-name="Trazado 895394" d="M124.311,27.545a3.154,3.154,0,0,0,1.953,1.893" transform="translate(-12.003 -2.66)" fill="none" stroke="#2c2c2c" stroke-linecap="round" stroke-miterlimit="10" stroke-width="1"/>
          <path id="Trazado_895395" data-name="Trazado 895395" d="M96.377,38.953a1.762,1.762,0,0,0-1.61,2.316c1.864,5.844,5.928,22.113-.161,38.374-6.993,18.673-26.11,33.94-29.152,36.285a1.028,1.028,0,0,0-.4.847l.207,8.071a1.007,1.007,0,0,0,1.564.834c5.642-3.8,25.512-18.129,33.738-36.781,11.47-26.007,5.019-44.493,3.065-49.015a1.719,1.719,0,0,0-1.615-1.048Z" transform="translate(-6.282 -3.75)" fill="#aa4a1f"/>
          <path id="Trazado_895396" data-name="Trazado 895396" d="M134.328,38.552a1.31,1.31,0,0,0-1.267,1.681c1.559,5.239,5.486,21.839-1.436,38.015-8.362,19.544-29.055,34.054-29.055,34.054l-.122,10.2s24.338-14.019,34.786-34.985c12.743-25.572,5.652-44.255,3.875-48.173a1.306,1.306,0,0,0-1.189-.766Z" transform="translate(-9.892 -3.722)" fill="#aa4a1f"/>
          <path id="Trazado_895397" data-name="Trazado 895397" d="M118.235,61.116l-32,76.493,24.99-6.4,22.041,14.322,18.185-12.188,21.731,4.786,29.327-78.04L181.84,55.258,163.5,64.666l-22.531-12Z" transform="translate(-8.327 -5.085)" fill="#fef7eb"/>
          <line id="Línea_3339" data-name="Línea 3339" x1="29.956" y2="77.95" transform="translate(102.792 47.817)" fill="#f9cb00"/>
          <line id="Línea_3340" data-name="Línea 3340" x1="29.956" y2="77.95" transform="translate(102.792 47.817)" fill="none" stroke="#2c2c2c" stroke-linecap="round" stroke-miterlimit="10" stroke-width="1"/>
          <line id="Línea_3341" data-name="Línea 3341" x1="30.058" y2="80.394" transform="translate(124.942 59.76)" fill="#f9cb00"/>
          <line id="Línea_3342" data-name="Línea 3342" x1="30.058" y2="80.394" transform="translate(124.942 59.76)" fill="none" stroke="#2c2c2c" stroke-linecap="round" stroke-miterlimit="10" stroke-width="1"/>
          <line id="Línea_3343" data-name="Línea 3343" x1="30.043" y2="77.687" transform="translate(143.47 50.503)" fill="#f9cb00"/>
          <line id="Línea_3344" data-name="Línea 3344" x1="30.043" y2="77.687" transform="translate(143.47 50.503)" fill="none" stroke="#2c2c2c" stroke-linecap="round" stroke-miterlimit="10" stroke-width="1"/>
          <path id="Trazado_895398" data-name="Trazado 895398" d="M184.49,93.525a2.565,2.565,0,0,0,.835,3.529,2.1,2.1,0,0,0,.435.2,1.1,1.1,0,0,0,.185.057,2.609,2.609,0,0,0,2.047-4.725,2.463,2.463,0,0,0-1.857-.276,1.844,1.844,0,0,0-.374.12,2.642,2.642,0,0,0-1.271,1.094" transform="translate(-17.777 -8.906)" fill="#f49377"/>
          <path id="Trazado_895399" data-name="Trazado 895399" d="M211.8,95.063l-9.675,15.963a12.17,12.17,0,0,1-5.651-7.441l-5.047-.538a3.009,3.009,0,0,1-2.679-2.841,2.765,2.765,0,0,1-1.367-.382,2.71,2.71,0,0,1-1.32-2.1l-.121-1.376-.008-.1c-.066.016-.123.033-.179.041a1.865,1.865,0,0,1-.433-.2,2.565,2.565,0,0,1-.838-3.525,2.639,2.639,0,0,1,1.271-1.09l.381-.081-.007-.042-.146-1.44a2.452,2.452,0,0,1,1.513-2.532L199.084,82.7a5.553,5.553,0,0,1,2.051-.416l3.111-.024a8.768,8.768,0,0,1,7.033,3.42,8.311,8.311,0,0,1,.526,9.38" transform="translate(-17.777 -7.943)" fill="#f49377"/>
          <line id="Línea_3345" data-name="Línea 3345" x1="13.233" y2="3.613" transform="translate(168.362 79.837)" fill="#f9cb00"/>
          <line id="Línea_3346" data-name="Línea 3346" x1="13.233" y2="3.613" transform="translate(168.362 79.837)" fill="none" stroke="#2c2c2c" stroke-linecap="round" stroke-miterlimit="10" stroke-width="1"/>
          <line id="Línea_3347" data-name="Línea 3347" x1="14.435" y2="3.849" transform="translate(168.387 84.71)" fill="#f9cb00"/>
          <line id="Línea_3348" data-name="Línea 3348" x1="14.435" y2="3.849" transform="translate(168.387 84.71)" fill="none" stroke="#2c2c2c" stroke-linecap="round" stroke-miterlimit="10" stroke-width="1"/>
          <line id="Línea_3349" data-name="Línea 3349" x1="10.33" y2="1.951" transform="translate(170.722 90.338)" fill="#f9cb00"/>
          <line id="Línea_3350" data-name="Línea 3350" x1="10.33" y2="1.951" transform="translate(170.722 90.338)" fill="none" stroke="#2c2c2c" stroke-linecap="round" stroke-miterlimit="10" stroke-width="1"/>
          <path id="Trazado_895400" data-name="Trazado 895400" d="M197.8,105.839a13.672,13.672,0,0,0,4.661-.235" transform="translate(-19.099 -10.197)" fill="none" stroke="#2c2c2c" stroke-linecap="round" stroke-miterlimit="10" stroke-width="1"/>
          <path id="Trazado_895401" data-name="Trazado 895401" d="M71.475,52.428l-32.018,36.3A20.4,20.4,0,0,0,65.9,119.17l28.493-18.059-6.938-19.4Z" transform="translate(-3.344 -5.062)" fill="#f49377"/>
          <path id="Trazado_895402" data-name="Trazado 895402" d="M75.3,49.751l-15.6,17.806L78.46,85.566l15.629-5.8Z" transform="translate(-5.765 -4.804)" fill="#53230d"/>
          <path id="Trazado_895403" data-name="Trazado 895403" d="M132.069,99.219a2.564,2.564,0,0,1-2.526,2.6,2.126,2.126,0,0,1-.477-.05,1.2,1.2,0,0,1-.189-.046,2.608,2.608,0,0,1,.666-5.106,2.458,2.458,0,0,1,1.736.716,1.823,1.823,0,0,1,.259.295,2.641,2.641,0,0,1,.53,1.591" transform="translate(-12.264 -9.329)" fill="#f49377"/>
          <path id="Trazado_895404" data-name="Trazado 895404" d="M128,95.447l-.025.035.285.26a2.632,2.632,0,0,1,.53,1.59,2.563,2.563,0,0,1-2.526,2.6,2.081,2.081,0,0,1-.477-.05c-.042-.039-.085-.081-.128-.127l-.061.081-.8,1.118a2.732,2.732,0,0,1-3.583.758,3,3,0,0,1-3.754,1.06l-4.611-2.128c-5.694,5.516-12.814,2.847-12.814,2.847L93.1,84.092l16.222-6.4a8.78,8.78,0,0,1,7.8.672l2.654,1.619a5.582,5.582,0,0,1,1.555,1.406l7.544,9.952a2.454,2.454,0,0,1,.007,2.95Z" transform="translate(-8.989 -7.442)" fill="#f49377"/>
          <line id="Línea_3351" data-name="Línea 3351" x2="9.508" y2="9.887" transform="translate(109.482 78.153)" fill="#f9cb00"/>
          <line id="Línea_3352" data-name="Línea 3352" x2="9.508" y2="9.887" transform="translate(109.482 78.153)" fill="none" stroke="#2c2c2c" stroke-linecap="round" stroke-miterlimit="10" stroke-width="1"/>
          <line id="Línea_3353" data-name="Línea 3353" x2="10.419" y2="10.708" transform="translate(105.929 81.706)" fill="#f9cb00"/>
          <line id="Línea_3354" data-name="Línea 3354" x2="10.419" y2="10.708" transform="translate(105.929 81.706)" fill="none" stroke="#2c2c2c" stroke-linecap="round" stroke-miterlimit="10" stroke-width="1"/>
          <line id="Línea_3355" data-name="Línea 3355" x2="7.868" y2="6.972" transform="translate(104.562 87.446)" fill="#f9cb00"/>
          <line id="Línea_3356" data-name="Línea 3356" x2="7.868" y2="6.972" transform="translate(104.562 87.446)" fill="none" stroke="#2c2c2c" stroke-linecap="round" stroke-miterlimit="10" stroke-width="1"/>
          <line id="Línea_3357" data-name="Línea 3357" x1="16.017" y2="7.136" transform="translate(56.57 80.549)" fill="#f9cb00"/>
          <line id="Línea_3358" data-name="Línea 3358" x1="16.017" y2="7.136" transform="translate(56.57 80.549)" fill="none" stroke="#2c2c2c" stroke-linecap="round" stroke-miterlimit="10" stroke-width="1"/>
          <path id="Trazado_895405" data-name="Trazado 895405" d="M127.558,19.6a3.638,3.638,0,1,1-3.637-3.637A3.637,3.637,0,0,1,127.558,19.6Z" transform="translate(-11.614 -1.542)" fill="none" stroke="#fff" stroke-miterlimit="10" stroke-width="1"/>
          <circle id="Elipse_11557" data-name="Elipse 11557" cx="3.637" cy="3.637" r="3.637" transform="translate(118.012 16.206) rotate(-22.5)" fill="none" stroke="#fff" stroke-miterlimit="10" stroke-width="1"/>
          <path id="Trazado_895406" data-name="Trazado 895406" d="M111.046,18.432a13.4,13.4,0,0,1,8.345,1.392" transform="translate(-10.722 -1.763)" fill="none" stroke="#fff" stroke-linecap="round" stroke-miterlimit="10" stroke-width="1"/>
          <path id="Trazado_895407" data-name="Trazado 895407" d="M32.559,299.966s3.436-1.42,5.783-.847" transform="translate(-3.144 -28.869)" fill="none" stroke="#fff" stroke-linecap="round" stroke-miterlimit="10" stroke-width="1"/>
          <path id="Trazado_895408" data-name="Trazado 895408" d="M34.256,304.439s3.436-1.42,5.783-.846" transform="translate(-3.308 -29.301)" fill="none" stroke="#fff" stroke-linecap="round" stroke-miterlimit="10" stroke-width="1"/>
        </g>
      </g>
    </g>
    <rect id="Rectángulo_405464" data-name="Rectángulo 405464" width="295" height="4.453" transform="translate(166.741 1282.144)" fill="#3e2011"/>
  </g>
</svg>
