<svg xmlns="http://www.w3.org/2000/svg" xmlns:xlink="http://www.w3.org/1999/xlink" width="70" height="70" viewBox="0 0 70 70">
  <defs>
    <clipPath id="clip-path">
      <rect id="Rectángulo_401141" data-name="Rectángulo 401141" width="46" height="48" transform="translate(275.75 971.833)" fill="#fff" stroke="#707070" stroke-width="1"/>
    </clipPath>
  </defs>
  <g id="Grupo_1103957" data-name="Grupo 1103957" transform="translate(-269 -958)">
    <circle id="Elipse_5614" data-name="Elipse 5614" cx="35" cy="35" r="35" transform="translate(269 958)" fill="#fff"/>
    <g id="Enmascarar_grupo_1098690" data-name="Enmascarar grupo 1098690" transform="translate(5.25 -2.833)" clip-path="url(#clip-path)">
      <path id="Trazado_895278" data-name="Trazado 895278" d="M44.044,42.974A3.577,3.577,0,0,1,50.2,44.255a3.577,3.577,0,0,1,6.851,0A3.577,3.577,0,1,1,63.616,47a4.514,4.514,0,0,1,2.478,4.018v2.226a2.5,2.5,0,0,1,.559.289V17.37h-31.3v6.425a4.777,4.777,0,0,1,4.019,7.35,6.177,6.177,0,0,1,3.8,5.689v6.141ZM55.152,24.462a5.635,5.635,0,0,1,1.233.511l1.625-.717,1.252,1.252-.72,1.624a5.5,5.5,0,0,1,.511,1.233l1.656.641v1.77l-1.656.641a5.534,5.534,0,0,1-.511,1.233l.72,1.624-1.252,1.252-1.625-.717a5.687,5.687,0,0,1-1.233.511l-.641,1.654H52.744L52.1,35.32a5.635,5.635,0,0,1-1.233-.511l-1.625.717-1.252-1.252.72-1.624a5.5,5.5,0,0,1-.511-1.233l-1.656-.641v-1.77l1.656-.641a5.535,5.535,0,0,1,.511-1.233l-.72-1.624,1.252-1.252,1.625.717a5.686,5.686,0,0,1,1.233-.511l.641-1.654h1.767Zm-1.524,2.631a2.8,2.8,0,1,1-2.8,2.8A2.8,2.8,0,0,1,53.628,27.093Zm-15.058,5a5.006,5.006,0,0,1,3.436,4.74v4.988H39.832V37.078a.584.584,0,0,0-1.169,0v4.744H32.046V37.078a.584.584,0,0,0-1.169,0v4.744H28.7V36.834a5.006,5.006,0,0,1,3.436-4.74A4.771,4.771,0,0,0,38.57,32.094ZM35.939,42.975h3.308V57.214H35.939ZM34.77,57.214H31.462V42.975H34.77Zm.584-32.25a3.6,3.6,0,1,1-3.6,3.6A3.6,3.6,0,0,1,35.354,24.964Zm6.73,29.287h.246V51.024a3.346,3.346,0,0,1,2.059-3.079,3.572,3.572,0,0,0,4.773,0,3.346,3.346,0,0,1,2.056,3.079v3.227h1.169V51.024a4.486,4.486,0,0,0-1.2-3.055c.019-.007.036-.017.054-.023a3.572,3.572,0,0,0,4.773,0,3.349,3.349,0,0,1,2.059,3.079v3.227h1.166V51.024a4.5,4.5,0,0,0-1.2-3.055l.052-.023a3.572,3.572,0,0,0,4.773,0,3.345,3.345,0,0,1,2.059,3.079v3.227h.246a1.486,1.486,0,0,1,1.481,1.481v1.481H40.6V55.732A1.486,1.486,0,0,1,42.085,54.251ZM60.479,42.876a2.407,2.407,0,1,1-2.407,2.407A2.406,2.406,0,0,1,60.479,42.876Zm-13.7,0a2.407,2.407,0,1,1-2.407,2.407A2.406,2.406,0,0,1,46.776,42.876Zm6.853,0a2.407,2.407,0,1,1-2.409,2.407A2.408,2.408,0,0,1,53.629,42.876Zm2.416-19.348c.125.048.25.1.374.154l1.853-.819,2.383,2.385L59.836,27.1c.057.123.107.246.156.374l1.888.731v3.37l-1.888.731c-.05.125-.1.25-.156.374l.819,1.853-2.383,2.383L56.419,36.1c-.123.057-.249.109-.374.156l-.731,1.888H51.942l-.731-1.888c-.125-.048-.25-.1-.374-.154l-1.853.816L46.6,34.535l.819-1.853c-.054-.123-.107-.249-.156-.374l-1.888-.731v-3.37l1.888-.731c.05-.128.1-.25.156-.374L46.6,25.247l2.383-2.385,1.853.819c.123-.054.249-.107.374-.154l.731-1.888h3.372Z" transform="translate(251.074 959.294)" fill="#6a4d23" fill-rule="evenodd"/>
    </g>
  </g>
</svg>
