<svg xmlns="http://www.w3.org/2000/svg" xmlns:xlink="http://www.w3.org/1999/xlink" width="70" height="70" viewBox="0 0 70 70">
  <defs>
    <clipPath id="clip-path">
      <rect id="Rectángulo_401149" data-name="Rectángulo 401149" width="46" height="48" transform="translate(275.75 971.833)" fill="#fff" stroke="#707070" stroke-width="1"/>
    </clipPath>
  </defs>
  <g id="Grupo_1103959" data-name="Grupo 1103959" transform="translate(-610 -6501)">
    <g id="Grupo_1099487" data-name="Grupo 1099487" transform="translate(341 5543)">
      <circle id="Elipse_5614" data-name="Elipse 5614" cx="35" cy="35" r="35" transform="translate(269 958)" fill="#fff"/>
    </g>
    <g id="Enmascarar_grupo_1098693" data-name="Enmascarar grupo 1098693" transform="translate(346.25 5540.167)" clip-path="url(#clip-path)">
      <g id="Grupo_1104141" data-name="Grupo 1104141" transform="translate(275.293 979.315) rotate(-14)">
        <path id="Trazado_895274" data-name="Trazado 895274" d="M128.986,30.4h.035a18.449,18.449,0,0,1,3.248.291,11.271,11.271,0,0,1,.753-3.071,13.163,13.163,0,0,0-3.913-.759,1.231,1.231,0,0,0-1.245,1.245,12.328,12.328,0,0,0,.291,2.269q.414.024.831.025Z" transform="translate(-117.375 -24.659)" fill="#6a4d23"/>
        <path id="Trazado_895275" data-name="Trazado 895275" d="M325.259,30.4h.035q.417,0,.831-.024a12.33,12.33,0,0,0,.291-2.269,1.231,1.231,0,0,0-1.23-1.245h-.014a13.161,13.161,0,0,0-3.913.759,11.267,11.267,0,0,1,.753,3.071A18.449,18.449,0,0,1,325.259,30.4Z" transform="translate(-294.905 -24.659)" fill="#6a4d23"/>
        <path id="Trazado_895276" data-name="Trazado 895276" d="M218.462,6.634A10.806,10.806,0,0,0,215.668.38a1.231,1.231,0,0,0-1.778,0A10.807,10.807,0,0,0,211.1,6.634a18.887,18.887,0,0,1,3.684,1.625A18.886,18.886,0,0,1,218.462,6.634Z" transform="translate(-193.779)" fill="#6a4d23"/>
        <path id="Trazado_895277" data-name="Trazado 895277" d="M41.354,60.147a1.23,1.23,0,0,0-1.26.054l-.479.314h0a16.786,16.786,0,0,1-9.227,2.766h-.035A16.271,16.271,0,0,0,21,66.254a16.269,16.269,0,0,0-9.354-2.973h-.035a16.787,16.787,0,0,1-9.227-2.766L1.905,60.2A1.231,1.231,0,0,0,0,61.23V95.847a1.23,1.23,0,0,0,2.461,0V75.73a13.528,13.528,0,0,0,11.074,5.762A9.793,9.793,0,0,0,21,78a9.793,9.793,0,0,0,7.465,3.491A13.551,13.551,0,0,0,42,67.957V61.23A1.23,1.23,0,0,0,41.354,60.147ZM10.937,74.371c-2.464-1.149-3.421-4.31-3.421-4.31s3.037-1.3,5.5-.15,3.421,4.31,3.421,4.31S13.4,75.519,10.937,74.371Zm20.127,0c-2.464,1.149-5.5-.15-5.5-.15s.957-3.162,3.421-4.31,5.5.15,5.5.15S33.527,73.222,31.063,74.371Z" transform="translate(0 -55.078)" fill="#6a4d23"/>
      </g>
    </g>
  </g>
</svg>
