<svg xmlns="http://www.w3.org/2000/svg" xmlns:xlink="http://www.w3.org/1999/xlink" width="70" height="70" viewBox="0 0 70 70">
  <defs>
    <clipPath id="clip-path">
      <rect id="Rectángulo_401144" data-name="Rectángulo 401144" width="46" height="48" transform="translate(275.75 971.833)" fill="#fff" stroke="#707070" stroke-width="1"/>
    </clipPath>
  </defs>
  <g id="Grupo_1103958" data-name="Grupo 1103958" transform="translate(-1230 -6501)">
    <g id="Grupo_1099489" data-name="Grupo 1099489" transform="translate(961 5543)">
      <circle id="Elipse_5614" data-name="Elipse 5614" cx="35" cy="35" r="35" transform="translate(269 958)" fill="#fff"/>
    </g>
    <g id="Enmascarar_grupo_1098691" data-name="Enmascarar grupo 1098691" transform="translate(966.25 5540.167)" clip-path="url(#clip-path)">
      <path id="Trazado_895279" data-name="Trazado 895279" d="M11.809,15.668c1.716-2.163,3.673-5.139,3.673-7.462C15.482,4.069,12.7,2,9.275,2S3.069,4.069,3.069,8.639c0,2.492,1.845,5.213,3.523,7.172a3.344,3.344,0,0,0,5.217-.143ZM9.275,10.275A2.069,2.069,0,1,0,7.206,8.206,2.069,2.069,0,0,0,9.275,10.275Zm0,33.1c4.138,0,8.275-7.843,8.275-12.413A8.275,8.275,0,0,0,1,30.964C1,35.534,5.138,43.376,9.275,43.376Zm0-9.31a3.1,3.1,0,1,0-3.1-3.1A3.1,3.1,0,0,0,9.275,34.067Zm35.17-25.86c0,2.323-1.957,5.3-3.673,7.462a3.344,3.344,0,0,1-5.217.143c-1.678-1.96-3.523-4.68-3.523-7.172C32.032,4.069,34.811,2,38.239,2s6.206,2.069,6.206,6.206Zm-4.138,0a2.069,2.069,0,1,1-2.069-2.069A2.069,2.069,0,0,1,40.308,8.206Zm-4.075,12.35a1.551,1.551,0,0,1,0,2.194l-.32.32a1.552,1.552,0,0,1-2.194-2.194l.32-.32a1.551,1.551,0,0,1,2.194,0ZM32.07,24.719a1.551,1.551,0,0,1,0,2.194l-.64.641a1.552,1.552,0,0,1-2.194-2.194l.641-.64A1.551,1.551,0,0,1,32.07,24.719ZM27.588,29.2a1.552,1.552,0,0,1,0,2.194l-.641.64a1.552,1.552,0,0,1-2.194-2.194l.64-.641A1.552,1.552,0,0,1,27.588,29.2Zm-4.483,4.483a1.552,1.552,0,0,1,0,2.194l-.32.32A1.552,1.552,0,1,1,20.591,34l.32-.32a1.552,1.552,0,0,1,2.194,0ZM17.551,15.965a1.552,1.552,0,1,0,0,3.1h.443a1.552,1.552,0,1,0,0-3.1Zm5.763,0a1.552,1.552,0,1,0,0,3.1H24.2a1.552,1.552,0,1,0,0-3.1Zm6.206,0a1.552,1.552,0,0,0,0,3.1h.443a1.552,1.552,0,1,0,0-3.1Z" transform="translate(276.305 974.263)" fill="#6a4d23" fill-rule="evenodd"/>
    </g>
  </g>
</svg>
