<svg xmlns="http://www.w3.org/2000/svg" xmlns:xlink="http://www.w3.org/1999/xlink" width="129" height="128" viewBox="0 0 129 128">
  <defs>
    <clipPath id="clip-path">
      <rect id="Rectángulo_400938" data-name="Rectángulo 400938" width="120" height="120" fill="none"/>
    </clipPath>
    <clipPath id="clip-path-2">
      <rect id="Rectángulo_400938-2" data-name="Rectángulo 400938" width="113" height="113" transform="translate(0.211 0.211)" fill="none"/>
    </clipPath>
    <clipPath id="clip-path-3">
      <rect id="Rectángulo_401073" data-name="Rectángulo 401073" width="86.443" height="38.93" fill="#7d3a1b"/>
    </clipPath>
  </defs>
  <g id="Grupo_1104667" data-name="Grupo 1104667" transform="translate(-376 -4263)">
    <g id="Grupo_108927" data-name="Grupo 108927" transform="translate(-14 -204)">
      <path id="Rectángulo_36179" data-name="Rectángulo 36179" d="M0,0H129V128H0Z" transform="translate(390 4467)" fill="#feebcf"/>
    </g>
    <g id="Grupo_1099433" data-name="Grupo 1099433" transform="translate(118.789 -1013.211)">
      <g id="Grupo_1099379" data-name="Grupo 1099379" transform="translate(265 5284)">
        <rect id="Rectángulo_401103" data-name="Rectángulo 401103" width="113" height="113" transform="translate(0.211 0.211)" fill="none"/>
        <g id="Grupo_1099348" data-name="Grupo 1099348">
          <g id="Grupo_1099282" data-name="Grupo 1099282">
            <g id="Grupo_1099281" data-name="Grupo 1099281" clip-path="url(#clip-path-3)">
              <path id="Trazado_873375" data-name="Trazado 873375" d="M70.12,8.532c-3.88,0-5.887-1.9-7.658-3.581C60.723,3.3,59.226,1.882,56.1,1.882S51.467,3.3,49.728,4.95c-1.771,1.679-3.775,3.581-7.658,3.581s-5.886-1.9-7.658-3.581C32.674,3.3,31.177,1.882,28.046,1.882S23.418,3.3,21.682,4.95C19.911,6.629,17.9,8.532,14.024,8.532S8.135,6.629,6.364,4.95C4.628,3.3,3.131,1.882,0,1.882V0C3.88,0,5.887,1.906,7.658,3.581,9.4,5.23,10.893,6.65,14.024,6.65s4.628-1.419,6.364-3.066C22.157,1.906,24.166,0,28.046,0s5.89,1.906,7.658,3.581C37.442,5.23,38.939,6.65,42.07,6.65S46.7,5.23,48.437,3.581C50.205,1.906,52.215,0,56.1,0s5.89,1.906,7.658,3.581C65.491,5.23,66.988,6.65,70.12,6.65s4.628-1.419,6.367-3.069C78.255,1.906,80.261,0,84.144,0V1.882c-3.131,0-4.628,1.422-6.367,3.069C76.006,6.629,74,8.532,70.12,8.532" transform="translate(2.299 30.399)" fill="#7d3a1b"/>
              <path id="Trazado_873376" data-name="Trazado 873376" d="M70.12,8.532c-3.88,0-5.889-1.9-7.658-3.584C60.723,3.3,59.226,1.882,56.1,1.882S51.467,3.3,49.728,4.947c-1.768,1.682-3.775,3.584-7.658,3.584s-5.889-1.9-7.658-3.584C32.674,3.3,31.177,1.882,28.046,1.882S23.418,3.3,21.682,4.947C19.911,6.629,17.9,8.532,14.025,8.532s-5.889-1.9-7.661-3.584C4.628,3.3,3.131,1.882,0,1.882V0C3.88,0,5.889,1.9,7.658,3.581,9.4,5.23,10.893,6.65,14.025,6.65s4.628-1.419,6.364-3.069C22.157,1.9,24.166,0,28.046,0s5.889,1.9,7.661,3.581C37.442,5.23,38.939,6.65,42.071,6.65S46.7,5.23,48.437,3.581C50.206,1.9,52.215,0,56.1,0s5.89,1.9,7.658,3.581C65.491,5.23,66.988,6.65,70.12,6.65s4.628-1.419,6.367-3.069C78.257,1.9,80.264,0,84.147,0V1.882c-3.131,0-4.631,1.422-6.37,3.066C76.006,6.629,74,8.532,70.12,8.532" transform="translate(1.533 20.266)" fill="#7d3a1b"/>
              <path id="Trazado_873377" data-name="Trazado 873377" d="M70.119,8.532c-3.88,0-5.889-1.9-7.658-3.584C60.723,3.3,59.226,1.882,56.1,1.882S51.467,3.3,49.728,4.947C47.96,6.629,45.95,8.532,42.071,8.532s-5.89-1.9-7.658-3.584C32.674,3.3,31.177,1.882,28.046,1.882S23.418,3.3,21.682,4.947C19.911,6.629,17.9,8.532,14.025,8.532s-5.89-1.9-7.661-3.584C4.628,3.3,3.131,1.882,0,1.882V0C3.88,0,5.889,1.9,7.658,3.581,9.393,5.23,10.893,6.65,14.025,6.65s4.628-1.419,6.364-3.069C22.156,1.9,24.166,0,28.046,0s5.89,1.9,7.661,3.581C37.442,5.23,38.939,6.65,42.071,6.65S46.7,5.23,48.437,3.581C50.205,1.9,52.215,0,56.1,0s5.889,1.9,7.658,3.581C65.491,5.23,66.988,6.65,70.119,6.65s4.628-1.419,6.367-3.069C78.257,1.9,80.261,0,84.147,0V1.882c-3.131,0-4.631,1.422-6.37,3.066C76.006,6.629,74,8.532,70.119,8.532" transform="translate(0.766 10.133)" fill="#7d3a1b"/>
              <path id="Trazado_873378" data-name="Trazado 873378" d="M70.12,8.529c-3.88,0-5.887-1.9-7.658-3.581C60.723,3.3,59.226,1.882,56.095,1.882S51.467,3.3,49.731,4.947C47.96,6.626,45.953,8.529,42.07,8.529s-5.887-1.9-7.658-3.581C32.674,3.3,31.177,1.882,28.046,1.882S23.418,3.3,21.682,4.944C19.914,6.626,17.9,8.529,14.024,8.529s-5.89-1.9-7.661-3.581C4.628,3.3,3.131,1.882,0,1.882V0C3.88,0,5.89,1.9,7.658,3.581,9.4,5.228,10.893,6.647,14.024,6.647s4.628-1.419,6.364-3.066C22.159,1.9,24.166,0,28.046,0s5.887,1.9,7.661,3.581c1.736,1.646,3.233,3.066,6.364,3.066S46.7,5.228,48.437,3.581C50.208,1.9,52.215,0,56.095,0s5.887,1.9,7.658,3.581c1.739,1.646,3.236,3.066,6.367,3.066s4.628-1.419,6.367-3.066C78.257,1.9,80.264,0,84.147,0V1.882c-3.134,0-4.631,1.419-6.37,3.066C76.006,6.626,74,8.529,70.12,8.529" transform="translate(0 0.003)" fill="#7d3a1b"/>
            </g>
          </g>
        </g>
        <path id="Trazado_873425" data-name="Trazado 873425" d="M47.337,0A47.337,47.337,0,1,1,0,47.337,47.337,47.337,0,0,1,47.337,0Z" transform="translate(14.061 16.873)" fill="#7d3a1b"/>
        <circle id="Elipse_11503" data-name="Elipse 11503" cx="49.5" cy="49.5" r="49.5" transform="translate(7.211 7.211)" fill="#fff"/>
      </g>
      <g id="Grupo_1099977" data-name="Grupo 1099977" transform="translate(290.691 5308.352)">
        <path id="Trazado_873216" data-name="Trazado 873216" d="M0,0H62.506V62.507H0Z" transform="translate(0 0)" fill="none"/>
        <g id="Grupo_1103993" data-name="Grupo 1103993" transform="translate(-4 -3.638)">
          <path id="path4" d="M50.1,32.753A9.362,9.362,0,1,1,51.753,31.1L54.3,33.651l.928-.928a1.169,1.169,0,0,1,1.654,0l7.02,7.02a1.169,1.169,0,0,1,0,1.654l-3.51,3.51a1.169,1.169,0,0,1-1.654,0l-7.02-7.02a1.169,1.169,0,0,1,0-1.654l.928-.928ZM54.2,37.06l5.366,5.366,1.856-1.856L56.06,35.2ZM44.36,18.34a7.02,7.02,0,1,1-7.02,7.02A7.024,7.024,0,0,1,44.36,18.34Z" transform="translate(5.27 1.53)" fill="#7d3a1b" fill-rule="evenodd"/>
          <path id="circle6" d="M41.34,12.17A1.17,1.17,0,1,1,40.17,11,1.17,1.17,0,0,1,41.34,12.17Z" transform="translate(5.95 0.68)" fill="#7d3a1b" fill-rule="evenodd"/>
          <path id="path10" d="M32.17,13.339h4.68a1.17,1.17,0,0,0,0-2.34H32.17a1.17,1.17,0,0,0,0,2.34Z" transform="translate(4.59 0.68)" fill="#7d3a1b" fill-rule="evenodd"/>
          <path id="path14" d="M53.14,51.46H66.01a1.17,1.17,0,0,1,1.17,1.17v5.85a7.02,7.02,0,0,1-7.02,7.02H22.72a7.007,7.007,0,0,1-7.02-7.006V21.04H5.17A1.17,1.17,0,0,1,4,19.87V14.006A7.007,7.007,0,0,1,11.006,7H46.12a7.019,7.019,0,0,1,7.02,7.02,1.17,1.17,0,0,1-2.34,0,4.682,4.682,0,0,0-4.68-4.68H16.26a7.005,7.005,0,0,1,1.78,4.666V58.494a4.666,4.666,0,0,0,4.666,4.666h.028A4.666,4.666,0,0,0,27.4,58.494V52.63a1.17,1.17,0,0,1,1.17-1.17H50.8V39.76a1.17,1.17,0,1,1,2.34,0Zm11.7,2.34H29.74v4.694a7.005,7.005,0,0,1-1.78,4.666h32.2a4.68,4.68,0,0,0,4.68-4.68ZM15.7,18.7V14.006A4.666,4.666,0,0,0,11.034,9.34h-.028A4.666,4.666,0,0,0,6.34,14.006V18.7Z" fill="#7d3a1b" fill-rule="evenodd"/>
          <path id="path16" d="M26.02,16.169A1.17,1.17,0,0,0,24.85,15H20.17A1.17,1.17,0,0,0,19,16.169v30.42a1.171,1.171,0,0,0,1.17,1.171h4.68a1.17,1.17,0,0,0,1.17-1.171Zm-4.68,1.169v28.08h2.34V17.339Z" transform="translate(2.55 1.36)" fill="#7d3a1b" fill-rule="evenodd"/>
          <path id="path20" d="M34.021,26.17A1.17,1.17,0,0,0,32.85,25h-4.68A1.17,1.17,0,0,0,27,26.17V44.89a1.17,1.17,0,0,0,1.17,1.17h4.68a1.17,1.17,0,0,0,1.17-1.17Zm-4.68,1.17V43.72h2.34V27.34Z" transform="translate(3.91 3.06)" fill="#7d3a1b" fill-rule="evenodd"/>
          <path id="path24" d="M42.021,36.17A1.17,1.17,0,0,0,40.85,35h-4.68A1.17,1.17,0,0,0,35,36.17v7.02a1.17,1.17,0,0,0,1.17,1.17h4.68a1.17,1.17,0,0,0,1.17-1.17Zm-4.68,1.17v4.68h2.34V37.34Z" transform="translate(5.27 4.76)" fill="#7d3a1b" fill-rule="evenodd"/>
        </g>
      </g>
    </g>
  </g>
</svg>
