<svg xmlns="http://www.w3.org/2000/svg" xmlns:xlink="http://www.w3.org/1999/xlink" width="121" height="121" viewBox="0 0 121 121">
  <defs>
    <clipPath id="clip-path">
      <rect id="Rectángulo_400938" data-name="Rectángulo 400938" width="121" height="121" transform="translate(0 0)" fill="none"/>
    </clipPath>
    <clipPath id="clip-path-2">
      <rect id="Rectángulo_401073" data-name="Rectángulo 401073" width="92.219" height="41.532" fill="#efb499"/>
    </clipPath>
  </defs>
  <g id="Grupo_1104642" data-name="Grupo 1104642" transform="translate(-387.496 -1456.7)">
    <g id="Grupo_1104201" data-name="Grupo 1104201" transform="translate(-0.172 -4556.3)">
      <rect id="Rectángulo_401103" data-name="Rectángulo 401103" width="121" height="121" transform="translate(387.668 6013)" fill="none"/>
      <g id="Grupo_1099348" data-name="Grupo 1099348" transform="translate(387.668 6013)">
        <g id="Grupo_1099282" data-name="Grupo 1099282">
          <g id="Grupo_1099281" data-name="Grupo 1099281" clip-path="url(#clip-path-2)">
            <path id="Trazado_873375" data-name="Trazado 873375" d="M74.8,9.1c-4.139,0-6.28-2.03-8.17-3.821-1.855-1.756-3.452-3.274-6.792-3.274s-4.937,1.517-6.792,3.274C51.161,7.072,49.023,9.1,44.881,9.1s-6.28-2.03-8.169-3.821C34.857,3.525,33.26,2.007,29.92,2.007s-4.937,1.517-6.789,3.274C21.241,7.072,19.1,9.1,14.962,9.1S8.679,7.072,6.789,5.281C4.937,3.525,3.34,2.007,0,2.007V0C4.139,0,6.28,2.033,8.17,3.821c1.855,1.759,3.452,3.274,6.792,3.274S19.9,5.58,21.75,3.824C23.637,2.033,25.781,0,29.92,0s6.283,2.033,8.17,3.821c1.855,1.759,3.452,3.274,6.792,3.274s4.937-1.514,6.792-3.274C53.56,2.033,55.7,0,59.843,0s6.283,2.033,8.17,3.821C69.867,5.58,71.464,7.094,74.8,7.094S79.742,5.58,81.6,3.821C83.483,2.033,85.624,0,89.766,0V2.007c-3.34,0-4.937,1.517-6.792,3.274C81.084,7.072,78.943,9.1,74.8,9.1" transform="translate(2.453 32.43)" fill="#efb499"/>
            <path id="Trazado_873376" data-name="Trazado 873376" d="M74.8,9.1c-4.139,0-6.283-2.03-8.17-3.824-1.855-1.756-3.452-3.27-6.792-3.27s-4.937,1.514-6.792,3.27C51.164,7.072,49.023,9.1,44.881,9.1s-6.283-2.03-8.17-3.824c-1.855-1.756-3.452-3.27-6.792-3.27s-4.937,1.517-6.789,3.27C21.241,7.072,19.1,9.1,14.962,9.1S8.679,7.072,6.789,5.278C4.937,3.522,3.34,2.007,0,2.007V0C4.139,0,6.283,2.03,8.17,3.821c1.855,1.759,3.452,3.274,6.792,3.274S19.9,5.58,21.75,3.821C23.637,2.03,25.781,0,29.92,0S36.2,2.03,38.093,3.821c1.852,1.759,3.449,3.274,6.789,3.274s4.937-1.514,6.792-3.274C53.56,2.03,55.7,0,59.843,0s6.283,2.03,8.17,3.821C69.867,5.58,71.464,7.094,74.8,7.094S79.742,5.58,81.6,3.821C83.486,2.03,85.627,0,89.769,0V2.007c-3.34,0-4.94,1.517-6.8,3.27C81.084,7.072,78.943,9.1,74.8,9.1" transform="translate(1.635 21.62)" fill="#efb499"/>
            <path id="Trazado_873377" data-name="Trazado 873377" d="M74.8,9.1c-4.139,0-6.283-2.03-8.169-3.824-1.855-1.756-3.452-3.27-6.792-3.27s-4.937,1.514-6.792,3.27C51.164,7.072,49.02,9.1,44.881,9.1s-6.283-2.03-8.17-3.824c-1.855-1.756-3.452-3.27-6.792-3.27s-4.937,1.517-6.789,3.27C21.241,7.072,19.1,9.1,14.962,9.1S8.678,7.072,6.789,5.278C4.937,3.522,3.34,2.007,0,2.007V0C4.139,0,6.283,2.03,8.169,3.821c1.851,1.759,3.452,3.274,6.792,3.274S19.9,5.58,21.75,3.821C23.637,2.03,25.781,0,29.92,0S36.2,2.03,38.093,3.821c1.852,1.759,3.449,3.274,6.789,3.274s4.937-1.514,6.792-3.274C53.56,2.03,55.7,0,59.843,0s6.283,2.03,8.17,3.821C69.867,5.58,71.464,7.094,74.8,7.094S79.742,5.58,81.6,3.821C83.486,2.03,85.624,0,89.769,0V2.007c-3.34,0-4.941,1.517-6.8,3.27C81.084,7.072,78.943,9.1,74.8,9.1" transform="translate(0.818 10.81)" fill="#efb499"/>
            <path id="Trazado_873378" data-name="Trazado 873378" d="M74.8,9.1c-4.139,0-6.28-2.03-8.17-3.821-1.855-1.756-3.452-3.27-6.792-3.27s-4.937,1.514-6.789,3.27C51.164,7.069,49.023,9.1,44.881,9.1s-6.28-2.03-8.169-3.821c-1.855-1.756-3.452-3.27-6.792-3.27s-4.937,1.514-6.789,3.267C21.245,7.069,19.1,9.1,14.962,9.1S8.678,7.069,6.789,5.278C4.937,3.522,3.34,2.007,0,2.007V0C4.139,0,6.283,2.03,8.17,3.821c1.855,1.756,3.452,3.27,6.792,3.27S19.9,5.577,21.75,3.821C23.64,2.03,25.781,0,29.92,0s6.28,2.03,8.173,3.821c1.852,1.756,3.449,3.27,6.789,3.27s4.937-1.514,6.792-3.27C53.563,2.03,55.7,0,59.843,0s6.28,2.03,8.17,3.821c1.855,1.756,3.452,3.27,6.792,3.27s4.937-1.514,6.792-3.27C83.486,2.03,85.627,0,89.769,0V2.007c-3.344,0-4.941,1.514-6.8,3.27C81.084,7.069,78.943,9.1,74.8,9.1" transform="translate(0 0.003)" fill="#efb499"/>
          </g>
        </g>
      </g>
      <circle id="Elipse_11504" data-name="Elipse 11504" cx="50.5" cy="50.5" r="50.5" transform="translate(402.668 6031)" fill="#ffce73"/>
      <circle id="Elipse_11503" data-name="Elipse 11503" cx="52.5" cy="52.5" r="52.5" transform="translate(395.668 6021)" fill="#f3f9ff"/>
    </g>
    <g id="Grupo_1104204" data-name="Grupo 1104204" transform="translate(413.438 1482.504)">
      <rect id="Rectángulo_401104" data-name="Rectángulo 401104" width="68" height="69" transform="translate(0.059 -0.804)" fill="none"/>
      <g id="Grupo_1104536" data-name="Grupo 1104536" transform="translate(2.626 2.232)">
        <path id="Trazado_895703" data-name="Trazado 895703" d="M15.011,35.036A20.036,20.036,0,0,0,35.047,55.072l4.179-20.405L35.047,15A20.036,20.036,0,0,0,15.011,35.036Z" transform="translate(-13.156 -13.156)" fill="#eef5f6"/>
        <path id="Trazado_895704" data-name="Trazado 895704" d="M178.011,15V55.072a20.036,20.036,0,1,0,0-40.072Z" transform="translate(-156.12 -13.156)" fill="#cee9f8"/>
        <path id="Trazado_895705" data-name="Trazado 895705" d="M0,0H3.688V7.375H0Z" transform="translate(35.317 37.895) rotate(-45)" fill="#0065a2"/>
        <path id="Trazado_895706" data-name="Trazado 895706" d="M341.069,332.679l-11.888-11.888a5.91,5.91,0,1,0-8.359,8.359l11.888,11.888a5.91,5.91,0,0,0,8.359-8.359Z" transform="translate(-279.861 -279.841)" fill="#ffb54c"/>
        <path id="Trazado_895707" data-name="Trazado 895707" d="M110.386,80.744v4.3H106.7V82.219a5.538,5.538,0,0,1,5.531-5.531l.86-1.844L112.23,73a9.23,9.23,0,0,0-9.219,9.219v6.515h9.219l.492-3.442-.492-4.548Z" transform="translate(-90.339 -64.027)" fill="#ff637b"/>
        <path id="Trazado_895708" data-name="Trazado 895708" d="M103.011,231v3.688h9.219l.492-2.09-.492-1.6Z" transform="translate(-90.339 -202.605)" fill="#ff637b"/>
        <path id="Trazado_895709" data-name="Trazado 895709" d="M187.23,82.219A9.23,9.23,0,0,0,178.011,73v3.688a5.538,5.538,0,0,1,5.531,5.531v10.2h-5.531v3.688h9.219Z" transform="translate(-156.12 -64.027)" fill="#e53950"/>
        <path id="Trazado_895710" data-name="Trazado 895710" d="M178.011,136h1.844v7.99h-1.844Z" transform="translate(-156.12 -119.283)" fill="#e53950"/>
        <path id="Trazado_895711" data-name="Trazado 895711" d="M3.7,21.88A18.213,18.213,0,0,1,21.891,3.688l2.458-1.6L21.891,0a21.88,21.88,0,0,0,0,43.76l1.352-1.844-1.352-1.844A18.213,18.213,0,0,1,3.7,21.88Z" fill="#75e1f7"/>
        <path id="Trazado_895712" data-name="Trazado 895712" d="M178.011,0V3.688a18.192,18.192,0,1,1,0,36.385V43.76a21.88,21.88,0,1,0,0-43.76Z" transform="translate(-156.12)" fill="#72bbff"/>
      </g>
    </g>
  </g>
</svg>
