<svg xmlns="http://www.w3.org/2000/svg" xmlns:xlink="http://www.w3.org/1999/xlink" width="121" height="121" viewBox="0 0 121 121">
  <defs>
    <clipPath id="clip-path">
      <rect id="Rectángulo_400938" data-name="Rectángulo 400938" width="121" height="121" transform="translate(0 0)" fill="none"/>
    </clipPath>
    <clipPath id="clip-path-2">
      <rect id="Rectángulo_401073" data-name="Rectángulo 401073" width="92.219" height="41.532" fill="#efb499"/>
    </clipPath>
  </defs>
  <g id="Grupo_1104650" data-name="Grupo 1104650" transform="translate(2579 10791.578)">
    <g id="Grupo_1104438" data-name="Grupo 1104438" transform="translate(-2966.668 -16804.578)">
      <rect id="Rectángulo_401103" data-name="Rectángulo 401103" width="121" height="121" transform="translate(387.668 6013)" fill="none"/>
      <g id="Grupo_1099348" data-name="Grupo 1099348" transform="translate(387.668 6013)">
        <g id="Grupo_1099282" data-name="Grupo 1099282">
          <g id="Grupo_1099281" data-name="Grupo 1099281" clip-path="url(#clip-path-2)">
            <path id="Trazado_873375" data-name="Trazado 873375" d="M74.8,9.1c-4.139,0-6.28-2.03-8.17-3.821-1.855-1.756-3.452-3.274-6.792-3.274s-4.937,1.517-6.792,3.274C51.161,7.072,49.023,9.1,44.881,9.1s-6.28-2.03-8.169-3.821C34.857,3.525,33.26,2.007,29.92,2.007s-4.937,1.517-6.789,3.274C21.241,7.072,19.1,9.1,14.962,9.1S8.679,7.072,6.789,5.281C4.937,3.525,3.34,2.007,0,2.007V0C4.139,0,6.28,2.033,8.17,3.821c1.855,1.759,3.452,3.274,6.792,3.274S19.9,5.58,21.75,3.824C23.637,2.033,25.781,0,29.92,0s6.283,2.033,8.17,3.821c1.855,1.759,3.452,3.274,6.792,3.274s4.937-1.514,6.792-3.274C53.56,2.033,55.7,0,59.843,0s6.283,2.033,8.17,3.821C69.867,5.58,71.464,7.094,74.8,7.094S79.742,5.58,81.6,3.821C83.483,2.033,85.624,0,89.766,0V2.007c-3.34,0-4.937,1.517-6.792,3.274C81.084,7.072,78.943,9.1,74.8,9.1" transform="translate(2.453 32.43)" fill="#efb499"/>
            <path id="Trazado_873376" data-name="Trazado 873376" d="M74.8,9.1c-4.139,0-6.283-2.03-8.17-3.824-1.855-1.756-3.452-3.27-6.792-3.27s-4.937,1.514-6.792,3.27C51.164,7.072,49.023,9.1,44.881,9.1s-6.283-2.03-8.17-3.824c-1.855-1.756-3.452-3.27-6.792-3.27s-4.937,1.517-6.789,3.27C21.241,7.072,19.1,9.1,14.962,9.1S8.679,7.072,6.789,5.278C4.937,3.522,3.34,2.007,0,2.007V0C4.139,0,6.283,2.03,8.17,3.821c1.855,1.759,3.452,3.274,6.792,3.274S19.9,5.58,21.75,3.821C23.637,2.03,25.781,0,29.92,0S36.2,2.03,38.093,3.821c1.852,1.759,3.449,3.274,6.789,3.274s4.937-1.514,6.792-3.274C53.56,2.03,55.7,0,59.843,0s6.283,2.03,8.17,3.821C69.867,5.58,71.464,7.094,74.8,7.094S79.742,5.58,81.6,3.821C83.486,2.03,85.627,0,89.769,0V2.007c-3.34,0-4.94,1.517-6.8,3.27C81.084,7.072,78.943,9.1,74.8,9.1" transform="translate(1.635 21.62)" fill="#efb499"/>
            <path id="Trazado_873377" data-name="Trazado 873377" d="M74.8,9.1c-4.139,0-6.283-2.03-8.169-3.824-1.855-1.756-3.452-3.27-6.792-3.27s-4.937,1.514-6.792,3.27C51.164,7.072,49.02,9.1,44.881,9.1s-6.283-2.03-8.17-3.824c-1.855-1.756-3.452-3.27-6.792-3.27s-4.937,1.517-6.789,3.27C21.241,7.072,19.1,9.1,14.962,9.1S8.678,7.072,6.789,5.278C4.937,3.522,3.34,2.007,0,2.007V0C4.139,0,6.283,2.03,8.169,3.821c1.851,1.759,3.452,3.274,6.792,3.274S19.9,5.58,21.75,3.821C23.637,2.03,25.781,0,29.92,0S36.2,2.03,38.093,3.821c1.852,1.759,3.449,3.274,6.789,3.274s4.937-1.514,6.792-3.274C53.56,2.03,55.7,0,59.843,0s6.283,2.03,8.17,3.821C69.867,5.58,71.464,7.094,74.8,7.094S79.742,5.58,81.6,3.821C83.486,2.03,85.624,0,89.769,0V2.007c-3.34,0-4.941,1.517-6.8,3.27C81.084,7.072,78.943,9.1,74.8,9.1" transform="translate(0.818 10.81)" fill="#efb499"/>
            <path id="Trazado_873378" data-name="Trazado 873378" d="M74.8,9.1c-4.139,0-6.28-2.03-8.17-3.821-1.855-1.756-3.452-3.27-6.792-3.27s-4.937,1.514-6.789,3.27C51.164,7.069,49.023,9.1,44.881,9.1s-6.28-2.03-8.169-3.821c-1.855-1.756-3.452-3.27-6.792-3.27s-4.937,1.514-6.789,3.267C21.245,7.069,19.1,9.1,14.962,9.1S8.678,7.069,6.789,5.278C4.937,3.522,3.34,2.007,0,2.007V0C4.139,0,6.283,2.03,8.17,3.821c1.855,1.756,3.452,3.27,6.792,3.27S19.9,5.577,21.75,3.821C23.64,2.03,25.781,0,29.92,0s6.28,2.03,8.173,3.821c1.852,1.756,3.449,3.27,6.789,3.27s4.937-1.514,6.792-3.27C53.563,2.03,55.7,0,59.843,0s6.28,2.03,8.17,3.821c1.855,1.756,3.452,3.27,6.792,3.27s4.937-1.514,6.792-3.27C83.486,2.03,85.627,0,89.769,0V2.007c-3.344,0-4.941,1.514-6.8,3.27C81.084,7.069,78.943,9.1,74.8,9.1" transform="translate(0 0.003)" fill="#efb499"/>
          </g>
        </g>
      </g>
      <circle id="Elipse_11504" data-name="Elipse 11504" cx="50.5" cy="50.5" r="50.5" transform="translate(402.668 6031)" fill="#ffce73"/>
      <circle id="Elipse_11503" data-name="Elipse 11503" cx="52.5" cy="52.5" r="52.5" transform="translate(395.668 6021)" fill="#f3f9ff"/>
    </g>
    <g id="Grupo_1104441" data-name="Grupo 1104441" transform="translate(-2553.059 -10765.774)">
      <rect id="Rectángulo_401104" data-name="Rectángulo 401104" width="68" height="69" transform="translate(0.059 -0.804)" fill="none"/>
      <g id="Grupo_1104554" data-name="Grupo 1104554" transform="translate(3.348 2.063)">
        <g id="Grupo_1104553" data-name="Grupo 1104553" transform="translate(0 0)">
          <path id="Trazado_895757" data-name="Trazado 895757" d="M354.369,143.872h-1.238a.929.929,0,1,1,0-1.858h1.238a.929.929,0,1,1,0,1.858Zm3.1,0a.929.929,0,0,1-.011-1.858,6.3,6.3,0,0,0,1.072-.1.929.929,0,0,1,.339,1.826,8.16,8.16,0,0,1-1.389.136Zm4.059-1.318a.929.929,0,0,1-.538-1.686,6.308,6.308,0,0,0,.822-.7.929.929,0,1,1,1.318,1.309,8.167,8.167,0,0,1-1.065.9A.924.924,0,0,1,361.524,142.553Zm2.592-3.389a.929.929,0,0,1-.872-1.249,6.213,6.213,0,0,0,.281-1.038.929.929,0,0,1,1.828.328,8.083,8.083,0,0,1-.365,1.349A.929.929,0,0,1,364.116,139.164Zm.212-4.263a.929.929,0,0,1-.9-.7,6.241,6.241,0,0,0-.357-1.015.929.929,0,0,1,1.693-.765,8.086,8.086,0,0,1,.463,1.319.93.93,0,0,1-.9,1.16Zm-2.244-3.631a.926.926,0,0,1-.609-.228,6.287,6.287,0,0,0-.87-.635.929.929,0,0,1,.962-1.589,8.158,8.158,0,0,1,1.128.823.929.929,0,0,1-.61,1.629Zm-3.9-1.716a.969.969,0,0,1-.1-.006,6.386,6.386,0,0,0-.7-.038h-.437a.929.929,0,1,1,0-1.858h.437a8.2,8.2,0,0,1,.9.05.929.929,0,0,1-.1,1.852Zm-4.333-.044h-1.238a.929.929,0,1,1,0-1.858h1.238a.929.929,0,1,1,0,1.858Zm-4.334,0h-1.238a.929.929,0,1,1,0-1.858h1.238a.929.929,0,1,1,0,1.858Z" transform="translate(-305.675 -112.339)" fill="#ff656b"/>
          <path id="Trazado_895758" data-name="Trazado 895758" d="M36.818,288.807H35.58a.929.929,0,1,1,0-1.858h1.238a.929.929,0,1,1,0,1.858Zm-4.334,0H31.246a.929.929,0,1,1,0-1.858h1.238a.929.929,0,1,1,0,1.858Zm-4.334,0H26.911a.929.929,0,1,1,0-1.858H28.15a.929.929,0,1,1,0,1.858Zm-4.334,0h-.351a8.2,8.2,0,0,1-1-.061.929.929,0,1,1,.227-1.844,6.327,6.327,0,0,0,.771.047h.351a.929.929,0,1,1,0,1.857Zm-4.132-1.076a.925.925,0,0,1-.49-.14,8.159,8.159,0,0,1-1.118-.836.929.929,0,1,1,1.236-1.387,6.306,6.306,0,0,0,.862.645.929.929,0,0,1-.491,1.718ZM16.89,284.5a.929.929,0,0,1-.851-.557,8.087,8.087,0,0,1-.447-1.324.929.929,0,1,1,1.8-.44,6.232,6.232,0,0,0,.344,1.02.929.929,0,0,1-.85,1.3Zm-.47-4.242a.93.93,0,0,1-.913-1.1,8.094,8.094,0,0,1,.382-1.344.929.929,0,1,1,1.736.66,6.23,6.23,0,0,0-.294,1.035A.929.929,0,0,1,16.42,280.262Zm2.017-3.759a.929.929,0,0,1-.651-1.591,8.164,8.164,0,0,1,1.076-.89.929.929,0,0,1,1.057,1.528,6.3,6.3,0,0,0-.83.687A.925.925,0,0,1,18.438,276.5Zm3.794-1.952a.929.929,0,0,1-.157-1.844,8.178,8.178,0,0,1,1.39-.119.929.929,0,1,1,0,1.858,6.318,6.318,0,0,0-1.073.092A.954.954,0,0,1,22.232,274.551Z" transform="translate(-13.632 -239.887)" fill="#ff656b"/>
          <path id="Trazado_895759" data-name="Trazado 895759" d="M239.978,478.817h6.753a3.3,3.3,0,0,1-3.3,3.305h-.148A3.3,3.3,0,0,1,239.978,478.817Z" transform="translate(-211.189 -421.376)" fill="#8c808a"/>
          <path id="Trazado_895760" data-name="Trazado 895760" d="M225.735,425.263H212.354v3.108a3.315,3.315,0,0,0,3.314,3.317h6.753a3.315,3.315,0,0,0,3.314-3.317Z" transform="translate(-186.879 -374.246)" fill="#b2b2b2"/>
          <path id="Trazado_895761" data-name="Trazado 895761" d="M33.595,19.336v-5.05L29.467,13.7a12.982,12.982,0,0,0-1.513-3.654l2.182-2.907a.619.619,0,0,0-.057-.809L27.271,3.519a.619.619,0,0,0-.81-.057l-2.9,2.183a12.959,12.959,0,0,0-3.651-1.514L19.4.532A.619.619,0,0,0,18.783,0H14.812A.619.619,0,0,0,14.2.532l-.51,3.6a12.962,12.962,0,0,0-3.651,1.514l-2.9-2.183a.619.619,0,0,0-.81.057L3.515,6.33a.619.619,0,0,0-.057.809L5.64,10.045A12.986,12.986,0,0,0,4.128,13.7l-3.6.511A.619.619,0,0,0,0,14.824V18.8a.619.619,0,0,0,.532.613l3.6.511A12.979,12.979,0,0,0,5.64,23.577L3.458,26.484a.619.619,0,0,0,.057.809L6.324,30.1a.619.619,0,0,0,.81.057l2.9-2.183a12.962,12.962,0,0,0,3.651,1.514l.51,3.6a.619.619,0,0,0,.613.532H19.32l.586-4.131a12.964,12.964,0,0,0,3.651-1.514l3.333,2.507,3.568-3.571-2.5-3.336a12.982,12.982,0,0,0,1.513-3.654Zm-16.722,3.3A6.431,6.431,0,1,1,23.3,16.205,6.428,6.428,0,0,1,16.873,22.636Z" transform="translate(0 0)" fill="#8c808a"/>
          <path id="Trazado_895762" data-name="Trazado 895762" d="M139.346,106.977v-5.05l-4.128-.586a12.987,12.987,0,0,0-.565-1.753,17.628,17.628,0,0,0-5.922,2.26,6.423,6.423,0,0,1-7.189,8.336,17.853,17.853,0,0,0-.873,11.079h4.4l.586-4.131a12.964,12.964,0,0,0,3.651-1.514l3.333,2.507,3.568-3.571-2.5-3.336a12.982,12.982,0,0,0,1.513-3.654Z" transform="translate(-105.751 -87.64)" fill="#7b7179"/>
          <path id="Trazado_895763" data-name="Trazado 895763" d="M347.01,336.77v-2.306a.619.619,0,0,0-.532-.613l-2.231-.317a8.693,8.693,0,0,0-1.013-2.447l1.354-1.8a.619.619,0,0,0-.057-.809l-1.629-1.63a.619.619,0,0,0-.81-.057l-1.8,1.355a8.677,8.677,0,0,0-2.445-1.013l-.317-2.233a.619.619,0,0,0-.613-.532h-2.3a.619.619,0,0,0-.613.532l-.317,2.233a8.681,8.681,0,0,0-2.445,1.013l-1.8-1.355a.619.619,0,0,0-.81.057L327,328.474a.619.619,0,0,0-.057.809l1.354,1.8a8.693,8.693,0,0,0-1.013,2.447l-2.231.317a.619.619,0,0,0-.532.613v2.306a.619.619,0,0,0,.532.613l2.231.317a8.693,8.693,0,0,0,1.013,2.447l-1.354,1.8a.619.619,0,0,0,.057.809l1.629,1.63a.619.619,0,0,0,.81.057l1.8-1.355a8.677,8.677,0,0,0,2.445,1.013L334,346.34a.619.619,0,0,0,.613.532h2.3a.619.619,0,0,0,.613-.532l.317-2.233a8.681,8.681,0,0,0,2.445-1.013l1.8,1.355a.619.619,0,0,0,.81-.057l1.629-1.63a.619.619,0,0,0,.057-.809l-1.354-1.8a8.693,8.693,0,0,0,1.013-2.447l2.231-.317A.619.619,0,0,0,347.01,336.77Zm-11.246,3.371a4.524,4.524,0,1,1,4.52-4.524A4.522,4.522,0,0,1,335.764,340.141Z" transform="translate(-285.588 -285.45)" fill="#8c808a"/>
          <g id="Grupo_1104552" data-name="Grupo 1104552" transform="translate(49.636 38.912)">
            <g id="Grupo_1104551" data-name="Grupo 1104551">
              <g id="Grupo_1104546" data-name="Grupo 1104546" transform="translate(6.025 2.3)">
                <path id="Trazado_895764" data-name="Trazado 895764" d="M466.684,347l.634-.844a.619.619,0,0,0-.057-.809l-1.629-1.63a.619.619,0,0,0-.81-.057l-.843.634Z" transform="translate(-463.979 -343.536)" fill="#7b7179"/>
              </g>
              <g id="Grupo_1104547" data-name="Grupo 1104547">
                <path id="Trazado_895765" data-name="Trazado 895765" d="M416.379,327.129l-.317-2.233a.619.619,0,0,0-.613-.532h-1.691l.317,2.233a.619.619,0,0,0,.613.532h1.691Z" transform="translate(-413.758 -324.363)" fill="#7b7179"/>
              </g>
              <g id="Grupo_1104548" data-name="Grupo 1104548" transform="translate(6.025 16.745)">
                <path id="Trazado_895766" data-name="Trazado 895766" d="M463.98,466.652l.843.634a.619.619,0,0,0,.81-.057l1.629-1.63a.619.619,0,0,0,.057-.809l-.633-.844Z" transform="translate(-463.98 -463.945)" fill="#7b7179"/>
              </g>
              <g id="Grupo_1104549" data-name="Grupo 1104549" transform="translate(9.556 9.248)">
                <path id="Trazado_895767" data-name="Trazado 895767" d="M493.419,401.45v4.014l1.7-.241a.619.619,0,0,0,.532-.613V402.3a.619.619,0,0,0-.532-.613Z" transform="translate(-493.419 -401.45)" fill="#7b7179"/>
              </g>
              <g id="Grupo_1104550" data-name="Grupo 1104550" transform="translate(0 19.744)">
                <path id="Trazado_895768" data-name="Trazado 895768" d="M414.076,489.478l-.317,2.233h1.691a.619.619,0,0,0,.613-.532l.317-2.233h-1.691A.619.619,0,0,0,414.076,489.478Z" transform="translate(-413.759 -488.946)" fill="#7b7179"/>
              </g>
            </g>
          </g>
          <path id="Trazado_895769" data-name="Trazado 895769" d="M171,133.493A15.329,15.329,0,1,0,145.1,144.6h0a15.445,15.445,0,0,1,3.476,5.417,26.979,26.979,0,0,1,.407,4.975H162.36a26.979,26.979,0,0,1,.407-4.975,15.445,15.445,0,0,1,3.476-5.417A15.3,15.3,0,0,0,171,133.493Z" transform="translate(-123.505 -103.977)" fill="#ffdc00"/>
          <path id="Trazado_895770" data-name="Trazado 895770" d="M261.095,478.817a3.305,3.305,0,0,1-2.262,3.137,3.294,3.294,0,0,0,1.04.168h.148a3.3,3.3,0,0,0,3.3-3.305Z" transform="translate(-227.782 -421.376)" fill="#7b7179"/>
          <path id="Trazado_895771" data-name="Trazado 895771" d="M281,425.263v3.108a3.315,3.315,0,0,1-3.314,3.317h2.229a3.315,3.315,0,0,0,3.314-3.317v-3.108Z" transform="translate(-244.375 -374.246)" fill="#a0a0a0"/>
          <path id="Trazado_895772" data-name="Trazado 895772" d="M275.277,133.493a15.336,15.336,0,0,0-15.329-15.342q-.562,0-1.114.041a15.345,15.345,0,0,1,9.459,26.41c-2.93,2.794-2.7,2.7-3.476,5.417a26.978,26.978,0,0,0-.407,4.975h2.229a26.978,26.978,0,0,1,.407-4.975,15.445,15.445,0,0,1,3.476-5.417A15.3,15.3,0,0,0,275.277,133.493Z" transform="translate(-227.782 -103.977)" fill="#ffbf00"/>
          <path id="Trazado_895773" data-name="Trazado 895773" d="M215.624,281.3a3.059,3.059,0,0,0-.235-2.318c-.571-1.009-1.974-1.8-4.044-.691-1.06.565-1.8,1.867-2.251,3.979q-.046.213-.088.438c-.634.053-1.18.068-1.524.071s-.889-.018-1.522-.071q-.042-.225-.088-.438c-.455-2.112-1.192-3.414-2.251-3.979-2.071-1.1-3.473-.318-4.044.691a3.06,3.06,0,0,0-.235,2.318,3.44,3.44,0,0,0,1.554,2.026,9.946,9.946,0,0,0,3.442,1.062c.118.987.2,2.189.227,3.654a72.7,72.7,0,0,1-.289,7.408h1.866a73.594,73.594,0,0,0,.28-7.426c-.022-1.26-.087-2.408-.194-3.435.707.046,1.195.047,1.254.047s.548,0,1.257-.047c-.107,1.026-.172,2.174-.194,3.435a73.633,73.633,0,0,0,.28,7.426h1.866a72.638,72.638,0,0,1-.289-7.393,36.682,36.682,0,0,1,.227-3.669,9.948,9.948,0,0,0,3.442-1.062A3.44,3.44,0,0,0,215.624,281.3Zm-13.774.433a1.468,1.468,0,0,1-.658-1.836.576.576,0,0,1,.542-.283,2.421,2.421,0,0,1,1.012.316c.242.129.82.629,1.262,2.519A6.966,6.966,0,0,1,201.849,281.731Zm11.265,0a6.967,6.967,0,0,1-2.158.715c.442-1.889,1.02-2.39,1.262-2.518a2.421,2.421,0,0,1,1.012-.316.577.577,0,0,1,.542.283A1.468,1.468,0,0,1,213.114,281.731Z" transform="translate(-175.316 -244.431)" fill="#ff9a00"/>
        </g>
      </g>
    </g>
  </g>
</svg>
