<svg xmlns="http://www.w3.org/2000/svg" xmlns:xlink="http://www.w3.org/1999/xlink" width="1240" height="296.863" viewBox="0 0 1240 296.863">
  <defs>
    <clipPath id="clip-path">
      <rect id="Rectángulo_377901" data-name="Rectángulo 377901" width="1240" height="296.863" rx="20" transform="translate(0 64.667)" fill="#feebcf"/>
    </clipPath>
    <clipPath id="clip-path-2">
      <rect id="Rectángulo_377901-2" data-name="Rectángulo 377901" width="1270.715" height="436.783" rx="20" transform="translate(1270.715 436.783) rotate(180)" fill="#ffe9df"/>
    </clipPath>
  </defs>
  <g id="Grupo_1104210" data-name="Grupo 1104210" transform="translate(1240 361.53) rotate(180)">
    <g id="Grupo_154360" data-name="Grupo 154360" transform="translate(0)" clip-path="url(#clip-path)">
      <rect id="Rectángulo_378306" data-name="Rectángulo 378306" width="1305.641" height="450.499" transform="translate(-30.011 0)" fill="none"/>
      <g id="Grupo_1099343" data-name="Grupo 1099343" transform="translate(1319.084 458.541) rotate(180)" style="isolation: isolate">
        <g id="Grupo_1099437" data-name="Grupo 1099437" transform="translate(0 0)">
          <rect id="Rectángulo_378306-2" data-name="Rectángulo 378306" width="1305.641" height="450.499" transform="translate(1349.095 482.119) rotate(180)" fill="none"/>
          <g id="Grupo_1098873" data-name="Grupo 1098873" transform="translate(62.964 50.652)" style="isolation: isolate">
            <g id="Grupo_1073825" data-name="Grupo 1073825" transform="translate(0 0)" clip-path="url(#clip-path-2)">
              <rect id="_2149647046saaaa" data-name="2149647046saaaa" width="1293.245" height="443.523" transform="translate(-10.965 -6.74)" fill="#feddce"/>
              <rect id="Rectángulo_378306-3" data-name="Rectángulo 378306" width="1337.623" height="461.534" transform="translate(1340.212 439.931) rotate(180)" fill="none"/>
            </g>
          </g>
          <g id="Grupo_1099338" data-name="Grupo 1099338" transform="translate(1360.985 325.636) rotate(180)">
            <path id="Trazado_873421" data-name="Trazado 873421" d="M301.729,305.993c0-19.882-30.79-44.222-51.908-44.222s-38.98,3.9-63.023,3.9-58.9-8.1-58.9-47.687c0-10.5,5.323-22.793,5.323-41.685s-14.6-37.791-52.374-35.24-46.192-16.645-46.192-34.04S60.931,42.989,0,0V305.993Z" transform="translate(21.138 0)" fill="#fecab2"/>
            <path id="Trazado_873420" data-name="Trazado 873420" d="M0,0,4.04,2.847C54.684,38.578,46.494,76.578,41.6,99.285c-1.065,4.938-1.985,9.2-1.985,12.263,0,21.3,12.5,32.1,37.159,32.1,2.043,0,4.181-.077,6.361-.22,2.344-.16,4.662-.24,6.88-.24,15.708,0,28.484,4.061,36.937,11.75a34.467,34.467,0,0,1,11.229,25.887c0,11.01-1.741,19.636-3.28,27.264-1.1,5.435-2.043,10.13-2.043,14.421,0,41.085,39.453,45.52,56.418,45.52A332.829,332.829,0,0,0,222.643,266c9.935-.96,19.316-1.864,29.656-1.864,10.6,0,24.238,5.845,35.582,15.251,11.775,9.763,18.808,21.4,18.808,31.139v2.167H0ZM306.108,310.524c0-9.6-6.964-21.1-18.625-30.772-11.245-9.319-24.727-15.111-35.185-15.111-10.305,0-19.675.9-29.644,1.864a332.718,332.718,0,0,1-33.375,2.034c-17.14,0-57-4.485-57-46.026,0-4.335.951-9.049,2.054-14.527,1.535-7.589,3.268-16.191,3.268-27.158a34.01,34.01,0,0,0-11.065-25.537c-8.347-7.585-20.973-11.593-36.521-11.593-2.2,0-4.505.08-6.835.237-2.2.147-4.349.223-6.407.223-25.04,0-37.735-10.97-37.735-32.609,0-3.108.92-7.4,1.993-12.364C45.9,76.595,54.05,38.781,3.673,3.241L.58,1.057V312.185H306.108Z" transform="translate(8.129 8.666)" fill="#fff"/>
            <path id="Trazado_873419" data-name="Trazado 873419" d="M0,0,4.04,2.847C54.688,38.581,46.494,76.578,41.6,99.281c-1.061,4.938-1.982,9.206-1.982,12.267,0,21.3,12.5,32.1,37.159,32.1,2.031,0,4.169-.073,6.361-.22,2.348-.16,4.666-.24,6.88-.24,15.708,0,28.48,4.061,36.937,11.75a34.472,34.472,0,0,1,11.229,25.887c0,11.026-1.745,19.649-3.284,27.268-1.1,5.435-2.043,10.13-2.043,14.417,0,41.085,39.457,45.523,56.421,45.523A332.557,332.557,0,0,0,222.589,266c9.95-.96,19.347-1.867,29.709-1.867,10.6,0,24.234,5.845,35.582,15.251,11.775,9.766,18.808,21.406,18.808,31.139v2.167H0ZM306.108,310.524c0-9.6-6.964-21.1-18.625-30.772-11.245-9.319-24.727-15.111-35.185-15.111-10.332,0-19.713.907-29.656,1.867a334.165,334.165,0,0,1-33.363,2.031c-17.14,0-57-4.485-57-46.026,0-4.331.951-9.046,2.054-14.517,1.535-7.585,3.272-16.188,3.272-27.168a34.01,34.01,0,0,0-11.065-25.537c-8.347-7.585-20.973-11.593-36.521-11.593-2.2,0-4.5.08-6.835.237-2.207.147-4.36.223-6.407.223-25.04,0-37.739-10.97-37.739-32.609,0-3.111.924-7.4,1.993-12.36C45.9,76.595,54.054,38.784,3.673,3.241L.58,1.057l0,311.128H306.108Z" transform="translate(0 12.944)" fill="#fff"/>
          </g>
          <g id="Grupo_1099307" data-name="Grupo 1099307" transform="translate(467.392 472.254) rotate(180)">
            <g id="Grupo_1099344" data-name="Grupo 1099344" transform="translate(0 0)">
              <path id="Trazado_873389" data-name="Trazado 873389" d="M391.712,274.665c-25.451,0-40.234-35.2-40.234-55.822s4.994-38.051,4.994-61.52-10.366-57.5-61.044-57.5c-13.437,0-29.178,5.2-53.365,5.2s-48.375-14.249-45.111-51.128S175.645,8.8,153.376,8.8,55.029,59.481,0,0H391.712Z" transform="translate(0 10.573)" fill="#efb499"/>
              <path id="Trazado_873391" data-name="Trazado 873391" d="M354.629,221.358c0-10.108,1.156-19.281,2.391-29.013,1.276-10.084,2.6-20.514,2.6-32.51,0-16.53-5.665-54.982-58.161-54.982-5.488,0-11.5.927-18.463,2-9.748,1.5-20.8,3.2-34.9,3.2-13.973,0-26.39-4.454-34.959-12.541-10.069-9.5-14.572-23.777-13.025-41.3,1.295-14.6-1.834-25.582-9.3-32.628-6.862-6.471-17.426-9.753-31.4-9.753-4.754,0-13.2,2.905-23,6.276-17,5.847-40.268,13.85-64.481,13.85C45.048,33.957,22.121,23.912,3.79,4.1L0,0H400.619V279.694h-2.88c-28.305,0-43.11-37.979-43.11-58.336M399.759.754H1.808L4.461,3.621C22.618,23.251,45.319,33.2,71.929,33.2c24.049,0,47.234-7.976,64.175-13.8,9.865-3.392,18.384-6.323,23.3-6.323,14.219,0,25,3.362,32.029,10,7.64,7.206,10.848,18.376,9.534,33.2-1.531,17.3,2.892,31.384,12.792,40.725,8.406,7.932,20.6,12.3,34.329,12.3,14.03,0,25.038-1.692,34.761-3.189,6.994-1.076,13.037-2.008,18.6-2.008,53.274,0,59.027,38.978,59.027,55.736,0,12.037-1.326,22.487-2.609,32.611-1.222,9.69-2.385,18.844-2.385,28.911,0,20.1,14.515,57.582,42.25,57.582h2.019Z" transform="translate(23.318 0)" fill="#fff"/>
            </g>
          </g>
        </g>
      </g>
    </g>
  </g>
</svg>
