<svg xmlns="http://www.w3.org/2000/svg" xmlns:xlink="http://www.w3.org/1999/xlink" width="129" height="128" viewBox="0 0 129 128">
  <defs>
    <clipPath id="clip-path">
      <rect id="Rectángulo_400938" data-name="Rectángulo 400938" width="120" height="120" fill="none"/>
    </clipPath>
    <clipPath id="clip-path-2">
      <rect id="Rectángulo_400938-2" data-name="Rectángulo 400938" width="113" height="113" transform="translate(0.211 0.211)" fill="none"/>
    </clipPath>
    <clipPath id="clip-path-3">
      <rect id="Rectángulo_401073" data-name="Rectángulo 401073" width="86.443" height="38.93" fill="#7d3a1b"/>
    </clipPath>
  </defs>
  <g id="Grupo_1104668" data-name="Grupo 1104668" transform="translate(-376 -3972)">
    <g id="Grupo_108927" data-name="Grupo 108927" transform="translate(-14 -495)">
      <path id="Rectángulo_36179" data-name="Rectángulo 36179" d="M0,0H129V128H0Z" transform="translate(390 4467)" fill="#feebcf"/>
    </g>
    <g id="Grupo_1099431" data-name="Grupo 1099431" transform="translate(118.789 -1304.211)">
      <g id="Grupo_1099379" data-name="Grupo 1099379" transform="translate(265 5284)">
        <rect id="Rectángulo_401103" data-name="Rectángulo 401103" width="113" height="113" transform="translate(0.211 0.211)" fill="none"/>
        <g id="Grupo_1099348" data-name="Grupo 1099348">
          <g id="Grupo_1099282" data-name="Grupo 1099282">
            <g id="Grupo_1099281" data-name="Grupo 1099281" clip-path="url(#clip-path-3)">
              <path id="Trazado_873375" data-name="Trazado 873375" d="M70.12,8.532c-3.88,0-5.887-1.9-7.658-3.581C60.723,3.3,59.226,1.882,56.1,1.882S51.467,3.3,49.728,4.95c-1.771,1.679-3.775,3.581-7.658,3.581s-5.886-1.9-7.658-3.581C32.674,3.3,31.177,1.882,28.046,1.882S23.418,3.3,21.682,4.95C19.911,6.629,17.9,8.532,14.024,8.532S8.135,6.629,6.364,4.95C4.628,3.3,3.131,1.882,0,1.882V0C3.88,0,5.887,1.906,7.658,3.581,9.4,5.23,10.893,6.65,14.024,6.65s4.628-1.419,6.364-3.066C22.157,1.906,24.166,0,28.046,0s5.89,1.906,7.658,3.581C37.442,5.23,38.939,6.65,42.07,6.65S46.7,5.23,48.437,3.581C50.205,1.906,52.215,0,56.1,0s5.89,1.906,7.658,3.581C65.491,5.23,66.988,6.65,70.12,6.65s4.628-1.419,6.367-3.069C78.255,1.906,80.261,0,84.144,0V1.882c-3.131,0-4.628,1.422-6.367,3.069C76.006,6.629,74,8.532,70.12,8.532" transform="translate(2.299 30.399)" fill="#7d3a1b"/>
              <path id="Trazado_873376" data-name="Trazado 873376" d="M70.12,8.532c-3.88,0-5.889-1.9-7.658-3.584C60.723,3.3,59.226,1.882,56.1,1.882S51.467,3.3,49.728,4.947c-1.768,1.682-3.775,3.584-7.658,3.584s-5.889-1.9-7.658-3.584C32.674,3.3,31.177,1.882,28.046,1.882S23.418,3.3,21.682,4.947C19.911,6.629,17.9,8.532,14.025,8.532s-5.889-1.9-7.661-3.584C4.628,3.3,3.131,1.882,0,1.882V0C3.88,0,5.889,1.9,7.658,3.581,9.4,5.23,10.893,6.65,14.025,6.65s4.628-1.419,6.364-3.069C22.157,1.9,24.166,0,28.046,0s5.889,1.9,7.661,3.581C37.442,5.23,38.939,6.65,42.071,6.65S46.7,5.23,48.437,3.581C50.206,1.9,52.215,0,56.1,0s5.89,1.9,7.658,3.581C65.491,5.23,66.988,6.65,70.12,6.65s4.628-1.419,6.367-3.069C78.257,1.9,80.264,0,84.147,0V1.882c-3.131,0-4.631,1.422-6.37,3.066C76.006,6.629,74,8.532,70.12,8.532" transform="translate(1.533 20.266)" fill="#7d3a1b"/>
              <path id="Trazado_873377" data-name="Trazado 873377" d="M70.119,8.532c-3.88,0-5.889-1.9-7.658-3.584C60.723,3.3,59.226,1.882,56.1,1.882S51.467,3.3,49.728,4.947C47.96,6.629,45.95,8.532,42.071,8.532s-5.89-1.9-7.658-3.584C32.674,3.3,31.177,1.882,28.046,1.882S23.418,3.3,21.682,4.947C19.911,6.629,17.9,8.532,14.025,8.532s-5.89-1.9-7.661-3.584C4.628,3.3,3.131,1.882,0,1.882V0C3.88,0,5.889,1.9,7.658,3.581,9.393,5.23,10.893,6.65,14.025,6.65s4.628-1.419,6.364-3.069C22.156,1.9,24.166,0,28.046,0s5.89,1.9,7.661,3.581C37.442,5.23,38.939,6.65,42.071,6.65S46.7,5.23,48.437,3.581C50.205,1.9,52.215,0,56.1,0s5.889,1.9,7.658,3.581C65.491,5.23,66.988,6.65,70.119,6.65s4.628-1.419,6.367-3.069C78.257,1.9,80.261,0,84.147,0V1.882c-3.131,0-4.631,1.422-6.37,3.066C76.006,6.629,74,8.532,70.119,8.532" transform="translate(0.766 10.133)" fill="#7d3a1b"/>
              <path id="Trazado_873378" data-name="Trazado 873378" d="M70.12,8.529c-3.88,0-5.887-1.9-7.658-3.581C60.723,3.3,59.226,1.882,56.095,1.882S51.467,3.3,49.731,4.947C47.96,6.626,45.953,8.529,42.07,8.529s-5.887-1.9-7.658-3.581C32.674,3.3,31.177,1.882,28.046,1.882S23.418,3.3,21.682,4.944C19.914,6.626,17.9,8.529,14.024,8.529s-5.89-1.9-7.661-3.581C4.628,3.3,3.131,1.882,0,1.882V0C3.88,0,5.89,1.9,7.658,3.581,9.4,5.228,10.893,6.647,14.024,6.647s4.628-1.419,6.364-3.066C22.159,1.9,24.166,0,28.046,0s5.887,1.9,7.661,3.581c1.736,1.646,3.233,3.066,6.364,3.066S46.7,5.228,48.437,3.581C50.208,1.9,52.215,0,56.095,0s5.887,1.9,7.658,3.581c1.739,1.646,3.236,3.066,6.367,3.066s4.628-1.419,6.367-3.066C78.257,1.9,80.264,0,84.147,0V1.882c-3.134,0-4.631,1.419-6.37,3.066C76.006,6.626,74,8.529,70.12,8.529" transform="translate(0 0.003)" fill="#7d3a1b"/>
            </g>
          </g>
        </g>
        <path id="Trazado_873425" data-name="Trazado 873425" d="M47.337,0A47.337,47.337,0,1,1,0,47.337,47.337,47.337,0,0,1,47.337,0Z" transform="translate(14.061 16.873)" fill="#7d3a1b"/>
        <circle id="Elipse_11503" data-name="Elipse 11503" cx="49.5" cy="49.5" r="49.5" transform="translate(7.211 7.211)" fill="#fff"/>
      </g>
    </g>
    <g id="Grupo_1099977" data-name="Grupo 1099977" transform="translate(409.48 4008.838)">
      <path id="Trazado_873216" data-name="Trazado 873216" d="M0,0H62.506V62.507H0Z" transform="translate(0 0)" fill="none"/>
      <g id="Grupo_1103992" data-name="Grupo 1103992" transform="translate(-13.424 -2.838)">
        <g id="Grupo_1103991" data-name="Grupo 1103991" transform="translate(19.805 0)">
          <path id="Trazado_895015" data-name="Trazado 895015" d="M58.387,10.712V8.379A3.7,3.7,0,0,0,54.7,4.687H34.18a3.7,3.7,0,0,0-3.691,3.691v2.333A3.7,3.7,0,0,0,34.18,14.4H54.7A3.7,3.7,0,0,0,58.387,10.712Zm-25.878,0V8.379A1.673,1.673,0,0,1,34.18,6.708H54.7a1.673,1.673,0,0,1,1.671,1.671v2.333A1.673,1.673,0,0,1,54.7,12.383H34.18A1.673,1.673,0,0,1,32.509,10.712ZM59.293,47.137H42.882a1.01,1.01,0,1,0,0,2.02H59.293a1.01,1.01,0,0,0,0-2.02ZM26.345,2.02H62.531A4.519,4.519,0,0,1,66.906,5.4a1.01,1.01,0,1,0,1.955-.508A6.54,6.54,0,0,0,62.531,0H26.345A6.548,6.548,0,0,0,19.8,6.541V55.6a6.512,6.512,0,0,0,4.587,6.244,1.01,1.01,0,0,0,.6-1.928,4.5,4.5,0,0,1-3.17-4.316V6.541a4.525,4.525,0,0,1,4.52-4.521ZM59.293,34.37H42.882a1.01,1.01,0,0,0,0,2.02H59.293a1.01,1.01,0,0,0,0-2.02ZM27.63,35.38a4.426,4.426,0,1,0,4.426-4.426A4.43,4.43,0,0,0,27.63,35.38Zm6.831,0a2.405,2.405,0,1,1-2.405-2.406A2.408,2.408,0,0,1,34.461,35.38ZM66.173,53.342,63.015,56.5a1.01,1.01,0,1,0,1.428,1.428L67.6,54.77a1.01,1.01,0,1,0-1.428-1.428Zm-34.117-.769a4.426,4.426,0,1,0-4.426-4.426A4.43,4.43,0,0,0,32.056,52.572Zm0-6.831a2.405,2.405,0,1,1-2.406,2.405A2.408,2.408,0,0,1,32.056,45.741Zm50-5.426-1.424-1.424a4.474,4.474,0,0,0-6.331,0l-5.226,5.226V9.92a1.01,1.01,0,1,0-2.02,0V46.138L55,58.192a8.129,8.129,0,0,0-1.42,1.932H29.414a1.01,1.01,0,1,0,0,2.02h23.4l-.681,2.333a3.5,3.5,0,0,0,3.332,4.476c.831,0,1.148-.227,3.867-.982a8.138,8.138,0,0,0,3.417-2.024l19.3-19.3a4.482,4.482,0,0,0,0-6.331ZM55.9,66.87a1.472,1.472,0,0,1-1.826-1.826l.792-2.712,3.746,3.746Zm4.655-1.706L55.78,60.389c.553-.78.007-.086,12.206-12.329l4.9,4.9C60.6,65.2,61.329,64.614,60.554,65.163ZM74.312,51.529l-4.9-4.9,2.424-2.424,4.9,4.9Zm6.311-6.312-2.459,2.459-4.9-4.9,2.459-2.459a2.455,2.455,0,0,1,3.474,0l1.424,1.424a2.459,2.459,0,0,1,0,3.474Zm-49.64-19.79,5.945-5.945A1.01,1.01,0,0,0,35.5,18.054L30.27,23.284l-1.659-1.659a1.01,1.01,0,1,0-1.428,1.428l2.373,2.373a1.01,1.01,0,0,0,1.428,0ZM59.293,21.6H42.882a1.01,1.01,0,0,0,0,2.02H59.293a1.01,1.01,0,0,0,0-2.02Z" transform="translate(-19.805 0)" fill="#7d3a1b"/>
        </g>
      </g>
    </g>
  </g>
</svg>
