<svg xmlns="http://www.w3.org/2000/svg" xmlns:xlink="http://www.w3.org/1999/xlink" width="190" height="134" viewBox="0 0 190 134">
  <defs>
    <clipPath id="clip-path">
      <rect id="Rect치ngulo_402355" data-name="Rect치ngulo 402355" width="87" height="87" transform="translate(342 951)" fill="#fff" stroke="#707070" stroke-width="1"/>
    </clipPath>
  </defs>
  <g id="Grupo_1102652" data-name="Grupo 1102652" transform="translate(-330 -7019)">
    <rect id="Rect치ngulo_402215" data-name="Rect치ngulo 402215" width="190" height="134" transform="translate(330 7019)" fill="none"/>
    <g id="Grupo_1100287" data-name="Grupo 1100287" transform="translate(16 -507)">
      <g id="Grupo_156312" data-name="Grupo 156312" transform="translate(344 7528)">
        <path id="Elipse_5845" data-name="Elipse 5845" d="M65.5,0A65.5,65.5,0,1,1,0,65.5,65.5,65.5,0,0,1,65.5,0Z" transform="translate(0 0)" fill="#ffce73"/>
      </g>
      <g id="Enmascarar_grupo_1098715" data-name="Enmascarar grupo 1098715" transform="translate(24 6599)" clip-path="url(#clip-path)">
        <g id="Grupo_1103990" data-name="Grupo 1103990" transform="translate(342 952.19)">
          <g id="Grupo_1103982" data-name="Grupo 1103982" transform="translate(1 1.9)">
            <g id="Grupo_1103970" data-name="Grupo 1103970" transform="translate(3.43 26.91)">
              <path id="Trazado_894999" data-name="Trazado 894999" d="M78.527,24.938H4.919a1.319,1.319,0,1,1,0-2.638H78.527a1.319,1.319,0,0,1,0,2.638Z" transform="translate(-3.6 -22.3)" fill="#7d3a1b"/>
            </g>
            <g id="Grupo_1103971" data-name="Grupo 1103971" transform="translate(61.735 53.029)">
              <path id="Trazado_895000" data-name="Trazado 895000" d="M59.145,54.764A11.429,11.429,0,0,1,47.8,43.419,1.246,1.246,0,0,1,49.119,42.1H69.17a1.246,1.246,0,0,1,1.319,1.319A11.429,11.429,0,0,1,59.145,54.764ZM50.57,44.738a8.67,8.67,0,0,0,17.149,0Z" transform="translate(-47.8 -42.1)" fill="#7d3a1b"/>
            </g>
            <g id="Grupo_1103972" data-name="Grupo 1103972" transform="translate(0 53.029)">
              <path id="Trazado_895001" data-name="Trazado 895001" d="M12.345,54.764A11.429,11.429,0,0,1,1,43.419,1.246,1.246,0,0,1,2.319,42.1H22.37a1.246,1.246,0,0,1,1.319,1.319A11.429,11.429,0,0,1,12.345,54.764ZM3.77,44.738a8.67,8.67,0,0,0,17.149,0Z" transform="translate(-1 -42.1)" fill="#7d3a1b"/>
            </g>
            <g id="Grupo_1103973" data-name="Grupo 1103973" transform="translate(4.038 27.174)">
              <path id="Trazado_895002" data-name="Trazado 895002" d="M17.3,50.993H5.432a1.2,1.2,0,0,1-1.055-.528,1.1,1.1,0,0,1-.264-1.055l5.936-25.855a1.352,1.352,0,0,1,2.638,0L18.623,49.41a1.026,1.026,0,0,1-.264,1.055A1.628,1.628,0,0,1,17.3,50.993ZM7.147,48.355h8.574l-4.353-18.6Z" transform="translate(-4.061 -22.5)" fill="#7d3a1b"/>
            </g>
            <g id="Grupo_1103974" data-name="Grupo 1103974" transform="translate(10 27.149)">
              <path id="Trazado_895003" data-name="Trazado 895003" d="M15.861,51a1.285,1.285,0,0,1-1.319-1.055L8.606,24.089a1.345,1.345,0,0,1,2.638-.528L17.18,49.416A1.335,1.335,0,0,1,16.125,51Z" transform="translate(-8.581 -22.481)" fill="#7d3a1b"/>
            </g>
            <g id="Grupo_1103975" data-name="Grupo 1103975" transform="translate(65.773 27.174)">
              <path id="Trazado_895004" data-name="Trazado 895004" d="M64.1,50.993H52.232a1.2,1.2,0,0,1-1.055-.528,1.1,1.1,0,0,1-.264-1.055l5.936-25.855a1.352,1.352,0,0,1,2.638,0L65.423,49.41a1.026,1.026,0,0,1-.264,1.055A1.628,1.628,0,0,1,64.1,50.993ZM53.947,48.355h8.574l-4.353-18.6Z" transform="translate(-50.861 -22.5)" fill="#7d3a1b"/>
            </g>
            <g id="Grupo_1103976" data-name="Grupo 1103976" transform="translate(71.736 27.149)">
              <path id="Trazado_895005" data-name="Trazado 895005" d="M62.661,51a1.285,1.285,0,0,1-1.319-1.055L55.406,24.089a1.345,1.345,0,0,1,2.638-.528L63.98,49.416A1.335,1.335,0,0,1,62.925,51Z" transform="translate(-55.381 -22.481)" fill="#7d3a1b"/>
            </g>
            <g id="Grupo_1103981" data-name="Grupo 1103981" transform="translate(26.646)">
              <g id="Grupo_1103977" data-name="Grupo 1103977" transform="translate(0 5.277)">
                <path id="Trazado_895006" data-name="Trazado 895006" d="M22.519,18.959A1.246,1.246,0,0,1,21.2,17.64v-9.1A2.922,2.922,0,0,1,24.234,5.9H51.408a2.836,2.836,0,0,1,3.034,2.638v8.97a1.319,1.319,0,0,1-2.638,0V8.538c0,.132-.132,0-.4,0H24.234c-.132,0-.264.132-.4.132v8.97a1.246,1.246,0,0,1-1.319,1.319Z" transform="translate(-21.2 -5.9)" fill="#7d3a1b"/>
              </g>
              <g id="Grupo_1103978" data-name="Grupo 1103978" transform="translate(0 15.646)">
                <path id="Trazado_895007" data-name="Trazado 895007" d="M51.54,27.8a1.319,1.319,0,0,1,0-2.638.6.6,0,0,0,.4-.4V16.715L37.953,19.221h-.528L23.838,16.715v8.047a.6.6,0,0,0,.4.4,1.319,1.319,0,0,1,0,2.638A3.161,3.161,0,0,1,21.2,24.761v-9.63a1.2,1.2,0,0,1,.528-1.055,1.026,1.026,0,0,1,1.055-.264l14.906,2.77,15.3-2.77a1.026,1.026,0,0,1,1.055.264,1.628,1.628,0,0,1,.528,1.055v9.63A3.161,3.161,0,0,1,51.54,27.8Z" transform="translate(-21.2 -13.761)" fill="#7d3a1b"/>
              </g>
              <g id="Grupo_1103979" data-name="Grupo 1103979" transform="translate(9.234)">
                <path id="Trazado_895008" data-name="Trazado 895008" d="M29.519,9.815A1.246,1.246,0,0,1,28.2,8.5V6.253A4.229,4.229,0,0,1,32.553,1.9H37.17a4.229,4.229,0,0,1,4.353,4.353V8.364a1.319,1.319,0,1,1-2.638,0V6.253A1.593,1.593,0,0,0,37.17,4.538H32.553a1.593,1.593,0,0,0-1.715,1.715V8.5A1.246,1.246,0,0,1,29.519,9.815Z" transform="translate(-28.2 -1.9)" fill="#7d3a1b"/>
              </g>
              <g id="Grupo_1103980" data-name="Grupo 1103980" transform="translate(14.774 13.059)">
                <path id="Trazado_895009" data-name="Trazado 895009" d="M35.3,14.438H33.719A1.246,1.246,0,0,1,32.4,13.119,1.246,1.246,0,0,1,33.719,11.8H35.3a1.246,1.246,0,0,1,1.319,1.319A1.246,1.246,0,0,1,35.3,14.438Z" transform="translate(-32.4 -11.8)" fill="#7d3a1b"/>
              </g>
            </g>
          </g>
          <g id="Grupo_1103986" data-name="Grupo 1103986" transform="translate(25.8 67.857)">
            <g id="Grupo_1103983" data-name="Grupo 1103983">
              <path id="Trazado_895010" data-name="Trazado 895010" d="M57.659,67.993H26.791c-3.825,0-6.991-3.562-6.991-8.047,0-4.617,3.166-8.047,7.387-8.047H58.055a1.385,1.385,0,0,1,1.187.66,1.015,1.015,0,0,1-.132,1.319,10.53,10.53,0,0,0-.4,12,1.2,1.2,0,0,1,0,1.319c-.264.4-.528.791-1.055.791ZM27.187,54.538c-2.77,0-4.749,2.374-4.749,5.408s1.979,5.408,4.353,5.408H55.548a12.444,12.444,0,0,1,.264-10.817Z" transform="translate(-19.8 -51.9)" fill="#7d3a1b"/>
            </g>
            <g id="Grupo_1103984" data-name="Grupo 1103984" transform="translate(21.502 9.102)">
              <path id="Trazado_895011" data-name="Trazado 895011" d="M50.61,61.438H37.419a1.319,1.319,0,0,1,0-2.638H50.61a1.319,1.319,0,1,1,0,2.638Z" transform="translate(-36.1 -58.8)" fill="#7d3a1b"/>
            </g>
            <g id="Grupo_1103985" data-name="Grupo 1103985" transform="translate(21.502 4.749)">
              <path id="Trazado_895012" data-name="Trazado 895012" d="M50.61,58.138H37.419a1.319,1.319,0,0,1,0-2.638H50.61a1.319,1.319,0,0,1,0,2.638Z" transform="translate(-36.1 -55.5)" fill="#7d3a1b"/>
            </g>
          </g>
          <g id="Grupo_1103989" data-name="Grupo 1103989" transform="translate(39.255 28.81)">
            <g id="Grupo_1103987" data-name="Grupo 1103987">
              <path id="Trazado_895013" data-name="Trazado 895013" d="M31.319,63.985A1.246,1.246,0,0,1,30,62.665V23.619a1.319,1.319,0,0,1,2.638,0V62.665A1.246,1.246,0,0,1,31.319,63.985Z" transform="translate(-30 -22.3)" fill="#7d3a1b"/>
            </g>
            <g id="Grupo_1103988" data-name="Grupo 1103988" transform="translate(9.498)">
              <path id="Trazado_895014" data-name="Trazado 895014" d="M38.519,63.985A1.246,1.246,0,0,1,37.2,62.665V23.619a1.319,1.319,0,0,1,2.638,0V62.665A1.246,1.246,0,0,1,38.519,63.985Z" transform="translate(-37.2 -22.3)" fill="#7d3a1b"/>
            </g>
          </g>
        </g>
      </g>
    </g>
  </g>
</svg>
