<svg xmlns="http://www.w3.org/2000/svg" xmlns:xlink="http://www.w3.org/1999/xlink" width="190" height="134" viewBox="0 0 190 134">
  <defs>
    <clipPath id="clip-path">
      <rect id="Rect치ngulo_402355" data-name="Rect치ngulo 402355" width="87" height="87" transform="translate(342 951)" fill="#fff" stroke="#707070" stroke-width="1"/>
    </clipPath>
  </defs>
  <g id="Grupo_1102652" data-name="Grupo 1102652" transform="translate(-330 -7019)">
    <rect id="Rect치ngulo_402215" data-name="Rect치ngulo 402215" width="190" height="134" transform="translate(330 7019)" fill="none"/>
    <g id="Grupo_1100287" data-name="Grupo 1100287" transform="translate(16 -507)">
      <g id="Grupo_156312" data-name="Grupo 156312" transform="translate(344 7528)">
        <path id="Elipse_5845" data-name="Elipse 5845" d="M65.5,0A65.5,65.5,0,1,1,0,65.5,65.5,65.5,0,0,1,65.5,0Z" transform="translate(0 0)" fill="#ffce73"/>
      </g>
      <g id="Enmascarar_grupo_1098715" data-name="Enmascarar grupo 1098715" transform="translate(24 6599)" clip-path="url(#clip-path)">
        <g id="Grupo_1103965" data-name="Grupo 1103965" transform="translate(346.864 947.872)">
          <g id="Grupo_1103964" data-name="Grupo 1103964" transform="translate(0 6.105)">
            <path id="Trazado_894975" data-name="Trazado 894975" d="M178.671,463.607a1.576,1.576,0,1,0,1.547,1.274A1.59,1.59,0,0,0,178.671,463.607Z" transform="translate(-149.19 -391.515)" fill="#7d3a1b"/>
            <path id="Trazado_894976" data-name="Trazado 894976" d="M249.57,243.223a13.247,13.247,0,1,0-9.372,3.885A13.285,13.285,0,0,0,249.57,243.223Zm-16.515-16.529a10.112,10.112,0,1,1,0,14.3A10.031,10.031,0,0,1,233.055,226.694Z" transform="translate(-191.188 -186.784)" fill="#7d3a1b"/>
            <path id="Trazado_894977" data-name="Trazado 894977" d="M78.914,74.554l-7.622-7.629a1.576,1.576,0,0,0-2.229,0l-2.038,2.04-2.246-2.249a20.839,20.839,0,0,0-1.071-28.258A20.628,20.628,0,0,0,52.8,32.709C44.568,18.61,31.082,6.977,30.506,6.484a1.576,1.576,0,0,0-2.05,0A128.289,128.289,0,0,0,14.31,21.164,83.631,83.631,0,0,0,4.534,35.675C1.526,41.529,0,46.97,0,51.846a29.507,29.507,0,0,0,21.979,28.54,1.576,1.576,0,0,0,.8-3.048A26.354,26.354,0,0,1,3.152,51.846c0-17.142,21.357-37.539,26.33-42.055,3.127,2.835,12.73,11.938,19.423,22.576A20.805,20.805,0,0,0,44.515,73.48a26.339,26.339,0,0,1-8.308,3.851,1.576,1.576,0,1,0,.8,3.047,29.556,29.556,0,0,0,11.98-6.413h.019a20.619,20.619,0,0,0,13.54-5.018L64.8,71.195l-2.04,2.042a1.576,1.576,0,0,0,0,2.228l7.617,7.623a6.037,6.037,0,1,0,8.541-8.534ZM36.543,40.686a17.648,17.648,0,1,1,0,24.958A17.509,17.509,0,0,1,36.543,40.686ZM76.684,80.86a2.885,2.885,0,0,1-4.082,0l-6.5-6.51,4.079-4.082,6.508,6.513A2.889,2.889,0,0,1,76.684,80.86Z" transform="translate(0 -6.105)" fill="#7d3a1b"/>
            <path id="Trazado_894978" data-name="Trazado 894978" d="M290.662,289.735l3.306-4.568a1.576,1.576,0,1,0-2.553-1.848l-2.248,3.105-1.067-1.019a1.576,1.576,0,0,0-2.176,2.28l2.373,2.265a1.576,1.576,0,0,0,1.088.436q.072,0,.143-.007A1.576,1.576,0,0,0,290.662,289.735Z" transform="translate(-240.458 -239.088)" fill="#7d3a1b"/>
          </g>
        </g>
      </g>
    </g>
  </g>
</svg>
