<svg xmlns="http://www.w3.org/2000/svg" xmlns:xlink="http://www.w3.org/1999/xlink" width="190" height="134" viewBox="0 0 190 134">
  <defs>
    <clipPath id="clip-path">
      <rect id="Rect치ngulo_402355" data-name="Rect치ngulo 402355" width="87" height="87" transform="translate(342 951)" fill="#fff" stroke="#707070" stroke-width="1"/>
    </clipPath>
  </defs>
  <g id="Grupo_1102652" data-name="Grupo 1102652" transform="translate(-330 -7019)">
    <rect id="Rect치ngulo_402215" data-name="Rect치ngulo 402215" width="190" height="134" transform="translate(330 7019)" fill="none"/>
    <g id="Grupo_1100287" data-name="Grupo 1100287" transform="translate(16 -507)">
      <g id="Grupo_156312" data-name="Grupo 156312" transform="translate(344 7528)">
        <path id="Elipse_5845" data-name="Elipse 5845" d="M65.5,0A65.5,65.5,0,1,1,0,65.5,65.5,65.5,0,0,1,65.5,0Z" transform="translate(0 0)" fill="#ffce73"/>
      </g>
      <g id="Enmascarar_grupo_1098715" data-name="Enmascarar grupo 1098715" transform="translate(24 6599)" clip-path="url(#clip-path)">
        <g id="XMLID_1215_" transform="translate(349.21 956.974)">
          <g id="XMLID_638_" transform="translate(0 0.127)">
            <path id="XMLID_665_" d="M209.169,291.582a6.085,6.085,0,0,0-6.276-1.332,6.793,6.793,0,0,0-4.5,6.383v2.281A5.577,5.577,0,0,0,208.86,301.6l1.451-2.645A6.122,6.122,0,0,0,209.169,291.582Zm-1.377,5.987-1.451,2.645a2.7,2.7,0,0,1-5.073-1.3v-2.281a3.913,3.913,0,0,1,2.591-3.677,3.242,3.242,0,0,1,3.933,4.612Z" transform="translate(-169.885 -248.25)" fill="#7d3a1b"/>
            <path id="XMLID_673_" d="M391.089,464.332l-4.013,4.013a1.437,1.437,0,1,0,2.032,2.032l4.013-4.013a1.437,1.437,0,0,0-2.032-2.032Z" transform="translate(-331.092 -397.265)" fill="#7d3a1b"/>
            <path id="XMLID_682_" d="M71.824,35.89a4.913,4.913,0,0,0-8.076,3.76v2.825a29.761,29.761,0,0,0-7.3-9.795L59,29.444a8.424,8.424,0,0,0,3.938.974,8.518,8.518,0,0,0,8.379-7.194,6.841,6.841,0,1,0-9.663-9.663,8.471,8.471,0,0,0-4.934,14.134l-2.513,3.189a29.666,29.666,0,0,0-15.985-5.612V21.283A8.64,8.64,0,1,0,45.359,5.631a9.427,9.427,0,0,0-17.144,0A8.639,8.639,0,1,0,35.35,21.283v3.988a29.667,29.667,0,0,0-15.985,5.612l-2.513-3.189A8.471,8.471,0,0,0,11.918,13.56a6.841,6.841,0,1,0-9.663,9.663,8.518,8.518,0,0,0,8.379,7.194,8.424,8.424,0,0,0,3.938-.974l2.551,3.237a29.761,29.761,0,0,0-7.3,9.794V39.65A4.913,4.913,0,1,0,0,39.65V47.82A23.65,23.65,0,0,0,6.973,64.654l8.586,8.586a1.437,1.437,0,1,0,2.032-2.032L9,62.622a20.8,20.8,0,0,1-6.131-14.8V39.65a2.039,2.039,0,0,1,4.079,0v9.123a10.909,10.909,0,0,0,3.216,7.764l7.794,7.794.579.579a1.437,1.437,0,0,0,2.032-2.032l-8.153-8.153a2.452,2.452,0,0,1,3.468-3.468l6.534,6.534a1.437,1.437,0,0,0,1.016.421,10.355,10.355,0,0,1,7.37,3.053A15.4,15.4,0,0,1,35.35,72.227a1.437,1.437,0,1,0,2.874,0,15.4,15.4,0,0,1,4.541-10.963,10.354,10.354,0,0,1,7.37-3.053,1.437,1.437,0,0,0,1.016-.421l6.534-6.534a2.452,2.452,0,1,1,3.468,3.468L53,62.878a1.437,1.437,0,1,0,2.032,2.032l.579-.579,7.794-7.794a10.909,10.909,0,0,0,3.216-7.764V39.65a2.039,2.039,0,0,1,4.079,0V47.82a21,21,0,0,1-2.515,9.949,1.437,1.437,0,1,0,2.529,1.366A23.883,23.883,0,0,0,73.574,47.82V39.65a4.9,4.9,0,0,0-1.751-3.76ZM62.5,16.353a1.437,1.437,0,0,0,1.041-.573A3.968,3.968,0,1,1,69.1,21.334a1.437,1.437,0,0,0-.573,1.041A5.6,5.6,0,1,1,62.5,16.353Zm-37.23-2.559a5.752,5.752,0,0,1,4.357-5.589,1.437,1.437,0,0,0,1-.9,6.553,6.553,0,0,1,12.31,0,1.437,1.437,0,0,0,1,.9A5.763,5.763,0,1,1,38.5,17.9l2.6-2.6a1.437,1.437,0,0,0-2.032-2.032l-.846.846V9.283a1.437,1.437,0,0,0-2.874,0v6.283l-2.289-2.289a1.437,1.437,0,0,0-2.032,2.032l3.251,3.251a5.764,5.764,0,0,1-9-4.765ZM5.048,22.375a1.437,1.437,0,0,0-.573-1.041,3.968,3.968,0,1,1,5.553-5.553,1.436,1.436,0,0,0,1.041.573,5.6,5.6,0,1,1-6.021,6.021ZM10.625,49a26.579,26.579,0,0,1,4.709-10.14h4.148a3.547,3.547,0,0,1,2.111,6.4,8.508,8.508,0,0,0-3.111,4.526l-.561-.561a5.333,5.333,0,0,0-7.3-.221Zm38.9,6.348a13.2,13.2,0,0,0-8.794,3.881,18.354,18.354,0,0,0-3.946,5.848,18.355,18.355,0,0,0-3.946-5.848,13.2,13.2,0,0,0-8.794-3.881L21.036,52.34v-.268a5.625,5.625,0,0,1,2.268-4.5,6.421,6.421,0,0,0-3.821-11.58H17.835a26.7,26.7,0,0,1,32.75-4.031,10.055,10.055,0,0,0-2.556,18.082l2.989,1.926a4.1,4.1,0,0,1,.992.9Zm6.127-6.127-1.6,1.6a6.974,6.974,0,0,0-1.475-1.278l-2.989-1.926a7.182,7.182,0,0,1,3.89-13.218h.535A26.775,26.775,0,0,1,62.95,49,5.333,5.333,0,0,0,55.653,49.225Z" transform="translate(0 -0.127)" fill="#7d3a1b"/>
            <path id="XMLID_1075_" d="M447.844,432.1a1.435,1.435,0,1,0,1.016.42A1.448,1.448,0,0,0,447.844,432.1Z" transform="translate(-382.258 -370.023)" fill="#7d3a1b"/>
          </g>
        </g>
      </g>
    </g>
  </g>
</svg>
