<svg xmlns="http://www.w3.org/2000/svg" xmlns:xlink="http://www.w3.org/1999/xlink" width="129" height="128" viewBox="0 0 129 128">
  <defs>
    <clipPath id="clip-path">
      <rect id="Rectángulo_400938" data-name="Rectángulo 400938" width="120" height="120" fill="none"/>
    </clipPath>
    <clipPath id="clip-path-2">
      <rect id="Rectángulo_400938-2" data-name="Rectángulo 400938" width="113" height="113" transform="translate(0.211 0.211)" fill="none"/>
    </clipPath>
    <clipPath id="clip-path-3">
      <rect id="Rectángulo_401073" data-name="Rectángulo 401073" width="86.443" height="38.93" fill="#7d3a1b"/>
    </clipPath>
  </defs>
  <g id="Grupo_1104656" data-name="Grupo 1104656" transform="translate(-376 -7359.267)">
    <g id="Grupo_108927" data-name="Grupo 108927" transform="translate(-14 2892.267)">
      <path id="Rectángulo_36179" data-name="Rectángulo 36179" d="M0,0H129V128H0Z" transform="translate(390 4467)" fill="#feebcf"/>
    </g>
    <g id="Grupo_1104493" data-name="Grupo 1104493" transform="translate(118.789 2083.056)">
      <g id="Grupo_1099379" data-name="Grupo 1099379" transform="translate(265 5284)">
        <rect id="Rectángulo_401103" data-name="Rectángulo 401103" width="113" height="113" transform="translate(0.211 0.211)" fill="none"/>
        <g id="Grupo_1099348" data-name="Grupo 1099348">
          <g id="Grupo_1099282" data-name="Grupo 1099282">
            <g id="Grupo_1099281" data-name="Grupo 1099281" clip-path="url(#clip-path-3)">
              <path id="Trazado_873375" data-name="Trazado 873375" d="M70.12,8.532c-3.88,0-5.887-1.9-7.658-3.581C60.723,3.3,59.226,1.882,56.1,1.882S51.467,3.3,49.728,4.95c-1.771,1.679-3.775,3.581-7.658,3.581s-5.886-1.9-7.658-3.581C32.674,3.3,31.177,1.882,28.046,1.882S23.418,3.3,21.682,4.95C19.911,6.629,17.9,8.532,14.024,8.532S8.135,6.629,6.364,4.95C4.628,3.3,3.131,1.882,0,1.882V0C3.88,0,5.887,1.906,7.658,3.581,9.4,5.23,10.893,6.65,14.024,6.65s4.628-1.419,6.364-3.066C22.157,1.906,24.166,0,28.046,0s5.89,1.906,7.658,3.581C37.442,5.23,38.939,6.65,42.07,6.65S46.7,5.23,48.437,3.581C50.205,1.906,52.215,0,56.1,0s5.89,1.906,7.658,3.581C65.491,5.23,66.988,6.65,70.12,6.65s4.628-1.419,6.367-3.069C78.255,1.906,80.261,0,84.144,0V1.882c-3.131,0-4.628,1.422-6.367,3.069C76.006,6.629,74,8.532,70.12,8.532" transform="translate(2.299 30.399)" fill="#7d3a1b"/>
              <path id="Trazado_873376" data-name="Trazado 873376" d="M70.12,8.532c-3.88,0-5.889-1.9-7.658-3.584C60.723,3.3,59.226,1.882,56.1,1.882S51.467,3.3,49.728,4.947c-1.768,1.682-3.775,3.584-7.658,3.584s-5.889-1.9-7.658-3.584C32.674,3.3,31.177,1.882,28.046,1.882S23.418,3.3,21.682,4.947C19.911,6.629,17.9,8.532,14.025,8.532s-5.889-1.9-7.661-3.584C4.628,3.3,3.131,1.882,0,1.882V0C3.88,0,5.889,1.9,7.658,3.581,9.4,5.23,10.893,6.65,14.025,6.65s4.628-1.419,6.364-3.069C22.157,1.9,24.166,0,28.046,0s5.889,1.9,7.661,3.581C37.442,5.23,38.939,6.65,42.071,6.65S46.7,5.23,48.437,3.581C50.206,1.9,52.215,0,56.1,0s5.89,1.9,7.658,3.581C65.491,5.23,66.988,6.65,70.12,6.65s4.628-1.419,6.367-3.069C78.257,1.9,80.264,0,84.147,0V1.882c-3.131,0-4.631,1.422-6.37,3.066C76.006,6.629,74,8.532,70.12,8.532" transform="translate(1.533 20.266)" fill="#7d3a1b"/>
              <path id="Trazado_873377" data-name="Trazado 873377" d="M70.119,8.532c-3.88,0-5.889-1.9-7.658-3.584C60.723,3.3,59.226,1.882,56.1,1.882S51.467,3.3,49.728,4.947C47.96,6.629,45.95,8.532,42.071,8.532s-5.89-1.9-7.658-3.584C32.674,3.3,31.177,1.882,28.046,1.882S23.418,3.3,21.682,4.947C19.911,6.629,17.9,8.532,14.025,8.532s-5.89-1.9-7.661-3.584C4.628,3.3,3.131,1.882,0,1.882V0C3.88,0,5.889,1.9,7.658,3.581,9.393,5.23,10.893,6.65,14.025,6.65s4.628-1.419,6.364-3.069C22.156,1.9,24.166,0,28.046,0s5.89,1.9,7.661,3.581C37.442,5.23,38.939,6.65,42.071,6.65S46.7,5.23,48.437,3.581C50.205,1.9,52.215,0,56.1,0s5.889,1.9,7.658,3.581C65.491,5.23,66.988,6.65,70.119,6.65s4.628-1.419,6.367-3.069C78.257,1.9,80.261,0,84.147,0V1.882c-3.131,0-4.631,1.422-6.37,3.066C76.006,6.629,74,8.532,70.119,8.532" transform="translate(0.766 10.133)" fill="#7d3a1b"/>
              <path id="Trazado_873378" data-name="Trazado 873378" d="M70.12,8.529c-3.88,0-5.887-1.9-7.658-3.581C60.723,3.3,59.226,1.882,56.095,1.882S51.467,3.3,49.731,4.947C47.96,6.626,45.953,8.529,42.07,8.529s-5.887-1.9-7.658-3.581C32.674,3.3,31.177,1.882,28.046,1.882S23.418,3.3,21.682,4.944C19.914,6.626,17.9,8.529,14.024,8.529s-5.89-1.9-7.661-3.581C4.628,3.3,3.131,1.882,0,1.882V0C3.88,0,5.89,1.9,7.658,3.581,9.4,5.228,10.893,6.647,14.024,6.647s4.628-1.419,6.364-3.066C22.159,1.9,24.166,0,28.046,0s5.887,1.9,7.661,3.581c1.736,1.646,3.233,3.066,6.364,3.066S46.7,5.228,48.437,3.581C50.208,1.9,52.215,0,56.095,0s5.887,1.9,7.658,3.581c1.739,1.646,3.236,3.066,6.367,3.066s4.628-1.419,6.367-3.066C78.257,1.9,80.264,0,84.147,0V1.882c-3.134,0-4.631,1.419-6.37,3.066C76.006,6.626,74,8.529,70.12,8.529" transform="translate(0 0.003)" fill="#7d3a1b"/>
            </g>
          </g>
        </g>
        <path id="Trazado_873425" data-name="Trazado 873425" d="M47.337,0A47.337,47.337,0,1,1,0,47.337,47.337,47.337,0,0,1,47.337,0Z" transform="translate(14.061 16.873)" fill="#7d3a1b"/>
        <circle id="Elipse_11503" data-name="Elipse 11503" cx="49.5" cy="49.5" r="49.5" transform="translate(7.211 7.211)" fill="#fff"/>
      </g>
      <g id="Grupo_1099977" data-name="Grupo 1099977" transform="translate(290.691 5308.352)">
        <path id="Trazado_873216" data-name="Trazado 873216" d="M0,0H62.506V62.507H0Z" transform="translate(0 0)" fill="none"/>
        <g id="Grupo_1104054" data-name="Grupo 1104054" transform="translate(-2.653 -1.588)">
          <path id="Trazado_895101" data-name="Trazado 895101" d="M65.139,47.562H65.08a58.507,58.507,0,0,0-7.2-31.245,27.344,27.344,0,0,1,6.741,2.673A1.034,1.034,0,0,0,66.094,17.7a11.97,11.97,0,0,0-6.387-6.758,33.014,33.014,0,0,1,5.884-3.805A1.034,1.034,0,0,0,65.373,5.2c-5.89-1.367-9,.656-10.522,2.017A16.546,16.546,0,0,1,51.672.8a1.035,1.035,0,0,0-.985-.8A1.045,1.045,0,0,0,49.667.76c-.915,3.311-1.063,6.055-.45,8.068-3.19.281-6.094,1.951-8.649,4.982a1.034,1.034,0,0,0,1.041,1.67,30.62,30.62,0,0,1,7.276-.82c-1.026,1.809-1.829,4.687-.774,8.859a1.035,1.035,0,0,0,.931.778l.072,0a1.034,1.034,0,0,0,.957-.645,24.424,24.424,0,0,1,3.386-5.661,59.49,59.49,0,0,1,3.214,30.529c-.624.047-1.343.075-2.217.075a23.059,23.059,0,0,1-5.146-.5,26.067,26.067,0,0,0-2.78-.422V39.291a1.034,1.034,0,0,0-1.034-1.034H44.46V34.638H48.6A1.034,1.034,0,0,0,49.35,32.9L33.841,16.354a1.066,1.066,0,0,0-1.509,0L16.823,32.9a1.034,1.034,0,0,0,.754,1.741h4.136v3.619H20.679a1.034,1.034,0,0,0-1.034,1.034v8.385a26.049,26.049,0,0,0-2.782.422,23.053,23.053,0,0,1-5.146.5c-.873,0-1.592-.028-2.215-.075a59.491,59.491,0,0,1,3.214-30.529A24.426,24.426,0,0,1,16.1,23.653a1.034,1.034,0,0,0,.957.645l.072,0a1.035,1.035,0,0,0,.931-.778c1.054-4.172.252-7.049-.774-8.858a30.884,30.884,0,0,1,7.276.819,1.034,1.034,0,0,0,1.041-1.67c-2.556-3.031-5.459-4.7-8.649-4.982.613-2.013.465-4.757-.45-8.068A1.016,1.016,0,0,0,15.486,0a1.034,1.034,0,0,0-.985.8,16.44,16.44,0,0,1-3.179,6.41C9.8,5.853,6.689,3.83.8,5.2A1.034,1.034,0,0,0,.582,7.134,32.9,32.9,0,0,1,6.467,10.94,11.971,11.971,0,0,0,.08,17.7,1.034,1.034,0,0,0,1.552,18.99a27.3,27.3,0,0,1,6.741-2.672,58.506,58.506,0,0,0-7.2,31.245H1.034a1.034,1.034,0,0,0,0,2.068,23.05,23.05,0,0,1,5.145.5,25.147,25.147,0,0,0,5.538.536,25.148,25.148,0,0,0,5.538-.536,23.05,23.05,0,0,1,5.145-.5,23.05,23.05,0,0,1,5.145.5,25.147,25.147,0,0,0,5.538.536,25.149,25.149,0,0,0,5.538-.536,23.055,23.055,0,0,1,5.146-.5,23.059,23.059,0,0,1,5.146.5,25.156,25.156,0,0,0,5.539.536,25.157,25.157,0,0,0,5.539-.536,23.059,23.059,0,0,1,5.146-.5,1.034,1.034,0,1,0,0-2.068ZM3.6,15.691a8.67,8.67,0,0,1,5.066-3.281,1.034,1.034,0,0,0,.551-1.734A26.331,26.331,0,0,0,4.238,6.814a7.813,7.813,0,0,1,6.289,2.505l.065.065A1.033,1.033,0,0,0,12,9.438a13.491,13.491,0,0,0,3.211-4.495c.217,2.432-.3,3.7-.71,4.313a1.034,1.034,0,0,0-.044,1.092,1.023,1.023,0,0,0,.96.522,9.23,9.23,0,0,1,6.213,1.975,22.961,22.961,0,0,0-6.4-.065,1.034,1.034,0,0,0-.6,1.718,7.622,7.622,0,0,1,1.853,5.323,15.894,15.894,0,0,0-5.047-5.67,1.034,1.034,0,0,0-.468-.141Q10.733,14,10.489,14A18.926,18.926,0,0,0,3.6,15.691ZM6.572,48.1a24.776,24.776,0,0,0-3.406-.471,56.506,56.506,0,0,1,7.626-31.436q.16.111.317.232A60.238,60.238,0,0,0,7.373,48.249C7.1,48.2,6.838,48.15,6.572,48.1ZM19.964,32.57l13.123-14,13.123,14Zm22.428,2.068v3.619h-3.1V34.638Zm-5.17,0v3.619h-3.1V34.638Zm-5.17,0v3.619h-3.1V34.638Zm-5.17,0v3.619h-3.1V34.638ZM24.3,47.613c-.557-.032-1.181-.05-1.9-.05-.24,0-.467,0-.688.007V40.325H24.3Zm5.17.756c-.548-.08-1.033-.174-1.529-.27s-1-.193-1.573-.278V45.495h3.1Zm0-4.941h-3.1v-3.1h3.1ZM44.46,47.569c-.222,0-.45-.007-.692-.007a25.151,25.151,0,0,0-5.539.536,23.055,23.055,0,0,1-5.146.5c-.579,0-1.088-.013-1.549-.035V40.325H44.46Zm5.224-27.749A7.622,7.622,0,0,1,51.538,14.5a1.034,1.034,0,0,0-.6-1.718,16.885,16.885,0,0,0-2.693-.2,28.64,28.64,0,0,0-3.7.263,9.232,9.232,0,0,1,6.213-1.975,1.022,1.022,0,0,0,.96-.522,1.034,1.034,0,0,0-.044-1.092c-.415-.61-.928-1.881-.71-4.313a13.491,13.491,0,0,0,3.211,4.495,1.034,1.034,0,0,0,1.409-.054l.065-.065a7.756,7.756,0,0,1,6.289-2.505,26.331,26.331,0,0,0-4.981,3.863,1.034,1.034,0,0,0,.551,1.734,8.674,8.674,0,0,1,5.066,3.28A18.036,18.036,0,0,0,55.2,14.009a1.034,1.034,0,0,0-.468.141A15.9,15.9,0,0,0,49.684,19.821ZM63.007,47.627A24.773,24.773,0,0,0,59.6,48.1c-.266.051-.529.1-.8.151a60.238,60.238,0,0,0-3.737-31.826q.157-.121.318-.232a56.36,56.36,0,0,1,7.625,31.436Z" transform="translate(0 0)" fill="#7d3a1b"/>
          <path id="Trazado_895102" data-name="Trazado 895102" d="M65.139,102a25.156,25.156,0,0,0-5.539.536,23.059,23.059,0,0,1-5.146.5,23.059,23.059,0,0,1-5.146-.5A25.156,25.156,0,0,0,43.768,102a25.151,25.151,0,0,0-5.539.536,23.054,23.054,0,0,1-5.146.5,23.049,23.049,0,0,1-5.145-.5A25.147,25.147,0,0,0,22.4,102a25.147,25.147,0,0,0-5.538.536,23.053,23.053,0,0,1-5.146.5,23.05,23.05,0,0,1-5.145-.5A25.148,25.148,0,0,0,1.034,102a1.034,1.034,0,0,0,0,2.068,23.052,23.052,0,0,1,5.145.5,25.148,25.148,0,0,0,5.538.536,25.148,25.148,0,0,0,5.538-.536,23.052,23.052,0,0,1,5.145-.5,23.052,23.052,0,0,1,5.145.5,25.147,25.147,0,0,0,5.538.536,25.148,25.148,0,0,0,5.538-.536,23.058,23.058,0,0,1,5.146-.5,23.061,23.061,0,0,1,5.146.5,25.156,25.156,0,0,0,5.539.536,25.156,25.156,0,0,0,5.539-.536,23.061,23.061,0,0,1,5.146-.5,1.034,1.034,0,0,0,0-2.068Z" transform="translate(0 -49.265)" fill="#7d3a1b"/>
          <path id="Trazado_895103" data-name="Trazado 895103" d="M65.139,112a25.156,25.156,0,0,0-5.539.536,23.059,23.059,0,0,1-5.146.5,23.06,23.06,0,0,1-5.146-.5A25.156,25.156,0,0,0,43.768,112a25.151,25.151,0,0,0-5.539.536,23.054,23.054,0,0,1-5.146.5,23.049,23.049,0,0,1-5.145-.5A25.148,25.148,0,0,0,22.4,112a25.148,25.148,0,0,0-5.538.536,23.052,23.052,0,0,1-5.146.5,23.05,23.05,0,0,1-5.145-.5A25.146,25.146,0,0,0,1.034,112a1.034,1.034,0,1,0,0,2.068,23.05,23.05,0,0,1,5.145.5,25.148,25.148,0,0,0,5.538.536,25.148,25.148,0,0,0,5.538-.536,23.05,23.05,0,0,1,5.145-.5,23.05,23.05,0,0,1,5.145.5,25.148,25.148,0,0,0,5.538.536,25.148,25.148,0,0,0,5.538-.536,23.056,23.056,0,0,1,5.146-.5,23.059,23.059,0,0,1,5.146.5,25.156,25.156,0,0,0,5.539.536,25.157,25.157,0,0,0,5.539-.536,23.059,23.059,0,0,1,5.146-.5,1.034,1.034,0,1,0,0-2.068Z" transform="translate(0 -54.096)" fill="#7d3a1b"/>
          <path id="Trazado_895104" data-name="Trazado 895104" d="M65.139,122a25.157,25.157,0,0,0-5.539.536,23.059,23.059,0,0,1-5.146.5,23.059,23.059,0,0,1-5.146-.5A25.157,25.157,0,0,0,43.768,122a25.151,25.151,0,0,0-5.539.536,23.054,23.054,0,0,1-5.145.5,23.05,23.05,0,0,1-5.145-.5A25.147,25.147,0,0,0,22.4,122a25.147,25.147,0,0,0-5.538.536,23.052,23.052,0,0,1-5.146.5,23.051,23.051,0,0,1-5.145-.5A25.147,25.147,0,0,0,1.034,122a1.034,1.034,0,1,0,0,2.068,23.05,23.05,0,0,1,5.145.5,25.147,25.147,0,0,0,5.538.536,25.148,25.148,0,0,0,5.538-.536,23.05,23.05,0,0,1,5.145-.5,23.05,23.05,0,0,1,5.145.5,25.147,25.147,0,0,0,5.538.536,25.148,25.148,0,0,0,5.538-.536,23.055,23.055,0,0,1,5.146-.5,23.058,23.058,0,0,1,5.146.5,25.156,25.156,0,0,0,5.539.536,25.157,25.157,0,0,0,5.539-.536,23.058,23.058,0,0,1,5.146-.5,1.034,1.034,0,1,0,0-2.068Z" transform="translate(0 -58.926)" fill="#7d3a1b"/>
          <path id="Trazado_895105" data-name="Trazado 895105" d="M56.139,4.009A4.1,4.1,0,0,0,52.819,6.1l-.74.229a5.856,5.856,0,0,0-3.393-.03,1.034,1.034,0,1,0,.677,1.954,3.9,3.9,0,0,1,3.39.708,1.015,1.015,0,0,0,.61.2A1.04,1.04,0,0,0,54.4,8.085c-.016-.414.082-1.786,1.99-2.024a1.034,1.034,0,0,0-.256-2.052Z" transform="translate(-23.18 -1.932)" fill="#7d3a1b"/>
          <path id="Trazado_895106" data-name="Trazado 895106" d="M68.4,16.061a1.034,1.034,0,0,0-.256-2.052,4.1,4.1,0,0,0-3.32,2.094l-.74.229a5.857,5.857,0,0,0-3.393-.03,1.034,1.034,0,1,0,.677,1.954,3.9,3.9,0,0,1,3.39.708,1.015,1.015,0,0,0,.61.2A1.04,1.04,0,0,0,66.4,18.085C66.389,17.67,66.486,16.3,68.4,16.061Z" transform="translate(-28.977 -6.762)" fill="#7d3a1b"/>
        </g>
      </g>
    </g>
  </g>
</svg>
