<svg xmlns="http://www.w3.org/2000/svg" xmlns:xlink="http://www.w3.org/1999/xlink" width="129" height="128" viewBox="0 0 129 128">
  <defs>
    <clipPath id="clip-path">
      <rect id="Rectángulo_400938" data-name="Rectángulo 400938" width="120" height="120" fill="none"/>
    </clipPath>
    <clipPath id="clip-path-2">
      <rect id="Rectángulo_400938-2" data-name="Rectángulo 400938" width="113" height="113" transform="translate(0.211 0.211)" fill="none"/>
    </clipPath>
    <clipPath id="clip-path-3">
      <rect id="Rectángulo_401073" data-name="Rectángulo 401073" width="86.443" height="38.93" fill="#7d3a1b"/>
    </clipPath>
  </defs>
  <g id="Grupo_1104664" data-name="Grupo 1104664" transform="translate(-376 -4838.842)">
    <g id="Grupo_108927" data-name="Grupo 108927" transform="translate(-14 371.842)">
      <path id="Rectángulo_36179" data-name="Rectángulo 36179" d="M0,0H129V128H0Z" transform="translate(390 4467)" fill="#feebcf"/>
    </g>
    <g id="Grupo_1104431" data-name="Grupo 1104431" transform="translate(118.789 -437.369)">
      <g id="Grupo_1099379" data-name="Grupo 1099379" transform="translate(265 5284)">
        <rect id="Rectángulo_401103" data-name="Rectángulo 401103" width="113" height="113" transform="translate(0.211 0.211)" fill="none"/>
        <g id="Grupo_1099348" data-name="Grupo 1099348">
          <g id="Grupo_1099282" data-name="Grupo 1099282">
            <g id="Grupo_1099281" data-name="Grupo 1099281" clip-path="url(#clip-path-3)">
              <path id="Trazado_873375" data-name="Trazado 873375" d="M70.12,8.532c-3.88,0-5.887-1.9-7.658-3.581C60.723,3.3,59.226,1.882,56.1,1.882S51.467,3.3,49.728,4.95c-1.771,1.679-3.775,3.581-7.658,3.581s-5.886-1.9-7.658-3.581C32.674,3.3,31.177,1.882,28.046,1.882S23.418,3.3,21.682,4.95C19.911,6.629,17.9,8.532,14.024,8.532S8.135,6.629,6.364,4.95C4.628,3.3,3.131,1.882,0,1.882V0C3.88,0,5.887,1.906,7.658,3.581,9.4,5.23,10.893,6.65,14.024,6.65s4.628-1.419,6.364-3.066C22.157,1.906,24.166,0,28.046,0s5.89,1.906,7.658,3.581C37.442,5.23,38.939,6.65,42.07,6.65S46.7,5.23,48.437,3.581C50.205,1.906,52.215,0,56.1,0s5.89,1.906,7.658,3.581C65.491,5.23,66.988,6.65,70.12,6.65s4.628-1.419,6.367-3.069C78.255,1.906,80.261,0,84.144,0V1.882c-3.131,0-4.628,1.422-6.367,3.069C76.006,6.629,74,8.532,70.12,8.532" transform="translate(2.299 30.399)" fill="#7d3a1b"/>
              <path id="Trazado_873376" data-name="Trazado 873376" d="M70.12,8.532c-3.88,0-5.889-1.9-7.658-3.584C60.723,3.3,59.226,1.882,56.1,1.882S51.467,3.3,49.728,4.947c-1.768,1.682-3.775,3.584-7.658,3.584s-5.889-1.9-7.658-3.584C32.674,3.3,31.177,1.882,28.046,1.882S23.418,3.3,21.682,4.947C19.911,6.629,17.9,8.532,14.025,8.532s-5.889-1.9-7.661-3.584C4.628,3.3,3.131,1.882,0,1.882V0C3.88,0,5.889,1.9,7.658,3.581,9.4,5.23,10.893,6.65,14.025,6.65s4.628-1.419,6.364-3.069C22.157,1.9,24.166,0,28.046,0s5.889,1.9,7.661,3.581C37.442,5.23,38.939,6.65,42.071,6.65S46.7,5.23,48.437,3.581C50.206,1.9,52.215,0,56.1,0s5.89,1.9,7.658,3.581C65.491,5.23,66.988,6.65,70.12,6.65s4.628-1.419,6.367-3.069C78.257,1.9,80.264,0,84.147,0V1.882c-3.131,0-4.631,1.422-6.37,3.066C76.006,6.629,74,8.532,70.12,8.532" transform="translate(1.533 20.266)" fill="#7d3a1b"/>
              <path id="Trazado_873377" data-name="Trazado 873377" d="M70.119,8.532c-3.88,0-5.889-1.9-7.658-3.584C60.723,3.3,59.226,1.882,56.1,1.882S51.467,3.3,49.728,4.947C47.96,6.629,45.95,8.532,42.071,8.532s-5.89-1.9-7.658-3.584C32.674,3.3,31.177,1.882,28.046,1.882S23.418,3.3,21.682,4.947C19.911,6.629,17.9,8.532,14.025,8.532s-5.89-1.9-7.661-3.584C4.628,3.3,3.131,1.882,0,1.882V0C3.88,0,5.889,1.9,7.658,3.581,9.393,5.23,10.893,6.65,14.025,6.65s4.628-1.419,6.364-3.069C22.156,1.9,24.166,0,28.046,0s5.89,1.9,7.661,3.581C37.442,5.23,38.939,6.65,42.071,6.65S46.7,5.23,48.437,3.581C50.205,1.9,52.215,0,56.1,0s5.889,1.9,7.658,3.581C65.491,5.23,66.988,6.65,70.119,6.65s4.628-1.419,6.367-3.069C78.257,1.9,80.261,0,84.147,0V1.882c-3.131,0-4.631,1.422-6.37,3.066C76.006,6.629,74,8.532,70.119,8.532" transform="translate(0.766 10.133)" fill="#7d3a1b"/>
              <path id="Trazado_873378" data-name="Trazado 873378" d="M70.12,8.529c-3.88,0-5.887-1.9-7.658-3.581C60.723,3.3,59.226,1.882,56.095,1.882S51.467,3.3,49.731,4.947C47.96,6.626,45.953,8.529,42.07,8.529s-5.887-1.9-7.658-3.581C32.674,3.3,31.177,1.882,28.046,1.882S23.418,3.3,21.682,4.944C19.914,6.626,17.9,8.529,14.024,8.529s-5.89-1.9-7.661-3.581C4.628,3.3,3.131,1.882,0,1.882V0C3.88,0,5.89,1.9,7.658,3.581,9.4,5.228,10.893,6.647,14.024,6.647s4.628-1.419,6.364-3.066C22.159,1.9,24.166,0,28.046,0s5.887,1.9,7.661,3.581c1.736,1.646,3.233,3.066,6.364,3.066S46.7,5.228,48.437,3.581C50.208,1.9,52.215,0,56.095,0s5.887,1.9,7.658,3.581c1.739,1.646,3.236,3.066,6.367,3.066s4.628-1.419,6.367-3.066C78.257,1.9,80.264,0,84.147,0V1.882c-3.134,0-4.631,1.419-6.37,3.066C76.006,6.626,74,8.529,70.12,8.529" transform="translate(0 0.003)" fill="#7d3a1b"/>
            </g>
          </g>
        </g>
        <path id="Trazado_873425" data-name="Trazado 873425" d="M47.337,0A47.337,47.337,0,1,1,0,47.337,47.337,47.337,0,0,1,47.337,0Z" transform="translate(14.061 16.873)" fill="#7d3a1b"/>
        <circle id="Elipse_11503" data-name="Elipse 11503" cx="49.5" cy="49.5" r="49.5" transform="translate(7.211 7.211)" fill="#fff"/>
      </g>
      <g id="Grupo_1099977" data-name="Grupo 1099977" transform="translate(291.693 5310.413)">
        <path id="Trazado_873216" data-name="Trazado 873216" d="M0,0H62.506V62.507H0Z" transform="translate(0 0)" fill="none"/>
        <g id="Grupo_1099983" data-name="Grupo 1099983" transform="translate(0 2.424)">
          <g id="Grupo_1104062" data-name="Grupo 1104062" transform="translate(-0.48 -4.545)">
            <g id="Grupo_1104061" data-name="Grupo 1104061">
              <path id="Trazado_895129" data-name="Trazado 895129" d="M31,50a1,1,0,0,1-1-1V26a1,1,0,0,1,2,0V49A1,1,0,0,1,31,50Z" fill="#7d3a1b"/>
              <g id="Grupo_1104058" data-name="Grupo 1104058">
                <path id="Trazado_895130" data-name="Trazado 895130" d="M23,36a6.006,6.006,0,0,1-6-6c0-3.025,4.686-8.959,5.22-9.625A1,1,0,0,1,24,21c0,2.192,1.1,3.177,2.375,4.317C27.6,26.417,29,27.664,29,30a6.006,6.006,0,0,1-6,6Zm-.583-12.569C20.763,25.741,19,28.64,19,30a4,4,0,0,0,8,0c0-1.375-.708-2.074-1.958-3.192A8.616,8.616,0,0,1,22.417,23.431Z" fill="#7d3a1b"/>
                <path id="Trazado_895131" data-name="Trazado 895131" d="M30,38a8.009,8.009,0,0,1-8-8,1,1,0,0,1,2,0,6.006,6.006,0,0,0,6,6,1,1,0,0,1,0,2Z" fill="#7d3a1b"/>
              </g>
              <g id="Grupo_1104059" data-name="Grupo 1104059">
                <path id="Trazado_895132" data-name="Trazado 895132" d="M39,44a6.006,6.006,0,0,1-6-6c0-2.336,1.4-3.583,2.625-4.683C36.9,32.177,38,31.192,38,29a1,1,0,0,1,1.78-.625c.534.667,5.22,6.6,5.22,9.625A6.006,6.006,0,0,1,39,44Zm.583-12.569a8.607,8.607,0,0,1-2.625,3.377C35.708,35.926,35,36.626,35,38a4,4,0,0,0,8,0C43,36.64,41.236,33.74,39.583,31.431Z" fill="#7d3a1b"/>
                <path id="Trazado_895133" data-name="Trazado 895133" d="M32,46a1,1,0,0,1,0-2,6.006,6.006,0,0,0,6-6,1,1,0,0,1,2,0A8.009,8.009,0,0,1,32,46Z" fill="#7d3a1b"/>
              </g>
              <g id="Grupo_1104060" data-name="Grupo 1104060">
                <path id="Trazado_895134" data-name="Trazado 895134" d="M33,27.361a6,6,0,0,1-4.243-10.24c2.139-2.139,9.648-3.022,10.5-3.116a1.011,1.011,0,0,1,1.011.562,1,1,0,0,1-.194,1.14c-1.55,1.55-1.468,3.025-1.373,4.732.092,1.648.2,3.516-1.456,5.167A5.979,5.979,0,0,1,33,27.361Zm4.233-11.055c-2.8.464-6.1,1.268-7.062,2.229a4,4,0,0,0,5.657,5.657c.972-.972.966-1.967.873-3.642a8.614,8.614,0,0,1,.532-4.244Z" fill="#7d3a1b"/>
                <path id="Trazado_895135" data-name="Trazado 895135" d="M30.971,26.934h-.049a1,1,0,0,1-.951-1.047,7.924,7.924,0,0,1,2.322-5.229,1,1,0,1,1,1.414,1.414,5.932,5.932,0,0,0-1.738,3.911,1,1,0,0,1-1,.952Z" fill="#7d3a1b"/>
              </g>
            </g>
            <path id="Trazado_895136" data-name="Trazado 895136" d="M37,64H27a1,1,0,0,1-1-1V58.323a26.564,26.564,0,0,1-8.417-3.492l-3.875,3.875a1,1,0,0,1-1.414,0l-7-7a1,1,0,0,1,0-1.414l3.875-3.875A26.558,26.558,0,0,1,5.678,38H1a1,1,0,0,1-1-1V27a1,1,0,0,1,1-1H5.677a26.548,26.548,0,0,1,3.491-8.417L5.293,13.708a1,1,0,0,1,0-1.414l7-7a1,1,0,0,1,1.414,0l3.875,3.875A26.558,26.558,0,0,1,26,5.678V1a1,1,0,0,1,1-1H37a1,1,0,0,1,1,1V5.677a26.548,26.548,0,0,1,8.417,3.491l3.875-3.875a1,1,0,0,1,1.414,0l7,7a1,1,0,0,1,0,1.414L54.83,17.582A26.558,26.558,0,0,1,58.321,26H63a1,1,0,0,1,1,1V37a1,1,0,0,1-1,1H58.321a26.548,26.548,0,0,1-3.491,8.417L58.7,50.291a1,1,0,0,1,0,1.414l-7,7a1,1,0,0,1-1.414,0L46.416,54.83A26.573,26.573,0,0,1,38,58.322V63a1,1,0,0,1-1,1Zm-9-2h8V57.51a1,1,0,0,1,.811-.982,24.622,24.622,0,0,0,9.179-3.807,1,1,0,0,1,1.267.122L51,56.586,56.586,51l-3.743-3.743a1,1,0,0,1-.122-1.267,24.606,24.606,0,0,0,3.807-9.179A1,1,0,0,1,57.51,36H62V28H57.51a1,1,0,0,1-.982-.811,24.606,24.606,0,0,0-3.807-9.179,1,1,0,0,1,.122-1.267L56.586,13,51,7.414l-3.743,3.743a1,1,0,0,1-1.267.122,24.606,24.606,0,0,0-9.179-3.807A1,1,0,0,1,36,6.49V2H28V6.49a1,1,0,0,1-.811.982,24.606,24.606,0,0,0-9.179,3.807,1,1,0,0,1-1.267-.122L13,7.414,7.414,13l3.743,3.743a1,1,0,0,1,.122,1.267,24.605,24.605,0,0,0-3.807,9.179A1,1,0,0,1,6.49,28H2v8H6.49a1,1,0,0,1,.982.811,24.606,24.606,0,0,0,3.807,9.179,1,1,0,0,1-.122,1.267L7.414,51,13,56.586l3.743-3.743a1,1,0,0,1,1.267-.122,24.6,24.6,0,0,0,9.179,3.807A1,1,0,0,1,28,57.51Z" fill="#7d3a1b"/>
            <path id="Trazado_895137" data-name="Trazado 895137" d="M32,50c-.35,0-.71-.01-1.061-.032A18,18,0,0,1,32,14a17.784,17.784,0,0,1,4.344.53,1,1,0,1,1-.488,1.94A15.783,15.783,0,0,0,32,16a16,16,0,1,0,6.024,1.177,1,1,0,0,1,.751-1.853A18,18,0,0,1,32,50Z" fill="#7d3a1b"/>
          </g>
        </g>
      </g>
    </g>
  </g>
</svg>
