<svg xmlns="http://www.w3.org/2000/svg" xmlns:xlink="http://www.w3.org/1999/xlink" width="129" height="128" viewBox="0 0 129 128">
  <defs>
    <clipPath id="clip-path">
      <rect id="Rectángulo_400938" data-name="Rectángulo 400938" width="120" height="120" fill="none"/>
    </clipPath>
    <clipPath id="clip-path-2">
      <rect id="Rectángulo_400938-2" data-name="Rectángulo 400938" width="113" height="113" transform="translate(0.211 0.211)" fill="none"/>
    </clipPath>
    <clipPath id="clip-path-3">
      <rect id="Rectángulo_401073" data-name="Rectángulo 401073" width="86.443" height="38.93" fill="#7d3a1b"/>
    </clipPath>
  </defs>
  <g id="Grupo_1104663" data-name="Grupo 1104663" transform="translate(-376 -5014.842)">
    <g id="Grupo_108927" data-name="Grupo 108927" transform="translate(-14 547.842)">
      <path id="Rectángulo_36179" data-name="Rectángulo 36179" d="M0,0H129V128H0Z" transform="translate(390 4467)" fill="#feebcf"/>
    </g>
    <g id="Grupo_1104433" data-name="Grupo 1104433" transform="translate(118.789 -261.369)">
      <g id="Grupo_1099379" data-name="Grupo 1099379" transform="translate(265 5284)">
        <rect id="Rectángulo_401103" data-name="Rectángulo 401103" width="113" height="113" transform="translate(0.211 0.211)" fill="none"/>
        <g id="Grupo_1099348" data-name="Grupo 1099348">
          <g id="Grupo_1099282" data-name="Grupo 1099282">
            <g id="Grupo_1099281" data-name="Grupo 1099281" clip-path="url(#clip-path-3)">
              <path id="Trazado_873375" data-name="Trazado 873375" d="M70.12,8.532c-3.88,0-5.887-1.9-7.658-3.581C60.723,3.3,59.226,1.882,56.1,1.882S51.467,3.3,49.728,4.95c-1.771,1.679-3.775,3.581-7.658,3.581s-5.886-1.9-7.658-3.581C32.674,3.3,31.177,1.882,28.046,1.882S23.418,3.3,21.682,4.95C19.911,6.629,17.9,8.532,14.024,8.532S8.135,6.629,6.364,4.95C4.628,3.3,3.131,1.882,0,1.882V0C3.88,0,5.887,1.906,7.658,3.581,9.4,5.23,10.893,6.65,14.024,6.65s4.628-1.419,6.364-3.066C22.157,1.906,24.166,0,28.046,0s5.89,1.906,7.658,3.581C37.442,5.23,38.939,6.65,42.07,6.65S46.7,5.23,48.437,3.581C50.205,1.906,52.215,0,56.1,0s5.89,1.906,7.658,3.581C65.491,5.23,66.988,6.65,70.12,6.65s4.628-1.419,6.367-3.069C78.255,1.906,80.261,0,84.144,0V1.882c-3.131,0-4.628,1.422-6.367,3.069C76.006,6.629,74,8.532,70.12,8.532" transform="translate(2.299 30.399)" fill="#7d3a1b"/>
              <path id="Trazado_873376" data-name="Trazado 873376" d="M70.12,8.532c-3.88,0-5.889-1.9-7.658-3.584C60.723,3.3,59.226,1.882,56.1,1.882S51.467,3.3,49.728,4.947c-1.768,1.682-3.775,3.584-7.658,3.584s-5.889-1.9-7.658-3.584C32.674,3.3,31.177,1.882,28.046,1.882S23.418,3.3,21.682,4.947C19.911,6.629,17.9,8.532,14.025,8.532s-5.889-1.9-7.661-3.584C4.628,3.3,3.131,1.882,0,1.882V0C3.88,0,5.889,1.9,7.658,3.581,9.4,5.23,10.893,6.65,14.025,6.65s4.628-1.419,6.364-3.069C22.157,1.9,24.166,0,28.046,0s5.889,1.9,7.661,3.581C37.442,5.23,38.939,6.65,42.071,6.65S46.7,5.23,48.437,3.581C50.206,1.9,52.215,0,56.1,0s5.89,1.9,7.658,3.581C65.491,5.23,66.988,6.65,70.12,6.65s4.628-1.419,6.367-3.069C78.257,1.9,80.264,0,84.147,0V1.882c-3.131,0-4.631,1.422-6.37,3.066C76.006,6.629,74,8.532,70.12,8.532" transform="translate(1.533 20.266)" fill="#7d3a1b"/>
              <path id="Trazado_873377" data-name="Trazado 873377" d="M70.119,8.532c-3.88,0-5.889-1.9-7.658-3.584C60.723,3.3,59.226,1.882,56.1,1.882S51.467,3.3,49.728,4.947C47.96,6.629,45.95,8.532,42.071,8.532s-5.89-1.9-7.658-3.584C32.674,3.3,31.177,1.882,28.046,1.882S23.418,3.3,21.682,4.947C19.911,6.629,17.9,8.532,14.025,8.532s-5.89-1.9-7.661-3.584C4.628,3.3,3.131,1.882,0,1.882V0C3.88,0,5.889,1.9,7.658,3.581,9.393,5.23,10.893,6.65,14.025,6.65s4.628-1.419,6.364-3.069C22.156,1.9,24.166,0,28.046,0s5.89,1.9,7.661,3.581C37.442,5.23,38.939,6.65,42.071,6.65S46.7,5.23,48.437,3.581C50.205,1.9,52.215,0,56.1,0s5.889,1.9,7.658,3.581C65.491,5.23,66.988,6.65,70.119,6.65s4.628-1.419,6.367-3.069C78.257,1.9,80.261,0,84.147,0V1.882c-3.131,0-4.631,1.422-6.37,3.066C76.006,6.629,74,8.532,70.119,8.532" transform="translate(0.766 10.133)" fill="#7d3a1b"/>
              <path id="Trazado_873378" data-name="Trazado 873378" d="M70.12,8.529c-3.88,0-5.887-1.9-7.658-3.581C60.723,3.3,59.226,1.882,56.095,1.882S51.467,3.3,49.731,4.947C47.96,6.626,45.953,8.529,42.07,8.529s-5.887-1.9-7.658-3.581C32.674,3.3,31.177,1.882,28.046,1.882S23.418,3.3,21.682,4.944C19.914,6.626,17.9,8.529,14.024,8.529s-5.89-1.9-7.661-3.581C4.628,3.3,3.131,1.882,0,1.882V0C3.88,0,5.89,1.9,7.658,3.581,9.4,5.228,10.893,6.647,14.024,6.647s4.628-1.419,6.364-3.066C22.159,1.9,24.166,0,28.046,0s5.887,1.9,7.661,3.581c1.736,1.646,3.233,3.066,6.364,3.066S46.7,5.228,48.437,3.581C50.208,1.9,52.215,0,56.095,0s5.887,1.9,7.658,3.581c1.739,1.646,3.236,3.066,6.367,3.066s4.628-1.419,6.367-3.066C78.257,1.9,80.264,0,84.147,0V1.882c-3.134,0-4.631,1.419-6.37,3.066C76.006,6.626,74,8.529,70.12,8.529" transform="translate(0 0.003)" fill="#7d3a1b"/>
            </g>
          </g>
        </g>
        <path id="Trazado_873425" data-name="Trazado 873425" d="M47.337,0A47.337,47.337,0,1,1,0,47.337,47.337,47.337,0,0,1,47.337,0Z" transform="translate(14.061 16.873)" fill="#7d3a1b"/>
        <circle id="Elipse_11503" data-name="Elipse 11503" cx="49.5" cy="49.5" r="49.5" transform="translate(7.211 7.211)" fill="#fff"/>
      </g>
      <g id="Grupo_1099977" data-name="Grupo 1099977" transform="translate(291.307 5307.524)">
        <path id="Trazado_873216" data-name="Trazado 873216" d="M0,0H62.506V62.507H0Z" transform="translate(0 0)" fill="none"/>
        <g id="Grupo_1104063" data-name="Grupo 1104063" transform="translate(-1.068 -0.478)">
          <path id="Trazado_895138" data-name="Trazado 895138" d="M208.451,396.836l-3.317-.479-1.486-3a1.885,1.885,0,0,0-1.7-1.056h0a1.885,1.885,0,0,0-1.7,1.059l-1.481,3.007-3.316.485a1.9,1.9,0,0,0-1.049,3.237l2.4,2.337-.564,3.3a1.895,1.895,0,0,0,2.754,2l2.965-1.562,2.968,1.557a1.9,1.9,0,0,0,2.751-2l-.57-3.3,2.4-2.341a1.9,1.9,0,0,0-1.054-3.235Zm-2.737,4.2a1.9,1.9,0,0,0-.544,1.68l.553,3.208-2.883-1.512a1.9,1.9,0,0,0-1.766,0l-2.881,1.518.548-3.21a1.9,1.9,0,0,0-.547-1.679l-2.334-2.271,3.222-.471a1.9,1.9,0,0,0,1.427-1.039l1.438-2.921,1.444,2.918a1.9,1.9,0,0,0,1.429,1.037l3.222.465Z" transform="translate(-168.432 -341.021)" fill="#7d3a1b"/>
          <path id="Trazado_895139" data-name="Trazado 895139" d="M386.8,298.743l-3.145-1.158-.829-3.247a1.9,1.9,0,0,0-3.329-.7l-2.073,2.633-3.344-.215a1.9,1.9,0,0,0-1.7,2.948l1.863,2.785-1.238,3.114a1.9,1.9,0,0,0,2.279,2.526l3.225-.912,2.579,2.14a1.9,1.9,0,0,0,3.107-1.387l.13-3.349,2.832-1.792a1.9,1.9,0,0,0-.358-3.383Zm-3.55,3.536a1.9,1.9,0,0,0-.882,1.53l-.126,3.254-2.506-2.079a1.9,1.9,0,0,0-1.727-.366l-3.133.886,1.2-3.025a1.9,1.9,0,0,0-.186-1.756l-1.81-2.706,3.249.209a1.9,1.9,0,0,0,1.612-.72l2.014-2.558.805,3.155a1.9,1.9,0,0,0,1.182,1.311L386,300.539Z" transform="translate(-323.37 -254.624)" fill="#7d3a1b"/>
          <path id="Trazado_895140" data-name="Trazado 895140" d="M31.619,296.082l-3.344.221L26.2,293.674a1.9,1.9,0,0,0-3.328.71l-.823,3.249L18.9,298.8a1.9,1.9,0,0,0-.353,3.384l2.835,1.787.136,3.349a1.9,1.9,0,0,0,3.11,1.381l2.575-2.144,3.227.906a1.9,1.9,0,0,0,2.274-2.53l-1.244-3.112,1.859-2.789a1.9,1.9,0,0,0-1.7-2.945Zm-1.8,4.674a1.9,1.9,0,0,0-.183,1.756l1.208,3.023-3.135-.88a1.9,1.9,0,0,0-1.727.369l-2.5,2.083-.132-3.253a1.9,1.9,0,0,0-.884-1.528l-2.755-1.736,3.053-1.13a1.9,1.9,0,0,0,1.18-1.313l.8-3.156,2.019,2.555a1.9,1.9,0,0,0,1.614.717l3.249-.215Z" transform="translate(-15.297 -254.661)" fill="#7d3a1b"/>
          <path id="Trazado_895141" data-name="Trazado 895141" d="M56.907,9.53A33.462,33.462,0,0,0,.069,32.634a1.767,1.767,0,0,0,1.766,1.807H17.623a15.919,15.919,0,0,0,24.24,12.605.98.98,0,0,0-1.027-1.67,13.98,13.98,0,1,1-1.294-24.535,2.283,2.283,0,0,0,1.572.144l6.125-1.641a.326.326,0,0,1,.4.4L46,25.869a2.288,2.288,0,0,0,.145,1.572A13.971,13.971,0,0,1,44.1,42.6a.98.98,0,0,0,1.483,1.283,15.907,15.907,0,0,0,3.848-9.437H65.206a1.766,1.766,0,0,0,1.766-1.808A33.27,33.27,0,0,0,56.907,9.53ZM16.956,6.738l2.832,4.941a25.813,25.813,0,0,0-12,20.8H2.034A31.623,31.623,0,0,1,16.956,6.738ZM47.89,26.376l1.64-6.123a2.286,2.286,0,0,0-2.8-2.8l-6.122,1.64a.319.319,0,0,1-.221-.018A15.927,15.927,0,0,0,17.622,32.481H9.747A23.977,23.977,0,0,1,31.323,9.766a.98.98,0,0,0-.179-1.952,25.6,25.6,0,0,0-9.6,2.849L18.659,5.745a31.072,31.072,0,0,1,29.728,0l-2.859,4.93A25.6,25.6,0,0,0,35.9,7.814a.98.98,0,0,0-.179,1.952A23.977,23.977,0,0,1,57.294,32.481H49.431A15.923,15.923,0,0,0,47.91,26.6a.324.324,0,0,1-.021-.223Zm11.366,6.105A25.815,25.815,0,0,0,47.173,11.628l2.9-4.9A31.619,31.619,0,0,1,65.006,32.481Z" transform="translate(0 0)" fill="#7d3a1b"/>
          <path id="Trazado_895142" data-name="Trazado 895142" d="M180.9,169.606A11.292,11.292,0,1,0,192.191,180.9,11.305,11.305,0,0,0,180.9,169.606Zm0,20.624a9.332,9.332,0,1,1,9.332-9.332A9.342,9.342,0,0,1,180.9,190.23Z" transform="translate(-147.378 -147.437)" fill="#7d3a1b"/>
          <path id="Trazado_895143" data-name="Trazado 895143" d="M235.881,281.058a2.933,2.933,0,0,1-3.457,0,.98.98,0,1,0-1.152,1.586,4.889,4.889,0,0,0,5.762,0,.98.98,0,0,0-1.152-1.586Z" transform="translate(-200.633 -244.159)" fill="#7d3a1b"/>
          <path id="Trazado_895144" data-name="Trazado 895144" d="M223,224.323V222.47a.98.98,0,0,0-1.961,0v1.853a.98.98,0,0,0,1.961,0Z" transform="translate(-192.087 -192.54)" fill="#7d3a1b"/>
          <path id="Trazado_895145" data-name="Trazado 895145" d="M276.943,221.49a.98.98,0,0,0-.98.98v1.853a.98.98,0,1,0,1.961,0V222.47A.98.98,0,0,0,276.943,221.49Z" transform="translate(-239.833 -192.54)" fill="#7d3a1b"/>
        </g>
      </g>
    </g>
  </g>
</svg>
