<svg xmlns="http://www.w3.org/2000/svg" xmlns:xlink="http://www.w3.org/1999/xlink" width="129" height="128" viewBox="0 0 129 128">
  <defs>
    <clipPath id="clip-path">
      <rect id="Rectángulo_400938" data-name="Rectángulo 400938" width="120" height="120" fill="none"/>
    </clipPath>
    <clipPath id="clip-path-2">
      <rect id="Rectángulo_400938-2" data-name="Rectángulo 400938" width="113" height="113" transform="translate(0.211 0.211)" fill="none"/>
    </clipPath>
    <clipPath id="clip-path-3">
      <rect id="Rectángulo_401073" data-name="Rectángulo 401073" width="86.443" height="38.93" fill="#7d3a1b"/>
    </clipPath>
  </defs>
  <g id="Grupo_1104657" data-name="Grupo 1104657" transform="translate(-376 -7590.678)">
    <g id="Grupo_108927" data-name="Grupo 108927" transform="translate(-14 3123.678)">
      <path id="Rectángulo_36179" data-name="Rectángulo 36179" d="M0,0H129V128H0Z" transform="translate(390 4467)" fill="#feebcf"/>
    </g>
    <g id="Grupo_1104490" data-name="Grupo 1104490" transform="translate(118.789 2314.467)">
      <g id="Grupo_1099379" data-name="Grupo 1099379" transform="translate(265 5284)">
        <rect id="Rectángulo_401103" data-name="Rectángulo 401103" width="113" height="113" transform="translate(0.211 0.211)" fill="none"/>
        <g id="Grupo_1099348" data-name="Grupo 1099348">
          <g id="Grupo_1099282" data-name="Grupo 1099282">
            <g id="Grupo_1099281" data-name="Grupo 1099281" clip-path="url(#clip-path-3)">
              <path id="Trazado_873375" data-name="Trazado 873375" d="M70.12,8.532c-3.88,0-5.887-1.9-7.658-3.581C60.723,3.3,59.226,1.882,56.1,1.882S51.467,3.3,49.728,4.95c-1.771,1.679-3.775,3.581-7.658,3.581s-5.886-1.9-7.658-3.581C32.674,3.3,31.177,1.882,28.046,1.882S23.418,3.3,21.682,4.95C19.911,6.629,17.9,8.532,14.024,8.532S8.135,6.629,6.364,4.95C4.628,3.3,3.131,1.882,0,1.882V0C3.88,0,5.887,1.906,7.658,3.581,9.4,5.23,10.893,6.65,14.024,6.65s4.628-1.419,6.364-3.066C22.157,1.906,24.166,0,28.046,0s5.89,1.906,7.658,3.581C37.442,5.23,38.939,6.65,42.07,6.65S46.7,5.23,48.437,3.581C50.205,1.906,52.215,0,56.1,0s5.89,1.906,7.658,3.581C65.491,5.23,66.988,6.65,70.12,6.65s4.628-1.419,6.367-3.069C78.255,1.906,80.261,0,84.144,0V1.882c-3.131,0-4.628,1.422-6.367,3.069C76.006,6.629,74,8.532,70.12,8.532" transform="translate(2.299 30.399)" fill="#7d3a1b"/>
              <path id="Trazado_873376" data-name="Trazado 873376" d="M70.12,8.532c-3.88,0-5.889-1.9-7.658-3.584C60.723,3.3,59.226,1.882,56.1,1.882S51.467,3.3,49.728,4.947c-1.768,1.682-3.775,3.584-7.658,3.584s-5.889-1.9-7.658-3.584C32.674,3.3,31.177,1.882,28.046,1.882S23.418,3.3,21.682,4.947C19.911,6.629,17.9,8.532,14.025,8.532s-5.889-1.9-7.661-3.584C4.628,3.3,3.131,1.882,0,1.882V0C3.88,0,5.889,1.9,7.658,3.581,9.4,5.23,10.893,6.65,14.025,6.65s4.628-1.419,6.364-3.069C22.157,1.9,24.166,0,28.046,0s5.889,1.9,7.661,3.581C37.442,5.23,38.939,6.65,42.071,6.65S46.7,5.23,48.437,3.581C50.206,1.9,52.215,0,56.1,0s5.89,1.9,7.658,3.581C65.491,5.23,66.988,6.65,70.12,6.65s4.628-1.419,6.367-3.069C78.257,1.9,80.264,0,84.147,0V1.882c-3.131,0-4.631,1.422-6.37,3.066C76.006,6.629,74,8.532,70.12,8.532" transform="translate(1.533 20.266)" fill="#7d3a1b"/>
              <path id="Trazado_873377" data-name="Trazado 873377" d="M70.119,8.532c-3.88,0-5.889-1.9-7.658-3.584C60.723,3.3,59.226,1.882,56.1,1.882S51.467,3.3,49.728,4.947C47.96,6.629,45.95,8.532,42.071,8.532s-5.89-1.9-7.658-3.584C32.674,3.3,31.177,1.882,28.046,1.882S23.418,3.3,21.682,4.947C19.911,6.629,17.9,8.532,14.025,8.532s-5.89-1.9-7.661-3.584C4.628,3.3,3.131,1.882,0,1.882V0C3.88,0,5.889,1.9,7.658,3.581,9.393,5.23,10.893,6.65,14.025,6.65s4.628-1.419,6.364-3.069C22.156,1.9,24.166,0,28.046,0s5.89,1.9,7.661,3.581C37.442,5.23,38.939,6.65,42.071,6.65S46.7,5.23,48.437,3.581C50.205,1.9,52.215,0,56.1,0s5.889,1.9,7.658,3.581C65.491,5.23,66.988,6.65,70.119,6.65s4.628-1.419,6.367-3.069C78.257,1.9,80.261,0,84.147,0V1.882c-3.131,0-4.631,1.422-6.37,3.066C76.006,6.629,74,8.532,70.119,8.532" transform="translate(0.766 10.133)" fill="#7d3a1b"/>
              <path id="Trazado_873378" data-name="Trazado 873378" d="M70.12,8.529c-3.88,0-5.887-1.9-7.658-3.581C60.723,3.3,59.226,1.882,56.095,1.882S51.467,3.3,49.731,4.947C47.96,6.626,45.953,8.529,42.07,8.529s-5.887-1.9-7.658-3.581C32.674,3.3,31.177,1.882,28.046,1.882S23.418,3.3,21.682,4.944C19.914,6.626,17.9,8.529,14.024,8.529s-5.89-1.9-7.661-3.581C4.628,3.3,3.131,1.882,0,1.882V0C3.88,0,5.89,1.9,7.658,3.581,9.4,5.228,10.893,6.647,14.024,6.647s4.628-1.419,6.364-3.066C22.159,1.9,24.166,0,28.046,0s5.887,1.9,7.661,3.581c1.736,1.646,3.233,3.066,6.364,3.066S46.7,5.228,48.437,3.581C50.208,1.9,52.215,0,56.095,0s5.887,1.9,7.658,3.581c1.739,1.646,3.236,3.066,6.367,3.066s4.628-1.419,6.367-3.066C78.257,1.9,80.264,0,84.147,0V1.882c-3.134,0-4.631,1.419-6.37,3.066C76.006,6.626,74,8.529,70.12,8.529" transform="translate(0 0.003)" fill="#7d3a1b"/>
            </g>
          </g>
        </g>
        <path id="Trazado_873425" data-name="Trazado 873425" d="M47.337,0A47.337,47.337,0,1,1,0,47.337,47.337,47.337,0,0,1,47.337,0Z" transform="translate(14.061 16.873)" fill="#7d3a1b"/>
        <circle id="Elipse_11503" data-name="Elipse 11503" cx="49.5" cy="49.5" r="49.5" transform="translate(7.211 7.211)" fill="#fff"/>
      </g>
      <g id="Grupo_1099977" data-name="Grupo 1099977" transform="translate(289.438 5308.697)">
        <path id="Trazado_873216" data-name="Trazado 873216" d="M0,0H62.506V62.507H0Z" transform="translate(0 0)" fill="none"/>
        <g id="Grupo_1099977-2" data-name="Grupo 1099977" transform="translate(2.253 0.983)">
          <path id="Trazado_873216-2" data-name="Trazado 873216" d="M0,0H62.506V62.507H0Z" transform="translate(0 0)" fill="none"/>
          <g id="Page-1" transform="translate(2.52 -0.147)">
            <g id="_047---Walking-Route" data-name="047---Walking-Route">
              <path id="Shape" d="M58,39H56.862a1.979,1.979,0,0,0-1.937,1.51A1.76,1.76,0,0,1,53,42a3.262,3.262,0,0,1-2.878-1.931A1.98,1.98,0,0,0,48.353,39H48V5a5.006,5.006,0,0,0-5-5H5A5.006,5.006,0,0,0,0,5V49a5.006,5.006,0,0,0,5,5H28v1a5.006,5.006,0,0,0,5,5h8.57a2.989,2.989,0,0,0,1.175-.239A9.014,9.014,0,0,1,46,59a9.026,9.026,0,0,1,3.256.761A2.98,2.98,0,0,0,50.43,60H55a5.006,5.006,0,0,0,5-5V41A2,2,0,0,0,58,39Zm-5,5a3.72,3.72,0,0,0,3.862-3H58V54H50.43a.945.945,0,0,1-.388-.079A10.9,10.9,0,0,0,46,53a10.887,10.887,0,0,0-4.041.921A.953.953,0,0,1,41.57,54H30V52a1,1,0,0,1,1-1h2a12.938,12.938,0,0,0,12.07-8.172L45.8,41l1.167-.006c.011,0,.02.006.031.006s.021-.006.033-.007l.912-.005a12.368,12.368,0,0,1-3.652,7.305A1,1,0,1,0,45.7,49.707a14.831,14.831,0,0,0,3.99-6.972A4.819,4.819,0,0,0,53,44ZM5,2H43a3,3,0,0,1,3,3V8H2V5A3,3,0,0,1,5,2ZM5,52a3,3,0,0,1-3-3V10H46V39h-.2a1.99,1.99,0,0,0-1.858,1.258l-.731,1.828A10.947,10.947,0,0,1,33,49H31a3,3,0,0,0-3,3Zm50,6H50.43a.945.945,0,0,1-.388-.079A10.9,10.9,0,0,0,46,57a10.887,10.887,0,0,0-4.041.921A.953.953,0,0,1,41.57,58H33a3,3,0,0,1-2.816-2H41.57a2.989,2.989,0,0,0,1.175-.239A9.014,9.014,0,0,1,46,55a9.026,9.026,0,0,1,3.256.761A2.98,2.98,0,0,0,50.43,56h7.386A3,3,0,0,1,55,58Z" fill="#7d3a1b"/>
              <circle id="Oval" cx="1" cy="1" r="1" transform="translate(4 4)" fill="#7d3a1b"/>
              <circle id="Oval-2" data-name="Oval" cx="1" cy="1" r="1" transform="translate(8 4)" fill="#7d3a1b"/>
              <circle id="Oval-3" data-name="Oval" cx="1" cy="1" r="1" transform="translate(12 4)" fill="#7d3a1b"/>
              <path id="Shape-2" data-name="Shape" d="M32,6H42a1,1,0,0,0,0-2H32a1,1,0,0,0,0,2Z" fill="#7d3a1b"/>
              <path id="Shape-3" data-name="Shape" d="M31,46a1,1,0,0,0,2,0,3,3,0,0,0-3-3H8a2,2,0,0,1,0-4h2.184a2.982,2.982,0,0,0,5.632,0H39a4,4,0,0,0,0-8H27.816a2.982,2.982,0,0,0-5.632,0H9a2,2,0,0,1,0-4H37a1,1,0,0,0,0-2h-.6c1.568-1.737,3.6-4.471,3.6-7a6,6,0,0,0-12,0c0,2.529,2.03,5.263,3.6,7H9a4,4,0,0,0,0,8H22.184a2.982,2.982,0,0,0,5.632,0H39a2,2,0,0,1,0,4H15.816a2.982,2.982,0,0,0-5.632,0H8a4,4,0,0,0,0,8H30A1,1,0,0,1,31,46Zm3-32a3.961,3.961,0,0,1,4,4c0,2.173-2.477,5.1-4,6.622C32.476,23.1,30,20.179,30,18a3.961,3.961,0,0,1,4-4ZM25,33a1,1,0,1,1,1-1A1,1,0,0,1,25,33ZM13,37a1,1,0,1,1-1,1A1,1,0,0,1,13,37Z" fill="#7d3a1b"/>
              <path id="Shape-4" data-name="Shape" d="M41,27h1a1,1,0,0,0,0-2H41a1,1,0,0,0,0,2Z" fill="#7d3a1b"/>
              <circle id="Oval-4" data-name="Oval" cx="1" cy="1" r="1" transform="translate(33 17)" fill="#7d3a1b"/>
            </g>
          </g>
        </g>
      </g>
    </g>
  </g>
</svg>
