<svg xmlns="http://www.w3.org/2000/svg" xmlns:xlink="http://www.w3.org/1999/xlink" width="190" height="134" viewBox="0 0 190 134">
  <defs>
    <clipPath id="clip-path">
      <rect id="Rect치ngulo_402355" data-name="Rect치ngulo 402355" width="87" height="87" transform="translate(342 951)" fill="#fff" stroke="#707070" stroke-width="1"/>
    </clipPath>
  </defs>
  <g id="Grupo_1102652" data-name="Grupo 1102652" transform="translate(-330 -7019)">
    <rect id="Rect치ngulo_402215" data-name="Rect치ngulo 402215" width="190" height="134" transform="translate(330 7019)" fill="none"/>
    <g id="Grupo_1100287" data-name="Grupo 1100287" transform="translate(16 -507)">
      <g id="Grupo_156312" data-name="Grupo 156312" transform="translate(344 7528)">
        <path id="Elipse_5845" data-name="Elipse 5845" d="M65.5,0A65.5,65.5,0,1,1,0,65.5,65.5,65.5,0,0,1,65.5,0Z" transform="translate(0 0)" fill="#ffce73"/>
      </g>
      <g id="Enmascarar_grupo_1098715" data-name="Enmascarar grupo 1098715" transform="translate(24 6599)" clip-path="url(#clip-path)">
        <g id="Grupo_1103966" data-name="Grupo 1103966" transform="translate(-60)">
          <g id="Economic_Growth" transform="translate(404 954)">
            <path id="Trazado_894979" data-name="Trazado 894979" d="M28.185,61.661A30.054,30.054,0,0,1,11.036,29.373l8.382-1.4a1.338,1.338,0,0,1,1.4.708L27.55,42.151a1.293,1.293,0,0,1,.137.582V45.16A2.607,2.607,0,0,0,29.338,47.6l5.113,2.048L35.536,54a1.313,1.313,0,0,0,2.548-.636l-1.247-5a1.314,1.314,0,0,0-.786-.9l-5.738-2.3V42.733a3.906,3.906,0,0,0-.414-1.755L23.166,27.51a3.932,3.932,0,0,0-4.172-2.124l-7.382,1.23c.012-.044.019-.089.031-.134A1.313,1.313,0,1,0,9.107,25.8,32.8,32.8,0,0,0,27.085,64.045a1.313,1.313,0,0,0,1.1-2.384Z" transform="translate(2.5 7.759)" fill="#7d3a1b"/>
            <path id="Trazado_894980" data-name="Trazado 894980" d="M25.765,10.21a1.312,1.312,0,0,0,1.651.849c.834-.268,1.686-.5,2.545-.691l.06-.012v4.519a1.313,1.313,0,0,0,.9,1.246l2.689.892a1.328,1.328,0,0,1,.836.836l.591,1.773a1.36,1.36,0,0,1-.026.909l-1.675,4.2a1.334,1.334,0,0,1-1.084.824l-8.379.932a2.625,2.625,0,0,0-2.061,3.78l4.043,8.1a2.615,2.615,0,0,0,2.356,1.447H38.329a1.274,1.274,0,0,1,.787.262l3.913,2.938a1.273,1.273,0,0,1,.446.612l.972,2.927a1.313,1.313,0,1,0,2.492-.827l-.975-2.938A3.867,3.867,0,0,0,44.59,40.9L40.7,37.982a3.921,3.921,0,0,0-2.372-.795l-10.127,0-4.035-8.1,8.372-.931a3.962,3.962,0,0,0,3.229-2.446l1.685-4.227a4,4,0,0,0,.073-2.7l-.591-1.772a3.965,3.965,0,0,0-2.5-2.5l-1.791-.594V9.9a28.826,28.826,0,0,1,10.979.587l-.152,1.368a6.532,6.532,0,0,0,2.422,5.849l3.89,3.111.92,7.366a6.592,6.592,0,0,0,3.256,4.883l5.451,3.116a6.533,6.533,0,0,0,3.247.865c.22,0,.441-.012.663-.033l3.255-.325c.046.45.118.893.144,1.349a1.312,1.312,0,0,0,1.309,1.237l.077,0a1.312,1.312,0,0,0,1.234-1.386c-.054-.933-.154-1.854-.285-2.764h0A32.737,32.737,0,0,0,31.144,7.466c-.01,0-.019,0-.029,0-.216.036-.43.092-.645.133a32.962,32.962,0,0,0-3.852.948,1.331,1.331,0,0,0-.852,1.666ZM66.2,34.088,63.06,34.4a3.924,3.924,0,0,1-2.346-.5l-5.451-3.115a3.955,3.955,0,0,1-1.953-2.93l-.987-7.9a1.313,1.313,0,0,0-.482-.862l-4.305-3.444a3.919,3.919,0,0,1-1.453-3.51l.1-.925A30.19,30.19,0,0,1,66.2,34.088Z" transform="translate(6.73 2.188)" fill="#7d3a1b"/>
            <path id="Trazado_894981" data-name="Trazado 894981" d="M31.5,15.75A15.75,15.75,0,1,0,15.75,31.5,15.768,15.768,0,0,0,31.5,15.75Zm-28.875,0A13.125,13.125,0,1,1,15.75,28.875,13.14,13.14,0,0,1,2.625,15.75Z" fill="#7d3a1b"/>
            <path id="Trazado_894982" data-name="Trazado 894982" d="M14.562,23.687V22.309a4.583,4.583,0,0,0-.656-9.121H12.594a1.969,1.969,0,0,1,0-3.937h4.594a1.312,1.312,0,1,0,0-2.625H14.562V5.312a1.312,1.312,0,1,0-2.625,0V6.691a4.583,4.583,0,0,0,.656,9.121h1.313a1.969,1.969,0,1,1,0,3.937H9.312a1.313,1.313,0,0,0,0,2.625h2.625v1.313a1.312,1.312,0,0,0,2.625,0Z" transform="translate(2.5 1.25)" fill="#7d3a1b"/>
            <path id="Trazado_894983" data-name="Trazado 894983" d="M76.115,32.385a1.305,1.305,0,0,0-1.059-.378L61.932,33.319a1.313,1.313,0,0,0-.8,2.234l3.01,3.01-9.957,9.957L47.24,41.572a1.312,1.312,0,0,0-1.856,0l-21,21a1.312,1.312,0,0,0,0,1.856l3.553,3.553v4.707A1.312,1.312,0,0,0,29.25,74h42a1.312,1.312,0,0,0,1.313-1.312V46.981l.385.385a1.312,1.312,0,0,0,2.234-.8l1.313-13.125a1.316,1.316,0,0,0-.378-1.059Zm-45.553,35.6L42.375,56.169V71.375H30.563Zm15.75-15.75,6.947,6.947a1.312,1.312,0,0,0,1.856,0l3.01-3.01V71.375H45V53.544ZM69.937,71.375H60.75V53.544l9.188-9.187Zm2.907-27.824-.665-.665,0,0-1.312-1.312a1.312,1.312,0,0,0-1.856,0l-10.5,10.5,0,0-4.321,4.321L47.24,49.447a1.312,1.312,0,0,0-1.856,0L42.76,52.071l0,0L29.25,65.582,27.168,63.5,46.312,44.356,53.259,51.3a1.312,1.312,0,0,0,1.856,0L66.928,39.491a1.312,1.312,0,0,0,0-1.856l-1.979-1.979,8.773-.877Z" transform="translate(7.5 10)" fill="#7d3a1b"/>
          </g>
        </g>
      </g>
    </g>
  </g>
</svg>
