<svg xmlns="http://www.w3.org/2000/svg" xmlns:xlink="http://www.w3.org/1999/xlink" width="190" height="134" viewBox="0 0 190 134">
  <defs>
    <clipPath id="clip-path">
      <rect id="Rect치ngulo_402355" data-name="Rect치ngulo 402355" width="87" height="87" transform="translate(342 951)" fill="#fff" stroke="#707070" stroke-width="1"/>
    </clipPath>
  </defs>
  <g id="Grupo_1102652" data-name="Grupo 1102652" transform="translate(-330 -7019)">
    <rect id="Rect치ngulo_402215" data-name="Rect치ngulo 402215" width="190" height="134" transform="translate(330 7019)" fill="none"/>
    <g id="Grupo_1100287" data-name="Grupo 1100287" transform="translate(16 -507)">
      <g id="Grupo_156312" data-name="Grupo 156312" transform="translate(344 7528)">
        <path id="Elipse_5845" data-name="Elipse 5845" d="M65.5,0A65.5,65.5,0,1,1,0,65.5,65.5,65.5,0,0,1,65.5,0Z" transform="translate(0 0)" fill="#ffce73"/>
      </g>
      <g id="Enmascarar_grupo_1098715" data-name="Enmascarar grupo 1098715" transform="translate(24 6599)" clip-path="url(#clip-path)">
        <g id="Grupo_1103968" data-name="Grupo 1103968" transform="translate(345 953.998)">
          <circle id="Elipse_11547" data-name="Elipse 11547" cx="1" cy="1" r="1" transform="translate(10 75)" fill="#7d3a1b"/>
          <circle id="Elipse_11548" data-name="Elipse 11548" cx="1" cy="1" r="1" transform="translate(70 75)" fill="#7d3a1b"/>
          <circle id="Elipse_11549" data-name="Elipse 11549" cx="1" cy="1" r="1" transform="translate(5 70)" fill="#7d3a1b"/>
          <circle id="Elipse_11550" data-name="Elipse 11550" cx="1.201" cy="1.201" r="1.201" transform="translate(28.278 19.539)" fill="#7d3a1b"/>
          <circle id="Elipse_11551" data-name="Elipse 11551" cx="1.201" cy="1.201" r="1.201" transform="translate(16.266 14.734)" fill="#7d3a1b"/>
          <circle id="Elipse_11552" data-name="Elipse 11552" cx="1.201" cy="1.201" r="1.201" transform="translate(21.071 9.93)" fill="#7d3a1b"/>
          <path id="Trazado_894986" data-name="Trazado 894986" d="M80.833,2.257A5.48,5.48,0,0,1,76.9.407a1.2,1.2,0,0,0-1.8,0A5.468,5.468,0,0,1,71,2.259,5.469,5.469,0,0,1,66.9.406a1.2,1.2,0,0,0-1.8,0A5.468,5.468,0,0,1,61,2.259,5.468,5.468,0,0,1,56.9.406a1.2,1.2,0,0,0-1.8,0A5.468,5.468,0,0,1,51,2.259,5.469,5.469,0,0,1,46.9.406a1.2,1.2,0,0,0-1.8,0A5.468,5.468,0,0,1,41,2.259,5.468,5.468,0,0,1,36.9.407a1.2,1.2,0,0,0-1.8,0A5.469,5.469,0,0,1,31,2.259,5.468,5.468,0,0,1,26.9.407a1.2,1.2,0,0,0-1.8,0A5.469,5.469,0,0,1,21,2.259a5.467,5.467,0,0,1-4.1-1.852,1.2,1.2,0,0,0-1.8,0A5.468,5.468,0,0,1,11,2.259,5.469,5.469,0,0,1,6.907.407a1.2,1.2,0,0,0-1.8,0,5.481,5.481,0,0,1-3.938,1.85A1.2,1.2,0,0,0,0,3.457v14.88a1.2,1.2,0,0,0,2.4,0V4.536a7.91,7.91,0,0,0,3.6-1.67,7.868,7.868,0,0,0,5,1.8,7.868,7.868,0,0,0,5-1.8,7.868,7.868,0,0,0,5,1.8,7.87,7.87,0,0,0,5-1.8,7.868,7.868,0,0,0,5,1.8,7.87,7.87,0,0,0,5-1.8,7.868,7.868,0,0,0,5,1.8,7.868,7.868,0,0,0,5-1.8,7.87,7.87,0,0,0,5,1.8,7.868,7.868,0,0,0,5-1.8,7.87,7.87,0,0,0,5,1.8,7.868,7.868,0,0,0,5-1.8,7.87,7.87,0,0,0,5,1.8,7.868,7.868,0,0,0,5-1.8,7.91,7.91,0,0,0,3.6,1.67V50.77H67.586V43.442a6.022,6.022,0,0,0,4.7-4.786,6.015,6.015,0,0,0,4.907-5.9,1.2,1.2,0,0,0-2.4,0,3.609,3.609,0,0,1-2.4,3.4v-3.4a1.2,1.2,0,0,0-2.4,0v4.8a3.609,3.609,0,0,1-2.4,3.4v-8.2a1.2,1.2,0,0,0-2.4,0V45.758a3.609,3.609,0,0,1-2.4-3.4v-4.8a1.2,1.2,0,0,0-2.4,0v3.4a3.609,3.609,0,0,1-2.4-3.4,1.2,1.2,0,0,0-2.4,0,6.015,6.015,0,0,0,4.907,5.9,6.022,6.022,0,0,0,4.7,4.786v2.609a8.427,8.427,0,0,0-7.132,7.2,8.427,8.427,0,0,0-7.2,7.132H42.2V57.855a6.022,6.022,0,0,0,4.7-4.786,6.015,6.015,0,0,0,4.907-5.9,1.2,1.2,0,0,0-2.4,0,3.609,3.609,0,0,1-2.4,3.4v-3.4a1.2,1.2,0,0,0-2.4,0v4.8a3.609,3.609,0,0,1-2.4,3.4v-8.2a1.2,1.2,0,0,0-2.4,0V60.172a3.609,3.609,0,0,1-2.4-3.4v-4.8a1.2,1.2,0,0,0-2.4,0v3.4a3.609,3.609,0,0,1-2.4-3.4,1.2,1.2,0,0,0-2.4,0,6.015,6.015,0,0,0,4.907,5.9,6.022,6.022,0,0,0,4.7,4.786v2.523H31.143a8.42,8.42,0,0,0-8.321-7.207H16.816V55.453a6.022,6.022,0,0,0,4.7-4.786,6.015,6.015,0,0,0,4.907-5.9,1.2,1.2,0,0,0-2.4,0,3.609,3.609,0,0,1-2.4,3.4v-3.4a1.2,1.2,0,0,0-2.4,0v4.8a3.609,3.609,0,0,1-2.4,3.4V39.959a1.2,1.2,0,0,0-2.4,0v8.2a3.609,3.609,0,0,1-2.4-3.4v-4.8a1.2,1.2,0,0,0-2.4,0v3.4a3.609,3.609,0,0,1-2.4-3.4,1.2,1.2,0,0,0-2.4,0,6.015,6.015,0,0,0,4.907,5.9,6.022,6.022,0,0,0,4.7,4.786v7.328H2.4V23.143a1.2,1.2,0,0,0-2.4,0V80.8A1.2,1.2,0,0,0,1.2,82H80.8A1.2,1.2,0,0,0,82,80.8V3.457a1.2,1.2,0,0,0-1.167-1.2ZM59.178,60.379a1.2,1.2,0,0,0,1.2-1.2,6.013,6.013,0,0,1,6.006-6.006H79.6V65.184h-26.3A6.016,6.016,0,0,1,59.178,60.379Zm-36.355,0a6.016,6.016,0,0,1,5.885,4.8H2.4v-4.8ZM2.4,79.6V67.586H79.6V79.6Z" fill="#7d3a1b"/>
          <path id="Trazado_894987" data-name="Trazado 894987" d="M157.033,47.6a1.2,1.2,0,0,0-1.041-.6,15.637,15.637,0,0,0-11.272,4.814,15.677,15.677,0,0,0-12.993,7.8,1.2,1.2,0,0,0,0,1.2,15.677,15.677,0,0,0,12.993,7.8,15.636,15.636,0,0,0,11.272,4.814,1.2,1.2,0,0,0,1.04-1.8,29.993,29.993,0,0,0-3.815-5.2,15.669,15.669,0,0,0,4.519-4.045,15.678,15.678,0,0,0,12.485,6.24,1.2,1.2,0,0,0,1.04-1.8,30.07,30.07,0,0,0-5.173-6.605,30.07,30.07,0,0,0,5.173-6.605,1.2,1.2,0,0,0-1.04-1.8,15.677,15.677,0,0,0-12.485,6.24A15.671,15.671,0,0,0,153.217,54a29.979,29.979,0,0,0,3.815-5.2,1.2,1.2,0,0,0,0-1.2Zm-3.362,23.216a13.243,13.243,0,0,1-5.62-2.453,15.609,15.609,0,0,0,2.913-.834A27.721,27.721,0,0,1,153.671,70.817Zm14.231-16.4a27.733,27.733,0,0,1-4.379,4.9,1.2,1.2,0,0,0,0,1.8,27.733,27.733,0,0,1,4.379,4.9,13.283,13.283,0,0,1-8.755-5.8A13.283,13.283,0,0,1,167.9,54.414Zm-11.574,5.8a13.215,13.215,0,0,1-22.151,0,13.215,13.215,0,0,1,22.151,0ZM150.964,52.9a15.621,15.621,0,0,0-2.913-.834,13.246,13.246,0,0,1,5.62-2.453A27.7,27.7,0,0,1,150.964,52.9Z" transform="translate(-110.494 -39.473)" fill="#7d3a1b"/>
        </g>
      </g>
    </g>
  </g>
</svg>
