<svg xmlns="http://www.w3.org/2000/svg" xmlns:xlink="http://www.w3.org/1999/xlink" width="190" height="134" viewBox="0 0 190 134">
  <defs>
    <clipPath id="clip-path">
      <rect id="Rect치ngulo_402355" data-name="Rect치ngulo 402355" width="87" height="87" transform="translate(342 951)" fill="#fff" stroke="#707070" stroke-width="1"/>
    </clipPath>
  </defs>
  <g id="Grupo_1102652" data-name="Grupo 1102652" transform="translate(-330 -7019)">
    <rect id="Rect치ngulo_402215" data-name="Rect치ngulo 402215" width="190" height="134" transform="translate(330 7019)" fill="none"/>
    <g id="Grupo_1100287" data-name="Grupo 1100287" transform="translate(16 -507)">
      <g id="Grupo_156312" data-name="Grupo 156312" transform="translate(344 7528)">
        <path id="Elipse_5845" data-name="Elipse 5845" d="M65.5,0A65.5,65.5,0,1,1,0,65.5,65.5,65.5,0,0,1,65.5,0Z" transform="translate(1 0)" fill="#ffce73"/>
      </g>
      <g id="Enmascarar_grupo_1098715" data-name="Enmascarar grupo 1098715" transform="translate(24 6599)" clip-path="url(#clip-path)">
        <g id="Grupo_1102698" data-name="Grupo 1102698" transform="translate(343.864 952.86)">
          <g id="Grupo_1103963" data-name="Grupo 1103963" transform="translate(4.848 5)">
            <path id="Trazado_894972" data-name="Trazado 894972" d="M350.081,21.545v3.121h-4.353v4.353h4.353v4.353h4.353V29.019h4.353V24.666h-4.353V21.545C367.113,18.665,365.378.333,352.257,0,339.134.334,337.4,18.668,350.081,21.545Zm2.176-17.192a6.537,6.537,0,0,1,6.529,6.529c-.328,8.65-12.732,8.648-13.059,0A6.537,6.537,0,0,1,352.257,4.353Z" transform="translate(-291.898)" fill="#7d3a1b"/>
            <path id="Trazado_894973" data-name="Trazado 894973" d="M39.374,47.283a10.9,10.9,0,0,0,1.384-13.7l6.156-6.156v4.9h4.353V20H38.934v4.353h4.9l-6.156,6.156c-11-6.929-22.737,7.262-13.7,16.774A10.894,10.894,0,0,0,39.374,47.283ZM27.063,34.971a6.537,6.537,0,0,1,9.234,0c5.884,6.349-2.888,15.118-9.234,9.234A6.536,6.536,0,0,1,27.063,34.971Z" transform="translate(-17.75 -17.098)" fill="#7d3a1b"/>
            <path id="Trazado_894974" data-name="Trazado 894974" d="M44.618,236.353,43.015,232H31.274l-1.6,4.353H0v5.078a7.989,7.989,0,0,0,7.98,7.98H24.859L21.117,259.57a7.988,7.988,0,0,0-7.913,7.978v5.078H61.085v-5.078a7.988,7.988,0,0,0-7.913-7.978l-3.742-10.158H66.308a7.989,7.989,0,0,0,7.98-7.98v-5.078Zm-10.309,0H39.98l8.553,23.215H25.756ZM7.98,245.059a3.631,3.631,0,0,1-3.627-3.627v-.725H28.067l-1.6,4.353ZM53.1,263.921a3.631,3.631,0,0,1,3.627,3.627v.726H17.556v-.726a3.631,3.631,0,0,1,3.627-3.627Zm16.831-22.49a3.631,3.631,0,0,1-3.627,3.627H47.826l-1.6-4.353H69.936Z" transform="translate(0 -198.338)" fill="#7d3a1b"/>
          </g>
        </g>
      </g>
    </g>
  </g>
</svg>
