<svg xmlns="http://www.w3.org/2000/svg" xmlns:xlink="http://www.w3.org/1999/xlink" width="190" height="134" viewBox="0 0 190 134">
  <defs>
    <clipPath id="clip-path">
      <rect id="Rect치ngulo_402355" data-name="Rect치ngulo 402355" width="87" height="87" transform="translate(342 951)" fill="#fff" stroke="#707070" stroke-width="1"/>
    </clipPath>
  </defs>
  <g id="Grupo_1102652" data-name="Grupo 1102652" transform="translate(-330 -7019)">
    <rect id="Rect치ngulo_402215" data-name="Rect치ngulo 402215" width="190" height="134" transform="translate(330 7019)" fill="none"/>
    <g id="Grupo_1100287" data-name="Grupo 1100287" transform="translate(16 -507)">
      <g id="Grupo_156312" data-name="Grupo 156312" transform="translate(344 7528)">
        <path id="Elipse_5845" data-name="Elipse 5845" d="M65.5,0A65.5,65.5,0,1,1,0,65.5,65.5,65.5,0,0,1,65.5,0Z" transform="translate(0 0)" fill="#ffce73"/>
      </g>
      <g id="Enmascarar_grupo_1098715" data-name="Enmascarar grupo 1098715" transform="translate(24 6599)" clip-path="url(#clip-path)">
        <g id="Grupo_1103969" data-name="Grupo 1103969" transform="translate(343.874 924.891)">
          <path id="Trazado_894988" data-name="Trazado 894988" d="M82.894,239.855h-15.3l1.72-4.3a11.1,11.1,0,0,0,7.956-4.231,1.232,1.232,0,1,0-1.919-1.546,8.664,8.664,0,0,1-6.316,3.328,7.486,7.486,0,0,1-5.718-2.074,7.663,7.663,0,0,1-2.23-5.7,1.228,1.228,0,0,0-.02-.269,1.231,1.231,0,0,0,.671-1.1,2.719,2.719,0,0,1,5.438,0,2.672,2.672,0,0,1-.138.8,1.233,1.233,0,0,0,.394,1.315l3.634,2.991a1.232,1.232,0,0,0,1.566-1.9l-3.046-2.507a4.574,4.574,0,0,0,.054-.692,5.183,5.183,0,0,0-10.218-1.232H57.2a1.232,1.232,0,1,0,0,2.465h1.426c0,.012,0,.024,0,.037a10.134,10.134,0,0,0,2.95,7.541,9.672,9.672,0,0,0,5.142,2.639l-1.777,4.441H44.468l-1.009-8.072h6.507A1.232,1.232,0,0,0,51.2,230.55a9.145,9.145,0,0,0-9.135-9.135H38.112a9.146,9.146,0,0,0-9.135,9.135,1.232,1.232,0,0,0,1.232,1.232h6.507l-1.009,8.072H19.587V219.206l4.56-4.56c.154.009.308.015.462.015a10.773,10.773,0,0,0,7.456-3.329,10.431,10.431,0,0,0,3.257-8.546,1.232,1.232,0,0,0-1.058-1.058,10.432,10.432,0,0,0-8.546,3.257A10.627,10.627,0,0,0,22.4,212.9l-2.816,2.816v-8.747a9.343,9.343,0,0,0-2.914-7.611,9.334,9.334,0,0,0-7.649-2.91,1.232,1.232,0,0,0-1.058,1.058,9.333,9.333,0,0,0,2.91,7.649,9.761,9.761,0,0,0,6.247,2.962V218.7h0v6.244l-2.816-2.816a10.627,10.627,0,0,0-3.315-7.919,10.43,10.43,0,0,0-8.546-3.257,1.232,1.232,0,0,0-1.058,1.058,10.431,10.431,0,0,0,3.257,8.546,10.773,10.773,0,0,0,7.456,3.329c.154,0,.308-.007.462-.015l4.56,4.56v11.428H1.232a1.232,1.232,0,1,0,0,2.465H82.894a1.232,1.232,0,1,0,0-2.464ZM27.461,206.728a8.534,8.534,0,0,1,5.461-2.6,8.533,8.533,0,0,1-2.6,5.461,8.533,8.533,0,0,1-5.461,2.6A8.532,8.532,0,0,1,27.461,206.728ZM6.387,218.81a8.533,8.533,0,0,1-2.6-5.461,8.534,8.534,0,0,1,5.461,2.6,8.534,8.534,0,0,1,2.6,5.461A8.535,8.535,0,0,1,6.387,218.81Zm3.995-19.941a7.434,7.434,0,0,1,4.549,2.237,7.434,7.434,0,0,1,2.237,4.549,7.433,7.433,0,0,1-4.549-2.237,7.432,7.432,0,0,1-2.237-4.549Zm27.73,25.011h3.951a6.682,6.682,0,0,1,6.556,5.438H31.556A6.682,6.682,0,0,1,38.112,223.88Zm1.088,7.9h1.776l1.009,8.072H38.191Z" transform="translate(0 -133.974)" fill="#7d3a1b"/>
          <path id="Trazado_894989" data-name="Trazado 894989" d="M386.04,356.718a1.239,1.239,0,1,0,.013,0Z" transform="translate(-321.585 -267.96)" fill="#7d3a1b"/>
          <path id="Trazado_894990" data-name="Trazado 894990" d="M307.047,121.106a10.457,10.457,0,0,0,9.547-14.713,1.232,1.232,0,1,0-2.25,1.006,7.987,7.987,0,1,1-3.181-3.592,1.232,1.232,0,0,0,1.272-2.111,10.453,10.453,0,1,0-5.387,19.411Z" transform="translate(-247.862 -53.592)" fill="#7d3a1b"/>
          <path id="Trazado_894991" data-name="Trazado 894991" d="M353.941,43.806a1.232,1.232,0,0,0,1.232-1.232V37.305a1.232,1.232,0,0,0-2.465,0v5.269A1.232,1.232,0,0,0,353.941,43.806Z" transform="translate(-294.756)" fill="#7d3a1b"/>
          <path id="Trazado_894992" data-name="Trazado 894992" d="M352.709,245.724v5.268a1.232,1.232,0,1,0,2.465,0v-5.268a1.232,1.232,0,0,0-2.465,0Z" transform="translate(-294.756 -174.174)" fill="#7d3a1b"/>
          <path id="Trazado_894993" data-name="Trazado 894993" d="M442.119,158.78h5.268a1.232,1.232,0,0,0,0-2.465h-5.268a1.232,1.232,0,0,0,0,2.465Z" transform="translate(-368.445 -100.485)" fill="#7d3a1b"/>
          <path id="Trazado_894994" data-name="Trazado 894994" d="M233.7,158.78h5.268a1.232,1.232,0,0,0,0-2.465H233.7a1.232,1.232,0,1,0,0,2.465Z" transform="translate(-194.271 -100.485)" fill="#7d3a1b"/>
          <path id="Trazado_894995" data-name="Trazado 894995" d="M281.247,219.026l-1.863,1.863a1.232,1.232,0,1,0,1.743,1.743l1.863-1.863a1.232,1.232,0,0,0-1.743-1.743Z" transform="translate(-233.177 -152.591)" fill="#7d3a1b"/>
          <path id="Trazado_894996" data-name="Trazado 894996" d="M416.294,86.955a1.228,1.228,0,0,0,.871-.361l1.863-1.863a1.232,1.232,0,0,0-1.743-1.743l-1.863,1.863a1.232,1.232,0,0,0,.871,2.1Z" transform="translate(-346.863 -38.906)" fill="#7d3a1b"/>
          <path id="Trazado_894997" data-name="Trazado 894997" d="M281.247,86.594a1.232,1.232,0,1,0,1.743-1.743l-1.863-1.863a1.232,1.232,0,0,0-1.743,1.743Z" transform="translate(-233.177 -38.906)" fill="#7d3a1b"/>
          <path id="Trazado_894998" data-name="Trazado 894998" d="M417.165,219.027a1.232,1.232,0,1,0-1.743,1.743l1.863,1.863a1.232,1.232,0,0,0,1.743-1.743Z" transform="translate(-346.863 -152.591)" fill="#7d3a1b"/>
        </g>
      </g>
    </g>
  </g>
</svg>
