<svg xmlns="http://www.w3.org/2000/svg" xmlns:xlink="http://www.w3.org/1999/xlink" width="129" height="128" viewBox="0 0 129 128">
  <defs>
    <clipPath id="clip-path">
      <rect id="Rectángulo_400938" data-name="Rectángulo 400938" width="120" height="120" fill="none"/>
    </clipPath>
    <clipPath id="clip-path-2">
      <rect id="Rectángulo_400938-2" data-name="Rectángulo 400938" width="113" height="113" transform="translate(0.211 0.211)" fill="none"/>
    </clipPath>
    <clipPath id="clip-path-3">
      <rect id="Rectángulo_401073" data-name="Rectángulo 401073" width="86.443" height="38.93" fill="#7d3a1b"/>
    </clipPath>
  </defs>
  <g id="Grupo_1104655" data-name="Grupo 1104655" transform="translate(-376 -7150)">
    <g id="Grupo_108927" data-name="Grupo 108927" transform="translate(-14 2683)">
      <path id="Rectángulo_36179" data-name="Rectángulo 36179" d="M0,0H129V128H0Z" transform="translate(390 4467)" fill="#feebcf"/>
    </g>
    <g id="Grupo_1104496" data-name="Grupo 1104496" transform="translate(118.789 1873.789)">
      <g id="Grupo_1099379" data-name="Grupo 1099379" transform="translate(265 5284)">
        <rect id="Rectángulo_401103" data-name="Rectángulo 401103" width="113" height="113" transform="translate(0.211 0.211)" fill="none"/>
        <g id="Grupo_1099348" data-name="Grupo 1099348">
          <g id="Grupo_1099282" data-name="Grupo 1099282">
            <g id="Grupo_1099281" data-name="Grupo 1099281" clip-path="url(#clip-path-3)">
              <path id="Trazado_873375" data-name="Trazado 873375" d="M70.12,8.532c-3.88,0-5.887-1.9-7.658-3.581C60.723,3.3,59.226,1.882,56.1,1.882S51.467,3.3,49.728,4.95c-1.771,1.679-3.775,3.581-7.658,3.581s-5.886-1.9-7.658-3.581C32.674,3.3,31.177,1.882,28.046,1.882S23.418,3.3,21.682,4.95C19.911,6.629,17.9,8.532,14.024,8.532S8.135,6.629,6.364,4.95C4.628,3.3,3.131,1.882,0,1.882V0C3.88,0,5.887,1.906,7.658,3.581,9.4,5.23,10.893,6.65,14.024,6.65s4.628-1.419,6.364-3.066C22.157,1.906,24.166,0,28.046,0s5.89,1.906,7.658,3.581C37.442,5.23,38.939,6.65,42.07,6.65S46.7,5.23,48.437,3.581C50.205,1.906,52.215,0,56.1,0s5.89,1.906,7.658,3.581C65.491,5.23,66.988,6.65,70.12,6.65s4.628-1.419,6.367-3.069C78.255,1.906,80.261,0,84.144,0V1.882c-3.131,0-4.628,1.422-6.367,3.069C76.006,6.629,74,8.532,70.12,8.532" transform="translate(2.299 30.399)" fill="#7d3a1b"/>
              <path id="Trazado_873376" data-name="Trazado 873376" d="M70.12,8.532c-3.88,0-5.889-1.9-7.658-3.584C60.723,3.3,59.226,1.882,56.1,1.882S51.467,3.3,49.728,4.947c-1.768,1.682-3.775,3.584-7.658,3.584s-5.889-1.9-7.658-3.584C32.674,3.3,31.177,1.882,28.046,1.882S23.418,3.3,21.682,4.947C19.911,6.629,17.9,8.532,14.025,8.532s-5.889-1.9-7.661-3.584C4.628,3.3,3.131,1.882,0,1.882V0C3.88,0,5.889,1.9,7.658,3.581,9.4,5.23,10.893,6.65,14.025,6.65s4.628-1.419,6.364-3.069C22.157,1.9,24.166,0,28.046,0s5.889,1.9,7.661,3.581C37.442,5.23,38.939,6.65,42.071,6.65S46.7,5.23,48.437,3.581C50.206,1.9,52.215,0,56.1,0s5.89,1.9,7.658,3.581C65.491,5.23,66.988,6.65,70.12,6.65s4.628-1.419,6.367-3.069C78.257,1.9,80.264,0,84.147,0V1.882c-3.131,0-4.631,1.422-6.37,3.066C76.006,6.629,74,8.532,70.12,8.532" transform="translate(1.533 20.266)" fill="#7d3a1b"/>
              <path id="Trazado_873377" data-name="Trazado 873377" d="M70.119,8.532c-3.88,0-5.889-1.9-7.658-3.584C60.723,3.3,59.226,1.882,56.1,1.882S51.467,3.3,49.728,4.947C47.96,6.629,45.95,8.532,42.071,8.532s-5.89-1.9-7.658-3.584C32.674,3.3,31.177,1.882,28.046,1.882S23.418,3.3,21.682,4.947C19.911,6.629,17.9,8.532,14.025,8.532s-5.89-1.9-7.661-3.584C4.628,3.3,3.131,1.882,0,1.882V0C3.88,0,5.889,1.9,7.658,3.581,9.393,5.23,10.893,6.65,14.025,6.65s4.628-1.419,6.364-3.069C22.156,1.9,24.166,0,28.046,0s5.89,1.9,7.661,3.581C37.442,5.23,38.939,6.65,42.071,6.65S46.7,5.23,48.437,3.581C50.205,1.9,52.215,0,56.1,0s5.889,1.9,7.658,3.581C65.491,5.23,66.988,6.65,70.119,6.65s4.628-1.419,6.367-3.069C78.257,1.9,80.261,0,84.147,0V1.882c-3.131,0-4.631,1.422-6.37,3.066C76.006,6.629,74,8.532,70.119,8.532" transform="translate(0.766 10.133)" fill="#7d3a1b"/>
              <path id="Trazado_873378" data-name="Trazado 873378" d="M70.12,8.529c-3.88,0-5.887-1.9-7.658-3.581C60.723,3.3,59.226,1.882,56.095,1.882S51.467,3.3,49.731,4.947C47.96,6.626,45.953,8.529,42.07,8.529s-5.887-1.9-7.658-3.581C32.674,3.3,31.177,1.882,28.046,1.882S23.418,3.3,21.682,4.944C19.914,6.626,17.9,8.529,14.024,8.529s-5.89-1.9-7.661-3.581C4.628,3.3,3.131,1.882,0,1.882V0C3.88,0,5.89,1.9,7.658,3.581,9.4,5.228,10.893,6.647,14.024,6.647s4.628-1.419,6.364-3.066C22.159,1.9,24.166,0,28.046,0s5.887,1.9,7.661,3.581c1.736,1.646,3.233,3.066,6.364,3.066S46.7,5.228,48.437,3.581C50.208,1.9,52.215,0,56.095,0s5.887,1.9,7.658,3.581c1.739,1.646,3.236,3.066,6.367,3.066s4.628-1.419,6.367-3.066C78.257,1.9,80.264,0,84.147,0V1.882c-3.134,0-4.631,1.419-6.37,3.066C76.006,6.626,74,8.529,70.12,8.529" transform="translate(0 0.003)" fill="#7d3a1b"/>
            </g>
          </g>
        </g>
        <path id="Trazado_873425" data-name="Trazado 873425" d="M47.337,0A47.337,47.337,0,1,1,0,47.337,47.337,47.337,0,0,1,47.337,0Z" transform="translate(14.061 16.873)" fill="#7d3a1b"/>
        <circle id="Elipse_11503" data-name="Elipse 11503" cx="49.5" cy="49.5" r="49.5" transform="translate(7.211 7.211)" fill="#fff"/>
      </g>
    </g>
    <g id="Grupo_1104497" data-name="Grupo 1104497" transform="translate(409.48 7186.838)">
      <path id="Trazado_873216" data-name="Trazado 873216" d="M0,0H62.506V62.507H0Z" transform="translate(0 0)" fill="none"/>
      <path id="Trazado_895100" data-name="Trazado 895100" d="M88.9,51.01a10.37,10.37,0,0,0-4.069-2.916,7.427,7.427,0,0,0,2.179-5.252,7.574,7.574,0,0,0-15.146,0,7.427,7.427,0,0,0,2.178,5.251,10.365,10.365,0,0,0-5.722,5.6,10.309,10.309,0,0,0-1.4-.68A7.427,7.427,0,0,0,69.1,47.766a7.574,7.574,0,0,0-15.146,0,7.426,7.426,0,0,0,2.179,5.252,10.311,10.311,0,0,0-1.4.68,10.365,10.365,0,0,0-5.722-5.6,7.427,7.427,0,0,0,2.178-5.251,7.574,7.574,0,0,0-15.146,0,7.427,7.427,0,0,0,2.179,5.252A10.319,10.319,0,0,0,31.7,57.662v4.67a1.562,1.562,0,0,0,1.56,1.56H49.613v3.363a1.562,1.562,0,0,0,1.56,1.56H71.886a1.562,1.562,0,0,0,1.56-1.56V63.891H89.794a1.562,1.562,0,0,0,1.56-1.56v-4.67A10.276,10.276,0,0,0,88.9,51.01ZM79.438,37.344a5.5,5.5,0,1,1-5.579,5.5A5.545,5.545,0,0,1,79.438,37.344ZM61.53,42.268a5.5,5.5,0,1,1-5.579,5.5,5.545,5.545,0,0,1,5.579-5.5ZM43.622,37.344a5.5,5.5,0,1,1-5.579,5.5A5.545,5.545,0,0,1,43.622,37.344ZM49.639,61.9H33.7V57.662a8.279,8.279,0,0,1,6.56-8.108,7.623,7.623,0,0,0,6.726,0,8.344,8.344,0,0,1,6.086,5.356A10.276,10.276,0,0,0,49.639,61.9Zm21.813,4.924H51.608V62.585a8.279,8.279,0,0,1,6.56-8.109,7.624,7.624,0,0,0,6.724,0,8.279,8.279,0,0,1,6.56,8.109ZM89.36,61.9H73.42a10.285,10.285,0,0,0-2.428-5.963,10.393,10.393,0,0,0-1-1.025,8.343,8.343,0,0,1,6.086-5.356,7.623,7.623,0,0,0,6.726,0,8.279,8.279,0,0,1,6.56,8.108V61.9ZM45.436,13.022a1,1,0,0,0,.677.292l3.386.1a15.2,15.2,0,1,0,2.787-2.787l-.1-3.386A1,1,0,0,0,51.9,6.56L46.63,1.292a1,1,0,0,0-1.7.734l.118,4.144L40.9,6.052a1,1,0,0,0-.734,1.7Zm29.279,9.632a13.184,13.184,0,1,1-23.181-8.586l2.2,2.2a10.1,10.1,0,1,0,1.411-1.41l-2.2-2.2a13.177,13.177,0,0,1,21.771,10ZM58.374,20.908a3.611,3.611,0,1,0,1.41-1.41l-3.225-3.225a8.108,8.108,0,1,1-1.41,1.41Zm3.156.132a1.613,1.613,0,1,1-1.613,1.613A1.615,1.615,0,0,1,61.53,21.041ZM46.044,8.194A1,1,0,0,0,47.07,7.169l-.077-2.693L50.207,7.69l.107,3.748-3.748-.107L43.352,8.117Z" transform="translate(-30.277 -6.308)" fill="#7d3a1b"/>
    </g>
  </g>
</svg>
