<svg xmlns="http://www.w3.org/2000/svg" xmlns:xlink="http://www.w3.org/1999/xlink" width="129" height="128" viewBox="0 0 129 128">
  <defs>
    <clipPath id="clip-path">
      <rect id="Rectángulo_400938" data-name="Rectángulo 400938" width="120" height="120" fill="none"/>
    </clipPath>
    <clipPath id="clip-path-2">
      <rect id="Rectángulo_400938-2" data-name="Rectángulo 400938" width="113" height="113" transform="translate(0.211 0.211)" fill="none"/>
    </clipPath>
    <clipPath id="clip-path-3">
      <rect id="Rectángulo_401073" data-name="Rectángulo 401073" width="86.443" height="38.93" fill="#7d3a1b"/>
    </clipPath>
  </defs>
  <g id="Grupo_1104658" data-name="Grupo 1104658" transform="translate(-376 -7812.09)">
    <g id="Grupo_108927" data-name="Grupo 108927" transform="translate(-14 3345.09)">
      <path id="Rectángulo_36179" data-name="Rectángulo 36179" d="M0,0H129V128H0Z" transform="translate(390 4467)" fill="#feebcf"/>
    </g>
    <g id="Grupo_1104483" data-name="Grupo 1104483" transform="translate(118.789 2535.879)">
      <g id="Grupo_1099379" data-name="Grupo 1099379" transform="translate(265 5284)">
        <rect id="Rectángulo_401103" data-name="Rectángulo 401103" width="113" height="113" transform="translate(0.211 0.211)" fill="none"/>
        <g id="Grupo_1099348" data-name="Grupo 1099348">
          <g id="Grupo_1099282" data-name="Grupo 1099282">
            <g id="Grupo_1099281" data-name="Grupo 1099281" clip-path="url(#clip-path-3)">
              <path id="Trazado_873375" data-name="Trazado 873375" d="M70.12,8.532c-3.88,0-5.887-1.9-7.658-3.581C60.723,3.3,59.226,1.882,56.1,1.882S51.467,3.3,49.728,4.95c-1.771,1.679-3.775,3.581-7.658,3.581s-5.886-1.9-7.658-3.581C32.674,3.3,31.177,1.882,28.046,1.882S23.418,3.3,21.682,4.95C19.911,6.629,17.9,8.532,14.024,8.532S8.135,6.629,6.364,4.95C4.628,3.3,3.131,1.882,0,1.882V0C3.88,0,5.887,1.906,7.658,3.581,9.4,5.23,10.893,6.65,14.024,6.65s4.628-1.419,6.364-3.066C22.157,1.906,24.166,0,28.046,0s5.89,1.906,7.658,3.581C37.442,5.23,38.939,6.65,42.07,6.65S46.7,5.23,48.437,3.581C50.205,1.906,52.215,0,56.1,0s5.89,1.906,7.658,3.581C65.491,5.23,66.988,6.65,70.12,6.65s4.628-1.419,6.367-3.069C78.255,1.906,80.261,0,84.144,0V1.882c-3.131,0-4.628,1.422-6.367,3.069C76.006,6.629,74,8.532,70.12,8.532" transform="translate(2.299 30.399)" fill="#7d3a1b"/>
              <path id="Trazado_873376" data-name="Trazado 873376" d="M70.12,8.532c-3.88,0-5.889-1.9-7.658-3.584C60.723,3.3,59.226,1.882,56.1,1.882S51.467,3.3,49.728,4.947c-1.768,1.682-3.775,3.584-7.658,3.584s-5.889-1.9-7.658-3.584C32.674,3.3,31.177,1.882,28.046,1.882S23.418,3.3,21.682,4.947C19.911,6.629,17.9,8.532,14.025,8.532s-5.889-1.9-7.661-3.584C4.628,3.3,3.131,1.882,0,1.882V0C3.88,0,5.889,1.9,7.658,3.581,9.4,5.23,10.893,6.65,14.025,6.65s4.628-1.419,6.364-3.069C22.157,1.9,24.166,0,28.046,0s5.889,1.9,7.661,3.581C37.442,5.23,38.939,6.65,42.071,6.65S46.7,5.23,48.437,3.581C50.206,1.9,52.215,0,56.1,0s5.89,1.9,7.658,3.581C65.491,5.23,66.988,6.65,70.12,6.65s4.628-1.419,6.367-3.069C78.257,1.9,80.264,0,84.147,0V1.882c-3.131,0-4.631,1.422-6.37,3.066C76.006,6.629,74,8.532,70.12,8.532" transform="translate(1.533 20.266)" fill="#7d3a1b"/>
              <path id="Trazado_873377" data-name="Trazado 873377" d="M70.119,8.532c-3.88,0-5.889-1.9-7.658-3.584C60.723,3.3,59.226,1.882,56.1,1.882S51.467,3.3,49.728,4.947C47.96,6.629,45.95,8.532,42.071,8.532s-5.89-1.9-7.658-3.584C32.674,3.3,31.177,1.882,28.046,1.882S23.418,3.3,21.682,4.947C19.911,6.629,17.9,8.532,14.025,8.532s-5.89-1.9-7.661-3.584C4.628,3.3,3.131,1.882,0,1.882V0C3.88,0,5.889,1.9,7.658,3.581,9.393,5.23,10.893,6.65,14.025,6.65s4.628-1.419,6.364-3.069C22.156,1.9,24.166,0,28.046,0s5.89,1.9,7.661,3.581C37.442,5.23,38.939,6.65,42.071,6.65S46.7,5.23,48.437,3.581C50.205,1.9,52.215,0,56.1,0s5.889,1.9,7.658,3.581C65.491,5.23,66.988,6.65,70.119,6.65s4.628-1.419,6.367-3.069C78.257,1.9,80.261,0,84.147,0V1.882c-3.131,0-4.631,1.422-6.37,3.066C76.006,6.629,74,8.532,70.119,8.532" transform="translate(0.766 10.133)" fill="#7d3a1b"/>
              <path id="Trazado_873378" data-name="Trazado 873378" d="M70.12,8.529c-3.88,0-5.887-1.9-7.658-3.581C60.723,3.3,59.226,1.882,56.095,1.882S51.467,3.3,49.731,4.947C47.96,6.626,45.953,8.529,42.07,8.529s-5.887-1.9-7.658-3.581C32.674,3.3,31.177,1.882,28.046,1.882S23.418,3.3,21.682,4.944C19.914,6.626,17.9,8.529,14.024,8.529s-5.89-1.9-7.661-3.581C4.628,3.3,3.131,1.882,0,1.882V0C3.88,0,5.89,1.9,7.658,3.581,9.4,5.228,10.893,6.647,14.024,6.647s4.628-1.419,6.364-3.066C22.159,1.9,24.166,0,28.046,0s5.887,1.9,7.661,3.581c1.736,1.646,3.233,3.066,6.364,3.066S46.7,5.228,48.437,3.581C50.208,1.9,52.215,0,56.095,0s5.887,1.9,7.658,3.581c1.739,1.646,3.236,3.066,6.367,3.066s4.628-1.419,6.367-3.066C78.257,1.9,80.264,0,84.147,0V1.882c-3.134,0-4.631,1.419-6.37,3.066C76.006,6.626,74,8.529,70.12,8.529" transform="translate(0 0.003)" fill="#7d3a1b"/>
            </g>
          </g>
        </g>
        <path id="Trazado_873425" data-name="Trazado 873425" d="M47.337,0A47.337,47.337,0,1,1,0,47.337,47.337,47.337,0,0,1,47.337,0Z" transform="translate(14.061 16.873)" fill="#7d3a1b"/>
        <circle id="Elipse_11503" data-name="Elipse 11503" cx="49.5" cy="49.5" r="49.5" transform="translate(7.211 7.211)" fill="#fff"/>
      </g>
      <g id="Grupo_1099977" data-name="Grupo 1099977" transform="translate(293.705 5309.391)">
        <path id="Trazado_873216" data-name="Trazado 873216" d="M0,0H62.506V62.507H0Z" transform="translate(0 0)" fill="none"/>
        <g id="Grupo_1099977-2" data-name="Grupo 1099977" transform="translate(0 1.373)">
          <path id="Trazado_873216-2" data-name="Trazado 873216" d="M62.506,0H0V62.507H62.506Z" transform="translate(0 0)" fill="none"/>
          <g id="_11-best_price" data-name="11-best price" transform="translate(-3.49 -2.745)">
            <path id="Trazado_895107" data-name="Trazado 895107" d="M42,42a4,4,0,0,0-4-4H25.13L26,31.12A.49.49,0,0,0,26,31c0-5.54-3.92-7-6-7a1,1,0,0,0-1,.73L15,38.62a7.67,7.67,0,0,1-3,3.17V41a1,1,0,0,0-1-1H1a1,1,0,0,0-1,1V63a1,1,0,0,0,1,1H11a1,1,0,0,0,1-1v-.67L17.73,64A.8.8,0,0,0,18,64H35a4,4,0,0,0,3-6.58,4,4,0,0,0,1-6,4,4,0,0,0,1-6A4,4,0,0,0,42,42ZM10,62H2V42h8Zm25,0H18.14L12,60.25V43.88c3-.69,4.81-4.26,4.89-4.43a1.34,1.34,0,0,0,.07-.18l3.77-13.18c1.17.26,3.25,1.23,3.27,4.85l-1,7.94A1,1,0,0,0,24,40H38a2,2,0,0,1,0,4H33a1,1,0,0,0,0,2h4a2,2,0,0,1,0,4H32a1,1,0,0,0,0,2h4a2,2,0,0,1,0,4H31a1,1,0,0,0,0,2h4a2,2,0,0,1,0,4Z" fill="#7d3a1b"/>
            <path id="Trazado_895108" data-name="Trazado 895108" d="M13,15h1v1a1,1,0,0,0,2,0V15h1a1,1,0,0,0,0-2H16V12a1,1,0,0,0-2,0v1H13a1,1,0,0,0,0,2Z" fill="#7d3a1b"/>
            <path id="Trazado_895109" data-name="Trazado 895109" d="M54,50H53V49a1,1,0,0,0-2,0v1H50a1,1,0,0,0,0,2h1v1a1,1,0,0,0,2,0V52h1a1,1,0,0,0,0-2Z" fill="#7d3a1b"/>
            <path id="Trazado_895110" data-name="Trazado 895110" d="M42,0A22,22,0,0,0,20,22a1,1,0,0,0,2,0A20,20,0,1,1,45.81,41.64a1,1,0,1,0,.19,2h.19A22,22,0,0,0,42,0Z" fill="#7d3a1b"/>
            <path id="Trazado_895111" data-name="Trazado 895111" d="M51,26a8,8,0,0,0-8-8H41a2,2,0,0,1,0-4h7a3,3,0,1,0,0-6H45V5a1,1,0,0,0-1-1H40a1,1,0,0,0-1,1V8.26A8,8,0,0,0,41,24h2a2,2,0,0,1,0,4H36a3,3,0,1,0,0,6h3v3a1,1,0,0,0,1,1h4a1,1,0,0,0,1-1V33.74A8,8,0,0,0,51,26Zm-7.14,5.93a1,1,0,0,0-.86,1V36H41V33a1,1,0,0,0-1-1H36a1,1,0,0,1,0-2h7a4,4,0,0,0,0-8H41a6,6,0,0,1-.86-11.93,1,1,0,0,0,.86-1V6h2V9a1,1,0,0,0,1,1h4a1,1,0,0,1,0,2H41a4,4,0,0,0,0,8h2a6,6,0,0,1,.86,11.93Z" fill="#7d3a1b"/>
          </g>
        </g>
      </g>
    </g>
  </g>
</svg>
