<svg xmlns="http://www.w3.org/2000/svg" xmlns:xlink="http://www.w3.org/1999/xlink" width="190" height="134" viewBox="0 0 190 134">
  <defs>
    <clipPath id="clip-path">
      <rect id="Rect치ngulo_402355" data-name="Rect치ngulo 402355" width="87" height="87" transform="translate(342 951)" fill="#fff" stroke="#707070" stroke-width="1"/>
    </clipPath>
  </defs>
  <g id="Grupo_1102652" data-name="Grupo 1102652" transform="translate(-330 -7019)">
    <rect id="Rect치ngulo_402215" data-name="Rect치ngulo 402215" width="190" height="134" transform="translate(330 7019)" fill="none"/>
    <g id="Grupo_1100287" data-name="Grupo 1100287" transform="translate(16 -507)">
      <g id="Grupo_156312" data-name="Grupo 156312" transform="translate(344 7528)">
        <path id="Elipse_5845" data-name="Elipse 5845" d="M65.5,0A65.5,65.5,0,1,1,0,65.5,65.5,65.5,0,0,1,65.5,0Z" transform="translate(0 0)" fill="#ffce73"/>
      </g>
      <g id="Enmascarar_grupo_1098715" data-name="Enmascarar grupo 1098715" transform="translate(24 6599)" clip-path="url(#clip-path)">
        <g id="XMLID_2182_" transform="translate(344.239 953.865)">
          <g id="XMLID_603_" transform="translate(0 0.001)">
            <path id="XMLID_604_" d="M442.693,39.392a1.6,1.6,0,0,0,1.131-.469l2.8-2.8a1.6,1.6,0,1,0-2.262-2.262l-2.8,2.8a1.6,1.6,0,0,0,1.131,2.731Z" transform="translate(-370.538 -28.05)" fill="#7d3a1b"/>
            <path id="XMLID_707_" d="M300.663,38.925a1.6,1.6,0,1,0,2.262-2.262l-2.8-2.8a1.6,1.6,0,1,0-2.262,2.262Z" transform="translate(-249.823 -28.051)" fill="#7d3a1b"/>
            <path id="XMLID_710_" d="M338.251,83.722a9.473,9.473,0,1,0-9.473-9.473,9.484,9.484,0,0,0,9.473,9.473Zm0-15.748a6.274,6.274,0,1,1-6.274,6.274,6.281,6.281,0,0,1,6.274-6.274Z" transform="translate(-276.188 -54.414)" fill="#7d3a1b"/>
            <path id="XMLID_711_" d="M443.825,177.562a1.6,1.6,0,0,0-2.262,2.262l2.8,2.8a1.6,1.6,0,0,0,2.262-2.262Z" transform="translate(-370.539 -148.767)" fill="#7d3a1b"/>
            <path id="XMLID_712_" d="M300.663,177.562l-2.8,2.8a1.6,1.6,0,1,0,2.262,2.262l2.8-2.8a1.6,1.6,0,1,0-2.262-2.262Z" transform="translate(-249.823 -148.767)" fill="#7d3a1b"/>
            <path id="XMLID_713_" d="M467.228,115.6a1.6,1.6,0,0,0,1.6,1.6h3.963a1.6,1.6,0,0,0,0-3.2h-3.963A1.6,1.6,0,0,0,467.228,115.6Z" transform="translate(-392.492 -95.766)" fill="#7d3a1b"/>
            <path id="XMLID_714_" d="M379.6,7.163a1.6,1.6,0,0,0,1.6-1.6V1.6a1.6,1.6,0,0,0-3.2,0V5.563A1.6,1.6,0,0,0,379.6,7.163Z" transform="translate(-317.539 -0.001)" fill="#7d3a1b"/>
            <path id="XMLID_715_" d="M378,204.826v3.963a1.6,1.6,0,0,0,3.2,0v-3.963a1.6,1.6,0,0,0-3.2,0Z" transform="translate(-317.539 -170.719)" fill="#7d3a1b"/>
            <path id="XMLID_716_" d="M265.6,117.2h3.963a1.6,1.6,0,0,0,0-3.2H265.6a1.6,1.6,0,1,0,0,3.2Z" transform="translate(-221.774 -95.766)" fill="#7d3a1b"/>
            <path id="XMLID_719_" d="M80.3,78.7H58.267V74.221H76.825a3.839,3.839,0,0,0,3.7-4.844L74.452,46.982a3.846,3.846,0,0,0-3.7-2.833H33.67a3.846,3.846,0,0,0-3.7,2.833l-3.014,11.1V33.794l6.31,3.643a13.042,13.042,0,0,0,6.507,1.732,12.893,12.893,0,0,0,3.4-.455,1.607,1.607,0,0,0,1.12-1.964,12.886,12.886,0,0,0-6.046-7.885L27.111,22.435V9.654A12.89,12.89,0,0,0,23.3.47,1.6,1.6,0,0,0,21.044.463a13.054,13.054,0,0,0-3.85,9.222V22.461L6.1,28.864A12.889,12.889,0,0,0,.055,36.757a1.6,1.6,0,0,0,1.123,1.956,12.892,12.892,0,0,0,3.4.455,13.046,13.046,0,0,0,6.507-1.732l6.265-3.617V48.548a1.6,1.6,0,0,0,3.2,0V31.973l1.622-.936,1.577.911V78.7h-3.2V62.944a1.6,1.6,0,0,0-3.2,0V78.7H1.6a1.6,1.6,0,1,0,0,3.2H80.3a1.6,1.6,0,0,0,0-3.2ZM24.458,25.324a2.305,2.305,0,1,1-2.305-2.305A2.308,2.308,0,0,1,24.458,25.324ZM40.6,35.935a9.845,9.845,0,0,1-5.744-1.269L25.8,29.438a5.5,5.5,0,0,0,1.749-3.053l9.094,5.25A9.7,9.7,0,0,1,40.6,35.935ZM22.167,4.076a9.7,9.7,0,0,1,1.745,5.578V20.109a5.483,5.483,0,0,0-3.519,0V9.686A9.843,9.843,0,0,1,22.167,4.076ZM9.49,34.666a9.835,9.835,0,0,1-5.745,1.269,9.7,9.7,0,0,1,3.958-4.3l9.053-5.227a5.505,5.505,0,0,0,1.763,3.045ZM40.242,71.022l.781-5.758h9.572v5.758Zm-12.65,0a.64.64,0,0,1-.617-.807l1.344-4.951h9.476l-.781,5.758ZM30.75,56.306H39.01l-.781,5.758H29.187Zm19.845-8.958v5.758H42.673l.781-5.758Zm10.34,0,.781,5.758H53.794V47.348Zm14.3,14.716H66.16l-.781-5.758h8.289Zm-12.3,0H53.794V56.306H62.15ZM50.595,56.306v5.758H41.457l.781-5.758Zm3.2,8.958h9.572l.781,5.758H53.794ZM77.333,70.77a.628.628,0,0,1-.508.251h-9.45l-.781-5.758h9.5l1.344,4.951A.629.629,0,0,1,77.333,70.77ZM71.365,47.82,72.8,53.106H64.944l-.781-5.758h6.584a.641.641,0,0,1,.617.472ZM33.67,47.348h6.556l-.781,5.758H31.618l1.435-5.286A.641.641,0,0,1,33.67,47.348ZM26.951,74.167a3.9,3.9,0,0,0,.641.053H46.11V78.7H26.951ZM49.309,78.7V74.221h5.758V78.7Z" transform="translate(0 -0.001)" fill="#7d3a1b"/>
            <path id="XMLID_737_" d="M110.092,341.7a1.6,1.6,0,1,0-1.131-.469A1.6,1.6,0,0,0,110.092,341.7Z" transform="translate(-91.138 -284.354)" fill="#7d3a1b"/>
          </g>
        </g>
      </g>
    </g>
  </g>
</svg>
