<svg xmlns="http://www.w3.org/2000/svg" xmlns:xlink="http://www.w3.org/1999/xlink" width="129" height="128" viewBox="0 0 129 128">
  <defs>
    <clipPath id="clip-path">
      <rect id="Rectángulo_400938" data-name="Rectángulo 400938" width="120" height="120" fill="none"/>
    </clipPath>
    <clipPath id="clip-path-2">
      <rect id="Rectángulo_400938-2" data-name="Rectángulo 400938" width="113" height="113" transform="translate(0.211 0.211)" fill="none"/>
    </clipPath>
    <clipPath id="clip-path-3">
      <rect id="Rectángulo_401073" data-name="Rectángulo 401073" width="86.443" height="38.93" fill="#7d3a1b"/>
    </clipPath>
  </defs>
  <g id="Grupo_1104666" data-name="Grupo 1104666" transform="translate(-376 -4490.43)">
    <g id="Grupo_108927" data-name="Grupo 108927" transform="translate(-14 23.43)">
      <path id="Rectángulo_36179" data-name="Rectángulo 36179" d="M0,0H129V128H0Z" transform="translate(390 4467)" fill="#feebcf"/>
    </g>
    <g id="Grupo_1104424" data-name="Grupo 1104424" transform="translate(118.789 -785.781)">
      <g id="Grupo_1099379" data-name="Grupo 1099379" transform="translate(265 5284)">
        <rect id="Rectángulo_401103" data-name="Rectángulo 401103" width="113" height="113" transform="translate(0.211 0.211)" fill="none"/>
        <g id="Grupo_1099348" data-name="Grupo 1099348">
          <g id="Grupo_1099282" data-name="Grupo 1099282">
            <g id="Grupo_1099281" data-name="Grupo 1099281" clip-path="url(#clip-path-3)">
              <path id="Trazado_873375" data-name="Trazado 873375" d="M70.12,8.532c-3.88,0-5.887-1.9-7.658-3.581C60.723,3.3,59.226,1.882,56.1,1.882S51.467,3.3,49.728,4.95c-1.771,1.679-3.775,3.581-7.658,3.581s-5.886-1.9-7.658-3.581C32.674,3.3,31.177,1.882,28.046,1.882S23.418,3.3,21.682,4.95C19.911,6.629,17.9,8.532,14.024,8.532S8.135,6.629,6.364,4.95C4.628,3.3,3.131,1.882,0,1.882V0C3.88,0,5.887,1.906,7.658,3.581,9.4,5.23,10.893,6.65,14.024,6.65s4.628-1.419,6.364-3.066C22.157,1.906,24.166,0,28.046,0s5.89,1.906,7.658,3.581C37.442,5.23,38.939,6.65,42.07,6.65S46.7,5.23,48.437,3.581C50.205,1.906,52.215,0,56.1,0s5.89,1.906,7.658,3.581C65.491,5.23,66.988,6.65,70.12,6.65s4.628-1.419,6.367-3.069C78.255,1.906,80.261,0,84.144,0V1.882c-3.131,0-4.628,1.422-6.367,3.069C76.006,6.629,74,8.532,70.12,8.532" transform="translate(2.299 30.399)" fill="#7d3a1b"/>
              <path id="Trazado_873376" data-name="Trazado 873376" d="M70.12,8.532c-3.88,0-5.889-1.9-7.658-3.584C60.723,3.3,59.226,1.882,56.1,1.882S51.467,3.3,49.728,4.947c-1.768,1.682-3.775,3.584-7.658,3.584s-5.889-1.9-7.658-3.584C32.674,3.3,31.177,1.882,28.046,1.882S23.418,3.3,21.682,4.947C19.911,6.629,17.9,8.532,14.025,8.532s-5.889-1.9-7.661-3.584C4.628,3.3,3.131,1.882,0,1.882V0C3.88,0,5.889,1.9,7.658,3.581,9.4,5.23,10.893,6.65,14.025,6.65s4.628-1.419,6.364-3.069C22.157,1.9,24.166,0,28.046,0s5.889,1.9,7.661,3.581C37.442,5.23,38.939,6.65,42.071,6.65S46.7,5.23,48.437,3.581C50.206,1.9,52.215,0,56.1,0s5.89,1.9,7.658,3.581C65.491,5.23,66.988,6.65,70.12,6.65s4.628-1.419,6.367-3.069C78.257,1.9,80.264,0,84.147,0V1.882c-3.131,0-4.631,1.422-6.37,3.066C76.006,6.629,74,8.532,70.12,8.532" transform="translate(1.533 20.266)" fill="#7d3a1b"/>
              <path id="Trazado_873377" data-name="Trazado 873377" d="M70.119,8.532c-3.88,0-5.889-1.9-7.658-3.584C60.723,3.3,59.226,1.882,56.1,1.882S51.467,3.3,49.728,4.947C47.96,6.629,45.95,8.532,42.071,8.532s-5.89-1.9-7.658-3.584C32.674,3.3,31.177,1.882,28.046,1.882S23.418,3.3,21.682,4.947C19.911,6.629,17.9,8.532,14.025,8.532s-5.89-1.9-7.661-3.584C4.628,3.3,3.131,1.882,0,1.882V0C3.88,0,5.889,1.9,7.658,3.581,9.393,5.23,10.893,6.65,14.025,6.65s4.628-1.419,6.364-3.069C22.156,1.9,24.166,0,28.046,0s5.89,1.9,7.661,3.581C37.442,5.23,38.939,6.65,42.071,6.65S46.7,5.23,48.437,3.581C50.205,1.9,52.215,0,56.1,0s5.889,1.9,7.658,3.581C65.491,5.23,66.988,6.65,70.119,6.65s4.628-1.419,6.367-3.069C78.257,1.9,80.261,0,84.147,0V1.882c-3.131,0-4.631,1.422-6.37,3.066C76.006,6.629,74,8.532,70.119,8.532" transform="translate(0.766 10.133)" fill="#7d3a1b"/>
              <path id="Trazado_873378" data-name="Trazado 873378" d="M70.12,8.529c-3.88,0-5.887-1.9-7.658-3.581C60.723,3.3,59.226,1.882,56.095,1.882S51.467,3.3,49.731,4.947C47.96,6.626,45.953,8.529,42.07,8.529s-5.887-1.9-7.658-3.581C32.674,3.3,31.177,1.882,28.046,1.882S23.418,3.3,21.682,4.944C19.914,6.626,17.9,8.529,14.024,8.529s-5.89-1.9-7.661-3.581C4.628,3.3,3.131,1.882,0,1.882V0C3.88,0,5.89,1.9,7.658,3.581,9.4,5.228,10.893,6.647,14.024,6.647s4.628-1.419,6.364-3.066C22.159,1.9,24.166,0,28.046,0s5.887,1.9,7.661,3.581c1.736,1.646,3.233,3.066,6.364,3.066S46.7,5.228,48.437,3.581C50.208,1.9,52.215,0,56.095,0s5.887,1.9,7.658,3.581c1.739,1.646,3.236,3.066,6.367,3.066s4.628-1.419,6.367-3.066C78.257,1.9,80.264,0,84.147,0V1.882c-3.134,0-4.631,1.419-6.37,3.066C76.006,6.626,74,8.529,70.12,8.529" transform="translate(0 0.003)" fill="#7d3a1b"/>
            </g>
          </g>
        </g>
        <path id="Trazado_873425" data-name="Trazado 873425" d="M47.337,0A47.337,47.337,0,1,1,0,47.337,47.337,47.337,0,0,1,47.337,0Z" transform="translate(14.061 16.873)" fill="#7d3a1b"/>
        <circle id="Elipse_11503" data-name="Elipse 11503" cx="49.5" cy="49.5" r="49.5" transform="translate(7.211 7.211)" fill="#fff"/>
      </g>
      <g id="Grupo_1099977" data-name="Grupo 1099977" transform="translate(289.438 5308.697)">
        <path id="Trazado_873216" data-name="Trazado 873216" d="M0,0H62.506V62.507H0Z" transform="translate(0 0)" fill="none"/>
        <path id="Trazado_895122" data-name="Trazado 895122" d="M25.345,67.046a1.417,1.417,0,1,0,0,2,1.418,1.418,0,0,0,0-2Zm-4.518,7.007a6.287,6.287,0,0,0,7.033,0A3.962,3.962,0,0,0,20.827,74.053ZM28.788,64.4a6.284,6.284,0,0,1,.318,8.546,5.612,5.612,0,0,0-3.022-2.391,3.051,3.051,0,1,0-3.479,0,5.612,5.612,0,0,0-3.022,2.391A6.285,6.285,0,0,1,28.788,64.4Zm-4.444-3.475a7.919,7.919,0,1,1-7.919,7.919A7.92,7.92,0,0,1,24.343,60.924Zm19.963-.456a1.756,1.756,0,1,0,0,2.483A1.757,1.757,0,0,0,44.306,60.468Zm-5.451,8.2a7.368,7.368,0,0,0,8.419,0A4.687,4.687,0,0,0,38.855,68.667ZM63.5,45.98a2.9,2.9,0,1,0,0,4.1A2.9,2.9,0,0,0,63.5,45.98ZM54.914,58.208a11,11,0,0,0,13.076,0,7.126,7.126,0,0,0-13.076,0Zm14.32-16.634A11,11,0,0,1,69.27,57.1a8.772,8.772,0,0,0-6.525-4.72,4.535,4.535,0,1,0-2.586,0,8.772,8.772,0,0,0-6.526,4.72,11,11,0,0,1,15.6-15.525Zm-7.781-4.857A12.639,12.639,0,1,1,48.813,49.356,12.639,12.639,0,0,1,61.452,36.717ZM50.4,63.317a7.334,7.334,0,0,1-1.867,4.244,6.335,6.335,0,0,0-3.756-2.925,3.39,3.39,0,1,0-3.422,0A6.334,6.334,0,0,0,37.6,67.559,7.365,7.365,0,0,1,44.66,55.434,17.846,17.846,0,0,0,50.4,63.317Zm2.027-27.423A16.118,16.118,0,0,1,72.886,60.564a.816.816,0,0,0-.116,1.039l.53.8a.635.635,0,0,1-.178.88l-3.542,2.347a.635.635,0,0,1-.88-.178l-.517-.78a.816.816,0,0,0-.99-.33A16.117,16.117,0,0,1,52.426,35.894Zm25.969,32.9a2.328,2.328,0,0,1,2.519.959l6.363,9.587a3.055,3.055,0,0,1-.856,4.218l-3.355,2.22a3.063,3.063,0,0,1-4.228-.858L72.476,75.33a2.32,2.32,0,0,1,.131-2.728L69.1,67.36a2.27,2.27,0,0,1-1.761-1.008l-.173-.261a17.779,17.779,0,0,1-15.278-1.726,9,9,0,1,1-7.769-10.672,17.748,17.748,0,1,1,30.365,7.548l.174.262a2.264,2.264,0,0,1,.229,2.046l3.505,5.243Zm-4.489,2.822,3.062-2.026-3.2-4.779-3.061,2.028Zm4.7-1.155-4.581,3.031a.68.68,0,0,0-.19.941L80.2,84.016a1.425,1.425,0,0,0,1.968.4l3.355-2.22a1.417,1.417,0,0,0,.4-1.958l-6.363-9.587a.686.686,0,0,0-.947-.192Zm-12.424.12H55.846V96.79H66.184ZM55.029,68.944a.817.817,0,0,0-.817.817V97.607a.817.817,0,0,0,.817.817H67a.817.817,0,0,0,.817-.817V69.761A.817.817,0,0,0,67,68.944Zm-6.8,6.041H37.891V96.79H48.229ZM37.074,73.35a.817.817,0,0,0-.817.817v23.44a.817.817,0,0,0,.817.817H49.046a.817.817,0,0,0,.817-.817V74.167a.817.817,0,0,0-.817-.817Zm-6.8,7.17H19.936V96.79H30.274V80.52ZM19.119,78.886H31.091a.817.817,0,0,1,.817.817v17.9a.817.817,0,0,1-.817.817H19.119a.817.817,0,0,1-.817-.817V79.7a.817.817,0,0,1,.817-.817Z" transform="translate(-18.007 -36.273)" fill="#7d3a1b" fill-rule="evenodd"/>
      </g>
    </g>
  </g>
</svg>
