<svg xmlns="http://www.w3.org/2000/svg" xmlns:xlink="http://www.w3.org/1999/xlink" width="129" height="128" viewBox="0 0 129 128">
  <defs>
    <clipPath id="clip-path">
      <rect id="Rectángulo_400938" data-name="Rectángulo 400938" width="120" height="120" fill="none"/>
    </clipPath>
    <clipPath id="clip-path-2">
      <rect id="Rectángulo_400938-2" data-name="Rectángulo 400938" width="113" height="113" transform="translate(0.211 0.211)" fill="none"/>
    </clipPath>
    <clipPath id="clip-path-3">
      <rect id="Rectángulo_401073" data-name="Rectángulo 401073" width="86.443" height="38.93" fill="#7d3a1b"/>
    </clipPath>
  </defs>
  <g id="Grupo_1104660" data-name="Grupo 1104660" transform="translate(-376 -8251.412)">
    <g id="Grupo_108927" data-name="Grupo 108927" transform="translate(-14 3784.412)">
      <path id="Rectángulo_36179" data-name="Rectángulo 36179" d="M0,0H129V128H0Z" transform="translate(390 4467)" fill="#feebcf"/>
    </g>
    <g id="Grupo_1104485" data-name="Grupo 1104485" transform="translate(118.789 2975.201)">
      <g id="Grupo_1099379" data-name="Grupo 1099379" transform="translate(265 5284)">
        <rect id="Rectángulo_401103" data-name="Rectángulo 401103" width="113" height="113" transform="translate(0.211 0.211)" fill="none"/>
        <g id="Grupo_1099348" data-name="Grupo 1099348">
          <g id="Grupo_1099282" data-name="Grupo 1099282">
            <g id="Grupo_1099281" data-name="Grupo 1099281" clip-path="url(#clip-path-3)">
              <path id="Trazado_873375" data-name="Trazado 873375" d="M70.12,8.532c-3.88,0-5.887-1.9-7.658-3.581C60.723,3.3,59.226,1.882,56.1,1.882S51.467,3.3,49.728,4.95c-1.771,1.679-3.775,3.581-7.658,3.581s-5.886-1.9-7.658-3.581C32.674,3.3,31.177,1.882,28.046,1.882S23.418,3.3,21.682,4.95C19.911,6.629,17.9,8.532,14.024,8.532S8.135,6.629,6.364,4.95C4.628,3.3,3.131,1.882,0,1.882V0C3.88,0,5.887,1.906,7.658,3.581,9.4,5.23,10.893,6.65,14.024,6.65s4.628-1.419,6.364-3.066C22.157,1.906,24.166,0,28.046,0s5.89,1.906,7.658,3.581C37.442,5.23,38.939,6.65,42.07,6.65S46.7,5.23,48.437,3.581C50.205,1.906,52.215,0,56.1,0s5.89,1.906,7.658,3.581C65.491,5.23,66.988,6.65,70.12,6.65s4.628-1.419,6.367-3.069C78.255,1.906,80.261,0,84.144,0V1.882c-3.131,0-4.628,1.422-6.367,3.069C76.006,6.629,74,8.532,70.12,8.532" transform="translate(2.299 30.399)" fill="#7d3a1b"/>
              <path id="Trazado_873376" data-name="Trazado 873376" d="M70.12,8.532c-3.88,0-5.889-1.9-7.658-3.584C60.723,3.3,59.226,1.882,56.1,1.882S51.467,3.3,49.728,4.947c-1.768,1.682-3.775,3.584-7.658,3.584s-5.889-1.9-7.658-3.584C32.674,3.3,31.177,1.882,28.046,1.882S23.418,3.3,21.682,4.947C19.911,6.629,17.9,8.532,14.025,8.532s-5.889-1.9-7.661-3.584C4.628,3.3,3.131,1.882,0,1.882V0C3.88,0,5.889,1.9,7.658,3.581,9.4,5.23,10.893,6.65,14.025,6.65s4.628-1.419,6.364-3.069C22.157,1.9,24.166,0,28.046,0s5.889,1.9,7.661,3.581C37.442,5.23,38.939,6.65,42.071,6.65S46.7,5.23,48.437,3.581C50.206,1.9,52.215,0,56.1,0s5.89,1.9,7.658,3.581C65.491,5.23,66.988,6.65,70.12,6.65s4.628-1.419,6.367-3.069C78.257,1.9,80.264,0,84.147,0V1.882c-3.131,0-4.631,1.422-6.37,3.066C76.006,6.629,74,8.532,70.12,8.532" transform="translate(1.533 20.266)" fill="#7d3a1b"/>
              <path id="Trazado_873377" data-name="Trazado 873377" d="M70.119,8.532c-3.88,0-5.889-1.9-7.658-3.584C60.723,3.3,59.226,1.882,56.1,1.882S51.467,3.3,49.728,4.947C47.96,6.629,45.95,8.532,42.071,8.532s-5.89-1.9-7.658-3.584C32.674,3.3,31.177,1.882,28.046,1.882S23.418,3.3,21.682,4.947C19.911,6.629,17.9,8.532,14.025,8.532s-5.89-1.9-7.661-3.584C4.628,3.3,3.131,1.882,0,1.882V0C3.88,0,5.889,1.9,7.658,3.581,9.393,5.23,10.893,6.65,14.025,6.65s4.628-1.419,6.364-3.069C22.156,1.9,24.166,0,28.046,0s5.89,1.9,7.661,3.581C37.442,5.23,38.939,6.65,42.071,6.65S46.7,5.23,48.437,3.581C50.205,1.9,52.215,0,56.1,0s5.889,1.9,7.658,3.581C65.491,5.23,66.988,6.65,70.119,6.65s4.628-1.419,6.367-3.069C78.257,1.9,80.261,0,84.147,0V1.882c-3.131,0-4.631,1.422-6.37,3.066C76.006,6.629,74,8.532,70.119,8.532" transform="translate(0.766 10.133)" fill="#7d3a1b"/>
              <path id="Trazado_873378" data-name="Trazado 873378" d="M70.12,8.529c-3.88,0-5.887-1.9-7.658-3.581C60.723,3.3,59.226,1.882,56.095,1.882S51.467,3.3,49.731,4.947C47.96,6.626,45.953,8.529,42.07,8.529s-5.887-1.9-7.658-3.581C32.674,3.3,31.177,1.882,28.046,1.882S23.418,3.3,21.682,4.944C19.914,6.626,17.9,8.529,14.024,8.529s-5.89-1.9-7.661-3.581C4.628,3.3,3.131,1.882,0,1.882V0C3.88,0,5.89,1.9,7.658,3.581,9.4,5.228,10.893,6.647,14.024,6.647s4.628-1.419,6.364-3.066C22.159,1.9,24.166,0,28.046,0s5.887,1.9,7.661,3.581c1.736,1.646,3.233,3.066,6.364,3.066S46.7,5.228,48.437,3.581C50.208,1.9,52.215,0,56.095,0s5.887,1.9,7.658,3.581c1.739,1.646,3.236,3.066,6.367,3.066s4.628-1.419,6.367-3.066C78.257,1.9,80.264,0,84.147,0V1.882c-3.134,0-4.631,1.419-6.37,3.066C76.006,6.626,74,8.529,70.12,8.529" transform="translate(0 0.003)" fill="#7d3a1b"/>
            </g>
          </g>
        </g>
        <path id="Trazado_873425" data-name="Trazado 873425" d="M47.337,0A47.337,47.337,0,1,1,0,47.337,47.337,47.337,0,0,1,47.337,0Z" transform="translate(14.061 16.873)" fill="#7d3a1b"/>
        <circle id="Elipse_11503" data-name="Elipse 11503" cx="49.5" cy="49.5" r="49.5" transform="translate(7.211 7.211)" fill="#fff"/>
      </g>
      <g id="Grupo_1099977" data-name="Grupo 1099977" transform="translate(288.705 5305.946)">
        <path id="Trazado_873216" data-name="Trazado 873216" d="M0,0H62.506V62.507H0Z" transform="translate(0 0)" fill="none"/>
        <g id="Grupo_1099977-2" data-name="Grupo 1099977" transform="translate(2.465 0)">
          <path id="Trazado_873216-2" data-name="Trazado 873216" d="M62.506,0H0V62.507H62.506Z" transform="translate(0 0)" fill="none"/>
          <path id="Trazado_895116" data-name="Trazado 895116" d="M65.034,54.893c0-.03,0-.061,0-.091a12.9,12.9,0,0,0-4.5-9.443,14.388,14.388,0,0,0-8.975-3.074A17.177,17.177,0,0,0,41.56,45.3a12.213,12.213,0,0,0-5.3,8.911,13.3,13.3,0,0,0-.041,1.333c.006,1.423.011,2.547-2.312,5.53a.9.9,0,0,0-.064.091A3.04,3.04,0,0,0,33.384,64,2.388,2.388,0,0,0,35.1,65.162a1.973,1.973,0,0,0,.471,1.254,1.793,1.793,0,0,0-.187,1.058,2.111,2.111,0,0,0,.776,1.344,3.5,3.5,0,0,0,.332,3.472c1.189,1.4,3.709,1.277,6.212.833l.475,1.956a2.272,2.272,0,0,0,2.213,1.736H58.5a2.276,2.276,0,0,0,2.1-3.144c-2.279-5.514-.762-7.628,1.157-10.3,1.482-2.064,3.162-4.405,3.272-8.475ZM58.723,74.45h0a.212.212,0,0,1-.024.226.209.209,0,0,1-.2.107H45.387a.233.233,0,0,1-.236-.184l-.7-2.895a1.018,1.018,0,0,0-1.192-.757c-3.891.79-4.938.358-5.216.029-.24-.283-.174-.978.183-1.908a1.4,1.4,0,0,0-.64-1.728.689.689,0,0,1-.119-.08,1.4,1.4,0,0,0-.226-2.045.681.681,0,0,1-.084-.071,1.4,1.4,0,0,0-1.184-1.913,2.041,2.041,0,0,1-.758-.161,2.089,2.089,0,0,1,.339-.8c2.72-3.506,2.713-5.079,2.706-6.743,0-.382,0-.743.033-1.141.594-6.576,7.121-10.076,13.037-10.076h.2C56.739,44.387,62.486,47.2,63,54.883c-.1,3.417-1.521,5.391-2.891,7.3-2.011,2.809-4.093,5.709-1.382,12.268ZM31.116,61.072c-2.321-2.979-2.317-4.1-2.311-5.524,0-.414,0-.843-.042-1.338a12.209,12.209,0,0,0-5.3-8.911,17.231,17.231,0,0,0-9.993-3.014A14.39,14.39,0,0,0,4.5,45.358,12.908,12.908,0,0,0,0,54.8a.733.733,0,0,0,0,.091C.1,58.963,1.785,61.3,3.268,63.371c1.921,2.675,3.437,4.789,1.16,10.3a2.275,2.275,0,0,0,2.1,3.145H19.642a2.265,2.265,0,0,0,2.213-1.739l.474-1.954c2.5.442,5.027.57,6.214-.835a3.5,3.5,0,0,0,.33-3.47,2.118,2.118,0,0,0,.777-1.35,1.8,1.8,0,0,0-.185-1.054,1.965,1.965,0,0,0,.471-1.255A2.381,2.381,0,0,0,31.647,64a3.035,3.035,0,0,0-.467-2.837c-.02-.03-.042-.061-.064-.09Zm-2.06,2.161a1.4,1.4,0,0,0-1.183,1.914.569.569,0,0,1-.077.066,1.364,1.364,0,0,0-.572,1.044,1.389,1.389,0,0,0,.34,1,.642.642,0,0,1-.113.076,1.4,1.4,0,0,0-.648,1.735c.357.927.424,1.621.184,1.9-.277.328-1.325.761-5.218-.029a1.016,1.016,0,0,0-1.192.757l-.7,2.9a.227.227,0,0,1-.235.18H6.53a.218.218,0,0,1-.2-.107.211.211,0,0,1-.02-.225h0c2.71-6.558.626-9.46-1.387-12.266-1.371-1.909-2.787-3.883-2.891-7.3C2.54,47.2,8.285,44.388,13.5,44.319c5.964-.084,12.634,3.425,13.235,10.076.037.4.036.762.034,1.146-.006,1.663-.013,3.235,2.7,6.738a2.087,2.087,0,0,1,.339.794,2.1,2.1,0,0,1-.758.16ZM15.968,33.461h3.224l-.474,3.431a1.442,1.442,0,0,0,1.428,1.635,1.461,1.461,0,0,0,1.075-.475l4.145-4.591h.748v1.157a3.229,3.229,0,0,0,3.228,3.224H39.663l4.146,4.588a1.443,1.443,0,0,0,2.5-1.161l-.476-3.427h3.224a3.23,3.23,0,0,0,3.228-3.224V23.4a3.232,3.232,0,0,0-3.228-3.228H38.913V19.018a3.232,3.232,0,0,0-3.228-3.228H15.968a3.232,3.232,0,0,0-3.228,3.228v11.22a3.229,3.229,0,0,0,3.228,3.223ZM49.059,22.2A1.2,1.2,0,0,1,50.253,23.4v11.22a1.193,1.193,0,0,1-1.194,1.19h-3.9a1.432,1.432,0,0,0-1.081.489l-.014.015a1.426,1.426,0,0,0-.334,1.138l.3,2.191-3.042-3.366a1.429,1.429,0,0,0-1.062-.469H29.34a1.194,1.194,0,0,1-1.194-1.19V33.461h7.538a3.23,3.23,0,0,0,3.228-3.224V22.2ZM14.774,19.017a1.2,1.2,0,0,1,1.194-1.194H35.687a1.2,1.2,0,0,1,1.194,1.194v11.22a1.193,1.193,0,0,1-1.194,1.19H25.1a1.437,1.437,0,0,0-1.072.476L21,35.263l.3-2.189a1.435,1.435,0,0,0-.339-1.148,1.416,1.416,0,0,0-1.09-.5h-3.9a1.193,1.193,0,0,1-1.194-1.19ZM25.827,30.782a6.158,6.158,0,1,0-6.156-6.156A6.165,6.165,0,0,0,25.827,30.782Zm0-10.28a4.123,4.123,0,1,1-4.121,4.125A4.129,4.129,0,0,1,25.827,20.5Zm-1.209,6.264-1.858-1.858A1.017,1.017,0,1,1,24.2,23.469l1.138,1.138,2.118-2.118a1.017,1.017,0,0,1,1.438,1.438l-2.838,2.838a1.012,1.012,0,0,1-1.435,0Z" transform="translate(0.007 -14.835)" fill="#7d3a1b"/>
        </g>
      </g>
    </g>
  </g>
</svg>
