<svg xmlns="http://www.w3.org/2000/svg" width="57.422" height="57.501" viewBox="0 0 57.422 57.501">
  <g id="_FLAT" data-name="/ FLAT" transform="translate(-24 -24)">
    <path id="Trazado_895221" data-name="Trazado 895221" d="M96.557,299.655a9.748,9.748,0,0,0-1.3-.51L85.2,296H75.465L65.4,299.144a9.733,9.733,0,0,0-6.641,7.381L56,320.331H91.037v-1.947Z" transform="translate(-28.107 -238.909)" fill="#ed8f4f"/>
    <path id="Trazado_895222" data-name="Trazado 895222" d="M182.646,296h-9.733l-5.968,1.865,10.834,6.895,10.834-6.895Z" transform="translate(-125.556 -238.91)" fill="#ca7a43"/>
    <path id="Trazado_895223" data-name="Trazado 895223" d="M248,304.14l.973.619.973-.619V296H248Z" transform="translate(-196.749 -238.91)" fill="#f7a46b"/>
    <path id="Trazado_895224" data-name="Trazado 895224" d="M184,358.23l4.866,4.866,3.318-9.125-2.4-1.527Z" transform="translate(-140.535 -288.487)" fill="#ffd168"/>
    <path id="Trazado_895225" data-name="Trazado 895225" d="M268.91,358.23l-4.866,4.866-3.318-9.125,2.4-1.527Z" transform="translate(-207.926 -288.487)" fill="#ffd168"/>
    <path id="Trazado_895226" data-name="Trazado 895226" d="M216,240v6.813l4.866,2.92,4.866-2.92V240Z" transform="translate(-168.642 -189.722)" fill="#f4d1bd"/>
    <path id="Trazado_895227" data-name="Trazado 895227" d="M157.409,48.331l4.359-4.359A11.7,11.7,0,0,0,153.5,24h-5.8a11.7,11.7,0,0,0-8.273,19.972l4.359,4.359Z" transform="translate(-98.371)" fill="#aa7f6a"/>
    <path id="Trazado_895228" data-name="Trazado 895228" d="M199.889,83.7,194.706,80l-8.424,3.829A3.893,3.893,0,0,0,184,87.373v5.91a9.733,9.733,0,0,0,4.334,8.1l2.266,1.511a3.893,3.893,0,0,0,4.319,0l2.266-1.511a9.733,9.733,0,0,0,4.334-8.1V86.869a3.893,3.893,0,0,0-1.63-3.168Z" transform="translate(-140.535 -49.187)" fill="#fcdcc8"/>
    <g id="Grupo_1104136" data-name="Grupo 1104136" transform="translate(45.697 37.792)">
      <path id="Trazado_895229" data-name="Trazado 895229" d="M206.236,139.84a1.779,1.779,0,0,0-2.517,0l-1.376-1.376a3.726,3.726,0,0,1,5.27,0Z" transform="translate(-202.343 -137.372)" fill="#eabfac"/>
      <path id="Trazado_895230" data-name="Trazado 895230" d="M270.236,139.84a1.779,1.779,0,0,0-2.517,0l-1.376-1.376a3.726,3.726,0,0,1,5.27,0Z" transform="translate(-258.557 -137.372)" fill="#eabfac"/>
      <path id="Trazado_895231" data-name="Trazado 895231" d="M248.87,168.866a2.894,2.894,0,0,1-1.114-4.194l.739-1.109,1.62,1.08-.739,1.109a.948.948,0,0,0,.365,1.374Z" transform="translate(-241.804 -160.376)" fill="#eabfac"/>
      <path id="Trazado_895232" data-name="Trazado 895232" d="M228.635,215.777a4.1,4.1,0,0,1-3.687-2.279l-.1-.206,1.741-.871.1.206a2.176,2.176,0,0,0,3.893,0l.1-.206,1.741.871-.1.206a4.1,4.1,0,0,1-3.688,2.279Z" transform="translate(-222.107 -203.292)" fill="#eabfac"/>
    </g>
    <path id="Trazado_895233" data-name="Trazado 895233" d="M248,440h1.947v1.947H248Z" transform="translate(-196.749 -365.391)" fill="#f7a46b"/>
    <path id="Trazado_895234" data-name="Trazado 895234" d="M248,480h1.947v1.947H248Z" transform="translate(-196.749 -400.525)" fill="#f7a46b"/>
    <rect id="Rectángulo_405443" data-name="Rectángulo 405443" width="8.813" height="1.947" rx="0.973" transform="translate(37.632 81.287) rotate(-83.685)" fill="#d17537"/>
    <path id="Trazado_895235" data-name="Trazado 895235" d="M24,40V62.385a1.947,1.947,0,0,1,0,3.893v7.786H39.572V66.278a1.947,1.947,0,1,1,0-3.893V40Z" transform="translate(0 -14.054)" fill="#b0c0d2"/>
    <path id="Trazado_895236" data-name="Trazado 895236" d="M68.656,82.216,59.907,87.78l-.011.007-1.676-3.2L65.107,80.3a1.947,1.947,0,0,1,2.651.572Z" transform="translate(-30.057 -49.189)" fill="#ffe8de"/>
    <path id="Trazado_895237" data-name="Trazado 895237" d="M48,272h9.733v1.947H48Z" transform="translate(-21.08 -217.829)" fill="#f3f9ff"/>
    <path id="Trazado_895238" data-name="Trazado 895238" d="M56,200h7.786v1.947H56Z" transform="translate(-28.107 -154.589)" fill="#f3f9ff"/>
    <path id="Trazado_895239" data-name="Trazado 895239" d="M48,168h9.733v1.947H48Z" transform="translate(-21.08 -126.482)" fill="#f3f9ff"/>
    <path id="Trazado_895240" data-name="Trazado 895240" d="M315.679,256a1.947,1.947,0,0,0-1.947,1.947v3.893L304.755,276.2a4.966,4.966,0,0,0-.755,2.632v.422a4.966,4.966,0,0,0,9.757,1.307l4.841-17.752,6.135-3.835A3.512,3.512,0,0,0,326.385,256Z" transform="translate(-245.936 -203.776)" fill="#fcdcc8"/>
    <path id="Trazado_895241" data-name="Trazado 895241" d="M397.581,54.385a2.9,2.9,0,0,1-2.75-1.947h.848V50.492h-1.452l-1.5-4.866h1V43.679h-1.6l-.344-1.12V32h-1.946V42.559l-.344,1.12h-1.6v1.947h1l-1.5,4.866h-1.452v1.947h.848a2.9,2.9,0,0,1-2.75,1.947H384v1.947h.045A4.842,4.842,0,0,0,388.7,52.9l.141-.458h3.953l.141.458a4.842,4.842,0,0,0,4.651,3.435h.044V54.385Zm-8.146-3.893,1.377-4.477,1.377,4.477Z" transform="translate(-316.203 -7.027)" fill="#936a55"/>
    <path id="Trazado_895242" data-name="Trazado 895242" d="M50.046,232h-12.2a1.935,1.935,0,0,1,0,1.947h12.2a1.935,1.935,0,0,1,0-1.947Z" transform="translate(-12.158 -182.696)" fill="#e2f5f1"/>
    <path id="Trazado_895243" data-name="Trazado 895243" d="M105.539,104l-1.257,4.61,1.878.512,1.4-5.122Z" transform="translate(-70.515 -70.268)" fill="#f4d1bd"/>
    <path id="Trazado_895244" data-name="Trazado 895244" d="M53.378,97.525,51.73,98.574l-1.676-3.2L48.91,93.193l1.725-.9Z" transform="translate(-21.88 -59.982)" fill="#ffe8de"/>
  </g>
</svg>
