<svg xmlns="http://www.w3.org/2000/svg" xmlns:xlink="http://www.w3.org/1999/xlink" width="129" height="128" viewBox="0 0 129 128">
  <defs>
    <clipPath id="clip-path">
      <rect id="Rectángulo_400938" data-name="Rectángulo 400938" width="120" height="120" fill="none"/>
    </clipPath>
    <clipPath id="clip-path-2">
      <rect id="Rectángulo_400938-2" data-name="Rectángulo 400938" width="113" height="113" transform="translate(0.211 0.211)" fill="none"/>
    </clipPath>
    <clipPath id="clip-path-3">
      <rect id="Rectángulo_401073" data-name="Rectángulo 401073" width="86.443" height="38.93" fill="#7d3a1b"/>
    </clipPath>
  </defs>
  <g id="Grupo_1104665" data-name="Grupo 1104665" transform="translate(-376 -4668.86)">
    <g id="Grupo_108927" data-name="Grupo 108927" transform="translate(-14 201.86)">
      <path id="Rectángulo_36179" data-name="Rectángulo 36179" d="M0,0H129V128H0Z" transform="translate(390 4467)" fill="#feebcf"/>
    </g>
    <g id="Grupo_1104428" data-name="Grupo 1104428" transform="translate(118.789 -607.351)">
      <g id="Grupo_1099379" data-name="Grupo 1099379" transform="translate(265 5284)">
        <rect id="Rectángulo_401103" data-name="Rectángulo 401103" width="113" height="113" transform="translate(0.211 0.211)" fill="none"/>
        <g id="Grupo_1099348" data-name="Grupo 1099348">
          <g id="Grupo_1099282" data-name="Grupo 1099282">
            <g id="Grupo_1099281" data-name="Grupo 1099281" clip-path="url(#clip-path-3)">
              <path id="Trazado_873375" data-name="Trazado 873375" d="M70.12,8.532c-3.88,0-5.887-1.9-7.658-3.581C60.723,3.3,59.226,1.882,56.1,1.882S51.467,3.3,49.728,4.95c-1.771,1.679-3.775,3.581-7.658,3.581s-5.886-1.9-7.658-3.581C32.674,3.3,31.177,1.882,28.046,1.882S23.418,3.3,21.682,4.95C19.911,6.629,17.9,8.532,14.024,8.532S8.135,6.629,6.364,4.95C4.628,3.3,3.131,1.882,0,1.882V0C3.88,0,5.887,1.906,7.658,3.581,9.4,5.23,10.893,6.65,14.024,6.65s4.628-1.419,6.364-3.066C22.157,1.906,24.166,0,28.046,0s5.89,1.906,7.658,3.581C37.442,5.23,38.939,6.65,42.07,6.65S46.7,5.23,48.437,3.581C50.205,1.906,52.215,0,56.1,0s5.89,1.906,7.658,3.581C65.491,5.23,66.988,6.65,70.12,6.65s4.628-1.419,6.367-3.069C78.255,1.906,80.261,0,84.144,0V1.882c-3.131,0-4.628,1.422-6.367,3.069C76.006,6.629,74,8.532,70.12,8.532" transform="translate(2.299 30.399)" fill="#7d3a1b"/>
              <path id="Trazado_873376" data-name="Trazado 873376" d="M70.12,8.532c-3.88,0-5.889-1.9-7.658-3.584C60.723,3.3,59.226,1.882,56.1,1.882S51.467,3.3,49.728,4.947c-1.768,1.682-3.775,3.584-7.658,3.584s-5.889-1.9-7.658-3.584C32.674,3.3,31.177,1.882,28.046,1.882S23.418,3.3,21.682,4.947C19.911,6.629,17.9,8.532,14.025,8.532s-5.889-1.9-7.661-3.584C4.628,3.3,3.131,1.882,0,1.882V0C3.88,0,5.889,1.9,7.658,3.581,9.4,5.23,10.893,6.65,14.025,6.65s4.628-1.419,6.364-3.069C22.157,1.9,24.166,0,28.046,0s5.889,1.9,7.661,3.581C37.442,5.23,38.939,6.65,42.071,6.65S46.7,5.23,48.437,3.581C50.206,1.9,52.215,0,56.1,0s5.89,1.9,7.658,3.581C65.491,5.23,66.988,6.65,70.12,6.65s4.628-1.419,6.367-3.069C78.257,1.9,80.264,0,84.147,0V1.882c-3.131,0-4.631,1.422-6.37,3.066C76.006,6.629,74,8.532,70.12,8.532" transform="translate(1.533 20.266)" fill="#7d3a1b"/>
              <path id="Trazado_873377" data-name="Trazado 873377" d="M70.119,8.532c-3.88,0-5.889-1.9-7.658-3.584C60.723,3.3,59.226,1.882,56.1,1.882S51.467,3.3,49.728,4.947C47.96,6.629,45.95,8.532,42.071,8.532s-5.89-1.9-7.658-3.584C32.674,3.3,31.177,1.882,28.046,1.882S23.418,3.3,21.682,4.947C19.911,6.629,17.9,8.532,14.025,8.532s-5.89-1.9-7.661-3.584C4.628,3.3,3.131,1.882,0,1.882V0C3.88,0,5.889,1.9,7.658,3.581,9.393,5.23,10.893,6.65,14.025,6.65s4.628-1.419,6.364-3.069C22.156,1.9,24.166,0,28.046,0s5.89,1.9,7.661,3.581C37.442,5.23,38.939,6.65,42.071,6.65S46.7,5.23,48.437,3.581C50.205,1.9,52.215,0,56.1,0s5.889,1.9,7.658,3.581C65.491,5.23,66.988,6.65,70.119,6.65s4.628-1.419,6.367-3.069C78.257,1.9,80.261,0,84.147,0V1.882c-3.131,0-4.631,1.422-6.37,3.066C76.006,6.629,74,8.532,70.119,8.532" transform="translate(0.766 10.133)" fill="#7d3a1b"/>
              <path id="Trazado_873378" data-name="Trazado 873378" d="M70.12,8.529c-3.88,0-5.887-1.9-7.658-3.581C60.723,3.3,59.226,1.882,56.095,1.882S51.467,3.3,49.731,4.947C47.96,6.626,45.953,8.529,42.07,8.529s-5.887-1.9-7.658-3.581C32.674,3.3,31.177,1.882,28.046,1.882S23.418,3.3,21.682,4.944C19.914,6.626,17.9,8.529,14.024,8.529s-5.89-1.9-7.661-3.581C4.628,3.3,3.131,1.882,0,1.882V0C3.88,0,5.89,1.9,7.658,3.581,9.4,5.228,10.893,6.647,14.024,6.647s4.628-1.419,6.364-3.066C22.159,1.9,24.166,0,28.046,0s5.887,1.9,7.661,3.581c1.736,1.646,3.233,3.066,6.364,3.066S46.7,5.228,48.437,3.581C50.208,1.9,52.215,0,56.095,0s5.887,1.9,7.658,3.581c1.739,1.646,3.236,3.066,6.367,3.066s4.628-1.419,6.367-3.066C78.257,1.9,80.264,0,84.147,0V1.882c-3.134,0-4.631,1.419-6.37,3.066C76.006,6.626,74,8.529,70.12,8.529" transform="translate(0 0.003)" fill="#7d3a1b"/>
            </g>
          </g>
        </g>
        <path id="Trazado_873425" data-name="Trazado 873425" d="M47.337,0A47.337,47.337,0,1,1,0,47.337,47.337,47.337,0,0,1,47.337,0Z" transform="translate(14.061 16.873)" fill="#7d3a1b"/>
        <circle id="Elipse_11503" data-name="Elipse 11503" cx="49.5" cy="49.5" r="49.5" transform="translate(7.211 7.211)" fill="#fff"/>
      </g>
      <g id="Grupo_1099977" data-name="Grupo 1099977" transform="translate(293.705 5309.391)">
        <path id="Trazado_873216" data-name="Trazado 873216" d="M0,0H62.506V62.507H0Z" transform="translate(0 0)" fill="none"/>
        <g id="Grupo_1104057" data-name="Grupo 1104057" transform="translate(-4.48 -1.077)">
          <path id="Trazado_895123" data-name="Trazado 895123" d="M30,46A12,12,0,1,0,18,58,12,12,0,0,0,30,46ZM18,56A10,10,0,1,1,28,46,10,10,0,0,1,18,56Z" fill="#7d3a1b"/>
          <path id="Trazado_895124" data-name="Trazado 895124" d="M19,40V38H17v2a3,3,0,0,0-3,3v1a3,3,0,0,0,3,3v3a1,1,0,0,1-1-1V48H14v1a3,3,0,0,0,3,3v2h2V52a3,3,0,0,0,3-3V48a3,3,0,0,0-3-3V42a1,1,0,0,1,1,1v1h2V43A3,3,0,0,0,19,40Zm1,8v1a1,1,0,0,1-1,1V47A1,1,0,0,1,20,48Zm-3-3a1,1,0,0,1-1-1V43a1,1,0,0,1,1-1Z" fill="#7d3a1b"/>
          <path id="Trazado_895125" data-name="Trazado 895125" d="M62,1H22a1,1,0,0,0-1,1V13H5a1,1,0,0,0-1,1,10.583,10.583,0,0,0,3.122,7.536L11.586,26,7.481,30.1A21.983,21.983,0,0,0,1,45.751,22.23,22.23,0,0,0,5.661,59.335,9.427,9.427,0,0,0,13.153,63H62a1,1,0,0,0,1-1V2A1,1,0,0,0,62,1ZM8.536,20.122A8.593,8.593,0,0,1,6.057,15H29.943a8.593,8.593,0,0,1-2.479,5.122L22.586,25H21.575A18.047,18.047,0,0,0,23,18H21a16.028,16.028,0,0,1-1.627,7H16.628A16.009,16.009,0,0,1,15,18H13a18.047,18.047,0,0,0,1.425,7H13.414ZM22,61H13.153A7.442,7.442,0,0,1,7.24,58.108,20.224,20.224,0,0,1,3,45.751,20,20,0,0,1,8.9,31.519L13.414,27h9.172L27.1,31.519A20,20,0,0,1,33,45.751a20.224,20.224,0,0,1-4.24,12.357A7.442,7.442,0,0,1,22.847,61ZM34.948,47H37V57H33V54.906A22.251,22.251,0,0,0,34.948,47ZM61,61H28.668a9.538,9.538,0,0,0,1.671-1.665c.257-.329.489-.674.725-1.017A.991.991,0,0,0,32,59h6a1,1,0,0,0,1-1V46a1,1,0,0,0-1-1H34.963a21.953,21.953,0,0,0-6.444-14.895L24.414,26l4.464-4.464A10.583,10.583,0,0,0,32,14a1,1,0,0,0-1-1H23V3H61Z" fill="#7d3a1b"/>
          <path id="Trazado_895126" data-name="Trazado 895126" d="M58,33H52a1,1,0,0,0-1,1V58a1,1,0,0,0,1,1h6a1,1,0,0,0,1-1V34A1,1,0,0,0,58,33ZM57,57H53V35h4Z" fill="#7d3a1b"/>
          <path id="Trazado_895127" data-name="Trazado 895127" d="M48,41H42a1,1,0,0,0-1,1V58a1,1,0,0,0,1,1h6a1,1,0,0,0,1-1V42A1,1,0,0,0,48,41ZM47,57H43V43h4Z" fill="#7d3a1b"/>
          <path id="Trazado_895128" data-name="Trazado 895128" d="M31.293,29.707l4,4a1,1,0,0,0,1.414,0L43,27.414l3.293,3.293a1,1,0,0,0,1.414,0L56,22.414l1.293,1.293A1,1,0,0,0,59,23V15a1,1,0,0,0-1-1H50a1,1,0,0,0-.707,1.707L50.586,17,46,21.586l-3.293-3.293a1,1,0,0,0-1.414,0l-10,10a1,1,0,0,0,0,1.414ZM42,20.414l3.293,3.293a1,1,0,0,0,1.414,0l6-6a1,1,0,0,0,0-1.414L52.414,16H57v4.586l-.293-.293a1,1,0,0,0-1.414,0L47,28.586l-3.293-3.293a1,1,0,0,0-1.414,0L36,31.586,33.414,29Z" fill="#7d3a1b"/>
          <rect id="Rectángulo_405430" data-name="Rectángulo 405430" width="12" height="2" transform="translate(25 5)" fill="#7d3a1b"/>
          <rect id="Rectángulo_405431" data-name="Rectángulo 405431" width="2" height="2" transform="translate(39 5)" fill="#7d3a1b"/>
          <rect id="Rectángulo_405432" data-name="Rectángulo 405432" width="12" height="2" transform="translate(25 9)" fill="#7d3a1b"/>
          <rect id="Rectángulo_405433" data-name="Rectángulo 405433" width="2" height="2" transform="translate(39 9)" fill="#7d3a1b"/>
        </g>
      </g>
    </g>
  </g>
</svg>
