<svg xmlns="http://www.w3.org/2000/svg" xmlns:xlink="http://www.w3.org/1999/xlink" width="121" height="121" viewBox="0 0 121 121">
  <defs>
    <clipPath id="clip-path">
      <rect id="Rectángulo_400938" data-name="Rectángulo 400938" width="121" height="121" transform="translate(0 0)" fill="none"/>
    </clipPath>
    <clipPath id="clip-path-2">
      <rect id="Rectángulo_401073" data-name="Rectángulo 401073" width="92.219" height="41.532" fill="#efb499"/>
    </clipPath>
  </defs>
  <g id="Grupo_1104646" data-name="Grupo 1104646" transform="translate(2227 10330.578)">
    <g id="Grupo_1104448" data-name="Grupo 1104448" transform="translate(-2614.668 -16343.578)">
      <rect id="Rectángulo_401103" data-name="Rectángulo 401103" width="121" height="121" transform="translate(387.668 6013)" fill="none"/>
      <g id="Grupo_1099348" data-name="Grupo 1099348" transform="translate(387.668 6013)">
        <g id="Grupo_1099282" data-name="Grupo 1099282">
          <g id="Grupo_1099281" data-name="Grupo 1099281" clip-path="url(#clip-path-2)">
            <path id="Trazado_873375" data-name="Trazado 873375" d="M74.8,9.1c-4.139,0-6.28-2.03-8.17-3.821-1.855-1.756-3.452-3.274-6.792-3.274s-4.937,1.517-6.792,3.274C51.161,7.072,49.023,9.1,44.881,9.1s-6.28-2.03-8.169-3.821C34.857,3.525,33.26,2.007,29.92,2.007s-4.937,1.517-6.789,3.274C21.241,7.072,19.1,9.1,14.962,9.1S8.679,7.072,6.789,5.281C4.937,3.525,3.34,2.007,0,2.007V0C4.139,0,6.28,2.033,8.17,3.821c1.855,1.759,3.452,3.274,6.792,3.274S19.9,5.58,21.75,3.824C23.637,2.033,25.781,0,29.92,0s6.283,2.033,8.17,3.821c1.855,1.759,3.452,3.274,6.792,3.274s4.937-1.514,6.792-3.274C53.56,2.033,55.7,0,59.843,0s6.283,2.033,8.17,3.821C69.867,5.58,71.464,7.094,74.8,7.094S79.742,5.58,81.6,3.821C83.483,2.033,85.624,0,89.766,0V2.007c-3.34,0-4.937,1.517-6.792,3.274C81.084,7.072,78.943,9.1,74.8,9.1" transform="translate(2.453 32.43)" fill="#efb499"/>
            <path id="Trazado_873376" data-name="Trazado 873376" d="M74.8,9.1c-4.139,0-6.283-2.03-8.17-3.824-1.855-1.756-3.452-3.27-6.792-3.27s-4.937,1.514-6.792,3.27C51.164,7.072,49.023,9.1,44.881,9.1s-6.283-2.03-8.17-3.824c-1.855-1.756-3.452-3.27-6.792-3.27s-4.937,1.517-6.789,3.27C21.241,7.072,19.1,9.1,14.962,9.1S8.679,7.072,6.789,5.278C4.937,3.522,3.34,2.007,0,2.007V0C4.139,0,6.283,2.03,8.17,3.821c1.855,1.759,3.452,3.274,6.792,3.274S19.9,5.58,21.75,3.821C23.637,2.03,25.781,0,29.92,0S36.2,2.03,38.093,3.821c1.852,1.759,3.449,3.274,6.789,3.274s4.937-1.514,6.792-3.274C53.56,2.03,55.7,0,59.843,0s6.283,2.03,8.17,3.821C69.867,5.58,71.464,7.094,74.8,7.094S79.742,5.58,81.6,3.821C83.486,2.03,85.627,0,89.769,0V2.007c-3.34,0-4.94,1.517-6.8,3.27C81.084,7.072,78.943,9.1,74.8,9.1" transform="translate(1.635 21.62)" fill="#efb499"/>
            <path id="Trazado_873377" data-name="Trazado 873377" d="M74.8,9.1c-4.139,0-6.283-2.03-8.169-3.824-1.855-1.756-3.452-3.27-6.792-3.27s-4.937,1.514-6.792,3.27C51.164,7.072,49.02,9.1,44.881,9.1s-6.283-2.03-8.17-3.824c-1.855-1.756-3.452-3.27-6.792-3.27s-4.937,1.517-6.789,3.27C21.241,7.072,19.1,9.1,14.962,9.1S8.678,7.072,6.789,5.278C4.937,3.522,3.34,2.007,0,2.007V0C4.139,0,6.283,2.03,8.169,3.821c1.851,1.759,3.452,3.274,6.792,3.274S19.9,5.58,21.75,3.821C23.637,2.03,25.781,0,29.92,0S36.2,2.03,38.093,3.821c1.852,1.759,3.449,3.274,6.789,3.274s4.937-1.514,6.792-3.274C53.56,2.03,55.7,0,59.843,0s6.283,2.03,8.17,3.821C69.867,5.58,71.464,7.094,74.8,7.094S79.742,5.58,81.6,3.821C83.486,2.03,85.624,0,89.769,0V2.007c-3.34,0-4.941,1.517-6.8,3.27C81.084,7.072,78.943,9.1,74.8,9.1" transform="translate(0.818 10.81)" fill="#efb499"/>
            <path id="Trazado_873378" data-name="Trazado 873378" d="M74.8,9.1c-4.139,0-6.28-2.03-8.17-3.821-1.855-1.756-3.452-3.27-6.792-3.27s-4.937,1.514-6.789,3.27C51.164,7.069,49.023,9.1,44.881,9.1s-6.28-2.03-8.169-3.821c-1.855-1.756-3.452-3.27-6.792-3.27s-4.937,1.514-6.789,3.267C21.245,7.069,19.1,9.1,14.962,9.1S8.678,7.069,6.789,5.278C4.937,3.522,3.34,2.007,0,2.007V0C4.139,0,6.283,2.03,8.17,3.821c1.855,1.756,3.452,3.27,6.792,3.27S19.9,5.577,21.75,3.821C23.64,2.03,25.781,0,29.92,0s6.28,2.03,8.173,3.821c1.852,1.756,3.449,3.27,6.789,3.27s4.937-1.514,6.792-3.27C53.563,2.03,55.7,0,59.843,0s6.28,2.03,8.17,3.821c1.855,1.756,3.452,3.27,6.792,3.27s4.937-1.514,6.792-3.27C83.486,2.03,85.627,0,89.769,0V2.007c-3.344,0-4.941,1.514-6.8,3.27C81.084,7.069,78.943,9.1,74.8,9.1" transform="translate(0 0.003)" fill="#efb499"/>
          </g>
        </g>
      </g>
      <circle id="Elipse_11504" data-name="Elipse 11504" cx="50.5" cy="50.5" r="50.5" transform="translate(402.668 6031)" fill="#ffce73"/>
      <circle id="Elipse_11503" data-name="Elipse 11503" cx="52.5" cy="52.5" r="52.5" transform="translate(395.668 6021)" fill="#f3f9ff"/>
    </g>
    <g id="Grupo_1104450" data-name="Grupo 1104450" transform="translate(-2201.059 -10304.774)">
      <rect id="Rectángulo_401104" data-name="Rectángulo 401104" width="68" height="69" transform="translate(0.059 -0.804)" fill="none"/>
      <g id="Grupo_1104633" data-name="Grupo 1104633" transform="translate(6.059 5.774)">
        <path id="Trazado_895857" data-name="Trazado 895857" d="M225.632,218.406l-.278-1.109-1-.168-2.974,2.974-2.974-2.974-1.1.177-.177,1.1,2.974,2.974-2.974,2.974.1,1.073,1.182.2,2.974-2.974,2.974,2.974,1.145-.278.132-1-2.974-2.974Z" transform="translate(-193.381 -193.381)" fill="#edf4ff"/>
        <path id="Trazado_895858" data-name="Trazado 895858" d="M0,0H5.109V1.806H0Z" transform="translate(30.969 23.749) rotate(-45)" fill="#7d3a1b"/>
        <path id="Trazado_895859" data-name="Trazado 895859" d="M0,0H1.806V5.109H0Z" transform="translate(20.131 21.413) rotate(-45)" fill="#a4ccff"/>
        <path id="Trazado_895860" data-name="Trazado 895860" d="M0,0H5.109V1.806H0Z" transform="translate(20.13 34.586) rotate(-45)" fill="#ffb937"/>
        <path id="Trazado_895861" data-name="Trazado 895861" d="M0,0H1.806V5.109H0Z" transform="translate(30.968 32.252) rotate(-45)" fill="#09614d"/>
        <g id="Grupo_1104628" data-name="Grupo 1104628" transform="translate(0 30.71)">
          <path id="Trazado_895862" data-name="Trazado 895862" d="M31.525,293.419a12.646,12.646,0,0,0-20.638-9.8C8.047,285.939,7,289.467,7,293.419c0,6.984,4.9,11.928,11.88,11.928,3.952,0,7.481-1.1,9.8-3.936A12.594,12.594,0,0,0,31.525,293.419Z" transform="translate(-6.234 -280.774)" fill="#ffce73"/>
          <path id="Trazado_895863" data-name="Trazado 895863" d="M14.452,327.434a12.646,12.646,0,0,1-9.8-20.638,12.646,12.646,0,1,0,17.793,17.791A12.6,12.6,0,0,1,14.452,327.434Z" transform="translate(0 -303.95)" fill="#ffce73"/>
        </g>
        <g id="Grupo_1104629" data-name="Grupo 1104629" transform="translate(30.71 30.71)">
          <path id="Trazado_895864" data-name="Trazado 895864" d="M312.3,293.419a12.646,12.646,0,0,0-20.638-9.8c-2.839,2.319-3.886,5.847-3.886,9.8,0,6.984,4.9,11.928,11.88,11.928,3.952,0,7.481-1.1,9.8-3.936A12.594,12.594,0,0,0,312.3,293.419Z" transform="translate(-287.009 -280.774)" fill="#09614d"/>
          <path id="Trazado_895865" data-name="Trazado 895865" d="M295.226,327.434a12.646,12.646,0,0,1-9.8-20.638,12.646,12.646,0,1,0,17.793,17.791A12.6,12.6,0,0,1,295.226,327.434Z" transform="translate(-280.774 -303.95)" fill="#09614d"/>
        </g>
        <g id="Grupo_1104630" data-name="Grupo 1104630" transform="translate(0 0)">
          <path id="Trazado_895866" data-name="Trazado 895866" d="M31.525,12.645a12.646,12.646,0,0,0-20.638-9.8C8.047,5.165,7,8.693,7,12.645c0,6.984,4.9,11.928,11.88,11.928,3.952,0,7.481-1.1,9.8-3.936a12.594,12.594,0,0,0,2.845-7.992Z" transform="translate(-6.234 0)" fill="#7dc3ee"/>
          <path id="Trazado_895867" data-name="Trazado 895867" d="M14.452,46.66a12.646,12.646,0,0,1-9.8-20.638A12.646,12.646,0,1,0,22.445,43.813,12.6,12.6,0,0,1,14.452,46.66Z" transform="translate(0 -23.176)" fill="#64acdc"/>
        </g>
        <g id="Grupo_1104631" data-name="Grupo 1104631" transform="translate(30.71 0)">
          <path id="Trazado_895868" data-name="Trazado 895868" d="M312.3,12.645a12.646,12.646,0,0,0-20.638-9.8c-2.839,2.319-3.886,5.847-3.886,9.8,0,6.984,4.9,11.928,11.88,11.928,3.952,0,7.481-1.1,9.8-3.936a12.594,12.594,0,0,0,2.845-7.992Z" transform="translate(-287.009 0)" fill="#7d3a1b"/>
          <path id="Trazado_895869" data-name="Trazado 895869" d="M295.226,46.66a12.646,12.646,0,0,1-9.8-20.638,12.646,12.646,0,1,0,17.793,17.791A12.6,12.6,0,0,1,295.226,46.66Z" transform="translate(-280.774 -23.176)" fill="#7d3a1b"/>
        </g>
        <path id="Trazado_895870" data-name="Trazado 895870" d="M337.283,330.774l-6.258,10.839a.9.9,0,0,0,.782,1.355h12.515a.9.9,0,0,0,.782-1.355l-6.258-10.839A.9.9,0,0,0,337.283,330.774Z" transform="translate(-294.711 -294.194)" fill="#fff"/>
        <path id="Trazado_895871" data-name="Trazado 895871" d="M389.032,375.226a.9.9,0,0,1-.9-.9v-1.806a.9.9,0,1,1,1.806,0v1.806A.9.9,0,0,1,389.032,375.226Z" transform="translate(-345.677 -330.968)" fill="#09614d"/>
        <path id="Trazado_895872" data-name="Trazado 895872" d="M389.078,414.709a.9.9,0,0,1-.009-1.806h.009a.9.9,0,1,1,0,1.806Z" transform="translate(-345.714 -367.742)" fill="#09614d"/>
        <g id="Grupo_1104632" data-name="Grupo 1104632" transform="translate(7.16 4.518)">
          <path id="Trazado_895873" data-name="Trazado 895873" d="M78.314,49.548h4.322a.658.658,0,0,1,.588.952l-2.234,4.467h2.367a.623.623,0,0,1,.5,1l-5.9,7.861a.534.534,0,0,1-.948-.436l1.269-5.712H76.348a.623.623,0,0,1-.608-.758l1.435-6.457a1.168,1.168,0,0,1,1.14-.914Z" transform="translate(-74.603 -48.646)" fill="#fff"/>
          <path id="Trazado_895874" data-name="Trazado 895874" d="M329.774,117.3a.9.9,0,0,0-1.277,0l-.508.508a3.243,3.243,0,0,0-3.72.527l-1.277,1.277a3.161,3.161,0,0,0,4.47,4.471l1.277-1.277a3.118,3.118,0,0,0,.535-3.729l.5-.5a.9.9,0,0,0,0-1.277Zm-2.313,4.229-1.277,1.277a1.356,1.356,0,0,1-1.916,0h0a1.354,1.354,0,0,1,0-1.915l1.277-1.277a1.355,1.355,0,1,1,1.916,1.916Z" transform="translate(-293.999 -108.75)" fill="#fff"/>
          <path id="Trazado_895875" data-name="Trazado 895875" d="M407.159,42.23a3.164,3.164,0,0,0-4.47,0l-.994.994a3.118,3.118,0,0,0-.535,3.729l-.5.5a.9.9,0,1,0,1.277,1.277l.5-.5a3.117,3.117,0,0,0,3.728-.535l.994-.994a3.161,3.161,0,0,0,0-4.471Zm-1.277,3.193-.994.995a1.388,1.388,0,0,1-1.916,0h0a1.354,1.354,0,0,1,0-1.916l.994-.994a1.355,1.355,0,1,1,1.916,1.916Z" transform="translate(-363.761 -41.306)" fill="#fff"/>
          <path id="Trazado_895876" data-name="Trazado 895876" d="M365.161,85.291a.9.9,0,0,1-.639-.265l-.9-.9a.9.9,0,0,1,1.277-1.277l.9.9a.9.9,0,0,1-.639,1.542Z" transform="translate(-330.773 -78.067)" fill="#fff"/>
          <path id="Trazado_895877" data-name="Trazado 895877" d="M406.451,126.581a.9.9,0,0,1-.639-.265l-.9-.9a.9.9,0,0,1,1.277-1.277l.9.9a.9.9,0,0,1-.639,1.542Z" transform="translate(-367.547 -114.841)" fill="#fff"/>
          <path id="Trazado_895878" data-name="Trazado 895878" d="M65.638,338.679l4.672-4.672a.9.9,0,0,1,1.277,0l4.672,4.672a.593.593,0,0,1-.419,1.012H73.658v7.226a.9.9,0,0,1-.9.9H69.142a.9.9,0,0,1-.9-.9v-7.226H66.057A.593.593,0,0,1,65.638,338.679Z" transform="translate(-65.463 -301.758)" fill="#fff"/>
        </g>
      </g>
    </g>
  </g>
</svg>
