<svg xmlns="http://www.w3.org/2000/svg" xmlns:xlink="http://www.w3.org/1999/xlink" width="190" height="134" viewBox="0 0 190 134">
  <defs>
    <clipPath id="clip-path">
      <rect id="Rect치ngulo_402355" data-name="Rect치ngulo 402355" width="87" height="87" transform="translate(342 951)" fill="#fff" stroke="#707070" stroke-width="1"/>
    </clipPath>
  </defs>
  <g id="Grupo_1102652" data-name="Grupo 1102652" transform="translate(-330 -7019)">
    <rect id="Rect치ngulo_402215" data-name="Rect치ngulo 402215" width="190" height="134" transform="translate(330 7019)" fill="none"/>
    <g id="Grupo_1100287" data-name="Grupo 1100287" transform="translate(16 -507)">
      <g id="Grupo_156312" data-name="Grupo 156312" transform="translate(344 7528)">
        <path id="Elipse_5845" data-name="Elipse 5845" d="M65.5,0A65.5,65.5,0,1,1,0,65.5,65.5,65.5,0,0,1,65.5,0Z" transform="translate(0 0)" fill="#ffce73"/>
      </g>
      <g id="Enmascarar_grupo_1098715" data-name="Enmascarar grupo 1098715" transform="translate(24 6599)" clip-path="url(#clip-path)">
        <g id="Grupo_1104021" data-name="Grupo 1104021" transform="translate(346.001 957)">
          <g id="Grupo_1104018" data-name="Grupo 1104018" transform="translate(43.783 11.265)">
            <path id="Trazado_895033" data-name="Trazado 895033" d="M49.236,56.293a1.251,1.251,0,0,1-1.251-1.251V21.251a1.251,1.251,0,1,1,2.5,0v33.79A1.251,1.251,0,0,1,49.236,56.293Z" transform="translate(-31.716 -6.235)" fill="#7d3a1b"/>
            <g id="Grupo_1104015" data-name="Grupo 1104015" transform="translate(0 7.508)">
              <path id="Trazado_895034" data-name="Trazado 895034" d="M42.494,35.024a7.516,7.516,0,0,1-7.509-7.509c0-3.786,5.864-11.212,6.533-12.046a1.251,1.251,0,0,1,2.228.782c0,2.743,1.378,3.976,2.972,5.4C48.257,23.031,50,24.591,50,27.515A7.516,7.516,0,0,1,42.494,35.024Zm-.73-15.73c-2.07,2.891-4.276,6.519-4.276,8.221a5.006,5.006,0,1,0,10.012,0c0-1.72-.886-2.6-2.45-3.995A10.783,10.783,0,0,1,41.764,19.294Z" transform="translate(-34.985 -15)" fill="#7d3a1b"/>
              <path id="Trazado_895035" data-name="Trazado 895035" d="M50,35.263A10.024,10.024,0,0,1,39.985,25.251a1.251,1.251,0,0,1,2.5,0A7.516,7.516,0,0,0,50,32.76a1.251,1.251,0,1,1,0,2.5Z" transform="translate(-33.728 -12.737)" fill="#7d3a1b"/>
            </g>
            <g id="Grupo_1104016" data-name="Grupo 1104016" transform="translate(17.521 17.52)">
              <path id="Trazado_895036" data-name="Trazado 895036" d="M58.494,43.024a7.516,7.516,0,0,1-7.509-7.509c0-2.923,1.746-4.484,3.285-5.862,1.6-1.427,2.972-2.658,2.972-5.4a1.251,1.251,0,0,1,2.228-.782C60.138,24.3,66,31.729,66,35.515A7.516,7.516,0,0,1,58.494,43.024Zm.73-15.73a10.771,10.771,0,0,1-3.285,4.226c-1.564,1.4-2.45,2.275-2.45,3.995a5.006,5.006,0,0,0,10.012,0C63.5,33.813,61.292,30.183,59.224,27.294Z" transform="translate(-48.482 -23)" fill="#7d3a1b"/>
              <path id="Trazado_895037" data-name="Trazado 895037" d="M50.236,43.263a1.251,1.251,0,0,1,0-2.5,7.516,7.516,0,0,0,7.509-7.509,1.251,1.251,0,0,1,2.5,0A10.024,10.024,0,0,1,50.236,43.263Z" transform="translate(-48.985 -20.737)" fill="#7d3a1b"/>
            </g>
            <g id="Grupo_1104017" data-name="Grupo 1104017" transform="translate(12.515)">
              <path id="Trazado_895038" data-name="Trazado 895038" d="M52.494,25.724a7.51,7.51,0,0,1-5.31-12.819c2.677-2.677,12.074-3.781,13.137-3.9a1.267,1.267,0,0,1,1.265.7,1.251,1.251,0,0,1-.243,1.427c-1.94,1.94-1.837,3.784-1.718,5.922.115,2.061.245,4.4-1.822,6.466a7.456,7.456,0,0,1-5.31,2.2Zm5.3-13.839c-3.507.581-7.634,1.587-8.838,2.79a5.008,5.008,0,0,0,0,7.08,5.124,5.124,0,0,0,7.08,0c1.216-1.216,1.209-2.462,1.093-4.558a10.779,10.779,0,0,1,.666-5.311Z" transform="translate(-44.985 -9.001)" fill="#7d3a1b"/>
              <path id="Trazado_895039" data-name="Trazado 895039" d="M49.208,23.586h-.061a1.252,1.252,0,0,1-1.19-1.31,9.919,9.919,0,0,1,2.906-6.544,1.251,1.251,0,0,1,1.77,1.77,7.415,7.415,0,0,0-2.175,4.893,1.252,1.252,0,0,1-1.249,1.191Z" transform="translate(-44.238 -7.401)" fill="#7d3a1b"/>
            </g>
          </g>
          <g id="Grupo_1104019" data-name="Grupo 1104019" transform="translate(11.245 15.018)">
            <path id="Trazado_895040" data-name="Trazado 895040" d="M27.494,29.509a1.251,1.251,0,0,1-1.251-1.251c0-2.07-2.245-3.754-5.006-3.754a1.251,1.251,0,0,1,0-2.5c4.141,0,7.509,2.807,7.509,6.257A1.251,1.251,0,0,1,27.494,29.509Z" transform="translate(-6.219 -9.485)" fill="#7d3a1b"/>
            <path id="Trazado_895041" data-name="Trazado 895041" d="M17.236,44.527a1.251,1.251,0,0,1-1.251-1.251C15.985,35.916,17.293,22,22.242,22a1.251,1.251,0,1,1,0,2.5c-1.123,0-3.754,6.388-3.754,18.772A1.251,1.251,0,0,1,17.236,44.527Z" transform="translate(-7.225 -9.485)" fill="#7d3a1b"/>
            <path id="Trazado_895042" data-name="Trazado 895042" d="M31.928,54.491a1.253,1.253,0,0,1-1.246-1.149c-.464-5.609-3.667-9.839-7.451-9.839a1.251,1.251,0,1,1,0-2.5c5.1,0,9.374,5.217,9.946,12.137a1.253,1.253,0,0,1-1.144,1.35c-.035,0-.07,0-.1,0Z" transform="translate(-5.717 -4.707)" fill="#7d3a1b"/>
            <path id="Trazado_895043" data-name="Trazado 895043" d="M36.809,55.159a1.251,1.251,0,0,1-1.24-1.1C34.56,45.76,29.257,39.5,23.232,39.5a1.251,1.251,0,1,1,0-2.5c7.289,0,13.66,7.2,14.821,16.756a1.249,1.249,0,0,1-1.244,1.4Z" transform="translate(-5.717 -5.713)" fill="#7d3a1b"/>
            <path id="Trazado_895044" data-name="Trazado 895044" d="M12.949,60.339a1.24,1.24,0,0,1-.631-.171,2.576,2.576,0,0,1-1.333-2.144,4.217,4.217,0,0,1,1.377-3.13l.186-.2c2.817-3.193,4.693-7.041,4.693-15.442a1.251,1.251,0,1,1,2.5,0c0,9.728-2.557,13.967-5.319,17.1-.078.086-.164.179-.254.273a1.8,1.8,0,0,0-.683,1.35c.009-.028.049.009.094.034a1.252,1.252,0,0,1-.635,2.332Z" transform="translate(-8.482 -5.461)" fill="#7d3a1b"/>
            <path id="Trazado_895045" data-name="Trazado 895045" d="M17.283,57.845a1.252,1.252,0,0,1-.723-2.274A16.832,16.832,0,0,0,23.476,42.25a1.251,1.251,0,0,1,2.5,0A19.411,19.411,0,0,1,18,57.614a1.245,1.245,0,0,1-.721.23Z" transform="translate(-7.213 -4.707)" fill="#7d3a1b"/>
            <path id="Trazado_895046" data-name="Trazado 895046" d="M37.5,34.76c-7.017,0-12.515-3.3-12.515-7.509a1.251,1.251,0,0,1,2.5,0c0,2.368,4.112,5.006,10.012,5.006a1.251,1.251,0,1,1,0,2.5Z" transform="translate(-4.961 -8.479)" fill="#7d3a1b"/>
            <path id="Trazado_895047" data-name="Trazado 895047" d="M37.739,36.006a1.251,1.251,0,0,1-1.251-1.251A1.252,1.252,0,0,0,35.236,33.5a1.251,1.251,0,1,1,0-2.5,3.759,3.759,0,0,1,3.754,3.754A1.251,1.251,0,0,1,37.739,36.006Z" transform="translate(-2.698 -7.222)" fill="#7d3a1b"/>
            <path id="Trazado_895048" data-name="Trazado 895048" d="M34.236,38.006a1.251,1.251,0,0,1,0-2.5c1.528,0,2.5-.741,2.5-1.251a1.251,1.251,0,1,1,2.5,0C39.242,36.358,37.044,38.006,34.236,38.006Z" transform="translate(-2.949 -6.719)" fill="#7d3a1b"/>
            <path id="Trazado_895049" data-name="Trazado 895049" d="M36.751,38.76c-7.719,0-13.766-3.3-13.766-7.509a1.251,1.251,0,1,1,2.5,0c0,2.368,4.625,5.006,11.263,5.006a1.251,1.251,0,0,1,0,2.5Z" transform="translate(-5.464 -7.473)" fill="#7d3a1b"/>
            <path id="Trazado_895050" data-name="Trazado 895050" d="M23.236,41.263a1.251,1.251,0,0,1-1.251-1.251c0-6.644.842-10.012,2.5-10.012a1.251,1.251,0,0,1,.786,2.225,34.532,34.532,0,0,0-.786,7.787A1.251,1.251,0,0,1,23.236,41.263Z" transform="translate(-5.716 -7.473)" fill="#7d3a1b"/>
            <path id="Trazado_895051" data-name="Trazado 895051" d="M20.242,25.754a1.252,1.252,0,0,1-1.133-.717,11.029,11.029,0,0,0-3.873-.534,1.251,1.251,0,1,1,0-2.5c2.337,0,6.257.325,6.257,2.5A1.251,1.251,0,0,1,20.242,25.754Z" transform="translate(-7.728 -9.485)" fill="#7d3a1b"/>
            <path id="Trazado_895052" data-name="Trazado 895052" d="M12.236,29.509a1.251,1.251,0,0,1-1.251-1.251c0-3.45,2.245-6.257,5.006-6.257a1.251,1.251,0,1,1,0,2.5c-1.357,0-2.5,1.72-2.5,3.754A1.251,1.251,0,0,1,12.236,29.509Z" transform="translate(-8.482 -9.485)" fill="#7d3a1b"/>
            <path id="Trazado_895053" data-name="Trazado 895053" d="M13.488,29.754a2.505,2.505,0,0,1-2.5-2.5,1.251,1.251,0,0,1,2.5,0v0a1.25,1.25,0,1,1,0,2.5Z" transform="translate(-8.482 -8.479)" fill="#7d3a1b"/>
            <path id="Trazado_895054" data-name="Trazado 895054" d="M11.236,37.012A1.251,1.251,0,0,1,9.985,35.76c0-4.36,1.161-8.76,3.754-8.76a1.251,1.251,0,0,1,.111,2.5c-.432.352-1.363,2.5-1.363,6.262A1.251,1.251,0,0,1,11.236,37.012Z" transform="translate(-8.734 -8.228)" fill="#7d3a1b"/>
            <path id="Trazado_895055" data-name="Trazado 895055" d="M17.494,40.509c-4.141,0-7.509-2.807-7.509-6.257a1.251,1.251,0,1,1,2.5,0c0,2.07,2.245,3.754,5.006,3.754a1.251,1.251,0,1,1,0,2.5Z" transform="translate(-8.734 -6.719)" fill="#7d3a1b"/>
            <path id="Trazado_895056" data-name="Trazado 895056" d="M10.236,39.012a1.251,1.251,0,1,1,0-2.5c2.035,0,3.754-2.866,3.754-6.257a1.251,1.251,0,0,1,2.5,0C16.494,35.164,13.746,39.012,10.236,39.012Z" transform="translate(-8.985 -7.725)" fill="#7d3a1b"/>
            <path id="Trazado_895057" data-name="Trazado 895057" d="M14.236,33.012a1.251,1.251,0,0,1-1.251-1.251c0-4.829,3.368-8.76,7.509-8.76a1.251,1.251,0,1,1,0,2.5c-2.761,0-5.006,2.807-5.006,6.257a1.251,1.251,0,0,1-1.251,1.251Z" transform="translate(-7.979 -9.234)" fill="#7d3a1b"/>
            <path id="Trazado_895058" data-name="Trazado 895058" d="M26.242,24.515A6.257,6.257,0,1,1,32.5,18.257,6.265,6.265,0,0,1,26.242,24.515Zm0-10.012A3.754,3.754,0,1,0,30,18.257,3.759,3.759,0,0,0,26.242,14.5Z" transform="translate(-6.219 -12)" fill="#7d3a1b"/>
            <path id="Trazado_895059" data-name="Trazado 895059" d="M40.426,55.141a1.25,1.25,0,0,1-1.2-.9L34.045,36.482a1.251,1.251,0,1,1,2.4-.7L41.629,53.54a1.251,1.251,0,0,1-.851,1.552,1.27,1.27,0,0,1-.352.05Z" transform="translate(-2.696 -6.246)" fill="#7d3a1b"/>
            <path id="Trazado_895060" data-name="Trazado 895060" d="M34.313,34.195a1.25,1.25,0,0,1-1.2-.9L32.036,29.6a1.251,1.251,0,0,1,2.4-.7l1.076,3.692a1.251,1.251,0,0,1-1.2,1.6Z" transform="translate(-3.201 -7.976)" fill="#7d3a1b"/>
          </g>
          <path id="Trazado_895061" data-name="Trazado 895061" d="M60.068,67.657H1.252A1.251,1.251,0,0,1,.29,65.6c.526-.631,13.236-15.462,44-16.143a1.252,1.252,0,0,1,.054,2.5c-22.7.5-35.318,9.147-40,13.191H60.068a1.251,1.251,0,0,1,0,2.5Z" transform="translate(0 12.438)" fill="#7d3a1b"/>
          <path id="Trazado_895062" data-name="Trazado 895062" d="M71.8,69.532H41.75A1.251,1.251,0,0,1,40.5,68.281a11.159,11.159,0,0,1,3.767-8.395c-.009-.126-.013-.247-.013-.365a6.267,6.267,0,0,1,5.416-6.2A7.487,7.487,0,0,1,62.457,50.9a7.493,7.493,0,0,1,4.323-1.387,12.366,12.366,0,0,1,3.773.426v-5.4c-6.916.257-40.057,2.592-40.057,23.659a1.251,1.251,0,1,1-2.5,0c0-10.813,7.669-18.775,22.18-23.026A86.038,86.038,0,0,1,71.8,42a1.251,1.251,0,0,1,1.251,1.251v25.03A1.251,1.251,0,0,1,71.8,69.534Zm-28.714-2.5H70.552V53.263c0-.947-.916-1.251-3.773-1.251a4.95,4.95,0,0,0-3.642,1.594,1.252,1.252,0,0,1-2.009-.252,4.987,4.987,0,0,0-9.266,1.419,1.251,1.251,0,0,1-1.226,1,2.128,2.128,0,0,1-.235-.019,3.747,3.747,0,0,0-3.646,3.761,3.85,3.85,0,0,0,.07.673,1.254,1.254,0,0,1-.463,1.2A8.681,8.681,0,0,0,43.09,67.029Z" transform="translate(7.04 10.562)" fill="#7d3a1b"/>
          <g id="Grupo_1104020" data-name="Grupo 1104020" transform="translate(0)">
            <path id="Trazado_895063" data-name="Trazado 895063" d="M11.257,17.515a6.257,6.257,0,1,1,6.257-6.257A6.265,6.265,0,0,1,11.257,17.515Zm0-10.012a3.754,3.754,0,1,0,3.754,3.754A3.759,3.759,0,0,0,11.257,7.5Z" transform="translate(1.257 1.257)" fill="#7d3a1b"/>
            <path id="Trazado_895064" data-name="Trazado 895064" d="M10.251,20.88A1.251,1.251,0,0,1,9,19.629V17.751a1.251,1.251,0,1,1,2.5,0v1.877A1.251,1.251,0,0,1,10.251,20.88Z" transform="translate(2.263 4.149)" fill="#7d3a1b"/>
            <path id="Trazado_895065" data-name="Trazado 895065" d="M10.251,4.38A1.251,1.251,0,0,1,9,3.129V1.251a1.251,1.251,0,0,1,2.5,0V3.129A1.251,1.251,0,0,1,10.251,4.38Z" transform="translate(2.263)" fill="#7d3a1b"/>
            <path id="Trazado_895066" data-name="Trazado 895066" d="M3.129,11.5H1.251a1.251,1.251,0,0,1,0-2.5H3.129a1.251,1.251,0,0,1,0,2.5Z" transform="translate(0 2.263)" fill="#7d3a1b"/>
            <path id="Trazado_895067" data-name="Trazado 895067" d="M19.629,11.5H17.751a1.251,1.251,0,0,1,0-2.5h1.877a1.251,1.251,0,1,1,0,2.5Z" transform="translate(4.149 2.263)" fill="#7d3a1b"/>
            <path id="Trazado_895068" data-name="Trazado 895068" d="M16.882,18.134A1.248,1.248,0,0,1,16,17.767L14.67,16.439a1.251,1.251,0,0,1,1.77-1.77L17.767,16a1.251,1.251,0,0,1-.885,2.136Z" transform="translate(3.597 3.597)" fill="#7d3a1b"/>
            <path id="Trazado_895069" data-name="Trazado 895069" d="M5.215,6.466A1.248,1.248,0,0,1,4.331,6.1L3,4.771A1.251,1.251,0,0,1,4.772,3L6.1,4.33a1.251,1.251,0,0,1-.885,2.136Z" transform="translate(0.663 0.663)" fill="#7d3a1b"/>
            <path id="Trazado_895070" data-name="Trazado 895070" d="M3.888,18.134A1.251,1.251,0,0,1,3,16L4.331,14.67a1.251,1.251,0,0,1,1.77,1.77L4.772,17.767a1.248,1.248,0,0,1-.885.367Z" transform="translate(0.663 3.597)" fill="#7d3a1b"/>
            <path id="Trazado_895071" data-name="Trazado 895071" d="M15.555,6.466A1.251,1.251,0,0,1,14.67,4.33L16,3a1.251,1.251,0,1,1,1.77,1.77L16.439,6.1A1.248,1.248,0,0,1,15.555,6.466Z" transform="translate(3.597 0.663)" fill="#7d3a1b"/>
          </g>
        </g>
      </g>
    </g>
  </g>
</svg>
