<svg xmlns="http://www.w3.org/2000/svg" xmlns:xlink="http://www.w3.org/1999/xlink" width="190" height="134" viewBox="0 0 190 134">
  <defs>
    <clipPath id="clip-path">
      <rect id="Rect치ngulo_402355" data-name="Rect치ngulo 402355" width="87" height="87" transform="translate(342 951)" fill="#fff" stroke="#707070" stroke-width="1"/>
    </clipPath>
  </defs>
  <g id="Grupo_1102652" data-name="Grupo 1102652" transform="translate(-330 -7019)">
    <rect id="Rect치ngulo_402215" data-name="Rect치ngulo 402215" width="190" height="134" transform="translate(330 7019)" fill="none"/>
    <g id="Grupo_1100287" data-name="Grupo 1100287" transform="translate(16 -507)">
      <g id="Grupo_156312" data-name="Grupo 156312" transform="translate(344 7528)">
        <path id="Elipse_5845" data-name="Elipse 5845" d="M65.5,0A65.5,65.5,0,1,1,0,65.5,65.5,65.5,0,0,1,65.5,0Z" transform="translate(0 0)" fill="#ffce73"/>
      </g>
      <g id="Enmascarar_grupo_1098715" data-name="Enmascarar grupo 1098715" transform="translate(24 6599)" clip-path="url(#clip-path)">
        <g id="Grupo_1103995" data-name="Grupo 1103995" transform="translate(346.424 957)">
          <path id="Trazado_895026" data-name="Trazado 895026" d="M74.6,53.886l.98-.98L73.9,51.227l-.98.98a3.651,3.651,0,0,1-2.923,1.013c0-.07-.008-.14-.008-.21a8.88,8.88,0,0,0-1.265-4.568,16.129,16.129,0,0,1-2.3-8.3,14.105,14.105,0,0,0-2.678-8.268,30.659,30.659,0,0,0,1.491-9.5C65.235,10.59,58.842,1,50.984,1H39.108A11.723,11.723,0,0,0,30.17,5.75H10.605c-5.328,0-9.5,7.3-9.5,16.626S5.278,39,10.605,39H30.17a11.723,11.723,0,0,0,8.938,4.75H50.9a11.65,11.65,0,0,1-1.582,4.819,13.3,13.3,0,0,0-.881,1.781A6.733,6.733,0,0,0,41.72,51l-1.9,1.425a4.275,4.275,0,0,1-4.988,0L32.932,51a6.71,6.71,0,0,0-7.838,0l-1.9,1.425a4.275,4.275,0,0,1-4.988,0L16.306,51a6.71,6.71,0,0,0-7.838,0l-1.9,1.425a4.246,4.246,0,0,1-4.8.131L.444,54.529a6.676,6.676,0,0,0,7.548-.205l1.9-1.425a4.275,4.275,0,0,1,4.988,0l1.9,1.425a6.71,6.71,0,0,0,7.838,0l1.9-1.425a4.275,4.275,0,0,1,4.988,0l1.9,1.425a6.532,6.532,0,0,0,7.838,0l1.9-1.425a4.275,4.275,0,0,1,4.6-.238,13.319,13.319,0,0,0-.323,2.768c0,.163-.024.324-.037.486a6.692,6.692,0,0,0-5.664,1.021l-1.9,1.425a4.275,4.275,0,0,1-4.988,0l-1.9-1.425a6.71,6.71,0,0,0-7.838,0l-1.9,1.425a4.275,4.275,0,0,1-4.988,0l-1.9-1.425a6.71,6.71,0,0,0-7.838,0l-1.9,1.425a4.246,4.246,0,0,1-4.8.131L.444,60.467a6.673,6.673,0,0,0,7.548-.205l1.9-1.425a4.275,4.275,0,0,1,4.988,0l1.9,1.425a6.71,6.71,0,0,0,7.838,0l1.9-1.425a4.275,4.275,0,0,1,4.988,0l1.9,1.425a6.71,6.71,0,0,0,7.838,0l1.9-1.425a4.275,4.275,0,0,1,4.988,0l1.9,1.425a6.71,6.71,0,0,0,7.838,0l1.9-1.425a4.275,4.275,0,0,1,4.988,0l2.055,1.544a5.994,5.994,0,0,0,3.572,1.188A5.91,5.91,0,0,0,74.6,59.824l.98-.98L73.9,57.165l-.98.98a3.387,3.387,0,0,1-1.083.713,10.3,10.3,0,0,1-1.5-3.228h.052A5.91,5.91,0,0,0,74.6,53.886ZM10.605,36.628c-3.862,0-7.126-6.532-7.126-14.251S6.743,8.126,10.605,8.126h17.91a27.991,27.991,0,0,0-3.659,14.251,27.991,27.991,0,0,0,3.659,14.251Zm28.5,4.75c-6.548,0-11.876-8.525-11.876-19s5.328-19,11.876-19h5.377c-4.6,3.551-7.753,10.728-7.753,19s3.157,15.451,7.753,19Zm0-19c0-10.477,5.328-19,11.876-19s11.876,8.525,11.876,19a28.879,28.879,0,0,1-.96,7.4,14.23,14.23,0,0,0-2.019-1.575,28.334,28.334,0,0,0,.6-5.83c0-9.324-4.173-16.626-9.5-16.626s-9.5,7.3-9.5,16.626c0,7.824,2.969,14.4,7.244,16.159a4.772,4.772,0,0,1,2.089,2.83C44.345,41.218,39.108,32.764,39.108,22.377Zm7.273-10.766c1.253-2.157,2.866-3.486,4.6-3.486,3.862,0,7.126,6.526,7.126,14.251a26.447,26.447,0,0,1-.4,4.668,14.111,14.111,0,0,0-9.393-.551,29.1,29.1,0,0,0,.3-4.117,25.306,25.306,0,0,0-2.228-10.766Zm-.147,10.766a26.17,26.17,0,0,1-.509,5.168c-.273.141-.555.261-.819.419l-.392.238a25.89,25.89,0,0,1-.654-5.825,24.9,24.9,0,0,1,1.188-7.748,24.643,24.643,0,0,1,1.188,7.748ZM68.24,58.48l-2.055-1.544a6.71,6.71,0,0,0-7.838,0l-1.9,1.425a4.275,4.275,0,0,1-4.988,0l-1.83-1.373a8.181,8.181,0,0,0,.167-1.559A10.96,10.96,0,0,1,51.357,49.8a14.055,14.055,0,0,0,2-7.229A7.152,7.152,0,0,0,48.973,36,10.433,10.433,0,0,1,45.2,30.558L46.128,30a11.832,11.832,0,0,1,17.92,10.146,18.508,18.508,0,0,0,2.634,9.514,6.5,6.5,0,0,1,.929,3.349,12.688,12.688,0,0,0,1.476,5.91A3.293,3.293,0,0,1,68.24,58.48Z" transform="translate(0)" fill="#7d3a1b"/>
          <path id="Trazado_895027" data-name="Trazado 895027" d="M72.916,55.509a3.689,3.689,0,0,1-4.677.331L66.185,54.3a6.71,6.71,0,0,0-7.838,0l-1.9,1.425a4.275,4.275,0,0,1-4.988,0l-1.9-1.425a6.71,6.71,0,0,0-7.838,0l-1.9,1.425a4.275,4.275,0,0,1-4.988,0l-1.9-1.425a6.71,6.71,0,0,0-7.838,0l-1.9,1.425a4.275,4.275,0,0,1-4.988,0l-1.9-1.425a6.71,6.71,0,0,0-7.838,0l-1.9,1.425a4.25,4.25,0,0,1-4.8.131L.444,57.83a6.676,6.676,0,0,0,7.548-.205l1.9-1.425a4.275,4.275,0,0,1,4.988,0l1.9,1.425a6.71,6.71,0,0,0,7.838,0l1.9-1.425a4.275,4.275,0,0,1,4.988,0l1.9,1.425a6.71,6.71,0,0,0,7.838,0l1.9-1.425a4.275,4.275,0,0,1,4.988,0l1.9,1.425a6.71,6.71,0,0,0,7.838,0l1.9-1.425a4.275,4.275,0,0,1,4.988,0l2.055,1.544a5.994,5.994,0,0,0,3.572,1.188A5.91,5.91,0,0,0,74.6,57.188l.98-.98L73.9,54.529Z" transform="translate(0 9.762)" fill="#7d3a1b"/>
          <path id="Trazado_895028" data-name="Trazado 895028" d="M72.916,60.509a3.692,3.692,0,0,1-4.677.331L66.185,59.3a6.71,6.71,0,0,0-7.838,0l-1.9,1.425a4.275,4.275,0,0,1-4.988,0l-1.9-1.425a6.71,6.71,0,0,0-7.838,0l-1.9,1.425a4.275,4.275,0,0,1-4.988,0l-1.9-1.425a6.71,6.71,0,0,0-7.838,0l-1.9,1.425a4.275,4.275,0,0,1-4.988,0l-1.9-1.425a6.71,6.71,0,0,0-7.838,0l-1.9,1.425a4.25,4.25,0,0,1-4.8.131L.444,62.83a6.671,6.671,0,0,0,7.548-.205l1.9-1.425a4.275,4.275,0,0,1,4.988,0l1.9,1.425a6.71,6.71,0,0,0,7.838,0l1.9-1.425a4.275,4.275,0,0,1,4.988,0l1.9,1.425a6.71,6.71,0,0,0,7.838,0l1.9-1.425a4.275,4.275,0,0,1,4.988,0l1.9,1.425a6.71,6.71,0,0,0,7.838,0l1.9-1.425a4.275,4.275,0,0,1,4.988,0l2.055,1.544a5.994,5.994,0,0,0,3.572,1.188A5.91,5.91,0,0,0,74.6,62.188l.98-.98L73.9,59.529Z" transform="translate(0 10.7)" fill="#7d3a1b"/>
        </g>
      </g>
    </g>
  </g>
</svg>
