<svg xmlns="http://www.w3.org/2000/svg" xmlns:xlink="http://www.w3.org/1999/xlink" width="190" height="134" viewBox="0 0 190 134">
  <defs>
    <clipPath id="clip-path">
      <rect id="Rectángulo_402355" data-name="Rectángulo 402355" width="87" height="87" transform="translate(342 951)" fill="#fff" stroke="#707070" stroke-width="1"/>
    </clipPath>
  </defs>
  <g id="Grupo_1102652" data-name="Grupo 1102652" transform="translate(-330 -7019)">
    <rect id="Rectángulo_402215" data-name="Rectángulo 402215" width="190" height="134" transform="translate(330 7019)" fill="none"/>
    <g id="Grupo_1100287" data-name="Grupo 1100287" transform="translate(16 -507)">
      <g id="Grupo_156312" data-name="Grupo 156312" transform="translate(344 7528)">
        <path id="Elipse_5845" data-name="Elipse 5845" d="M65.5,0A65.5,65.5,0,1,1,0,65.5,65.5,65.5,0,0,1,65.5,0Z" transform="translate(0 0)" fill="#ffce73"/>
      </g>
      <g id="Enmascarar_grupo_1098715" data-name="Enmascarar grupo 1098715" transform="translate(24 6599)" clip-path="url(#clip-path)">
        <g id="Grupo_1104036" data-name="Grupo 1104036" transform="translate(345.868 956.917)">
          <g id="Grupo_1104023" data-name="Grupo 1104023" transform="translate(0.573 12.778)">
            <g id="Grupo_1104022" data-name="Grupo 1104022" transform="translate(0)">
              <path id="Trazado_895073" data-name="Trazado 895073" d="M64.78,136.223l-2.958-8.875a8.945,8.945,0,0,0-6.886-5.971L46.4,119.822v-.662a12.86,12.86,0,0,0,3.809-3.382h2.58a3.838,3.838,0,0,0,3.833-3.833V96.611a16.611,16.611,0,0,0-33.222,0v8.944a5.12,5.12,0,0,0,4.075,5.005,12.8,12.8,0,0,0,6.147,8.6v.662l-8.541,1.554a8.943,8.943,0,0,0-6.885,5.971l-.511,1.535L13.33,124.53a1.28,1.28,0,0,1,0-1.808l5.047-5.046L8.9,108.2l-5.7,5.7a8.945,8.945,0,0,0,0,12.649l17.269,17.269a8.94,8.94,0,0,0,12.609.038l6.224-5.7-1.941-1.937ZM54.063,111.945a1.279,1.279,0,0,1-1.278,1.278H51.711a12.691,12.691,0,0,0,.833-2.662,5.061,5.061,0,0,0,1.519-.6Zm-1.278-4.189v-4.4a2.533,2.533,0,0,1,0,4.4Zm-25.556,0a2.533,2.533,0,0,1,0-4.4Zm0-8.589v1.459a5.068,5.068,0,0,0-1.278.529V96.611a14.056,14.056,0,1,1,28.111,0v4.544a5.021,5.021,0,0,0-1.278-.529V99.167H51.507a14.059,14.059,0,0,1-10-4.144l-1.5-1.5-1.5,1.5a14.059,14.059,0,0,1-10,4.144Zm2.556,8.944v-6.437a16.567,16.567,0,0,0,10.222-4.541,16.559,16.559,0,0,0,10.222,4.541v6.437a10.145,10.145,0,0,1-1.383,5.111h-8.84v2.556h6.739a10.206,10.206,0,0,1-16.961-7.667ZM43.841,120.3v.06l-3.833,3.833-3.833-3.833v-.06a12.768,12.768,0,0,0,7.667,0Zm-23.225,7.855a6.391,6.391,0,0,1,4.918-4.267l8.932-1.623,5.542,5.542,5.54-5.54,8.93,1.623a6.389,6.389,0,0,1,4.918,4.267l1.839,5.511H34.805l-4.977-4.977-5.53,5a1.305,1.305,0,0,1-1.807,0L19.7,130.9ZM8.9,111.816l5.86,5.86-1.388,1.388-5.86-5.86Zm22.406,30.2a6.39,6.39,0,0,1-9.035,0L5,124.749a6.39,6.39,0,0,1,0-9.035l.7-.7,5.86,5.86-.046.046a3.84,3.84,0,0,0,0,5.422l9.163,9.163a3.813,3.813,0,0,0,2.711,1.123,3.762,3.762,0,0,0,2.664-1.078l.1-.086,5.887,5.887Zm2.619-2.4-5.874-5.874,1.688-1.526,5.864,5.864Z" transform="translate(-0.58 -80)" fill="#7d3a1b"/>
            </g>
          </g>
          <g id="Grupo_1104025" data-name="Grupo 1104025" transform="translate(54.056)">
            <g id="Grupo_1104024" data-name="Grupo 1104024">
              <path id="Trazado_895074" data-name="Trazado 895074" d="M357.15,0H339.261a3.838,3.838,0,0,0-3.833,3.833V14.056a3.838,3.838,0,0,0,3.833,3.833h3.413L341.353,25.6l12.331-7.706h3.467a3.838,3.838,0,0,0,3.833-3.833V3.833A3.838,3.838,0,0,0,357.15,0Zm1.278,14.056a1.28,1.28,0,0,1-1.278,1.278h-4.2L344.835,20.4l.87-5.072h-6.444a1.28,1.28,0,0,1-1.278-1.278V3.833a1.28,1.28,0,0,1,1.278-1.278H357.15a1.28,1.28,0,0,1,1.278,1.278Z" transform="translate(-335.428)" fill="#7d3a1b"/>
            </g>
          </g>
          <g id="Grupo_1104027" data-name="Grupo 1104027" transform="translate(59.167 5.111)">
            <g id="Grupo_1104026" data-name="Grupo 1104026">
              <rect id="Rectángulo_405427" data-name="Rectángulo 405427" width="15.333" height="2.556" fill="#7d3a1b"/>
            </g>
          </g>
          <g id="Grupo_1104029" data-name="Grupo 1104029" transform="translate(59.167 10.222)">
            <g id="Grupo_1104028" data-name="Grupo 1104028">
              <rect id="Rectángulo_405428" data-name="Rectángulo 405428" width="10.222" height="2.556" fill="#7d3a1b"/>
            </g>
          </g>
          <g id="Grupo_1104031" data-name="Grupo 1104031" transform="translate(71.945 10.222)">
            <g id="Grupo_1104030" data-name="Grupo 1104030">
              <rect id="Rectángulo_405429" data-name="Rectángulo 405429" width="2.556" height="2.556" fill="#7d3a1b"/>
            </g>
          </g>
          <g id="Grupo_1104033" data-name="Grupo 1104033" transform="translate(0.572 3.833)">
            <g id="Grupo_1104032" data-name="Grupo 1104032" transform="translate(0)">
              <path id="Trazado_895075" data-name="Trazado 895075" d="M40,24A35.755,35.755,0,0,0,5.185,51.658L2.763,47.621.572,48.936,5.063,56.42l7.484-4.491-1.315-2.191L7.77,51.815A33.231,33.231,0,0,1,49.845,28.038L50.6,25.6A35.755,35.755,0,0,0,40,24Z" transform="translate(-0.572 -24)" fill="#7d3a1b"/>
            </g>
          </g>
          <g id="Grupo_1104035" data-name="Grupo 1104035" transform="translate(65.813 23.801)">
            <g id="Grupo_1104034" data-name="Grupo 1104034">
              <path id="Trazado_895076" data-name="Trazado 895076" d="M422.214,153.507l-7.484-4.491-4.49,7.485,2.191,1.315,2.236-3.727a33.251,33.251,0,0,1-5.631,31.655l1.984,1.61a35.783,35.783,0,0,0,6.123-33.907L420.9,155.7Z" transform="translate(-409.036 -149.016)" fill="#7d3a1b"/>
            </g>
          </g>
        </g>
      </g>
    </g>
  </g>
</svg>
