<svg xmlns="http://www.w3.org/2000/svg" width="190" height="134" viewBox="0 0 190 134">
  <g id="Grupo_1102652" data-name="Grupo 1102652" transform="translate(-330 -7019)">
    <rect id="Rectángulo_402215" data-name="Rectángulo 402215" width="190" height="134" transform="translate(330 7019)" fill="none"/>
    <g id="Grupo_1100287" data-name="Grupo 1100287" transform="translate(16 -507)">
      <g id="Grupo_156312" data-name="Grupo 156312" transform="translate(344 7528)">
        <path id="Elipse_5845" data-name="Elipse 5845" d="M65.5,0A65.5,65.5,0,1,1,0,65.5,65.5,65.5,0,0,1,65.5,0Z" transform="translate(0 0)" fill="#ffce73"/>
      </g>
      <g id="Grupo_1104053" data-name="Grupo 1104053" transform="translate(373.53 7554.699)">
        <g id="Grupo_1104052" data-name="Grupo 1104052" transform="translate(2.794 0)">
          <path id="Trazado_895091" data-name="Trazado 895091" d="M89.135,181.506H60.412a1.122,1.122,0,0,0,0,2.244H89.135a1.122,1.122,0,1,0,0-2.244Z" transform="translate(-50.838 -154.35)" fill="#7e3c1b"/>
          <path id="Trazado_895092" data-name="Trazado 895092" d="M89.135,234.2H60.412a1.122,1.122,0,0,0,0,2.244H89.135a1.122,1.122,0,1,0,0-2.244Z" transform="translate(-50.838 -199.162)" fill="#7e3c1b"/>
          <path id="Trazado_895093" data-name="Trazado 895093" d="M89.135,286.9H60.412a1.122,1.122,0,0,0,0,2.244H89.135a1.122,1.122,0,1,0,0-2.244Z" transform="translate(-50.838 -243.974)" fill="#7e3c1b"/>
          <path id="Trazado_895094" data-name="Trazado 895094" d="M90.257,340.716a1.122,1.122,0,0,0-1.122-1.122H60.412a1.122,1.122,0,1,0,0,2.244H89.135A1.122,1.122,0,0,0,90.257,340.716Z" transform="translate(-50.838 -288.786)" fill="#7e3c1b"/>
          <path id="Trazado_895095" data-name="Trazado 895095" d="M60.412,416.821a1.122,1.122,0,1,0,0,2.244h14.4a1.122,1.122,0,1,0,0-2.244Z" transform="translate(-50.837 -354.459)" fill="#7e3c1b"/>
          <path id="Trazado_895096" data-name="Trazado 895096" d="M185.67,57.863V54.222a2.518,2.518,0,0,0-2.515-2.515H160.119a2.518,2.518,0,0,0-2.515,2.515v3.641a2.518,2.518,0,0,0,2.515,2.515h1.945a1.122,1.122,0,1,0,0-2.244h-1.945a.271.271,0,0,1-.271-.271V54.222a.272.272,0,0,1,.271-.271h23.035a.271.271,0,0,1,.271.271v3.641a.271.271,0,0,1-.271.271H167.31a1.122,1.122,0,1,0,0,2.244h15.845A2.518,2.518,0,0,0,185.67,57.863Z" transform="translate(-134.442 -43.971)" fill="#7e3c1b"/>
          <path id="Trazado_895097" data-name="Trazado 895097" d="M62.411,68.417a1.122,1.122,0,0,0-1.122,1.122V71.05a3.311,3.311,0,0,1-3.308,3.307H8.345A3.311,3.311,0,0,1,5.038,71.05V17.12a3.33,3.33,0,0,1,.079-.713H15.333A3.872,3.872,0,0,0,19.2,12.539V2.323a3.328,3.328,0,0,1,.713-.079H57.981a3.311,3.311,0,0,1,3.308,3.307V20.489a1.122,1.122,0,1,0,2.244,0V5.551A5.558,5.558,0,0,0,57.981,0H19.914a5.515,5.515,0,0,0-3.926,1.626L4.42,13.194A5.515,5.515,0,0,0,2.794,17.12V71.05A5.558,5.558,0,0,0,8.345,76.6H57.981a5.558,5.558,0,0,0,5.552-5.551V69.539a1.122,1.122,0,0,0-1.122-1.122ZM16.957,3.831v8.708a1.626,1.626,0,0,1-1.624,1.624H6.625Z" transform="translate(-2.794 0)" fill="#7e3c1b"/>
          <path id="Trazado_895098" data-name="Trazado 895098" d="M324.847,179.991a4.486,4.486,0,0,0-2.193-6.749,2.229,2.229,0,0,1-1.484-2.043,4.486,4.486,0,0,0-5.741-4.171,2.229,2.229,0,0,1-2.4-.78,4.486,4.486,0,0,0-7.1,0,2.23,2.23,0,0,1-2.4.78,4.486,4.486,0,0,0-5.741,4.171,2.23,2.23,0,0,1-1.484,2.043,4.486,4.486,0,0,0-2.193,6.749,2.23,2.23,0,0,1,0,2.525,4.486,4.486,0,0,0,2.193,6.749,2.229,2.229,0,0,1,1.484,2.043,4.486,4.486,0,0,0,3.874,4.309v10.215a2.381,2.381,0,0,0,3.63,2.028l4.115-2.533a.117.117,0,0,1,.144,0l4.115,2.533a2.382,2.382,0,0,0,3.63-2.028V195.616a4.486,4.486,0,0,0,3.874-4.309,2.229,2.229,0,0,1,1.484-2.043,4.486,4.486,0,0,0,2.193-6.749A2.228,2.228,0,0,1,324.847,179.991Zm-10,25.958-4.115-2.533a2.381,2.381,0,0,0-2.5,0l-4.115,2.533a.136.136,0,0,1-.209-.117V195.4a2.226,2.226,0,0,1,2.024.855,4.486,4.486,0,0,0,7.1,0,2.226,2.226,0,0,1,2.025-.855v10.428A.137.137,0,0,1,314.842,205.948Zm8.15-22.169a2.242,2.242,0,0,1-1.1,3.373,4.461,4.461,0,0,0-2.969,4.087,2.212,2.212,0,0,1-.807,1.656,2.234,2.234,0,0,1-2.062.429,4.462,4.462,0,0,0-4.8,1.561,2.243,2.243,0,0,1-3.547,0,4.458,4.458,0,0,0-3.534-1.744,4.53,4.53,0,0,0-1.27.183,2.233,2.233,0,0,1-2.062-.429,2.21,2.21,0,0,1-.807-1.656,4.461,4.461,0,0,0-2.97-4.087,2.242,2.242,0,0,1-1.1-3.373,4.461,4.461,0,0,0,0-5.052,2.242,2.242,0,0,1,1.1-3.373,4.461,4.461,0,0,0,2.97-4.087,2.242,2.242,0,0,1,2.869-2.085,4.461,4.461,0,0,0,4.8-1.561,2.242,2.242,0,0,1,3.547,0,4.461,4.461,0,0,0,4.8,1.561,2.242,2.242,0,0,1,2.869,2.085,4.461,4.461,0,0,0,2.97,4.087,2.242,2.242,0,0,1,1.1,3.373A4.461,4.461,0,0,0,322.992,183.779Z" transform="translate(-249.863 -139.895)" fill="#7e3c1b"/>
          <path id="Trazado_895099" data-name="Trazado 895099" d="M347.818,213.583a9.4,9.4,0,1,0,9.4,9.4A9.414,9.414,0,0,0,347.818,213.583Zm0,16.564a7.16,7.16,0,1,1,7.16-7.16A7.168,7.168,0,0,1,347.818,230.147Z" transform="translate(-288.201 -181.628)" fill="#7e3c1b"/>
        </g>
      </g>
    </g>
  </g>
</svg>
