<svg xmlns="http://www.w3.org/2000/svg" xmlns:xlink="http://www.w3.org/1999/xlink" width="121" height="121" viewBox="0 0 121 121">
  <defs>
    <clipPath id="clip-path">
      <rect id="Rectángulo_400938" data-name="Rectángulo 400938" width="121" height="121" transform="translate(0 0)" fill="none"/>
    </clipPath>
    <clipPath id="clip-path-2">
      <rect id="Rectángulo_401073" data-name="Rectángulo 401073" width="92.219" height="41.532" fill="#efb499"/>
    </clipPath>
  </defs>
  <g id="Grupo_1104645" data-name="Grupo 1104645" transform="translate(1876 10330.578)">
    <g id="Grupo_1104447" data-name="Grupo 1104447" transform="translate(-2263.668 -16343.578)">
      <rect id="Rectángulo_401103" data-name="Rectángulo 401103" width="121" height="121" transform="translate(387.668 6013)" fill="none"/>
      <g id="Grupo_1099348" data-name="Grupo 1099348" transform="translate(387.668 6013)">
        <g id="Grupo_1099282" data-name="Grupo 1099282">
          <g id="Grupo_1099281" data-name="Grupo 1099281" clip-path="url(#clip-path-2)">
            <path id="Trazado_873375" data-name="Trazado 873375" d="M74.8,9.1c-4.139,0-6.28-2.03-8.17-3.821-1.855-1.756-3.452-3.274-6.792-3.274s-4.937,1.517-6.792,3.274C51.161,7.072,49.023,9.1,44.881,9.1s-6.28-2.03-8.169-3.821C34.857,3.525,33.26,2.007,29.92,2.007s-4.937,1.517-6.789,3.274C21.241,7.072,19.1,9.1,14.962,9.1S8.679,7.072,6.789,5.281C4.937,3.525,3.34,2.007,0,2.007V0C4.139,0,6.28,2.033,8.17,3.821c1.855,1.759,3.452,3.274,6.792,3.274S19.9,5.58,21.75,3.824C23.637,2.033,25.781,0,29.92,0s6.283,2.033,8.17,3.821c1.855,1.759,3.452,3.274,6.792,3.274s4.937-1.514,6.792-3.274C53.56,2.033,55.7,0,59.843,0s6.283,2.033,8.17,3.821C69.867,5.58,71.464,7.094,74.8,7.094S79.742,5.58,81.6,3.821C83.483,2.033,85.624,0,89.766,0V2.007c-3.34,0-4.937,1.517-6.792,3.274C81.084,7.072,78.943,9.1,74.8,9.1" transform="translate(2.453 32.43)" fill="#efb499"/>
            <path id="Trazado_873376" data-name="Trazado 873376" d="M74.8,9.1c-4.139,0-6.283-2.03-8.17-3.824-1.855-1.756-3.452-3.27-6.792-3.27s-4.937,1.514-6.792,3.27C51.164,7.072,49.023,9.1,44.881,9.1s-6.283-2.03-8.17-3.824c-1.855-1.756-3.452-3.27-6.792-3.27s-4.937,1.517-6.789,3.27C21.241,7.072,19.1,9.1,14.962,9.1S8.679,7.072,6.789,5.278C4.937,3.522,3.34,2.007,0,2.007V0C4.139,0,6.283,2.03,8.17,3.821c1.855,1.759,3.452,3.274,6.792,3.274S19.9,5.58,21.75,3.821C23.637,2.03,25.781,0,29.92,0S36.2,2.03,38.093,3.821c1.852,1.759,3.449,3.274,6.789,3.274s4.937-1.514,6.792-3.274C53.56,2.03,55.7,0,59.843,0s6.283,2.03,8.17,3.821C69.867,5.58,71.464,7.094,74.8,7.094S79.742,5.58,81.6,3.821C83.486,2.03,85.627,0,89.769,0V2.007c-3.34,0-4.94,1.517-6.8,3.27C81.084,7.072,78.943,9.1,74.8,9.1" transform="translate(1.635 21.62)" fill="#efb499"/>
            <path id="Trazado_873377" data-name="Trazado 873377" d="M74.8,9.1c-4.139,0-6.283-2.03-8.169-3.824-1.855-1.756-3.452-3.27-6.792-3.27s-4.937,1.514-6.792,3.27C51.164,7.072,49.02,9.1,44.881,9.1s-6.283-2.03-8.17-3.824c-1.855-1.756-3.452-3.27-6.792-3.27s-4.937,1.517-6.789,3.27C21.241,7.072,19.1,9.1,14.962,9.1S8.678,7.072,6.789,5.278C4.937,3.522,3.34,2.007,0,2.007V0C4.139,0,6.283,2.03,8.169,3.821c1.851,1.759,3.452,3.274,6.792,3.274S19.9,5.58,21.75,3.821C23.637,2.03,25.781,0,29.92,0S36.2,2.03,38.093,3.821c1.852,1.759,3.449,3.274,6.789,3.274s4.937-1.514,6.792-3.274C53.56,2.03,55.7,0,59.843,0s6.283,2.03,8.17,3.821C69.867,5.58,71.464,7.094,74.8,7.094S79.742,5.58,81.6,3.821C83.486,2.03,85.624,0,89.769,0V2.007c-3.34,0-4.941,1.517-6.8,3.27C81.084,7.072,78.943,9.1,74.8,9.1" transform="translate(0.818 10.81)" fill="#efb499"/>
            <path id="Trazado_873378" data-name="Trazado 873378" d="M74.8,9.1c-4.139,0-6.28-2.03-8.17-3.821-1.855-1.756-3.452-3.27-6.792-3.27s-4.937,1.514-6.789,3.27C51.164,7.069,49.023,9.1,44.881,9.1s-6.28-2.03-8.169-3.821c-1.855-1.756-3.452-3.27-6.792-3.27s-4.937,1.514-6.789,3.267C21.245,7.069,19.1,9.1,14.962,9.1S8.678,7.069,6.789,5.278C4.937,3.522,3.34,2.007,0,2.007V0C4.139,0,6.283,2.03,8.17,3.821c1.855,1.756,3.452,3.27,6.792,3.27S19.9,5.577,21.75,3.821C23.64,2.03,25.781,0,29.92,0s6.28,2.03,8.173,3.821c1.852,1.756,3.449,3.27,6.789,3.27s4.937-1.514,6.792-3.27C53.563,2.03,55.7,0,59.843,0s6.28,2.03,8.17,3.821c1.855,1.756,3.452,3.27,6.792,3.27s4.937-1.514,6.792-3.27C83.486,2.03,85.627,0,89.769,0V2.007c-3.344,0-4.941,1.514-6.8,3.27C81.084,7.069,78.943,9.1,74.8,9.1" transform="translate(0 0.003)" fill="#efb499"/>
          </g>
        </g>
      </g>
      <circle id="Elipse_11504" data-name="Elipse 11504" cx="50.5" cy="50.5" r="50.5" transform="translate(402.668 6031)" fill="#ffce73"/>
      <circle id="Elipse_11503" data-name="Elipse 11503" cx="52.5" cy="52.5" r="52.5" transform="translate(395.668 6021)" fill="#f3f9ff"/>
    </g>
    <g id="Grupo_1104449" data-name="Grupo 1104449" transform="translate(-1850.059 -10304.774)">
      <rect id="Rectángulo_401104" data-name="Rectángulo 401104" width="68" height="69" transform="translate(0.059 -0.804)" fill="none"/>
      <g id="Grupo_1104639" data-name="Grupo 1104639" transform="translate(-41.995 -3.169)">
        <g id="Grupo_1104634" data-name="Grupo 1104634" transform="translate(54.52 23.64)">
          <path id="Trazado_895879" data-name="Trazado 895879" d="M143.169,168.863l-45.983-.7V138.682a1.067,1.067,0,0,1,1.065-1.065H142.1a1.067,1.067,0,0,1,1.065,1.065Z" transform="translate(-95.793 -137.617)" fill="#eff4f7" fill-rule="evenodd"/>
          <path id="Trazado_895880" data-name="Trazado 895880" d="M190.227,368.6l-6.179,17.748h-3.3l6-17.238Zm5.341,0,6.179,17.748h3.3l-6-17.238Z" transform="translate(-168.513 -338.626)" fill="#8d9ca8" fill-rule="evenodd"/>
          <path id="Trazado_895881" data-name="Trazado 895881" d="M86.968,361.382H134.7a.521.521,0,0,0,.519-.519V358.9a.521.521,0,0,0-.519-.519H86.968a.521.521,0,0,0-.519.519v1.962A.521.521,0,0,0,86.968,361.382Z" transform="translate(-86.449 -329.732)" fill="#b4d2d7" fill-rule="evenodd"/>
          <path id="Trazado_895882" data-name="Trazado 895882" d="M196.853,440.856a1.034,1.034,0,1,1,0,2.068H172.12a1.034,1.034,0,1,1,0-2.068Z" transform="translate(-160.102 -401.502)" fill="#8d9ca8" fill-rule="evenodd"/>
        </g>
        <g id="Grupo_1104636" data-name="Grupo 1104636" transform="translate(65.922 25.633)">
          <path id="Trazado_895883" data-name="Trazado 895883" d="M174.609,165.255a1.038,1.038,0,0,1,1.468-1.468l.609.609.609-.609a1.038,1.038,0,0,1,1.468,1.468l-.609.609.609.609a1.038,1.038,0,0,1-1.468,1.468l-.609-.609-.609.609a1.038,1.038,0,0,1-1.468-1.468l.609-.609Zm23.249-10.514a1.038,1.038,0,0,1,1.468-1.468l.609.609.609-.609a1.038,1.038,0,0,1,1.468,1.468l-.609.609.609.609a1.038,1.038,0,1,1-1.468,1.468l-.609-.609-.609.609a1.038,1.038,0,0,1-1.468-1.468l.609-.609Zm-19.152,19.054a1.038,1.038,0,0,1,1.468-1.468l.609.609.609-.609a1.038,1.038,0,0,1,1.468,1.468l-.609.609.609.609a1.038,1.038,0,1,1-1.468,1.468l-.609-.609-.609.609a1.038,1.038,0,0,1-1.468-1.468l.609-.609Z" transform="translate(-174.305 -152.969)" fill="#fecab2" fill-rule="evenodd"/>
          <path id="Trazado_895884" data-name="Trazado 895884" d="M208.633,192.675A1.035,1.035,0,0,1,210,191.118l2.156,1.887a1.035,1.035,0,0,1,.1,1.46,1.054,1.054,0,0,1-.106.1L210,196.45a1.035,1.035,0,1,1-1.363-1.557l.081-.071h-3.647a4.994,4.994,0,0,1,0-9.988H209A2.918,2.918,0,0,0,209,179H194.094a1.038,1.038,0,0,1,0-2.076H209a4.994,4.994,0,0,1,0,9.988h-3.935a2.918,2.918,0,0,0,0,5.835h3.647Z" transform="translate(-190.623 -173.814)" fill="#64b5f6" fill-rule="evenodd"/>
          <g id="Grupo_1104635" data-name="Grupo 1104635" transform="translate(0.234 1.684)">
            <circle id="Elipse_11568" data-name="Elipse 11568" cx="2.463" cy="2.463" r="2.463" fill="#64b5f6"/>
            <path id="Trazado_895885" data-name="Trazado 895885" d="M357.569,281.594a1.035,1.035,0,1,1,1.468,1.46l-3.328,3.36a1.035,1.035,0,0,1-1.456.012l-1.857-1.81a1.035,1.035,0,0,1,1.444-1.484l1.122,1.094Z" transform="translate(-329.245 -266.32)" fill="#64b5f6" fill-rule="evenodd"/>
          </g>
        </g>
        <g id="Grupo_1104638" data-name="Grupo 1104638" transform="translate(49.758 6.643)">
          <g id="Grupo_1104637" data-name="Grupo 1104637" transform="translate(0 4.624)">
            <path id="Trazado_895886" data-name="Trazado 895886" d="M62.686,100.148a3.433,3.433,0,0,1-1.253,4.675L54.889,108.6a3.422,3.422,0,0,1-3.422-5.928L58.011,98.9A3.432,3.432,0,0,1,62.686,100.148Z" transform="translate(-49.758 -91.15)" fill="#b4d2d7" fill-rule="evenodd"/>
            <path id="Trazado_895887" data-name="Trazado 895887" d="M113.289,157.8l-2.65,1.873,3.943,6.829a.794.794,0,0,0,1.082.29l1.427-.824a.794.794,0,0,0,.29-1.082Z" transform="translate(-102.738 -142.81)" fill="#b4d2d7" fill-rule="evenodd"/>
            <circle id="Elipse_11569" data-name="Elipse 11569" cx="3.647" cy="3.647" r="3.647" transform="matrix(0.16, -0.987, 0.987, 0.16, 17.08, 7.199)" fill="#b4d2d7"/>
          </g>
          <path id="Trazado_895888" data-name="Trazado 895888" d="M69.027,26.555l-4.084,2.358a1.646,1.646,0,0,0-.6,2.245l3.506,6.073a1.646,1.646,0,0,0,2.245.6l4.084-2.358,12.759-2.816a1.1,1.1,0,0,0,.628-1.6l-8.023-13.9a1.1,1.1,0,0,0-1.7-.254Z" transform="translate(-62.258 -15.324)" fill="#ffda2d" fill-rule="evenodd"/>
          <path id="Trazado_895889" data-name="Trazado 895889" d="M69.027,93.188l-4.084,2.358a1.646,1.646,0,0,0-.6,2.245l3.506,6.073a1.646,1.646,0,0,0,2.245.6l4.084-2.358Z" transform="translate(-62.258 -81.956)" fill="#7d3a1b" fill-rule="evenodd"/>
          <path id="Trazado_895890" data-name="Trazado 895890" d="M157.161,11.609a1.889,1.889,0,0,1,2.573.689l8.252,14.293a1.883,1.883,0,1,1-3.262,1.883l-8.252-14.293A1.889,1.889,0,0,1,157.161,11.609Z" transform="translate(-142.404 -10.746)" fill="#7d3a1b" fill-rule="evenodd"/>
          <path id="Trazado_895891" data-name="Trazado 895891" d="M236.86,10.021a1.036,1.036,0,1,1,1.038,1.792l-2.088,1.206a1.036,1.036,0,1,1-1.038-1.792Zm1.7,4.282a1.038,1.038,0,1,1,0,2.076h-2.411a1.038,1.038,0,1,1,0-2.076Zm-5.32-7.143-1.206,2.088a1.036,1.036,0,0,0,1.793,1.038L235.037,8.2a1.036,1.036,0,0,0-1.792-1.038Z" transform="translate(-208.261 -6.643)" fill="#ffda2d" fill-rule="evenodd"/>
        </g>
      </g>
    </g>
  </g>
</svg>
