<svg xmlns="http://www.w3.org/2000/svg" xmlns:xlink="http://www.w3.org/1999/xlink" width="190" height="134" viewBox="0 0 190 134">
  <defs>
    <clipPath id="clip-path">
      <rect id="Rect치ngulo_402355" data-name="Rect치ngulo 402355" width="87" height="87" transform="translate(342 951)" fill="#fff" stroke="#707070" stroke-width="1"/>
    </clipPath>
  </defs>
  <g id="Grupo_1102652" data-name="Grupo 1102652" transform="translate(-330 -7019)">
    <rect id="Rect치ngulo_402215" data-name="Rect치ngulo 402215" width="190" height="134" transform="translate(330 7019)" fill="none"/>
    <g id="Grupo_1100287" data-name="Grupo 1100287" transform="translate(16 -507)">
      <g id="Grupo_156312" data-name="Grupo 156312" transform="translate(344 7528)">
        <path id="Elipse_5845" data-name="Elipse 5845" d="M65.5,0A65.5,65.5,0,1,1,0,65.5,65.5,65.5,0,0,1,65.5,0Z" transform="translate(0 0)" fill="#ffce73"/>
      </g>
      <g id="Grupo_1098715" data-name="Grupo 1098715" transform="translate(24 6599)" clip-path="url(#clip-path)">
        <path id="Trazado_895077" data-name="Trazado 895077" d="M59.859,81.941a1.1,1.1,0,0,1-1.321.838,35.608,35.608,0,0,1,1.614-69.8l-2.559-2a1.106,1.106,0,1,1,1.361-1.744l4.624,3.608A1.106,1.106,0,0,1,63.77,14.4L60.162,19.02a1.106,1.106,0,1,1-1.745-1.361l1.929-2.473A33.255,33.255,0,0,0,32.959,48.038,33.6,33.6,0,0,0,59.021,80.619a1.106,1.106,0,0,1,.838,1.321Zm34.157-56.3A35.735,35.735,0,0,0,74.156,13.3a1.106,1.106,0,0,0-.483,2.159A33.6,33.6,0,0,1,99.734,48.038,33.256,33.256,0,0,1,72.347,80.89l1.929-2.473a1.106,1.106,0,1,0-1.745-1.361l-3.608,4.624a1.106,1.106,0,0,0,.192,1.553l4.624,3.608A1.106,1.106,0,1,0,75.1,85.1l-2.559-2A35.606,35.606,0,0,0,94.016,25.636ZM67.453,63.819V74.243a1.106,1.106,0,1,1-2.213,0V63.819l-2.305-1.331A15.7,15.7,0,0,1,40.316,48.725a1.106,1.106,0,0,1,.574-.994A15.7,15.7,0,0,1,64.131,60.623l1.109.64V52.72a18.838,18.838,0,0,1,.626-31.833,1.106,1.106,0,0,1,1.148,0,18.838,18.838,0,0,1,.439,31.955v8.421l1.109-.64A15.7,15.7,0,0,1,91.8,47.731a1.106,1.106,0,0,1,.574.994A15.674,15.674,0,0,1,69.758,62.488Zm3.483-4.566,8.97-5.179a1.106,1.106,0,0,1,1.106,1.916L72.154,61.1A13.493,13.493,0,0,0,90.133,49.358a13.494,13.494,0,0,0-19.2,9.895ZM60.539,61.1,51.681,55.99a1.106,1.106,0,0,1,1.106-1.916l8.97,5.179a13.494,13.494,0,0,0-19.2-9.895A13.493,13.493,0,0,0,60.539,61.1Zm4.7-11.114V37.057a1.106,1.106,0,0,1,2.213,0V50.136A16.631,16.631,0,0,0,66.44,23.143a16.633,16.633,0,0,0-1.2,26.847Z" transform="translate(318.907 946.961)" fill="#7d3a1b"/>
      </g>
    </g>
  </g>
</svg>
