<svg xmlns="http://www.w3.org/2000/svg" width="190" height="138" viewBox="0 0 190 138">
  <g id="Grupo_1104197" data-name="Grupo 1104197" transform="translate(-1125 -1893)">
    <rect id="Rectángulo_405471" data-name="Rectángulo 405471" width="190" height="138" transform="translate(1125 1893)" fill="none"/>
    <g id="Grupo_1103962" data-name="Grupo 1103962" transform="translate(1156 1896.992)">
      <path id="Trazado_894958" data-name="Trazado 894958" d="M98.356,11.088a4,4,0,0,1,.889.222l26.717,9.536a4.43,4.43,0,0,1,2.956,4.179v86.647a4.445,4.445,0,0,1-5.935,4.179l-23.739-8.469a4.445,4.445,0,0,0-2.89-.022l-30.5,10.158a4.632,4.632,0,0,1-2.8,0l-30.5-10.158a4.445,4.445,0,0,0-2.89.022L5.935,115.857A4.445,4.445,0,0,1,0,111.671V25.025a4.43,4.43,0,0,1,2.956-4.179L29.674,11.31a4.445,4.445,0,0,1,2.89-.044l27.451,8.569Z" transform="translate(0 12.274)" fill="#e2f5f1"/>
      <path id="Trazado_894959" data-name="Trazado 894959" d="M27.227,15.27V92.955a13.054,13.054,0,0,0-4.423.778L7.978,99.023A2.223,2.223,0,0,1,5,96.933V24.472a2.236,2.236,0,0,1,1.467-2.089l19.049-6.8a5.061,5.061,0,0,1,1.712-.311Z" transform="translate(6.114 17.438)" fill="#778aeb"/>
      <path id="Trazado_894960" data-name="Trazado 894960" d="M48.341,16.432v86.8a2.505,2.505,0,0,1-.711-.111L19.268,93.65a13.559,13.559,0,0,0-4.223-.689H15V15.276a4.8,4.8,0,0,1,1.934.267l3.956,1.311Z" transform="translate(18.341 17.432)" fill="#778aeb"/>
      <path id="Trazado_894961" data-name="Trazado 894961" d="M63.341,15.243V92.994H63.3a13.559,13.559,0,0,0-4.223.689l-28.362,9.469a2.505,2.505,0,0,1-.711.111v-86.8l30.1-.445,1.667-.556a4.245,4.245,0,0,1,1.578-.222Z" transform="translate(36.682 17.399)" fill="#778aeb"/>
      <path id="Trazado_894962" data-name="Trazado 894962" d="M67.227,24.509V96.97a2.223,2.223,0,0,1-2.978,2.089l-14.8-5.29A13.277,13.277,0,0,0,45,92.991V15.24a4.088,4.088,0,0,1,1.378.244L65.76,22.419a2.236,2.236,0,0,1,1.467,2.089Z" transform="translate(55.023 17.402)" fill="#778aeb"/>
      <path id="Trazado_894963" data-name="Trazado 894963" d="M55.292,15.243V41.382H41.8a5.228,5.228,0,0,1-4.6-7.691l2.845-5.29,9.247-12.336,2.756-.044,1.667-.556A4.246,4.246,0,0,1,55.292,15.243Z" transform="translate(44.731 17.399)" fill="#85dd91"/>
      <path id="Trazado_894964" data-name="Trazado 894964" d="M67.227,24.509V59.161a77.862,77.862,0,0,1-15.87,35.3l-1.912-.689A13.276,13.276,0,0,0,45,92.991V50.27l5.557,2.089a4.543,4.543,0,0,0,5.49-3.579,4.608,4.608,0,0,0-3.49-5.09L45,41.379V15.24a4.088,4.088,0,0,1,1.378.244L65.76,22.419A2.236,2.236,0,0,1,67.227,24.509Z" transform="translate(55.023 17.402)" fill="#6ac579"/>
      <path id="Trazado_894965" data-name="Trazado 894965" d="M58.45,31V73.721h-.044a13.559,13.559,0,0,0-4.223.689L49.6,75.944h-.044V57.673a4.548,4.548,0,0,0-4.445-4.445A11.249,11.249,0,0,1,34,42.514,11.518,11.518,0,0,1,45.647,31Z" transform="translate(41.573 36.672)" fill="#85dd91"/>
      <path id="Trazado_894966" data-name="Trazado 894966" d="M74.905,72.3a12.1,12.1,0,0,0-9.869-10.558l-4.468-.822L59.1,60.652A14.792,14.792,0,0,1,47.543,49.293,14.448,14.448,0,0,0,32.184,37.735l-4.957.422-3.868.311a14.368,14.368,0,0,1-9.2-2.378L5,30V78.923a2.223,2.223,0,0,0,2.978,2.089L22.8,75.722a13.054,13.054,0,0,1,4.423-.778h.044a13.559,13.559,0,0,1,4.223.689L59.857,85.1a2.332,2.332,0,0,0,1.423,0l14.514-4.846Z" transform="translate(6.114 35.449)" fill="#85dd91"/>
      <path id="Trazado_894967" data-name="Trazado 894967" d="M48.341,56.691V80.985a2.505,2.505,0,0,1-.711-.111L19.268,71.405a13.559,13.559,0,0,0-4.223-.689H15V33.93l4.957-.422A14.448,14.448,0,0,1,35.316,45.066,14.792,14.792,0,0,0,46.874,56.424Z" transform="translate(18.341 39.677)" fill="#6ac579"/>
      <path id="Trazado_894968" data-name="Trazado 894968" d="M50.369,16.543V29.991l-1.912,6.335a7.053,7.053,0,0,1-8.78,4.734l-15.47-4.646-3.156.778a7.033,7.033,0,0,1-8.135-3.979L7.47,20.966v-.022L22.5,15.587a5.061,5.061,0,0,1,1.712-.311,4.8,4.8,0,0,1,1.934.267L30.1,16.854Z" transform="translate(9.134 17.432)" fill="#85dd91"/>
      <path id="Trazado_894969" data-name="Trazado 894969" d="M41.162,16.543V29.991L39.25,36.325a7.053,7.053,0,0,1-8.78,4.734L15,36.414V15.276a4.8,4.8,0,0,1,1.934.267l3.956,1.311Z" transform="translate(18.341 17.432)" fill="#6ac579"/>
      <path id="Trazado_894970" data-name="Trazado 894970" d="M43.362,15.62c-8-3.8-17.051-2.69-25.61-10.382a.92.92,0,0,0-1.534.667C15.64,12.286,15.084,32.762,30.4,41.1a14.977,14.977,0,0,0,16.539-1.867Z" transform="translate(19.564 4.885)" fill="#5db269"/>
      <path id="Trazado_894971" data-name="Trazado 894971" d="M28.556,38.123a17.233,17.233,0,0,0,23.561,7.468C70.305,35.3,69.63,10.01,68.954,2.115a1.1,1.1,0,0,0-1.829-.825C56.822,10.928,45.933,9.4,36.349,14.3a18.976,18.976,0,0,0-7.793,23.826Z" transform="translate(33.032)" fill="#6ac579"/>
    </g>
  </g>
</svg>
