<svg xmlns="http://www.w3.org/2000/svg" xmlns:xlink="http://www.w3.org/1999/xlink" width="190" height="134" viewBox="0 0 190 134">
  <defs>
    <clipPath id="clip-path">
      <rect id="Rect치ngulo_402355" data-name="Rect치ngulo 402355" width="87" height="87" transform="translate(342 951)" fill="#fff" stroke="#707070" stroke-width="1"/>
    </clipPath>
  </defs>
  <g id="Grupo_1102652" data-name="Grupo 1102652" transform="translate(-330 -7019)">
    <rect id="Rect치ngulo_402215" data-name="Rect치ngulo 402215" width="190" height="134" transform="translate(330 7019)" fill="none"/>
    <g id="Grupo_1100287" data-name="Grupo 1100287" transform="translate(16 -507)">
      <g id="Grupo_156312" data-name="Grupo 156312" transform="translate(344 7528)">
        <path id="Elipse_5845" data-name="Elipse 5845" d="M65.5,0A65.5,65.5,0,1,1,0,65.5,65.5,65.5,0,0,1,65.5,0Z" transform="translate(0 0)" fill="#ffce73"/>
      </g>
      <g id="Enmascarar_grupo_1098715" data-name="Enmascarar grupo 1098715" transform="translate(24 6599)" clip-path="url(#clip-path)">
        <g id="Grupo_1104051" data-name="Grupo 1104051" transform="translate(346.525 954)">
          <g id="email_marketing" transform="translate(3.339 1)">
            <g id="Grupo_1104050" data-name="Grupo 1104050">
              <g id="Grupo_1104037" data-name="Grupo 1104037" transform="translate(2.318 27.54)">
                <path id="Trazado_895078" data-name="Trazado 895078" d="M6.437,30.678a1.265,1.265,0,0,1-.8-2.247,86.128,86.128,0,0,1,8.509-5.488,1.265,1.265,0,0,1,1.291,2.176A86.13,86.13,0,0,0,7.233,30.4a1.258,1.258,0,0,1-.8.282Z" transform="translate(-5.171 -22.765)" fill="#7d3a1b"/>
              </g>
              <g id="Grupo_1104038" data-name="Grupo 1104038" transform="translate(40.15 32.912)">
                <path id="Trazado_895079" data-name="Trazado 895079" d="M60.309,70.733a1.258,1.258,0,0,1-.846-.325L35.49,48.851a1.265,1.265,0,0,1,.04-1.916L59.305,27.3a1.268,1.268,0,0,1,1.446-.116c2.183,1.28,2.957,4.016,2.957,5.97v31.6a7.669,7.669,0,0,1-2.55,5.647,1.263,1.263,0,0,1-.85.329ZM38.275,47.953,60.219,67.687a4.959,4.959,0,0,0,.96-2.927v-31.6a5.16,5.16,0,0,0-1.06-3.243Z" transform="translate(-35.071 -27.011)" fill="#7d3a1b"/>
              </g>
              <g id="Grupo_1104039" data-name="Grupo 1104039" transform="translate(3.038 52.548)">
                <path id="Trazado_895080" data-name="Trazado 895080" d="M63.333,68.431H10.857A8.351,8.351,0,0,1,6.32,67.1a1.265,1.265,0,0,1-.162-2L30.05,43.541A1.263,1.263,0,0,1,31.7,43.5l5.186,4.277.208.175c.063-.054.132-.113.206-.175l6.011-4.963a1.267,1.267,0,0,1,1.652.035L68.938,64.411a1.264,1.264,0,0,1,0,1.878A8.332,8.332,0,0,1,63.333,68.431ZM9.283,65.689a5.948,5.948,0,0,0,1.574.211H63.333a5.884,5.884,0,0,0,2.733-.667L44.083,45.464l-5.17,4.269c-.158.132-.288.243-.4.338a1.8,1.8,0,0,1-2.843,0c-.109-.094-.238-.206-.4-.338l-4.344-3.582Z" transform="translate(-5.74 -42.53)" fill="#7d3a1b"/>
              </g>
              <g id="Grupo_1104040" data-name="Grupo 1104040" transform="translate(0 32.923)">
                <path id="Trazado_895081" data-name="Trazado 895081" d="M7.641,71.421a1.271,1.271,0,0,1-.685-.2,7.7,7.7,0,0,1-3.617-6.463v-31.6A7.4,7.4,0,0,1,6.125,27.3a1.267,1.267,0,0,1,1.6.006L32.338,47.619a1.266,1.266,0,0,1,.042,1.916L8.489,71.1A1.267,1.267,0,0,1,7.641,71.421Zm-.649-41.44a4.841,4.841,0,0,0-1.121,3.172v31.6a5.094,5.094,0,0,0,1.7,3.758L29.6,48.638Z" transform="translate(-3.339 -27.019)" fill="#7d3a1b"/>
              </g>
              <g id="Grupo_1104041" data-name="Grupo 1104041" transform="translate(10.675 9.141)">
                <path id="Trazado_895082" data-name="Trazado 895082" d="M57.394,41.429a1.264,1.264,0,0,1-1.265-1.265V30.226a1.265,1.265,0,1,1,2.531,0v9.938A1.264,1.264,0,0,1,57.394,41.429Zm-44.353,0a1.265,1.265,0,0,1-1.265-1.265V11.658A3.437,3.437,0,0,1,15.21,8.224H38.594a1.265,1.265,0,1,1,0,2.531H15.21a.916.916,0,0,0-.9.9v28.5A1.264,1.264,0,0,1,13.041,41.429Z" transform="translate(-11.776 -8.224)" fill="#7d3a1b"/>
              </g>
              <g id="Grupo_1104042" data-name="Grupo 1104042" transform="translate(45.304 0.09)">
                <path id="Trazado_895083" data-name="Trazado 895083" d="M50.042,33.391a3.813,3.813,0,0,1-3.648-2.741L39.3,6.2A3.8,3.8,0,0,1,41.885,1.49l.915-.266A3.807,3.807,0,0,1,47.51,3.81l7.1,24.46a3.808,3.808,0,0,1-2.594,4.707l-.912.266a3.89,3.89,0,0,1-1.059.148ZM43.857,3.6a1.215,1.215,0,0,0-.349.051l-.917.266h0a1.271,1.271,0,0,0-.863,1.568l7.1,24.46a1.273,1.273,0,0,0,1.572.863l.914-.266a1.274,1.274,0,0,0,.868-1.572l-7.1-24.454A1.281,1.281,0,0,0,43.857,3.6Zm-1.62-.9h.013Z" transform="translate(-39.144 -1.071)" fill="#7d3a1b"/>
              </g>
              <g id="Grupo_1104043" data-name="Grupo 1104043" transform="translate(57.396 29.085)">
                <path id="Trazado_895084" data-name="Trazado 895084" d="M56.494,30.345a1.261,1.261,0,0,1-.639-.173l-6.529-3.829a1.266,1.266,0,0,1,1.28-2.184l6.529,3.829a1.266,1.266,0,0,1-.642,2.357Z" transform="translate(-48.701 -23.986)" fill="#7d3a1b"/>
              </g>
              <g id="Grupo_1104044" data-name="Grupo 1104044" transform="translate(25.193 3.595)">
                <path id="Trazado_895085" data-name="Trazado 895085" d="M28.292,31.609a1.266,1.266,0,0,1-.042-2.531L51.784,28.3a1.265,1.265,0,0,1,.084,2.529l-23.533.779h-.042ZM24.517,18.592a1.265,1.265,0,0,1-.657-2.348L44.072,4.024a1.266,1.266,0,0,1,1.31,2.166L25.17,18.41A1.25,1.25,0,0,1,24.517,18.592Z" transform="translate(-23.25 -3.841)" fill="#7d3a1b"/>
              </g>
              <g id="Grupo_1104045" data-name="Grupo 1104045" transform="translate(28.971 28.623)">
                <path id="Trazado_895086" data-name="Trazado 895086" d="M34.309,41.776a4.4,4.4,0,0,1-4.2-3.158L26.285,25.449a1.265,1.265,0,0,1,1.173-1.617l6.418-.21a1.256,1.256,0,0,1,1.256.912l3.382,11.64a4.384,4.384,0,0,1-4.206,5.6ZM29.17,26.307l3.367,11.6a1.848,1.848,0,1,0,3.548-1.034L32.978,26.182Z" transform="translate(-26.235 -23.621)" fill="#7d3a1b"/>
              </g>
              <g id="Grupo_1104046" data-name="Grupo 1104046" transform="translate(18.628 15.815)">
                <path id="Trazado_895087" data-name="Trazado 895087" d="M24.754,30.014a5.188,5.188,0,0,1-4.964-3.729L18.266,21.04a5.181,5.181,0,0,1,3.524-6.4h0l3.749-1.087a1.269,1.269,0,0,1,1.568.863L30.8,27.153a1.265,1.265,0,0,1-.863,1.568l-3.745,1.086a5.113,5.113,0,0,1-1.44.208ZM22.5,17.066a2.645,2.645,0,0,0-1.8,3.27l1.525,5.246a2.649,2.649,0,0,0,3.268,1.8l2.531-.734-2.99-10.311Z" transform="translate(-18.061 -13.499)" fill="#7d3a1b"/>
              </g>
              <g id="Grupo_1104047" data-name="Grupo 1104047" transform="translate(63.402 10.186)">
                <path id="Trazado_895088" data-name="Trazado 895088" d="M54.713,13.022a1.266,1.266,0,0,1-.352-2.481L59.334,9.1a1.265,1.265,0,1,1,.7,2.431l-4.973,1.441A1.3,1.3,0,0,1,54.713,13.022Z" transform="translate(-53.448 -9.05)" fill="#7d3a1b"/>
              </g>
              <g id="Grupo_1104048" data-name="Grupo 1104048" transform="translate(61.342)">
                <path id="Trazado_895089" data-name="Trazado 895089" d="M53.083,8.064a1.265,1.265,0,0,1-1.107-1.875l2.5-4.534a1.265,1.265,0,0,1,2.217,1.22l-2.5,4.534a1.263,1.263,0,0,1-1.11.655Z" transform="translate(-51.819 -1)" fill="#7d3a1b"/>
              </g>
              <g id="Grupo_1104049" data-name="Grupo 1104049" transform="translate(65.461 18.725)">
                <path id="Trazado_895090" data-name="Trazado 895090" d="M60.875,20.825a1.253,1.253,0,0,1-.607-.157l-4.537-2.5a1.265,1.265,0,0,1,1.217-2.218l4.537,2.5a1.266,1.266,0,0,1-.61,2.375Z" transform="translate(-55.074 -15.799)" fill="#7d3a1b"/>
              </g>
            </g>
          </g>
        </g>
      </g>
    </g>
  </g>
</svg>
