<svg xmlns="http://www.w3.org/2000/svg" xmlns:xlink="http://www.w3.org/1999/xlink" width="139" height="139" viewBox="0 0 139 139">
  <defs>
    <clipPath id="clip-path">
      <rect id="Rectángulo_400938" data-name="Rectángulo 400938" width="139" height="139" transform="translate(-0.043 -0.043)" fill="none"/>
    </clipPath>
    <clipPath id="clip-path-2">
      <rect id="Rectángulo_401073" data-name="Rectángulo 401073" width="105.872" height="47.68" fill="#7d3a1b"/>
    </clipPath>
  </defs>
  <g id="Grupo_1103895" data-name="Grupo 1103895" transform="translate(-731 -4198.881)">
    <g id="Grupo_1099574" data-name="Grupo 1099574" transform="translate(466.043 -1085.076)">
      <g id="Grupo_1099379" data-name="Grupo 1099379" transform="translate(265 5284)">
        <rect id="Rectángulo_401103" data-name="Rectángulo 401103" width="139" height="139" transform="translate(-0.043 -0.043)" fill="none"/>
        <g id="Grupo_1099348" data-name="Grupo 1099348" transform="translate(0)">
          <g id="Grupo_1099282" data-name="Grupo 1099282">
            <g id="Grupo_1099281" data-name="Grupo 1099281" clip-path="url(#clip-path-2)">
              <path id="Trazado_873375" data-name="Trazado 873375" d="M85.879,10.449c-4.752,0-7.21-2.33-9.379-4.386C74.371,4.047,72.538,2.3,68.7,2.3s-5.668,1.742-7.8,3.758c-2.17,2.056-4.624,4.386-9.379,4.386s-7.21-2.33-9.379-4.386C40.018,4.047,38.184,2.3,34.349,2.3s-5.668,1.742-7.794,3.758c-2.17,2.056-4.627,4.386-9.379,4.386S9.963,8.119,7.794,6.063C5.668,4.047,3.835,2.3,0,2.3V0C4.752,0,7.21,2.334,9.379,4.386c2.129,2.02,3.963,3.758,7.8,3.758s5.668-1.738,7.794-3.755C27.136,2.334,29.6,0,34.349,0s7.213,2.334,9.379,4.386c2.129,2.02,3.963,3.758,7.8,3.758s5.668-1.738,7.8-3.758C61.489,2.334,63.951,0,68.7,0s7.213,2.334,9.379,4.386c2.129,2.02,3.963,3.758,7.8,3.758s5.668-1.738,7.8-3.758C95.843,2.334,98.3,0,103.056,0V2.3c-3.835,0-5.668,1.742-7.8,3.758-2.169,2.056-4.627,4.386-9.379,4.386" transform="translate(2.816 37.231)" fill="#7d3a1b"/>
              <path id="Trazado_873376" data-name="Trazado 873376" d="M85.879,10.449c-4.752,0-7.213-2.33-9.379-4.39C74.371,4.043,72.538,2.3,68.7,2.3s-5.668,1.738-7.8,3.755c-2.166,2.06-4.624,4.39-9.379,4.39s-7.213-2.33-9.379-4.39C40.018,4.043,38.184,2.3,34.349,2.3s-5.668,1.742-7.794,3.755c-2.17,2.06-4.627,4.39-9.379,4.39s-7.213-2.33-9.383-4.39C5.668,4.043,3.835,2.3,0,2.3V0C4.752,0,7.213,2.33,9.379,4.386c2.129,2.02,3.963,3.758,7.8,3.758s5.668-1.738,7.794-3.758C27.136,2.33,29.6,0,34.349,0s7.213,2.33,9.383,4.386c2.126,2.02,3.959,3.758,7.794,3.758s5.668-1.738,7.8-3.758C61.489,2.33,63.951,0,68.7,0s7.213,2.33,9.379,4.386c2.129,2.02,3.963,3.758,7.8,3.758s5.668-1.738,7.8-3.758C95.846,2.33,98.3,0,103.059,0V2.3c-3.835,0-5.672,1.742-7.8,3.755-2.169,2.06-4.628,4.39-9.379,4.39" transform="translate(1.877 24.821)" fill="#7d3a1b"/>
              <path id="Trazado_873377" data-name="Trazado 873377" d="M85.879,10.449c-4.752,0-7.213-2.33-9.379-4.39C74.371,4.043,72.538,2.3,68.7,2.3s-5.668,1.738-7.8,3.755c-2.166,2.06-4.627,4.39-9.379,4.39s-7.213-2.33-9.379-4.39C40.018,4.043,38.184,2.3,34.349,2.3s-5.668,1.742-7.794,3.755c-2.169,2.06-4.627,4.39-9.379,4.39s-7.213-2.33-9.383-4.39C5.668,4.043,3.835,2.3,0,2.3V0C4.752,0,7.213,2.33,9.379,4.386c2.126,2.02,3.963,3.758,7.8,3.758s5.668-1.738,7.794-3.758C27.136,2.33,29.6,0,34.349,0s7.213,2.33,9.383,4.386c2.126,2.02,3.959,3.758,7.794,3.758s5.668-1.738,7.8-3.758C61.489,2.33,63.951,0,68.7,0s7.213,2.33,9.379,4.386c2.129,2.02,3.963,3.758,7.8,3.758s5.668-1.738,7.8-3.758C95.846,2.33,98.3,0,103.059,0V2.3c-3.835,0-5.672,1.742-7.8,3.755-2.169,2.06-4.627,4.39-9.379,4.39" transform="translate(0.939 12.41)" fill="#7d3a1b"/>
              <path id="Trazado_873378" data-name="Trazado 873378" d="M85.879,10.445c-4.752,0-7.21-2.33-9.379-4.386C74.371,4.043,72.538,2.3,68.7,2.3s-5.668,1.738-7.794,3.755c-2.169,2.056-4.627,4.386-9.383,4.386s-7.21-2.33-9.379-4.386C40.018,4.043,38.184,2.3,34.349,2.3s-5.668,1.738-7.794,3.751c-2.166,2.06-4.627,4.39-9.379,4.39S9.963,8.115,7.794,6.059C5.668,4.043,3.835,2.3,0,2.3V0C4.752,0,7.213,2.33,9.379,4.386c2.129,2.016,3.963,3.755,7.8,3.755S22.845,6.4,24.971,4.386C27.14,2.33,29.6,0,34.349,0s7.21,2.33,9.383,4.386c2.126,2.016,3.959,3.755,7.794,3.755s5.668-1.738,7.8-3.755C61.493,2.33,63.951,0,68.7,0s7.21,2.33,9.379,4.386c2.129,2.016,3.963,3.755,7.8,3.755s5.668-1.738,7.8-3.755C95.846,2.33,98.3,0,103.059,0V2.3c-3.839,0-5.672,1.738-7.8,3.755-2.169,2.056-4.627,4.386-9.379,4.386" transform="translate(0 0.004)" fill="#7d3a1b"/>
            </g>
          </g>
        </g>
        <path id="Trazado_873425" data-name="Trazado 873425" d="M57.977,0A57.977,57.977,0,1,1,0,57.977,57.977,57.977,0,0,1,57.977,0Z" transform="translate(17.221 20.665)" fill="#efb499"/>
        <circle id="Elipse_11503" data-name="Elipse 11503" cx="60.5" cy="60.5" r="60.5" transform="translate(8.957 8.957)" fill="#fff"/>
      </g>
    </g>
    <g id="Grupo_1099575" data-name="Grupo 1099575" transform="translate(413 -2195.119)">
      <g id="Grupo_1099389" data-name="Grupo 1099389" transform="translate(347.893 6422.863)">
        <rect id="Rectángulo_401104" data-name="Rectángulo 401104" width="78" height="79" transform="translate(0.107 0.256)" fill="none"/>
      </g>
      <g id="Grupo_1099581" data-name="Grupo 1099581" transform="translate(348 6429.119)">
        <g id="Grupo_1104131" data-name="Grupo 1104131" transform="translate(-2 -12.724)">
          <path id="Trazado_895170" data-name="Trazado 895170" d="M2.224,70.233A1.3,1.3,0,0,0,3.3,70.8H77.66a1.3,1.3,0,0,0,1.206-1.784L63.916,31.71l-.016-.039c0-.012-.014-.018-.02-.03a1.282,1.282,0,0,0-.109-.215,1.311,1.311,0,0,0-.13-.143c-.018-.02-.034-.042-.052-.06a1.3,1.3,0,0,0-.359-.243c-.027-.013-.056-.022-.084-.032a1.3,1.3,0,0,0-.4-.086H18.271a1.3,1.3,0,0,0-1.206.816L2.094,69.02a1.3,1.3,0,0,0,.13,1.213ZM6.61,64.741H48.227L46.838,68.2H5.221ZM62.69,35.651l13.02,32.47C73.651,66.643,64.481,59.662,64,52.1v-1.27a1.3,1.3,0,0,0-2.6-.079,11.821,11.821,0,0,0,0,1.424V68.2H49.64l1.69-4.231c.009-.02.016-.038.023-.057ZM71.569,68.2H63.99v-8.45A36.343,36.343,0,0,0,71.57,68.2ZM19.15,33.458H60.768l-11.5,28.683H7.652Z" transform="translate(0 8.534)" fill="#6a4d23"/>
          <path id="Trazado_895171" data-name="Trazado 895171" d="M17.9,52.78H35.883a1.3,1.3,0,0,0,1.184-.766l6.69-14.806a1.3,1.3,0,0,0-1.184-1.836H24.586a1.3,1.3,0,0,0-1.184.764L16.711,50.944a1.3,1.3,0,0,0,1.184,1.836Zm7.53-14.807H40.559L35.043,50.18H19.91Z" transform="translate(4.379 9.888)" fill="#6a4d23"/>
          <path id="Trazado_895172" data-name="Trazado 895172" d="M68.139,14.4a1.3,1.3,0,0,0,.5-1.474,1.277,1.277,0,0,0-1.271-.9,3.908,3.908,0,0,1-3.791-5.218,1.3,1.3,0,0,0-2.024-1.466A3.91,3.91,0,0,1,55.42,3.346a1.3,1.3,0,0,0-2.493,0,3.91,3.91,0,0,1-6.135,1.993,1.3,1.3,0,0,0-2.007,1.466,3.909,3.909,0,0,1-3.8,5.218,1.3,1.3,0,0,0-.771,2.373,3.908,3.908,0,0,1,0,6.449,1.3,1.3,0,0,0-.5,1.474,1.283,1.283,0,0,0,1.273.9,3.908,3.908,0,0,1,3.8,5.217A1.3,1.3,0,0,0,46.8,29.9a3.91,3.91,0,0,1,6.135,1.993,1.3,1.3,0,0,0,2.493,0A3.91,3.91,0,0,1,61.555,29.9a1.3,1.3,0,0,0,2.019-1.466,3.855,3.855,0,0,1,.52-3.608,3.809,3.809,0,0,1,3.272-1.609,1.273,1.273,0,0,0,1.271-.9,1.3,1.3,0,0,0-.5-1.474,3.909,3.909,0,0,1,0-6.449Zm-3.3,6.687a6.5,6.5,0,0,0-4.069,5.6,6.514,6.514,0,0,0-6.588,2.141,6.516,6.516,0,0,0-6.587-2.141,6.517,6.517,0,0,0-4.07-5.6,6.513,6.513,0,0,0,0-6.926,6.51,6.51,0,0,0,4.07-5.6,6.513,6.513,0,0,0,6.587-2.141,6.514,6.514,0,0,0,6.588,2.141,6.5,6.5,0,0,0,4.069,5.6A6.52,6.52,0,0,0,64.836,21.083Z" transform="translate(11.295)" fill="#6a4d23"/>
          <path id="Trazado_895173" data-name="Trazado 895173" d="M52.675,7.942a8.02,8.02,0,1,0,8.026,8.02A8.02,8.02,0,0,0,52.675,7.942Zm0,13.439a5.42,5.42,0,1,1,5.426-5.42A5.42,5.42,0,0,1,52.675,21.381Z" transform="translate(12.799 1.658)" fill="#6a4d23"/>
        </g>
      </g>
    </g>
  </g>
</svg>
