<svg xmlns="http://www.w3.org/2000/svg" xmlns:xlink="http://www.w3.org/1999/xlink" width="121" height="121" viewBox="0 0 121 121">
  <defs>
    <clipPath id="clip-path">
      <rect id="Rectángulo_400938" data-name="Rectángulo 400938" width="121" height="121" transform="translate(0 0)" fill="none"/>
    </clipPath>
    <clipPath id="clip-path-2">
      <rect id="Rectángulo_401073" data-name="Rectángulo 401073" width="92.219" height="41.532" fill="#efb499"/>
    </clipPath>
  </defs>
  <g id="Grupo_1104644" data-name="Grupo 1104644" transform="translate(-1090.496 -1456.7)">
    <g id="Grupo_1104202" data-name="Grupo 1104202" transform="translate(702.828 -4556.3)">
      <rect id="Rectángulo_401103" data-name="Rectángulo 401103" width="121" height="121" transform="translate(387.668 6013)" fill="none"/>
      <g id="Grupo_1099348" data-name="Grupo 1099348" transform="translate(387.668 6013)">
        <g id="Grupo_1099282" data-name="Grupo 1099282">
          <g id="Grupo_1099281" data-name="Grupo 1099281" clip-path="url(#clip-path-2)">
            <path id="Trazado_873375" data-name="Trazado 873375" d="M74.8,9.1c-4.139,0-6.28-2.03-8.17-3.821-1.855-1.756-3.452-3.274-6.792-3.274s-4.937,1.517-6.792,3.274C51.161,7.072,49.023,9.1,44.881,9.1s-6.28-2.03-8.169-3.821C34.857,3.525,33.26,2.007,29.92,2.007s-4.937,1.517-6.789,3.274C21.241,7.072,19.1,9.1,14.962,9.1S8.679,7.072,6.789,5.281C4.937,3.525,3.34,2.007,0,2.007V0C4.139,0,6.28,2.033,8.17,3.821c1.855,1.759,3.452,3.274,6.792,3.274S19.9,5.58,21.75,3.824C23.637,2.033,25.781,0,29.92,0s6.283,2.033,8.17,3.821c1.855,1.759,3.452,3.274,6.792,3.274s4.937-1.514,6.792-3.274C53.56,2.033,55.7,0,59.843,0s6.283,2.033,8.17,3.821C69.867,5.58,71.464,7.094,74.8,7.094S79.742,5.58,81.6,3.821C83.483,2.033,85.624,0,89.766,0V2.007c-3.34,0-4.937,1.517-6.792,3.274C81.084,7.072,78.943,9.1,74.8,9.1" transform="translate(2.453 32.43)" fill="#efb499"/>
            <path id="Trazado_873376" data-name="Trazado 873376" d="M74.8,9.1c-4.139,0-6.283-2.03-8.17-3.824-1.855-1.756-3.452-3.27-6.792-3.27s-4.937,1.514-6.792,3.27C51.164,7.072,49.023,9.1,44.881,9.1s-6.283-2.03-8.17-3.824c-1.855-1.756-3.452-3.27-6.792-3.27s-4.937,1.517-6.789,3.27C21.241,7.072,19.1,9.1,14.962,9.1S8.679,7.072,6.789,5.278C4.937,3.522,3.34,2.007,0,2.007V0C4.139,0,6.283,2.03,8.17,3.821c1.855,1.759,3.452,3.274,6.792,3.274S19.9,5.58,21.75,3.821C23.637,2.03,25.781,0,29.92,0S36.2,2.03,38.093,3.821c1.852,1.759,3.449,3.274,6.789,3.274s4.937-1.514,6.792-3.274C53.56,2.03,55.7,0,59.843,0s6.283,2.03,8.17,3.821C69.867,5.58,71.464,7.094,74.8,7.094S79.742,5.58,81.6,3.821C83.486,2.03,85.627,0,89.769,0V2.007c-3.34,0-4.94,1.517-6.8,3.27C81.084,7.072,78.943,9.1,74.8,9.1" transform="translate(1.635 21.62)" fill="#efb499"/>
            <path id="Trazado_873377" data-name="Trazado 873377" d="M74.8,9.1c-4.139,0-6.283-2.03-8.169-3.824-1.855-1.756-3.452-3.27-6.792-3.27s-4.937,1.514-6.792,3.27C51.164,7.072,49.02,9.1,44.881,9.1s-6.283-2.03-8.17-3.824c-1.855-1.756-3.452-3.27-6.792-3.27s-4.937,1.517-6.789,3.27C21.241,7.072,19.1,9.1,14.962,9.1S8.678,7.072,6.789,5.278C4.937,3.522,3.34,2.007,0,2.007V0C4.139,0,6.283,2.03,8.169,3.821c1.851,1.759,3.452,3.274,6.792,3.274S19.9,5.58,21.75,3.821C23.637,2.03,25.781,0,29.92,0S36.2,2.03,38.093,3.821c1.852,1.759,3.449,3.274,6.789,3.274s4.937-1.514,6.792-3.274C53.56,2.03,55.7,0,59.843,0s6.283,2.03,8.17,3.821C69.867,5.58,71.464,7.094,74.8,7.094S79.742,5.58,81.6,3.821C83.486,2.03,85.624,0,89.769,0V2.007c-3.34,0-4.941,1.517-6.8,3.27C81.084,7.072,78.943,9.1,74.8,9.1" transform="translate(0.818 10.81)" fill="#efb499"/>
            <path id="Trazado_873378" data-name="Trazado 873378" d="M74.8,9.1c-4.139,0-6.28-2.03-8.17-3.821-1.855-1.756-3.452-3.27-6.792-3.27s-4.937,1.514-6.789,3.27C51.164,7.069,49.023,9.1,44.881,9.1s-6.28-2.03-8.169-3.821c-1.855-1.756-3.452-3.27-6.792-3.27s-4.937,1.514-6.789,3.267C21.245,7.069,19.1,9.1,14.962,9.1S8.678,7.069,6.789,5.278C4.937,3.522,3.34,2.007,0,2.007V0C4.139,0,6.283,2.03,8.17,3.821c1.855,1.756,3.452,3.27,6.792,3.27S19.9,5.577,21.75,3.821C23.64,2.03,25.781,0,29.92,0s6.28,2.03,8.173,3.821c1.852,1.756,3.449,3.27,6.789,3.27s4.937-1.514,6.792-3.27C53.563,2.03,55.7,0,59.843,0s6.28,2.03,8.17,3.821c1.855,1.756,3.452,3.27,6.792,3.27s4.937-1.514,6.792-3.27C83.486,2.03,85.627,0,89.769,0V2.007c-3.344,0-4.941,1.514-6.8,3.27C81.084,7.069,78.943,9.1,74.8,9.1" transform="translate(0 0.003)" fill="#efb499"/>
          </g>
        </g>
      </g>
      <circle id="Elipse_11504" data-name="Elipse 11504" cx="50.5" cy="50.5" r="50.5" transform="translate(402.668 6031)" fill="#ffce73"/>
      <circle id="Elipse_11503" data-name="Elipse 11503" cx="52.5" cy="52.5" r="52.5" transform="translate(395.668 6021)" fill="#f3f9ff"/>
    </g>
    <g id="Grupo_1104205" data-name="Grupo 1104205" transform="translate(1116.438 1482.504)">
      <rect id="Rectángulo_401104" data-name="Rectángulo 401104" width="68" height="69" transform="translate(0.059 -0.804)" fill="none"/>
      <g id="Grupo_1104545" data-name="Grupo 1104545" transform="translate(-33.211 -34.666)">
        <path id="Trazado_895744" data-name="Trazado 895744" d="M95.374,162.546h44.6a2.892,2.892,0,0,1,2.883,2.883v30.227a2.892,2.892,0,0,1-2.883,2.883h-44.6a2.892,2.892,0,0,1-2.883-2.883V165.429A2.892,2.892,0,0,1,95.374,162.546Z" transform="translate(-47.047 -106.061)" fill="#ffe9df" fill-rule="evenodd"/>
        <path id="Trazado_895745" data-name="Trazado 895745" d="M207.57,380.233h6.883v10.379H207.57Z" transform="translate(-145.995 -293.234)" fill="#e33f65" fill-rule="evenodd"/>
        <path id="Trazado_895746" data-name="Trazado 895746" d="M287.636,294.583h6.883v22.384h-6.883Z" transform="translate(-214.838 -219.59)" fill="#4187b5" fill-rule="evenodd"/>
        <path id="Trazado_895747" data-name="Trazado 895747" d="M367.7,209.237h6.883v34.347H367.7Z" transform="translate(-283.682 -146.207)" fill="#19cfba" fill-rule="evenodd"/>
        <path id="Trazado_895748" data-name="Trazado 895748" d="M40.642,75.546H65.4a2.876,2.876,0,0,1,2.868,2.868v32.1A2.876,2.876,0,0,1,65.4,113.38H40.642a2.876,2.876,0,0,1-2.868-2.868v-32.1A2.876,2.876,0,0,1,40.642,75.546Z" transform="translate(0 -31.256)" fill="#fff" fill-rule="evenodd"/>
        <g id="Grupo_1104544" data-name="Grupo 1104544" transform="translate(42.693 51.791)">
          <path id="Trazado_895749" data-name="Trazado 895749" d="M76.78,129.324a.915.915,0,0,1,1.294,1.294L75.8,132.9a.915.915,0,0,1-1.294,0l-1.367-1.367a.915.915,0,0,1,1.294-1.294l.72.72Z" transform="translate(-72.867 -129.055)" fill="#685e68" fill-rule="evenodd"/>
          <path id="Trazado_895750" data-name="Trazado 895750" d="M76.78,203.281a.915.915,0,0,1,1.294,1.294L75.8,206.853a.915.915,0,0,1-1.294,0l-1.367-1.367a.915.915,0,0,1,1.294-1.294l.72.72Z" transform="translate(-72.867 -192.646)" fill="#685e68" fill-rule="evenodd"/>
          <path id="Trazado_895751" data-name="Trazado 895751" d="M76.78,277.238a.915.915,0,0,1,1.294,1.294L75.8,280.81a.915.915,0,0,1-1.294,0l-1.367-1.367a.915.915,0,0,1,1.294-1.294l.72.72Z" transform="translate(-72.867 -256.236)" fill="#685e68" fill-rule="evenodd"/>
          <path id="Trazado_895752" data-name="Trazado 895752" d="M133.857,147.14a.915.915,0,0,1,0-1.831h10.592a.915.915,0,0,1,0,1.831Z" transform="translate(-124.521 -143.031)" fill="#685e68" fill-rule="evenodd"/>
          <path id="Trazado_895753" data-name="Trazado 895753" d="M133.857,221.1a.915.915,0,1,1,0-1.831h10.592a.915.915,0,0,1,0,1.831Z" transform="translate(-124.521 -206.621)" fill="#685e68" fill-rule="evenodd"/>
          <path id="Trazado_895754" data-name="Trazado 895754" d="M133.857,295.054a.915.915,0,1,1,0-1.831h10.592a.915.915,0,1,1,0,1.831Z" transform="translate(-124.521 -270.211)" fill="#685e68" fill-rule="evenodd"/>
        </g>
        <path id="Trazado_895755" data-name="Trazado 895755" d="M110.507,39.195a3.068,3.068,0,0,1,3.067,3.145h2.811V47.7H104.629V42.34h2.811A3.068,3.068,0,0,1,110.507,39.195Z" transform="translate(-57.484)" fill="#397399" fill-rule="evenodd"/>
        <path id="Trazado_895756" data-name="Trazado 895756" d="M83,449.576a.915.915,0,0,1,0-1.831h51.454a.915.915,0,0,1,0,1.831Z" transform="translate(-38.102 -351.283)" fill="#847784" fill-rule="evenodd"/>
      </g>
    </g>
  </g>
</svg>
