<svg xmlns="http://www.w3.org/2000/svg" xmlns:xlink="http://www.w3.org/1999/xlink" width="190" height="134" viewBox="0 0 190 134">
  <defs>
    <clipPath id="clip-path">
      <rect id="Rect치ngulo_402355" data-name="Rect치ngulo 402355" width="87" height="87" transform="translate(342 951)" fill="#fff" stroke="#707070" stroke-width="1"/>
    </clipPath>
  </defs>
  <g id="Grupo_1102652" data-name="Grupo 1102652" transform="translate(-330 -7019)">
    <rect id="Rect치ngulo_402215" data-name="Rect치ngulo 402215" width="190" height="134" transform="translate(330 7019)" fill="none"/>
    <g id="Grupo_1100287" data-name="Grupo 1100287" transform="translate(16 -507)">
      <g id="Grupo_156312" data-name="Grupo 156312" transform="translate(344 7528)">
        <path id="Elipse_5845" data-name="Elipse 5845" d="M65.5,0A65.5,65.5,0,1,1,0,65.5,65.5,65.5,0,0,1,65.5,0Z" transform="translate(0 0)" fill="#ffce73"/>
      </g>
      <g id="Enmascarar_grupo_1098715" data-name="Enmascarar grupo 1098715" transform="translate(24 6599)" clip-path="url(#clip-path)">
        <path id="Trazado_895032" data-name="Trazado 895032" d="M73.875,32.09a3.4,3.4,0,0,0,2.479-1.069c2.326-2.44,6.227-7.328,6.227-12.649a8.925,8.925,0,0,0-5.472-8.338,8.492,8.492,0,0,0-9.534,2.213,9.262,9.262,0,0,0-2.411,6.5c.177,5.175,3.962,9.9,6.2,12.254a3.441,3.441,0,0,0,2.506,1.088ZM69.636,14.247a5.726,5.726,0,0,1,6.419-1.482,6.018,6.018,0,0,1,3.69,5.607c0,4.283-3.392,8.482-5.415,10.6a.65.65,0,0,1-.937-.016C71.44,26.906,68.145,22.838,68,18.647A6.274,6.274,0,0,1,69.636,14.247Zm8.892,4.171a4.661,4.661,0,1,0-4.659,4.8,4.729,4.729,0,0,0,4.659-4.8Zm-6.481,0a1.823,1.823,0,1,1,1.822,1.877,1.85,1.85,0,0,1-1.822-1.877Zm10.8,52.307a1.425,1.425,0,0,0-1.366-1.066H78.948V62.479a1.473,1.473,0,0,0-.609-1.2,1.384,1.384,0,0,0-1.3-.17l-4.113,1.571a14.082,14.082,0,0,0-3.816-5.314h5.585a4.319,4.319,0,0,0,4.255-4.381V40.453a4.319,4.319,0,0,0-4.255-4.381H58.357a7.258,7.258,0,0,0,4.015-3.908,9.339,9.339,0,0,0,.4-6.944,3.4,3.4,0,0,0-2.156-2.32,3.447,3.447,0,0,0-1.831-.025,24.919,24.919,0,0,0,.33-7.316A15.8,15.8,0,0,0,56.745,8.8C53.99,4.747,50.445,3.084,44.1,2.868,38.568,2.679,34.442,3.94,31.87,6.614a9.415,9.415,0,0,0-2.58,5.549c-2.071,1.957-2.316,5.549-.784,10.682a3.347,3.347,0,0,0-1.56.058A3.408,3.408,0,0,0,24.8,25.218a9.344,9.344,0,0,0,.4,6.945,7.26,7.26,0,0,0,4.008,3.909H12.806a4.319,4.319,0,0,0-4.255,4.381V52.987a4.319,4.319,0,0,0,4.255,4.381h5.558a14.1,14.1,0,0,0-3.755,5.316L10.54,61.111a1.384,1.384,0,0,0-1.306.167,1.473,1.473,0,0,0-.61,1.2v7.18H6.017a1.425,1.425,0,0,0-1.366,1.066,21.3,21.3,0,0,0,0,11.193,1.425,1.425,0,0,0,1.366,1.066H8.624v3.544a1.44,1.44,0,0,0,1.418,1.46H77.53a1.44,1.44,0,0,0,1.418-1.46V82.984h2.534a1.425,1.425,0,0,0,1.366-1.066A21.3,21.3,0,0,0,82.848,70.724ZM70.27,63.7l-4.887,1.874.19-7.156a11.061,11.061,0,0,1,4.7,5.282ZM44.2,61.083a1.379,1.379,0,0,0-.832,0l-12.6,3.984.264-10.3.888-.334a16.059,16.059,0,0,0,23.6.13l.993.361.26,10.135ZM33.461,43.706c.191.207.383.4.567.6v3.8a3.481,3.481,0,0,1-2.215,3.262l-.964.364a2.066,2.066,0,0,0-2.319-1.145l-3.687.824a3.814,3.814,0,0,0-2.88,3.045h-.993V38.993h9.577a14.533,14.533,0,0,0,2.916,4.712Zm3.985-29.149c1.378-.645,4.46.413,5.737,1.022a1.381,1.381,0,0,0,1.205,0c1.276-.615,4.361-1.674,5.737-1.022,2.15,1.011,3.846,1.808,3.4,7.654a1.5,1.5,0,0,0,.149.774L55.166,26v7.651a11.79,11.79,0,0,1-3.11,8.046A17.526,17.526,0,0,1,45.6,46.528a6.421,6.421,0,0,1-3.632,0,17.544,17.544,0,0,1-6.456-4.835,11.791,11.791,0,0,1-3.11-8.049V26l1.486-3.011a1.5,1.5,0,0,0,.149-.775c-.44-5.851,1.258-6.643,3.408-7.654ZM62.7,51.406l-3.687-.822a2.078,2.078,0,0,0-2.385,1.285L55.619,51.5a3.219,3.219,0,0,1-2.083-3.036V44.3c.191-.2.381-.388.567-.6a14.526,14.526,0,0,0,2.923-4.712h9.557V54.448H65.59A3.814,3.814,0,0,0,62.7,51.406ZM52.85,53.187a13.325,13.325,0,0,1-18.272-.126A6.5,6.5,0,0,0,36.872,48.1V46.879a14.8,14.8,0,0,0,4.2,2.412,9.177,9.177,0,0,0,5.43,0,14.8,14.8,0,0,0,4.2-2.412v1.583a6.222,6.222,0,0,0,2.151,4.721ZM25.03,66.7l-.308-11.5a.941.941,0,0,1,.725-.949l2.78-.621-.315,12.334-2.628.831Zm34.6-.742-.315-12.325,2.78.619a.944.944,0,0,1,.725.951l-.3,11.455-.3.115ZM76.111,40.453V52.987a1.44,1.44,0,0,1-1.418,1.46h-.63V38.993h.63a1.44,1.44,0,0,1,1.418,1.46Zm-4.884-1.46V54.448H69.419V38.993Zm-11.443-13.3c.1.031.221.231.318.511a6.4,6.4,0,0,1-.284,4.7,4.849,4.849,0,0,1-1.81,2.122v-6.6c.984-.663,1.59-.787,1.776-.732ZM31.468,14.1a1.475,1.475,0,0,0,.618-1.268,6.324,6.324,0,0,1,1.8-4.166C35.85,6.624,39.362,5.635,44,5.786c5.464.185,8.189,1.412,10.415,4.685A12.848,12.848,0,0,1,56.291,15.8a28.253,28.253,0,0,1,.088,3.369A7.587,7.587,0,0,0,51.3,11.9c-2.441-1.148-6.054.146-7.516.77-1.465-.621-5.079-1.919-7.516-.77-3.008,1.414-5.467,3.159-5.091,9.967C30,17.864,30.073,15.082,31.468,14.1ZM27.758,30.9a6.4,6.4,0,0,1-.284-4.7c.1-.279.221-.48.318-.511.18-.055.786.06,1.783.73v6.6A4.851,4.851,0,0,1,27.758,30.9ZM11.388,52.987V40.453a1.44,1.44,0,0,1,1.418-1.46h.672V54.448h-.672A1.44,1.44,0,0,1,11.388,52.987Zm4.927,1.46V38.993h1.814V54.448Zm5.653,3.892.193,7.258-4.9-1.89a11.081,11.081,0,0,1,4.7-5.368ZM7.126,72.58h2.968a3.744,3.744,0,0,1,0,7.485H7.126a18.312,18.312,0,0,1,0-7.484Zm18.11,4.159a1.44,1.44,0,0,0-1.418,1.46v6.864H11.46V82.828a6.7,6.7,0,0,0,0-13.013V64.585l13.279,5.127a1.4,1.4,0,0,0,.915.029l16.715-5.286V85.068H26.655V78.2a1.483,1.483,0,0,0-.413-1.036,1.4,1.4,0,0,0-1-.43ZM45.2,85.063V64.455L60.846,69.4v6.073a1.419,1.419,0,1,0,2.836,0V69.333l12.43-4.755v5.215a6.7,6.7,0,0,0,0,13.055v2.218Zm35.171-5H77.4a3.744,3.744,0,0,1,0-7.485h2.968a18.312,18.312,0,0,1,0,7.489ZM26.655,73.547a1.419,1.419,0,1,1-1.418-1.46A1.44,1.44,0,0,1,26.655,73.547Zm37.028,6.579a1.419,1.419,0,1,1-1.418-1.46,1.44,1.44,0,0,1,1.418,1.46Z" transform="translate(341.097 950.01)" fill="#7d3a1b"/>
      </g>
    </g>
  </g>
</svg>
