<svg xmlns="http://www.w3.org/2000/svg" xmlns:xlink="http://www.w3.org/1999/xlink" width="121" height="121" viewBox="0 0 121 121">
  <defs>
    <clipPath id="clip-path">
      <rect id="Rectángulo_400938" data-name="Rectángulo 400938" width="121" height="121" transform="translate(0 0)" fill="none"/>
    </clipPath>
    <clipPath id="clip-path-2">
      <rect id="Rectángulo_401073" data-name="Rectángulo 401073" width="92.219" height="41.532" fill="#efb499"/>
    </clipPath>
  </defs>
  <g id="Grupo_1104648" data-name="Grupo 1104648" transform="translate(1876 10791.578)">
    <g id="Grupo_1104439" data-name="Grupo 1104439" transform="translate(-2263.668 -16804.578)">
      <rect id="Rectángulo_401103" data-name="Rectángulo 401103" width="121" height="121" transform="translate(387.668 6013)" fill="none"/>
      <g id="Grupo_1099348" data-name="Grupo 1099348" transform="translate(387.668 6013)">
        <g id="Grupo_1099282" data-name="Grupo 1099282">
          <g id="Grupo_1099281" data-name="Grupo 1099281" clip-path="url(#clip-path-2)">
            <path id="Trazado_873375" data-name="Trazado 873375" d="M74.8,9.1c-4.139,0-6.28-2.03-8.17-3.821-1.855-1.756-3.452-3.274-6.792-3.274s-4.937,1.517-6.792,3.274C51.161,7.072,49.023,9.1,44.881,9.1s-6.28-2.03-8.169-3.821C34.857,3.525,33.26,2.007,29.92,2.007s-4.937,1.517-6.789,3.274C21.241,7.072,19.1,9.1,14.962,9.1S8.679,7.072,6.789,5.281C4.937,3.525,3.34,2.007,0,2.007V0C4.139,0,6.28,2.033,8.17,3.821c1.855,1.759,3.452,3.274,6.792,3.274S19.9,5.58,21.75,3.824C23.637,2.033,25.781,0,29.92,0s6.283,2.033,8.17,3.821c1.855,1.759,3.452,3.274,6.792,3.274s4.937-1.514,6.792-3.274C53.56,2.033,55.7,0,59.843,0s6.283,2.033,8.17,3.821C69.867,5.58,71.464,7.094,74.8,7.094S79.742,5.58,81.6,3.821C83.483,2.033,85.624,0,89.766,0V2.007c-3.34,0-4.937,1.517-6.792,3.274C81.084,7.072,78.943,9.1,74.8,9.1" transform="translate(2.453 32.43)" fill="#efb499"/>
            <path id="Trazado_873376" data-name="Trazado 873376" d="M74.8,9.1c-4.139,0-6.283-2.03-8.17-3.824-1.855-1.756-3.452-3.27-6.792-3.27s-4.937,1.514-6.792,3.27C51.164,7.072,49.023,9.1,44.881,9.1s-6.283-2.03-8.17-3.824c-1.855-1.756-3.452-3.27-6.792-3.27s-4.937,1.517-6.789,3.27C21.241,7.072,19.1,9.1,14.962,9.1S8.679,7.072,6.789,5.278C4.937,3.522,3.34,2.007,0,2.007V0C4.139,0,6.283,2.03,8.17,3.821c1.855,1.759,3.452,3.274,6.792,3.274S19.9,5.58,21.75,3.821C23.637,2.03,25.781,0,29.92,0S36.2,2.03,38.093,3.821c1.852,1.759,3.449,3.274,6.789,3.274s4.937-1.514,6.792-3.274C53.56,2.03,55.7,0,59.843,0s6.283,2.03,8.17,3.821C69.867,5.58,71.464,7.094,74.8,7.094S79.742,5.58,81.6,3.821C83.486,2.03,85.627,0,89.769,0V2.007c-3.34,0-4.94,1.517-6.8,3.27C81.084,7.072,78.943,9.1,74.8,9.1" transform="translate(1.635 21.62)" fill="#efb499"/>
            <path id="Trazado_873377" data-name="Trazado 873377" d="M74.8,9.1c-4.139,0-6.283-2.03-8.169-3.824-1.855-1.756-3.452-3.27-6.792-3.27s-4.937,1.514-6.792,3.27C51.164,7.072,49.02,9.1,44.881,9.1s-6.283-2.03-8.17-3.824c-1.855-1.756-3.452-3.27-6.792-3.27s-4.937,1.517-6.789,3.27C21.241,7.072,19.1,9.1,14.962,9.1S8.678,7.072,6.789,5.278C4.937,3.522,3.34,2.007,0,2.007V0C4.139,0,6.283,2.03,8.169,3.821c1.851,1.759,3.452,3.274,6.792,3.274S19.9,5.58,21.75,3.821C23.637,2.03,25.781,0,29.92,0S36.2,2.03,38.093,3.821c1.852,1.759,3.449,3.274,6.789,3.274s4.937-1.514,6.792-3.274C53.56,2.03,55.7,0,59.843,0s6.283,2.03,8.17,3.821C69.867,5.58,71.464,7.094,74.8,7.094S79.742,5.58,81.6,3.821C83.486,2.03,85.624,0,89.769,0V2.007c-3.34,0-4.941,1.517-6.8,3.27C81.084,7.072,78.943,9.1,74.8,9.1" transform="translate(0.818 10.81)" fill="#efb499"/>
            <path id="Trazado_873378" data-name="Trazado 873378" d="M74.8,9.1c-4.139,0-6.28-2.03-8.17-3.821-1.855-1.756-3.452-3.27-6.792-3.27s-4.937,1.514-6.789,3.27C51.164,7.069,49.023,9.1,44.881,9.1s-6.28-2.03-8.169-3.821c-1.855-1.756-3.452-3.27-6.792-3.27s-4.937,1.514-6.789,3.267C21.245,7.069,19.1,9.1,14.962,9.1S8.678,7.069,6.789,5.278C4.937,3.522,3.34,2.007,0,2.007V0C4.139,0,6.283,2.03,8.17,3.821c1.855,1.756,3.452,3.27,6.792,3.27S19.9,5.577,21.75,3.821C23.64,2.03,25.781,0,29.92,0s6.28,2.03,8.173,3.821c1.852,1.756,3.449,3.27,6.789,3.27s4.937-1.514,6.792-3.27C53.563,2.03,55.7,0,59.843,0s6.28,2.03,8.17,3.821c1.855,1.756,3.452,3.27,6.792,3.27s4.937-1.514,6.792-3.27C83.486,2.03,85.627,0,89.769,0V2.007c-3.344,0-4.941,1.514-6.8,3.27C81.084,7.069,78.943,9.1,74.8,9.1" transform="translate(0 0.003)" fill="#efb499"/>
          </g>
        </g>
      </g>
      <circle id="Elipse_11504" data-name="Elipse 11504" cx="50.5" cy="50.5" r="50.5" transform="translate(402.668 6031)" fill="#ffce73"/>
      <circle id="Elipse_11503" data-name="Elipse 11503" cx="52.5" cy="52.5" r="52.5" transform="translate(395.668 6021)" fill="#f3f9ff"/>
    </g>
    <g id="Grupo_1104442" data-name="Grupo 1104442" transform="translate(-1850.059 -10765.774)">
      <rect id="Rectángulo_401104" data-name="Rectángulo 401104" width="68" height="69" transform="translate(0.059 -0.804)" fill="none"/>
      <g id="_16-Eco-friendly" data-name="16-Eco-friendly" transform="translate(-17.683 -18.155)">
        <path id="Trazado_895844" data-name="Trazado 895844" d="M424,24h7.683V39.366h-7.634Z" transform="translate(-352.083)" fill="#09614d"/>
        <path id="Trazado_895845" data-name="Trazado 895845" d="M448,112h1.921v1.921H448Z" transform="translate(-373.202 -77.436)" fill="#519470"/>
        <path id="Trazado_895846" data-name="Trazado 895846" d="M170.471,51.044a6.661,6.661,0,0,1-10.466,1.441h-6.761a2.919,2.919,0,0,1-2.92-2.539L150.3,49.6H139.729a3.845,3.845,0,0,1-3.845-3.844L157.992,40h12.479Z" transform="translate(-98.555 -14.079)" fill="#ffe1b2"/>
        <path id="Trazado_895847" data-name="Trazado 895847" d="M249.921,91.841H248a4.434,4.434,0,0,1,1.107-2.716A3.831,3.831,0,0,1,251.828,88h6.736v1.921h-6.736a1.922,1.922,0,0,0-1.364.564A2.7,2.7,0,0,0,249.921,91.841Z" transform="translate(-197.212 -56.317)" fill="#ffce82"/>
        <path id="Trazado_895848" data-name="Trazado 895848" d="M31.567,375.366H23.884V360h7.634Z" transform="translate(0 -295.664)" fill="#09614d"/>
        <path id="Trazado_895849" data-name="Trazado 895849" d="M47.884,384H49.8v1.921H47.884Z" transform="translate(-21.119 -316.783)" fill="#519470"/>
        <path id="Trazado_895850" data-name="Trazado 895850" d="M87.884,355.361a6.661,6.661,0,0,1,10.466-1.441h6.761a2.919,2.919,0,0,1,2.92,2.539l.021.342h10.575a3.845,3.845,0,0,1,3.845,3.844l-22.108,5.759H87.884Z" transform="translate(-56.317 -288.625)" fill="#ffe1b2"/>
        <path id="Trazado_895851" data-name="Trazado 895851" d="M182.621,395.841h-6.737v-1.921h6.737a1.922,1.922,0,0,0,1.364-.564,2.7,2.7,0,0,0,.543-1.357h1.921a4.436,4.436,0,0,1-1.107,2.716A3.831,3.831,0,0,1,182.621,395.841Z" transform="translate(-133.753 -323.823)" fill="#ffce82"/>
        <path id="Trazado_895852" data-name="Trazado 895852" d="M280,236h1.921v18.727H280Z" transform="translate(-225.37 -186.55)" fill="#519470"/>
        <g id="Grupo_1104626" data-name="Grupo 1104626" transform="translate(43.105 43.207)">
          <path id="Trazado_895853" data-name="Trazado 895853" d="M295.683,264h4.8v1.921A7.683,7.683,0,0,1,292.8,273.6H288v-1.921A7.683,7.683,0,0,1,295.683,264Z" transform="translate(-275.515 -254.396)" fill="#09614d"/>
          <path id="Trazado_895854" data-name="Trazado 895854" d="M293.762,184h2.881v.96a5.762,5.762,0,0,1-5.762,5.762H288v-.96A5.762,5.762,0,0,1,293.762,184Z" transform="translate(-275.515 -184)" fill="#09614d"/>
          <path id="Trazado_895855" data-name="Trazado 895855" d="M0,0H2.881A5.762,5.762,0,0,1,8.643,5.762v.96H5.762A5.762,5.762,0,0,1,0,.96Z" transform="translate(12.485 6.723) rotate(180)" fill="#09614d"/>
          <path id="Trazado_895856" data-name="Trazado 895856" d="M184,264h4.8a7.683,7.683,0,0,1,7.683,7.683V273.6h-4.8A7.683,7.683,0,0,1,184,265.921Z" transform="translate(-184 -254.396)" fill="#09614d"/>
        </g>
      </g>
    </g>
  </g>
</svg>
