<svg xmlns="http://www.w3.org/2000/svg" xmlns:xlink="http://www.w3.org/1999/xlink" width="139" height="139" viewBox="0 0 139 139">
  <defs>
    <clipPath id="clip-path">
      <rect id="Rectángulo_400938" data-name="Rectángulo 400938" width="139" height="139" transform="translate(-0.043 -0.043)" fill="none"/>
    </clipPath>
    <clipPath id="clip-path-2">
      <rect id="Rectángulo_401073" data-name="Rectángulo 401073" width="105.872" height="47.68" fill="#7d3a1b"/>
    </clipPath>
  </defs>
  <g id="Grupo_1103896" data-name="Grupo 1103896" transform="translate(-1150 -4198.881)">
    <g id="Grupo_1099576" data-name="Grupo 1099576" transform="translate(885.043 -1085.076)">
      <g id="Grupo_1099379" data-name="Grupo 1099379" transform="translate(265 5284)">
        <rect id="Rectángulo_401103" data-name="Rectángulo 401103" width="139" height="139" transform="translate(-0.043 -0.043)" fill="none"/>
        <g id="Grupo_1099348" data-name="Grupo 1099348" transform="translate(0)">
          <g id="Grupo_1099282" data-name="Grupo 1099282">
            <g id="Grupo_1099281" data-name="Grupo 1099281" clip-path="url(#clip-path-2)">
              <path id="Trazado_873375" data-name="Trazado 873375" d="M85.879,10.449c-4.752,0-7.21-2.33-9.379-4.386C74.371,4.047,72.538,2.3,68.7,2.3s-5.668,1.742-7.8,3.758c-2.17,2.056-4.624,4.386-9.379,4.386s-7.21-2.33-9.379-4.386C40.018,4.047,38.184,2.3,34.349,2.3s-5.668,1.742-7.794,3.758c-2.17,2.056-4.627,4.386-9.379,4.386S9.963,8.119,7.794,6.063C5.668,4.047,3.835,2.3,0,2.3V0C4.752,0,7.21,2.334,9.379,4.386c2.129,2.02,3.963,3.758,7.8,3.758s5.668-1.738,7.794-3.755C27.136,2.334,29.6,0,34.349,0s7.213,2.334,9.379,4.386c2.129,2.02,3.963,3.758,7.8,3.758s5.668-1.738,7.8-3.758C61.489,2.334,63.951,0,68.7,0s7.213,2.334,9.379,4.386c2.129,2.02,3.963,3.758,7.8,3.758s5.668-1.738,7.8-3.758C95.843,2.334,98.3,0,103.056,0V2.3c-3.835,0-5.668,1.742-7.8,3.758-2.169,2.056-4.627,4.386-9.379,4.386" transform="translate(2.816 37.231)" fill="#7d3a1b"/>
              <path id="Trazado_873376" data-name="Trazado 873376" d="M85.879,10.449c-4.752,0-7.213-2.33-9.379-4.39C74.371,4.043,72.538,2.3,68.7,2.3s-5.668,1.738-7.8,3.755c-2.166,2.06-4.624,4.39-9.379,4.39s-7.213-2.33-9.379-4.39C40.018,4.043,38.184,2.3,34.349,2.3s-5.668,1.742-7.794,3.755c-2.17,2.06-4.627,4.39-9.379,4.39s-7.213-2.33-9.383-4.39C5.668,4.043,3.835,2.3,0,2.3V0C4.752,0,7.213,2.33,9.379,4.386c2.129,2.02,3.963,3.758,7.8,3.758s5.668-1.738,7.794-3.758C27.136,2.33,29.6,0,34.349,0s7.213,2.33,9.383,4.386c2.126,2.02,3.959,3.758,7.794,3.758s5.668-1.738,7.8-3.758C61.489,2.33,63.951,0,68.7,0s7.213,2.33,9.379,4.386c2.129,2.02,3.963,3.758,7.8,3.758s5.668-1.738,7.8-3.758C95.846,2.33,98.3,0,103.059,0V2.3c-3.835,0-5.672,1.742-7.8,3.755-2.169,2.06-4.628,4.39-9.379,4.39" transform="translate(1.877 24.821)" fill="#7d3a1b"/>
              <path id="Trazado_873377" data-name="Trazado 873377" d="M85.879,10.449c-4.752,0-7.213-2.33-9.379-4.39C74.371,4.043,72.538,2.3,68.7,2.3s-5.668,1.738-7.8,3.755c-2.166,2.06-4.627,4.39-9.379,4.39s-7.213-2.33-9.379-4.39C40.018,4.043,38.184,2.3,34.349,2.3s-5.668,1.742-7.794,3.755c-2.169,2.06-4.627,4.39-9.379,4.39s-7.213-2.33-9.383-4.39C5.668,4.043,3.835,2.3,0,2.3V0C4.752,0,7.213,2.33,9.379,4.386c2.126,2.02,3.963,3.758,7.8,3.758s5.668-1.738,7.794-3.758C27.136,2.33,29.6,0,34.349,0s7.213,2.33,9.383,4.386c2.126,2.02,3.959,3.758,7.794,3.758s5.668-1.738,7.8-3.758C61.489,2.33,63.951,0,68.7,0s7.213,2.33,9.379,4.386c2.129,2.02,3.963,3.758,7.8,3.758s5.668-1.738,7.8-3.758C95.846,2.33,98.3,0,103.059,0V2.3c-3.835,0-5.672,1.742-7.8,3.755-2.169,2.06-4.627,4.39-9.379,4.39" transform="translate(0.939 12.41)" fill="#7d3a1b"/>
              <path id="Trazado_873378" data-name="Trazado 873378" d="M85.879,10.445c-4.752,0-7.21-2.33-9.379-4.386C74.371,4.043,72.538,2.3,68.7,2.3s-5.668,1.738-7.794,3.755c-2.169,2.056-4.627,4.386-9.383,4.386s-7.21-2.33-9.379-4.386C40.018,4.043,38.184,2.3,34.349,2.3s-5.668,1.738-7.794,3.751c-2.166,2.06-4.627,4.39-9.379,4.39S9.963,8.115,7.794,6.059C5.668,4.043,3.835,2.3,0,2.3V0C4.752,0,7.213,2.33,9.379,4.386c2.129,2.016,3.963,3.755,7.8,3.755S22.845,6.4,24.971,4.386C27.14,2.33,29.6,0,34.349,0s7.21,2.33,9.383,4.386c2.126,2.016,3.959,3.755,7.794,3.755s5.668-1.738,7.8-3.755C61.493,2.33,63.951,0,68.7,0s7.21,2.33,9.379,4.386c2.129,2.016,3.963,3.755,7.8,3.755s5.668-1.738,7.8-3.755C95.846,2.33,98.3,0,103.059,0V2.3c-3.839,0-5.672,1.738-7.8,3.755-2.169,2.056-4.627,4.386-9.379,4.386" transform="translate(0 0.004)" fill="#7d3a1b"/>
            </g>
          </g>
        </g>
        <path id="Trazado_873425" data-name="Trazado 873425" d="M57.977,0A57.977,57.977,0,1,1,0,57.977,57.977,57.977,0,0,1,57.977,0Z" transform="translate(17.221 20.665)" fill="#ffb937"/>
        <circle id="Elipse_11503" data-name="Elipse 11503" cx="60.5" cy="60.5" r="60.5" transform="translate(8.957 8.957)" fill="#fff"/>
      </g>
    </g>
    <g id="Grupo_1099582" data-name="Grupo 1099582" transform="translate(833 -2195.119)">
      <g id="Grupo_1099389" data-name="Grupo 1099389" transform="translate(347.893 6422.863)">
        <rect id="Rectángulo_401104" data-name="Rectángulo 401104" width="78" height="79" transform="translate(0.107 0.256)" fill="none"/>
      </g>
      <g id="Grupo_1104133" data-name="Grupo 1104133" transform="translate(342.526 6397.519)">
        <g id="Grupo_1104132" data-name="Grupo 1104132" transform="translate(0 27.127)">
          <path id="Trazado_895174" data-name="Trazado 895174" d="M76.168,61.552c0-.018,0-1.234,0-12.507a3.1,3.1,0,0,0,1-2.274V43.078a3.1,3.1,0,0,0-1.019-2.3,14.349,14.349,0,0,0-28.664,0,3.1,3.1,0,0,0-1.019,2.3V46.77a3.1,3.1,0,0,0,1,2.276v3.917A1.244,1.244,0,0,0,48.7,54.208h0a1.244,1.244,0,0,0,1.244-1.244V49.882h1.671a10.568,10.568,0,0,0,3.836,5.584c-.028,2.641.067,2.729-.094,3.153-.412,1.084-1.2.8-5.416,1.992v-1.83A1.244,1.244,0,0,0,48.7,57.537h0a1.244,1.244,0,0,0-1.244,1.244v2.771A15.5,15.5,0,0,0,38.674,75.5v1.961a17.715,17.715,0,0,0-2.667-.737l-2.962-.57a1.552,1.552,0,0,1-1.257-1.522V73.614a13.816,13.816,0,0,0,1.7-1.28,11.38,11.38,0,0,0,3.734-7.276,5.426,5.426,0,0,1,.632-1.925c1.185-2.19.976-4.6,1.543-6.142.916-1.977,1.027-5.026-.41-6.575a4.516,4.516,0,0,0-2.954-4.069,3.953,3.953,0,0,0-3.389-2.734A4.107,4.107,0,0,0,28.418,42.2,4.206,4.206,0,0,0,25.2,41.1,4.2,4.2,0,0,0,21.985,42.2a4.105,4.105,0,0,0-4.227,1.413,3.947,3.947,0,0,0-3.389,2.734,4.516,4.516,0,0,0-2.954,4.069c-1.461,1.575-1.323,4.634-.395,6.611.167.443.547,2.67.644,3.261.483,2.956,1.321,3.03,1.551,4.871A11.378,11.378,0,0,0,17.009,72.4a13.875,13.875,0,0,0,1.606,1.2v1.026a1.542,1.542,0,0,1-1.2,1.508h0L14.4,76.72a17.658,17.658,0,0,0-6.321,2.547,1.244,1.244,0,1,0,1.357,2.086,15.172,15.172,0,0,1,5.435-2.189l2.442-.47a12.263,12.263,0,0,0,8.165,3.1h0a12.263,12.263,0,0,0,8.07-3.008l1.989.383A15.282,15.282,0,0,1,47.915,94.15v3.633a2.8,2.8,0,0,1-2.8,2.8H41.379V96.176a1.244,1.244,0,0,0-2.489,0v4.409H11.485V96.176a1.244,1.244,0,0,0-2.489,0v4.409H5.29a2.8,2.8,0,0,1-2.8-2.8V94.15a15.149,15.149,0,0,1,3.021-9.114,1.244,1.244,0,0,0-2-1.487A17.62,17.62,0,0,0,0,94.15v3.633a5.3,5.3,0,0,0,5.29,5.29H80.341a4.612,4.612,0,0,0,4.607-4.606V75.5a15.5,15.5,0,0,0-8.78-13.944ZM15.3,48.657a2.378,2.378,0,0,0,1.448-1.572,1.462,1.462,0,0,1,1.337-1,2.2,2.2,0,0,0,1.607-.9A1.614,1.614,0,0,1,21.4,44.62a2.383,2.383,0,0,0,2.277-.59,1.827,1.827,0,0,1,1.528-.445,1.869,1.869,0,0,1,1.528.445,2.383,2.383,0,0,0,2.278.589l.015,0a1.821,1.821,0,0,1,1.936.849,2.158,2.158,0,0,0,1.139.59c.2.036,1.284.044,1.56,1.03a2.378,2.378,0,0,0,1.448,1.572,2.048,2.048,0,0,1,1.4,1.89,2.158,2.158,0,0,0,.633,1.532,4.321,4.321,0,0,1,0,3.877c-.668,1.434-.536,4.269-1.476,6.007-.772,1.426-.71,2.465-2.163,3.553l-.025.018a13.859,13.859,0,0,1-16.44.061l-.084-.062c-1.426-1.067-1.5-2.223-2.177-3.489-.885-1.658-.838-4.674-1.494-6.065-.725-1.536-.485-3.416-.008-3.9a2.158,2.158,0,0,0,.633-1.532,2.047,2.047,0,0,1,1.4-1.89Zm1.645,19.852a16.315,16.315,0,0,0,8.319,2.245h.024a16.3,16.3,0,0,0,8.195-2.242,8.441,8.441,0,0,1-1.633,1.954,9.78,9.78,0,0,1-13.212.056A8.449,8.449,0,0,1,16.943,68.509Zm2.919,9.033A4.011,4.011,0,0,0,21.1,74.826a11.989,11.989,0,0,0,8.213.007,4.037,4.037,0,0,0,1.477,2.918A9.793,9.793,0,0,1,19.862,77.542Zm62.6-2.046v6.328H78v-2.5a1.244,1.244,0,0,0-2.489,0v2.5H68.669a57.923,57.923,0,0,0,.2-19.855c2.953.757,3,.771,3.061.783A13,13,0,0,1,82.459,75.5ZM57.487,81.823a55.3,55.3,0,0,1-.861-14.512,15.149,15.149,0,0,0,10.37,0,55.3,55.3,0,0,1-.861,14.512ZM74.051,42.455a.623.623,0,0,1,.622.622V46.77a.623.623,0,0,1-.622.622H72.4c.017-.459,0,.131.008-4.937ZM71.21,52.081c-.014-.039-.027-.079-.043-.118A10.575,10.575,0,0,0,72,49.881h1.673V50.6a1.513,1.513,0,0,1-1.511,1.483Zm-2.291,1.1a.716.716,0,0,1-.715.715H65.366a.715.715,0,0,1,0-1.431H68.2A.716.716,0,0,1,68.918,53.178Zm.406,6.34.017,0a1.457,1.457,0,0,1-1.172-1.405V56.382H68.2a3.2,3.2,0,0,0,2.881-1.812h1.081a3.978,3.978,0,0,0,1.511-.3v6.339c-.017,0-4.337-1.091-4.354-1.094Zm-7.514-29.9A11.89,11.89,0,0,1,73.574,39.967h-2.1a7.506,7.506,0,0,1-3.539-4.353,1.741,1.741,0,0,0-3.179-.311c-2.954,5.315-9.422,4.664-14.711,4.664A11.889,11.889,0,0,1,61.811,29.616ZM49.571,47.392a.623.623,0,0,1-.623-.622V43.078a.623.623,0,0,1,.623-.622h1.646c.008,5.582-.011,4.39.01,4.937Zm4.135-.27V42.455c.594-.1,8.249.828,12.42-4.7a9.958,9.958,0,0,0,3.791,4.186v5.181a8.1,8.1,0,0,1-.645,3.038,3.182,3.182,0,0,0-1.068-.187H65.366a3.2,3.2,0,0,0-2.6,5.065,8.085,8.085,0,0,1-9.057-7.917Zm11.975,9.73c.049,1.487.854,6.1,1.067,7.879a12.614,12.614,0,0,1-9.873,0c.213-1.771,1.018-6.395,1.067-7.875A10.6,10.6,0,0,0,65.68,56.852ZM41.163,78.576V75.5A13,13,0,0,1,51.689,62.751c.06-.012.108-.026,3.061-.783a57.924,57.924,0,0,0,.2,19.855H48.108v-2.5a1.244,1.244,0,0,0-2.489,0v2.5h-.208A17.768,17.768,0,0,0,41.163,78.576Zm41.3,19.891a2.118,2.118,0,0,1-2.118,2.118H49.6a5.257,5.257,0,0,0,.806-2.8V94.15a17.681,17.681,0,0,0-2.591-9.215l-.271-.424a.129.129,0,0,1,.109-.2H82.459Z" transform="translate(0 -27.127)" fill="#6a4d23"/>
          <path id="Trazado_895175" data-name="Trazado 895175" d="M427.433,283.184v1.944A2.575,2.575,0,0,0,430,287.7h3.983a2.575,2.575,0,0,0,2.572-2.572v-1.944a2.575,2.575,0,0,0-2.572-2.572H430A2.575,2.575,0,0,0,427.433,283.184Zm2.489,0A.083.083,0,0,1,430,283.1h3.983a.083.083,0,0,1,.083.083v1.944a.083.083,0,0,1-.083.083H430a.083.083,0,0,1-.083-.083Z" transform="translate(-356.516 -238.555)" fill="#6a4d23"/>
        </g>
      </g>
    </g>
  </g>
</svg>
