<svg xmlns="http://www.w3.org/2000/svg" xmlns:xlink="http://www.w3.org/1999/xlink" width="190" height="134" viewBox="0 0 190 134">
  <defs>
    <clipPath id="clip-path">
      <rect id="Rect치ngulo_402355" data-name="Rect치ngulo 402355" width="87" height="87" transform="translate(342 951)" fill="#fff" stroke="#707070" stroke-width="1"/>
    </clipPath>
  </defs>
  <g id="Grupo_1102652" data-name="Grupo 1102652" transform="translate(-330 -7019)">
    <rect id="Rect치ngulo_402215" data-name="Rect치ngulo 402215" width="190" height="134" transform="translate(330 7019)" fill="none"/>
    <g id="Grupo_1100287" data-name="Grupo 1100287" transform="translate(16 -507)">
      <g id="Grupo_156312" data-name="Grupo 156312" transform="translate(344 7528)">
        <path id="Elipse_5845" data-name="Elipse 5845" d="M65.5,0A65.5,65.5,0,1,1,0,65.5,65.5,65.5,0,0,1,65.5,0Z" transform="translate(0 0)" fill="#ffce73"/>
      </g>
      <g id="Enmascarar_grupo_1098715" data-name="Enmascarar grupo 1098715" transform="translate(24 6599)" clip-path="url(#clip-path)">
        <g id="Grupo_1103994" data-name="Grupo 1103994" transform="translate(346.034 938.853)">
          <path id="Trazado_895016" data-name="Trazado 895016" d="M76.962,84.387a5.609,5.609,0,0,0-5.649-8.675V41.446l5.177,1.423a1.142,1.142,0,1,0,.605-2.2l-5.782-1.589V21.144A1.142,1.142,0,0,0,70.172,20H54.433a1.142,1.142,0,0,0-1.142,1.142V34.126L39.27,30.273a1.143,1.143,0,0,0-.605,0L28.735,33a1.142,1.142,0,0,0,.6,2.2l9.627-2.646L69.03,40.819V61H62.54a1.142,1.142,0,1,0,0,2.283h6.49v2.283H8.905V63.285H57.974a1.142,1.142,0,1,0,0-2.283H8.905V40.819l15.9-4.371a1.142,1.142,0,1,0-.6-2.2L.84,40.668a1.142,1.142,0,1,0,.605,2.2l5.177-1.423V72.626a1.142,1.142,0,0,0,2.283,0V67.851h3.805v7.821a5.692,5.692,0,0,0-.78-.056,5.57,5.57,0,0,0-3.161.973,5.612,5.612,0,0,0-7.8,7.8,5.623,5.623,0,0,0-.507,5.4,1.141,1.141,0,0,0,.676,2.06H45.488a1.142,1.142,0,1,0,0-2.283H29.8a5.645,5.645,0,0,0,.083-3.805H48.05A5.616,5.616,0,0,0,49.4,91.513a1.141,1.141,0,0,0,.807.334H76.794a1.142,1.142,0,0,0,.678-2.06,5.63,5.63,0,0,0-.509-5.4Zm-21.387-62.1H69.03V38.451l-8.889-2.443V31.461h4.322v3.186a1.142,1.142,0,0,0,2.283,0V25.71a1.142,1.142,0,1,0-2.283,0v3.467H60.142V25.71a1.142,1.142,0,0,0-2.283,0v9.671l-2.283-.627ZM69.03,76.5a5.57,5.57,0,0,0-3.025-.888,5.692,5.692,0,0,0-.78.056V67.851H69.03ZM49.4,77.26a5.619,5.619,0,0,0-1.172,6.216H45.437V67.852h6.85v7.873A5.577,5.577,0,0,0,49.4,77.26Zm-20.863,0a5.577,5.577,0,0,0-2.887-1.535V67.852H32.5V83.476H29.708a5.619,5.619,0,0,0-1.172-6.216Zm6.246-9.408h8.372V83.476H34.782Zm19.788,0h8.372v8.677c-.032.021-.065.04-.1.061a5.626,5.626,0,0,0-6.319,0,5.575,5.575,0,0,0-1.956-.841v-7.9Zm-39.576,0h8.372v7.9a5.577,5.577,0,0,0-1.956.841,5.626,5.626,0,0,0-6.319,0c-.032-.022-.065-.04-.1-.061V67.852ZM2.97,89.565a3.32,3.32,0,0,1,.289-4.371,1.141,1.141,0,0,0,0-1.614,3.327,3.327,0,1,1,4.7-4.7,1.141,1.141,0,0,0,1.614,0,3.327,3.327,0,0,1,4.7,0,1.142,1.142,0,0,0,1.614,0,3.331,3.331,0,0,1,4.7,0,1.142,1.142,0,0,0,1.614,0,3.327,3.327,0,0,1,4.705,4.7,1.141,1.141,0,0,0,0,1.614,3.33,3.33,0,0,1,.288,4.371Zm71.708-4.371a3.328,3.328,0,0,1,.293,4.371H50.721a3.332,3.332,0,0,1,.293-4.371,1.141,1.141,0,0,0,0-1.614,3.327,3.327,0,1,1,4.705-4.7,1.141,1.141,0,0,0,1.614,0,3.331,3.331,0,0,1,4.7,0,1.141,1.141,0,0,0,1.614,0,3.327,3.327,0,0,1,4.7,0,1.141,1.141,0,0,0,1.614,0,3.327,3.327,0,1,1,4.7,4.7,1.141,1.141,0,0,0,0,1.614Z" transform="translate(0)" fill="#7d3a1b"/>
          <path id="Trazado_895017" data-name="Trazado 895017" d="M95.3,162.5H84.644a1.142,1.142,0,0,0-1.142,1.142v14.743a1.142,1.142,0,0,0,1.142,1.142H95.3a1.142,1.142,0,0,0,1.142-1.142V163.641A1.142,1.142,0,0,0,95.3,162.5Zm-1.142,14.743H85.785v-12.46h8.372Z" transform="translate(-70.791 -120.807)" fill="#7d3a1b"/>
          <path id="Trazado_895018" data-name="Trazado 895018" d="M225.3,179.525a1.142,1.142,0,0,0,1.142-1.142V163.641A1.142,1.142,0,0,0,225.3,162.5H214.644a1.142,1.142,0,0,0-1.142,1.142v14.743a1.142,1.142,0,0,0,1.142,1.142Zm-9.513-14.743h8.372v12.46h-8.372Z" transform="translate(-181.003 -120.807)" fill="#7d3a1b"/>
          <path id="Trazado_895019" data-name="Trazado 895019" d="M355.3,179.525a1.142,1.142,0,0,0,1.142-1.142V163.641A1.142,1.142,0,0,0,355.3,162.5H344.644a1.142,1.142,0,0,0-1.142,1.142v14.743a1.142,1.142,0,0,0,1.142,1.142Zm-9.513-14.743h8.372v12.46h-8.372Z" transform="translate(-291.215 -120.807)" fill="#7d3a1b"/>
          <path id="Trazado_895020" data-name="Trazado 895020" d="M127.8,421.661a1.141,1.141,0,0,0-1.614,0l-.3.3-.3-.3a1.142,1.142,0,0,0-1.614,1.614l.3.3-.3.3a1.142,1.142,0,1,0,1.614,1.614l.3-.3.3.3a1.142,1.142,0,0,0,1.614-1.614l-.3-.3.3-.3a1.141,1.141,0,0,0,0-1.614Z" transform="translate(-104.819 -340.236)" fill="#7d3a1b"/>
          <path id="Trazado_895021" data-name="Trazado 895021" d="M87.8,435.661a1.141,1.141,0,0,0-1.614,0l-.3.3-.3-.3a1.142,1.142,0,0,0-1.614,1.614l.3.3-.3.3a1.142,1.142,0,1,0,1.614,1.614l.3-.3.3.3a1.142,1.142,0,0,0,1.614-1.614l-.3-.3.3-.3A1.141,1.141,0,0,0,87.8,435.661Z" transform="translate(-70.908 -352.105)" fill="#7d3a1b"/>
          <path id="Trazado_895022" data-name="Trazado 895022" d="M37.8,421.661a1.141,1.141,0,0,0-1.614,0l-.3.3-.3-.3a1.142,1.142,0,0,0-1.614,1.614l.3.3-.3.3a1.142,1.142,0,1,0,1.614,1.614l.3-.3.3.3a1.142,1.142,0,1,0,1.614-1.614l-.3-.3.3-.3A1.141,1.141,0,0,0,37.8,421.661Z" transform="translate(-28.519 -340.236)" fill="#7d3a1b"/>
          <path id="Trazado_895023" data-name="Trazado 895023" d="M363,421.661a1.141,1.141,0,0,0-1.614,0l-.3.3-.3-.3a1.142,1.142,0,0,0-1.614,1.614l.3.3-.3.3a1.142,1.142,0,1,0,1.614,1.614l.3-.3.3.3A1.142,1.142,0,1,0,363,423.871l-.3-.3.3-.3A1.141,1.141,0,0,0,363,421.661Z" transform="translate(-304.221 -340.236)" fill="#7d3a1b"/>
          <path id="Trazado_895024" data-name="Trazado 895024" d="M403,435.661a1.141,1.141,0,0,0-1.614,0l-.3.3-.3-.3a1.142,1.142,0,0,0-1.614,1.614l.3.3-.3.3a1.142,1.142,0,1,0,1.614,1.614l.3-.3.3.3A1.142,1.142,0,1,0,403,437.871l-.3-.3.3-.3A1.141,1.141,0,0,0,403,435.661Z" transform="translate(-338.133 -352.105)" fill="#7d3a1b"/>
          <path id="Trazado_895025" data-name="Trazado 895025" d="M453,421.661a1.141,1.141,0,0,0-1.614,0l-.3.3-.3-.3a1.142,1.142,0,0,0-1.614,1.614l.3.3-.3.3a1.142,1.142,0,1,0,1.614,1.614l.3-.3.3.3A1.142,1.142,0,0,0,453,423.871l-.3-.3.3-.3a1.141,1.141,0,0,0,0-1.614Z" transform="translate(-380.522 -340.236)" fill="#7d3a1b"/>
        </g>
      </g>
    </g>
  </g>
</svg>
