<svg xmlns="http://www.w3.org/2000/svg" width="70" height="70" viewBox="0 0 70 70">
  <g id="Grupo_1103960" data-name="Grupo 1103960" transform="translate(-300 -6501)">
    <g id="Grupo_1099486" data-name="Grupo 1099486" transform="translate(31 5543)">
      <circle id="Elipse_5614" data-name="Elipse 5614" cx="35" cy="35" r="35" transform="translate(269 958)" fill="#fff"/>
    </g>
    <path id="Trazado_895273" data-name="Trazado 895273" d="M23.089,58.074a.532.532,0,0,1-.127.733l-8.2,5.791a.523.523,0,0,1-.733-.127L12.06,61.685a.527.527,0,0,1,.118-.724.474.474,0,0,0,.235-.09L20.1,55.387a1.835,1.835,0,0,1,.28-.235.523.523,0,0,1,.733.127Zm-3.9-3.312-.8-2.181a3.568,3.568,0,0,0-1.674-1.936c-.28-.127-6.27-3.4-6.7-3.637-1.448-.778-2.307.887-1.466,2.018a2,2,0,0,0,.633.57l3.963,2.181a.51.51,0,0,1-.489.9l-3.972-2.19a3.287,3.287,0,0,1-1.574-2.47L4.26,36c-.253-1.33-2.38-1.891-2.362-.172l.742,12.993a3.891,3.891,0,0,0,1.077,2.407c1.972,2.144,6.3,6.487,8.415,8.532Zm26.33-18.757c-.262.706-2.977,13.491-3.456,13.608a2.987,2.987,0,0,1-.977.869l-3.963,2.19a.51.51,0,0,1-.489-.9L40.6,49.6c.977-.461,1.439-2.217.28-2.705a1.364,1.364,0,0,0-1.113.118l-6.7,3.637c-1.5.679-1.927,2.723-2.47,4.117l7.067,4.995c2.117-2.045,6.451-6.388,8.415-8.532a3.891,3.891,0,0,0,1.077-2.407L47.9,35.825c.009-1.71-2.126-1.149-2.38.181ZM37.367,60.879,29.676,55.4c-.271-.308-.733-.516-1.022-.109l-1.972,2.787a.53.53,0,0,0,.118.733L35,64.6a.523.523,0,0,0,.733-.127L37.7,61.685a.529.529,0,0,0-.118-.724.382.382,0,0,1-.217-.081ZM33.5,31.365c.009,0,.009,0,.009.009a3.413,3.413,0,1,0-.009-.009Zm-1.782,10.36a18.273,18.273,0,0,0,8.143-6.234,4.657,4.657,0,0,0-2.325-3.14,4.243,4.243,0,0,1-4.352,0A4.5,4.5,0,0,0,31.576,33.8C31.848,34.73,31.676,40.657,31.721,41.725Zm-4.28-12.369a.009.009,0,0,1,.009-.009,3.879,3.879,0,0,0,1.6-3.113,3.827,3.827,0,1,0-1.611,3.122Zm-10.5,2.009a3.189,3.189,0,1,0-5.04-2.6A3.207,3.207,0,0,0,16.946,31.365Zm1.782,10.36c.045-1.031-.127-7.03.154-7.917a4.578,4.578,0,0,0-1.611-1.448,4.305,4.305,0,0,1-4.352,0,4.584,4.584,0,0,0-2.325,3.14A18.244,18.244,0,0,0,18.728,41.725Zm11.98-6.515a5.48,5.48,0,0,0-2.941-4.85,4.853,4.853,0,0,1-5.085-.009,5.525,5.525,0,0,0-2.941,4.859v6.877a18.356,18.356,0,0,0,10.966,0Z" transform="translate(311.101 6492.434)" fill="#6a4d23"/>
  </g>
</svg>
